<?xml version="1.0" encoding="UTF-8" standalone="no"?>
<!DOCTYPE svg PUBLIC "-//W3C//DTD SVG 1.1//EN" "http://www.w3.org/Graphics/SVG/1.1/DTD/svg11.dtd">
<svg width="100%" height="100%" viewBox="0 0 24 24" version="1.1" xmlns="http://www.w3.org/2000/svg" xmlns:xlink="http://www.w3.org/1999/xlink" xml:space="preserve" xmlns:serif="http://www.serif.com/" style="fill-rule:evenodd;clip-rule:evenodd;stroke-linejoin:round;stroke-miterlimit:2;">
    <rect id="view-box" x="0" y="0" width="24" height="24" style="fill:rgb(20,17,36);fill-opacity:0;"/>
    <g id="Shape" transform="matrix(1,0,0,1,7.74962,7.25)">
        <path d="M10.22,9.28C9.929,8.989 9.929,8.511 10.22,8.22L12.94,5.5L-6.25,5.5C-6.661,5.5 -7,5.161 -7,4.75C-7,4.339 -6.661,4 -6.25,4L12.938,4L10.22,1.281C10.079,1.14 10,0.949 10,0.75C10,0.339 10.339,0 10.75,0C10.949,0 11.14,0.079 11.281,0.22L15.281,4.22C15.422,4.36 15.501,4.551 15.501,4.75C15.501,4.949 15.422,5.14 15.281,5.28L11.281,9.28C11.14,9.421 10.949,9.5 10.751,9.5C10.552,9.5 10.361,9.421 10.22,9.28Z" style="fill:currentColor;fill-rule:nonzero;"/>
    </g>
</svg>
