<?xml version="1.0" encoding="UTF-8"?>
<svg width="128px" height="128px" viewBox="0 0 128 128" version="1.1" xmlns="http://www.w3.org/2000/svg" xmlns:xlink="http://www.w3.org/1999/xlink">
    <title>Artboard</title>
    <g id="Artboard" stroke="none" stroke-width="1" fill="none" fill-rule="evenodd">
        <path d="M76,6 C81.5228475,6 86,10.4771525 86,16 L86,38 L52,38 C44.2680135,38 38,44.2680135 38,52 L38,86 L16,86 C10.4771525,86 6,81.5228475 6,76 L6,16 C6,10.4771525 10.4771525,6 16,6 L76,6 Z" id="Combined-Shape" fill="#9C7A97"></path>
        <path d="M112,42 C117.522847,42 122,46.4771525 122,52 L122,112 C122,117.522847 117.522847,122 112,122 L52,122 C46.4771525,122 42,117.522847 42,112 L42,90 L76,90 C83.7319865,90 90,83.7319865 90,76 L90,42 L112,42 Z" id="Combined-Shape" fill="#71B8C5"></path>
        <path d="M86,42 L86,76 C86,81.5228475 81.5228475,86 76,86 L42,86 L42,52 C42,46.4771525 46.4771525,42 52,42 L86,42 Z" id="Combined-Shape" fill="#455874"></path>
    </g>
</svg>