<svg height="287" viewBox="0 0 304 287" width="304" xmlns="http://www.w3.org/2000/svg"><g fill="none" opacity=".1"><path d="m46.7884811 30 16.2115189 78h-39l16.2049222-78z" fill="#f9f9f9"/><path d="m63.7370004 108h-39.4873592c-.0753661 0-.1469616-.032523-.1944404-.090358-.0474787-.057835-.06565-.133916-.0493499-.206621l16.4074252-77.5050406c.02249-.1153386.1249093-.1979804.2437903-.1979804h6.679188c.1192118 0 .2220334.0828339.2471299.1979804l16.4107648 77.5050406c.0163001.072705-.0018712.148786-.0493499.206621-.0474788.057835-.1190743.090358-.1944404.090358zm-39.1767769-.494957h38.8661947l-16.3072374-77.0100957h-6.2583991z" fill="#000"/><path d="m16.7211464 234.644178c-.0102303-11.706456 2.1690542-23.312624 6.4266007-34.226008l18.8522529-48.41817h-17.6664715l-17.03516829 43.779383c-11.28915373 28.997814-9.41208997 61.436819 5.14729299 88.95439l1.1991422 2.266227h18.4080024l-4.3623391-8.250794c-7.1862532-13.603511-10.9501912-28.737422-10.9693123-44.105028z" fill="#ff9622"/><path d="m80.7010593 195.788364-17.0465446-43.788364h-17.6545147l18.8403903 48.426694c9.9408992 25.532072 8.2890952 54.09345-4.5297109 78.323324l-4.3660266 8.249982h18.4094665l1.1992376-2.266004c14.560541-27.514862 16.437754-59.950673 5.1477024-88.945632z" fill="#ff9622"/><path d="m63.8773547 111.205561c.6333314 5.741797-1.2058775 11.481977-5.061185 15.795982-2.377572 2.583601-3.0868039 6.283555-1.8322092 9.558354 1.1823946 3.003673 3.1251393 7.889648 6.3943098 16.440103h-17.1731936l-2.6997453-6.958509-2.7030948 6.958509h-17.1832422c3.27252-8.550455 5.2152647-13.446442 6.3976594-16.446777 1.2656594-3.232758.5843921-6.900848-1.758519-9.468245-5.9308098-6.570156-6.948567-16.195324-2.522166-23.852715 4.426401-7.6573912 13.2929966-11.6102113 21.9728494-9.7957241 8.6798529 1.8144873 15.2042627 8.9847331 16.1685365 17.7690221z" fill="#f9f9f9"/><path d="m63.4942434 153h-17.4985113l-2.49506-6.468455-2.5016783 6.465145h-17.5051295l.1290548-.331037c2.9020792-7.613841 4.7287014-12.248354 5.9398313-15.340235l.3805463-.976558c1.2227372-3.117453.5683109-6.659128-1.6876401-9.1333-5.9286527-6.595908-6.94541-16.257629-2.5197632-23.944014 4.4256468-7.6863837 13.2900858-11.6543752 21.9681604-9.8336138 8.6780745 1.8207614 15.2018419 9.0173788 16.1674268 17.8349058.650744 5.76548-1.1900995 11.534622-5.0596111 15.856653-2.2873898 2.494162-2.9701611 6.066949-1.7637494 9.2293l.3507644.90373c1.21113 3.07864 3.0410613 7.729704 5.9563768 15.389891zm-17.1576742-.509796h16.4362908c-2.8425154-7.458255-4.6327375-12.016628-5.8273219-15.048924l-.3606917-.916971c-1.2760218-3.335991-.5572273-7.106942 1.8564041-9.739096 3.7765889-4.219564 5.5728587-9.851317 4.9371745-15.479271-.9352564-8.611245-7.3025173-15.6429514-15.7763819-17.422701-8.4738645-1.7797496-17.1303579 2.0965462-21.4484921 9.604432-4.3181342 7.507885-3.3174851 16.942709 2.4793428 23.376988 2.3861305 2.611415 3.0781143 6.353926 1.7836039 9.646407l-.3838553.993109c-1.1912754 3.028985-2.9781884 7.587359-5.8074674 14.999268h16.4362908l2.8392063-7.342391z" fill="#000"/><path d="m43.95 30h1v63h-1z" fill="#000"/><path d="m43.95 128h1v18h-1z" fill="#000"/><circle cx="43.953736" cy="113.348395" fill="#000" r="14.321013" transform="matrix(.13225639 -.99121554 .99121554 .13225639 -74.212118 141.924971)"/><path d="m63.096143 217.816178-4.0475078-5.222069c-1.9507232-2.517192-3.2600513-5.465645-3.8164104-8.594109h-7.4545454c-.5563591 3.128464-1.8656872 6.076917-3.8164104 8.594109l-4.0475078 5.222069c-5.7771132 7.450385-8.9111973 16.590433-8.9137612 25.995539v10.188283h41v-10.188283c0-9.403959-3.1302872-18.543891-8.903857-25.995539z" fill="#f9f9f9"/><path d="m54.7116918 200.619764v-5.619764h-6.4233836v5.619764c-.0008733 1.133338-.0973455 2.264415-.2883082 3.380236h7c-.1909627-1.115821-.2874349-2.246898-.2883082-3.380236z" fill="#955f6d"/><path d="m54.7731772 198c-.1304903 0-.2362736-.10477-.2362736-.234009v-3.297972h-6.30063c-.1304903 0-.2362736-.10477-.2362736-.23401 0-.129239.1057833-.234009.2362736-.234009h6.5274527c.129781.00168.2345769.105472.2362737.234009v3.531982c.0001015.125671-.1000374.228982-.2268228.234009z" fill="#000"/><path d="m72.7493236 254h-41.4986472c-.1384447 0-.2506764-.110784-.2506764-.247443s.1122317-.247443.2506764-.247443h41.2479707v-10c-.0159335-9.401362-3.1660586-18.536223-8.964189-25.994721l-4.0977241-5.235896c-2.7384086-3.520943-4.2255205-7.834293-4.2314181-12.273177v-5.753877c0-.136659.1122317-.247443.2506765-.247443.1384447 0 .2506764.110784.2506764.247443v5.753877c.0125114 4.320083 1.4628383 8.51641 4.1278052 11.943253l4.097724 5.278786c5.8653235 7.544526 9.0518832 16.784962 9.067802 26.294952v10.247443c-.0087245.130738-.1179504.232805-.2506764.234246z" fill="#000"/><path d="m56.8251707 209 20.1748293 20.633078-4.8290294 30.366922-28.1709706-28.810843" fill="#f9f9f9"/><g fill="#000"><path d="m55 195h-6.9033793v5.644013c-.0072371.453348-.0394903.905993-.0966207 1.355987l6.9966683-4.145631z"/><path d="m44 231 16.8736416 39 12.1263584-10.756584z"/><path d="m72.855258 260c-.0660619.000678-.1295348-.02561-.1756865-.072775l-28.6004368-28.53594c-.0665134-.061838-.0938926-.154969-.0713969-.242857.0224957-.087887.0912785-.156515.1793649-.17896.0880863-.022445.1814272.004873.243405.071236l28.2590083 28.195282 4.8032027-29.471925-20.3928938-20.346906c-.091277-.097735-.0885837-.25004.0060921-.344502s.2473242-.097149.3452809-.006078l20.4757648 20.432897c.0569473.056049.0829272.136281.0696116.214979l-4.9026479 30.077172c-.0142164.092718-.0796334.169505-.1690568.198442-.0226976.006194-.0460835.009935-.0696116.009935z"/><path d="m55.7446809 204.05h-7.4893618c-.1410088 0-.2553191-.022386-.2553191-.05s.1143103-.05.2553191-.05h7.4893618c.1410088 0 .2553191.022386.2553191.05s-.1143103.05-.2553191.05z"/><path d="m31.253664 254c-.1400947 0-.253664-.110784-.253664-.247443v-10.247443c.0161085-9.50999 3.2406463-18.750426 9.1758737-26.294952l4.156708-5.265589c2.6918005-3.428361 4.1535367-7.624878 4.1600902-11.943253v-5.753877c0-.136659.1135693-.247443.2536641-.247443.1400947 0 .253664.110784.253664.247443v5.753877c-.0037374 4.438704-1.5075046 8.7524-4.2784667 12.273177l-4.1465615 5.252392c-5.8649012 7.459505-9.0512348 16.593946-9.0676437 25.994721v10.247443c-.0105018.129438-.120564.229643-.2536641.230947z"/><path d="m174 71v-71l-58 35.4733508z"/><path d="m174 71-59-35.5312543 59-35.4687457zm-58.028438-35.5312543 57.531051 34.6561327v-69.24646683z"/></g><path d="m149.765713 58.9997785c-.580626.005891-1.156162-.1058079-1.689695-.3281716-1.794455-.7608029-2.828548-2.5119614-3.075244-5.2108443-.006556-.0818374.028834-.1615601.094623-.213156l5.97814-4.6074488c.067713-.0529291.15866-.0684813.24094-.0412016.082279.0272798.144405.0935832.164586.1756538.283869 1.1444838.729949 1.8429796 1.317962 2.0758115.588014.2328319 1.277409.0491898 2.172948-.4918985 2.000598-1.2166288 3.379389-3.7449869 3.379389-6.15201 0-1.1772769-.337939-2.0069456-.956367-2.3381573-.618429-.3312116-1.426103-.1738041-2.365573.4000774-.863713.5618118-1.639873 1.2409958-2.304743 2.0167837-.046806.053499-.113749.08657-.185867.091821-.073597.0041224-.14532-.023477-.196004-.0754244l-2.605509-2.5906652c-.074323-.0726385-.094512-.1823523-.050691-.2754631l4.31548-9.2345737-7.346792 4.466438c-.077864.0476407-.176225.0505712-.256954.0076553-.080728-.0429158-.131134-.1249307-.131676-.2142526v-6.2011999c-.000795-.0842674.044127-.1627338.118278-.2065973l16.474523-10.0150526c.077864-.0476407.176224-.0505711.256953-.0076553.080729.0429159.131134.1249308.131677.2142527v2.9513907c-.001048.0361079-.009072.0717039-.023656.1049384l-5.58951 11.8317974c2.04791-1.0920145 3.784916-1.3117292 5.069084-.6329093 1.503829.8067135 2.297985 2.8562903 2.297985 5.9257367 0 6.2963002-4.011335 13.1172921-9.756297 16.6261677-2.142533 1.3018913-3.967403 1.9481572-5.47799 1.9481572zm-4.244513-5.4439155c.246696 2.4299784 1.176028 4.0007741 2.757582 4.669756s3.842365.1442902 6.677673-1.5773544c5.606407-3.4104959 9.51974-10.0740803 9.51974-16.2096937 0-2.8792456-.702913-4.7779737-2.027634-5.4961454-1.240236-.6558646-3.04145-.3115357-5.241433 1.0198695-.095032.0580338-.218085.0484755-.302394-.0234889-.084308-.0719643-.109774-.1891796-.06258-.2880468l5.903793-12.4942208v-2.4660509l-15.967614 9.7067962v5.6174803l7.674593-4.6631973c.095032-.0580339.218086-.0484755.302394.0234888.084309.0719643.109774.1891797.06258.2880469l-4.599349 9.837969 2.291226 2.2791296c.659717-.7299061 1.415261-1.3726722 2.247294-1.9118454 1.419344-.8624619 2.365573-.7017751 2.885999-.416474.784018.4230327 1.21658 1.4068296 1.21658 2.771028 0 2.5644306-1.49369 5.2665927-3.632844 6.558646-1.057749.6558646-1.919493.8132721-2.635923.5312503-.716431-.2820217-1.179407-.9575623-1.517346-2.0528562z" fill="#f9f9f9"/><path d="m116 71v-35l58 35z" fill="#ff9622"/><path d="m173.750642 71h-58.500926c-.137893 0-.249697-.1119269-.249697-.2499958v-35.4994015c-.001131-.0901033.047542-.1734667.126523-.216663.07828-.0452529.174726-.0452529.253006 0l58.500926 35.5027348c.095395.0583577.140421.1730936.110222.2808647-.0302.1077711-.128264.1824608-.240054.1824608zm-58.257907-.4999916h57.359071l-57.352413-34.8027466z" fill="#000"/><path d="m101 71h73v113h-73z" fill="#f9f9f9"/><path d="m173.75 185h-73.5c-.138071 0-.25-.111382-.25-.248778v-113.5024441c0-.1373962.111929-.2487779.25-.2487779h73.5c.138071 0 .25.1113817.25.2487779v113.5024441c0 .137396-.111929.248778-.25.248778zm-73.25-.497556h73v-113.0048881h-73z" fill="#000"/><path d="m102.61333 184.997104c10.642545-.199368 13.140519-6.595736 10.168453-9.968367l-.614685-.697786c2.962257-1.355698 5.38503-6.313299 1.268605-9.576277l-.863174-.136235c5.764303-1.402217 8.144571-13.978973-10.557536-12.669794 6.781149-9.220739 14.673961-7.449693 15.860825-13.623434 1.248987-6.519312-7.117917-9.612829-16.347995-5.392887-13.3497727 6.097318-16.527823 18.046067-16.527823 30.074563v60.993113" fill="#955f6d"/><path d="m113.114044 165c-.118826.001355-.221017-.085585-.241073-.205113-.020057-.119527.047967-.23621.16047-.275262 2.392288-.862013 3.907618-3.675072 3.378865-6.270982-.83182-4.109369-6.125804-6.221631-14.153832-5.655729-.133546.009086-.249025-.094027-.257928-.230309-.008903-.136281.092141-.254124.225687-.26321 4.549216-.329013 8.16344.161216 10.742726 1.434496 2.737267 1.348952 3.643241 3.253935 3.917291 4.606178.573891 2.829509-1.080076 5.899198-3.691603 6.840174-.025512.011395-.052803.018079-.080603.019757z" fill="#000"/><path d="m84.2491743 224c-.1376151 0-.2491743-.11108-.2491743-.248076v-60.71021c0-15.187475 5.5516043-25.05338 16.970434-30.15997 5.7742-2.583061 11.817508-2.500377 15.040163.208365 1.737576 1.455246 2.365495 3.515742 1.770799 5.801139-.727589 2.804656-3.222655 4.058152-6.116399 5.51009-3.049894 1.531316-6.843989 3.436365-9.880594 7.79218-.082175.100064-.227761.120544-.334571.047065-.106809-.073479-.139042-.21629-.074075-.328192 3.106374-4.461651 6.976882-6.399774 10.066644-7.954241 2.897067-1.455246 5.186148-2.606213 5.857258-5.192582.551506-2.120029 0-3.968852-1.608005-5.291803-2.564835-2.149795-8.04667-3.029557-14.515236-.135603-6.1762014 2.764967-10.6779512 7.014947-13.3756787 12.63418-2.2226351 4.630328-3.3023906 10.21318-3.3023906 17.075987v60.71021c-.0008752.064912-.0276206.126819-.0743512.172099-.0467305.04528-.1096174.069362-.1748232.069362z" fill="#000"/><path d="m111.661156 176c-.119453.001737-.22296-.08339-.24561-.202023-.022651-.118634.042076-.236617.15359-.279961 2.757321-1.143401 4.430118-4.121563 3.808981-6.78396-.884052-3.779208-5.787417-5.700388-13.112886-5.138659-.136129.010097-.254575-.093329-.264558-.231007s.092279-.257472.228407-.267569c7.588385-.581672 12.682363 1.482433 13.628857 5.520901.677006 2.895065-1.127248 6.129163-4.101474 7.362308-.030143.012988-.062543.019768-.095307.01997z" fill="#000"/><path d="m100.251721 186c-.13897 0-.251721-.114299-.251721-.255295-.0017419-.067669.023714-.133168.070577-.181356.046862-.048187.111073-.074891.177789-.073938 6.314198-.078291 11.071655-1.947047 12.712272-5.003775.743719-1.291307.707386-2.897461-.093941-4.152792-1.633908-2.644853-5.941788-4.060887-11.51452-3.788572-.138971.006579-.256886-.102386-.263371-.243381-.006486-.140996.100915-.260629.239885-.267209 5.763971-.282526 10.232893 1.225414 11.964097 4.030251.901393 1.409936.944204 3.214483.110717 4.666786-1.73456 3.220116-6.649703 5.190991-13.148429 5.269281z" fill="#000"/><path d="m101.246935 191c-.136366 0-.246935-.113229-.246935-.252903v-8.494171c-.000872-.067351.024854-.132211.071355-.17984.0465-.047629.109824-.073979.17558-.073086h3.506153c.136366 0 .246912.113252.246912.252926 0 .139675-.110546.252903-.246912.252903h-3.259241v8.241268c-.001773.138915-.111288.251087-.246912.252903z" fill="#000"/><path d="m113.733753 90.9647513-5.733753 3.4739806v-8.1359892l9.018136-5.3027427h3.981864v32h-7.266247z" fill="#ff9622"/><path d="m299.844626 257.641012-31.40247-14.220811-34.261747-90.140204c-.611888-1.986615-1.351672-3.9314-2.2147-5.82212l-.046278-.122536c-.010334-.025431-.02486-.048941-.042971-.069548-9.524887-20.573366-31.942631-31.859158-54.103582-27.237431-22.160952 4.621727-38.221844 23.932344-38.761786 46.604758-.449788 21.198553 12.817607 40.261312 32.827151 47.166463.062941.026765.134121.026298.196706-.001292.062586-.027589.111019-.079852.133846-.144427l15.023603-39.54273c.137424-.360436.482591-.598528.8677-.598528.385108 0 .730275.238092.867699.598528l42.832969 112.729899c.022661.062887.070633.113353.132221.139095.031472.012954.065142.019872.099166.019872.032982 0 .065626-.006665.09586-.019872l67.763224-28.885401c.090115-.038458.148763-.127067.148763-.225202 0-.101251-.060933-.192455-.155374-.228513zm-111.802709-84.626079c-.290639.000114-.574323.089077-.813159.255007l.50244-1.324714c.04608-.133391.171484-.22286.312372-.22286s.266292.089469.312372.22286l.499134 1.324714c-.238361-.166899-.522358-.25596-.813159-.255007z" fill="#ff9622"/><path d="m133 244 27.093044-72h27.906956l-27.093044 72" fill="#000"/><path d="m161.401167 243.993504c-.029738.004705-.060036.004705-.089775 0-.064231-.023532-.115922-.072308-.142959-.134896s-.027043-.133486-.000016-.196079l27.208523-71.159442h-27.624149l-27.265048 71.32162c-.027295.088375-.101671.154327-.193005.171145-.091335.016818-.18449-.018287-.241739-.091095-.057248-.072809-.0691-.171255-.030757-.255467l27.338199-71.490416c.037123-.095764.129631-.158874.23275-.158874h28.15615c.082035 0 .159118.039011.20615.105918.045932.067041.057045.151847.029925.228373l-27.338198 71.490416c-.036229.10368-.135818.172001-.246051.168797z" fill="#000"/><path d="m105.752219 254.05h-66.5044379c-.1368457 0-.2477811-.022386-.2477811-.05s.1109354-.05.2477811-.05h66.5044379c.136846 0 .247781.022386.247781.05s-.110935.05-.247781.05z" fill="#000"/><path d="m145 145.381125c6.001181-11.732456 16.460033-20.52551 29-24.381125v53z" fill="#000"/><path d="m173.976649 175-29.976649-29.196711.086734-.162351c6.129796-11.803992 16.794261-20.653235 29.579673-24.544853l.333593-.096085zm-29.372846-29.29611 28.872456 28.113265v-52.144557c-12.455125 3.884864-22.842878 12.53086-28.872456 24.031292z" fill="#000"/><path d="m54 253h11v35h-11z" fill="#000" transform="matrix(0 -1 1 0 -211 330)"/><path d="m78 277h-36v-12h36zm-34.7563636-1.248498h33.5094545v-9.503004h-33.5094545z" fill="#000"/><path d="m161.419739 254.513787h-130.419739v32.486213h185l-.013277-43.287282-27.286811-71.712718-27.29013 71.712718" fill="#f9f9f9"/><path d="m215.746557 286.996694h-184.4982951c-.1371113 0-.2482619-.11102-.2482619-.247971v-32.348588c0-.136951.1111506-.247971.2482619-.247971h130.0660511c.137112 0 .248262.11102.248262.247971 0 .13695-.11115.24797-.248262.24797h-129.8177893v31.852648h184.0183223v-42.812947l-26.96786-70.754271-26.981101 70.800559c-.027172.088283-.101216.154166-.192143.170966s-.183666-.018268-.240659-.091-.068792-.171075-.03062-.255199l27.212812-71.415526c.044503-.087911.13474-.143335.233366-.143335s.188863.055424.233366.143335l27.212812 71.415526c.005181.029357.005181.059913 0 .08927v43.103898c0 .136951-.111151.247971-.248262.247971z" fill="#000"/><path d="m54 253h11v35h-11z" fill="#f9f9f9" transform="matrix(0 -1 1 0 -211 330)"/><path d="m77.7492803 276h-35.4985606c-.1384687 0-.2507197-.107624-.2507197-.240385v-10.51923c0-.132761.112251-.240385.2507197-.240385h35.4985606c.1384687 0 .2507197.107624.2507197.240385v10.51923c0 .132761-.112251.240385-.2507197.240385zm-35.2444981-.480769h34.9937785v-10.032052h-34.9937785z" fill="#000"/><path d="m54 276c-.0276142 0-.05-.107624-.05-.240385v-10.51923c0-.132761.0223858-.240385.05-.240385s.05.107624.05.240385v10.51923c-.0003591.13204-.0225359.238659-.05.240385z" fill="#000"/><path d="m66 276c-.0274641-.001726-.0496409-.108345-.05-.240385v-10.51923c0-.132761.0223858-.240385.05-.240385s.05.107624.05.240385v10.51923c0 .132761-.0223858.240385-.05.240385z" fill="#000"/><path d="m77 271h-35" fill="#f9f9f9"/><path d="m77.7492803 271.05h-35.4985606c-.1384687 0-.2507197-.022386-.2507197-.05s.112251-.05.2507197-.05h35.4985606c.1384687 0 .2507197.022386.2507197.05s-.112251.05-.2507197.05z" fill="#000"/><path d="m198 287-23.855922-25.158238v-83.61502c.001458-14.527284-9.768932-27.258924-23.855572-31.085816s-29.005289 2.19752-36.425662 14.709321l-60.862844 92.786915h56.087006l-.119645 32.346306z" fill="#ff9622"/><path d="m198 287h-89.376724l.119001-32.713624h.49584l-.119002 32.212584h87.730537l-23.400319-24.886113v-84.022151c.00565-14.470467-9.638501-27.154185-23.545116-30.965882-13.906616-3.811697-28.634148 2.191929-35.955625 14.657183l-.459478.783083v-.076317l-60.0759144 92.420384-.4131996-.272088 60.542004-93.133786c7.446367-12.641893 22.397499-18.721139 36.509492-14.845044 14.111994 3.876095 23.896778 16.749475 23.893677 31.435785v83.819744z" fill="#000"/><path d="m110 215-13 72h13z" fill="#000"/><path d="m193.77237 255h-10.531915c-.1328 0-.240455-.112241-.240455-.250696v-35.498608c0-.138455.107655-.250696.240455-.250696h10.51909c.132078.0018.238728.112993.240455.250696v35.498608c-.0014.132736-.100584.241971-.22763.250696zm-10.278636-.501393h10.038181v-34.997214h-10.038181z" fill="#000"/><path d="m105.752537 254.05h-65.5050741c-.13667 0-.2474629-.022386-.2474629-.05s.1107929-.05.2474629-.05h65.5050741c.13667 0 .247463.022386.247463.05s-.110793.05-.247463.05z" fill="#000"/><path d="m196.590814 129.678463h105.978149v21.89727h-105.978149z" fill="#f9f9f9" transform="matrix(.93575214 -.35265838 .35265838 .93575214 -33.558351 97.05143)"/><path d="m203.936778 170c-.035231-.00135-.069912-.009158-.102306-.023035-.056251-.028745-.09892-.078383-.118806-.13821l-7.695993-20.35312c-.026671-.06266-.026205-.133521.001288-.195826s.079571-.110522.14392-.133247l98.790543-37.135806c.062738-.027628.134236-.027677.197013-.000134.062776.027543.111045.080138.133003.144926l7.695993 20.35312c.024756.060087.024756.127484 0 .187571-.026724.059833-.07679.10619-.138607.128339l-98.816944 37.148968c-.028626.010208-.058711.015764-.089104.016454zm-7.375877-20.455132 7.521084 19.889128 98.325219-36.958107-7.517784-19.89571z" fill="#000"/><path d="m216 142 7.326722 21 4.673278-1.836578z" fill="#000"/><path d="m297.031235 134c-.03545 0-.070587-.006546-.10341-.01977-.059181-.028672-.105522-.077961-.130096-.13837l-7.779077-20.376552c-.024869-.061326-.024869-.129756 0-.191082.027012-.059901.077619-.106312.140103-.128486l5.707548-2.12496c.063416-.02766.135686-.027709.19914-.000134.063454.027574.112244.08023.134439.145093l1.634541 4.282864 6.144536 16.103572c.028007.062631.028056.134006.000137.196675-.02792.062669-.081236.110855-.146912.132776l-5.714219 2.08872c-.026084.016611-.055831.02678-.08673.029654zm-7.455505-20.478686 7.598944 19.915321 5.240536-1.95035-7.598944-19.918616z" fill="#000"/><path d="m174.609515 178.728486h94.0125v21.89727h-94.0125z" fill="#f9f9f9" transform="matrix(.35347484 .93544403 -.93544403 .35347484 320.712498 -84.678114)"/><path d="m228.340451 237.999857c-.103762-.001175-.196492-.065317-.234221-.1622l-33.087785-87.773604c-.024593-.061546-.024593-.130221 0-.191768.026714-.060116.076761-.106694.138554-.128947l20.396986-7.723628c.062814-.026721.133851-.026255.196311.00129.06246.027544.110796.079721.133577.14419l33.097682 87.773603c.024593.061547.024593.130222 0 .191768-.026714.060117-.076761.106694-.138554.128948l-20.396986 7.723627c-.033806.012241-.069644.017854-.105564.016721zm-32.771092-87.879596 32.912944 87.310715 19.935143-7.548391-32.912944-87.310715z" fill="#000"/><path d="m240 209-22 3.529412 1.686286 4.470588z" fill="#000"/><path d="m208.506834 159c-1.416212.002731-2.6945-.848261-3.238364-2.155881-.543863-1.30762-.246099-2.81412.754344-3.816504 1.000442-1.002384 2.506364-1.30307 3.815038-.761745s2.162148 1.817959 2.162148 3.234172c0 1.93032-1.562847 3.496204-3.493166 3.499958zm0-6.487799c-1.21015-.001372-2.301903.726548-2.765959 1.844185-.464055 1.117638-.208975 2.404776.646245 3.260966.85522.856189 2.142069 1.112729 3.260234.649942 1.118164-.462786 1.847324-1.553712 1.847324-2.763861 0-1.65124-1.336607-2.990883-2.987844-2.994624z" fill="#ff9622"/><path d="m183 219h11v35h-11z" fill="#000"/><path d="m194 255h-11v-36h11zm-10.519091-.501393h10.038182v-34.997214h-10.038182z" fill="#000"/><path d="m183 219h11v5h-11z" fill="#f9f9f9"/><path d="m194 224h-11v-5h11zm-10.519091-.452625h10.038182v-4.09475h-10.038182z" fill="#000"/><path d="m183 254 65-24.500258-7.730518-20.499742-57.269482 21.586875z" fill="#f9f9f9"/><path d="m248.992807 229.441684-7.700601-20.276757c-.021971-.064545-.070269-.116943-.133083-.144382-.062814-.02744-.134355-.027391-.197131.000133l-56.961992 21.309446v.52454l56.902553-21.309445 7.525587 19.817784-64.42814 24.112457v.52454l64.834304-24.259984c.061854-.022065.11195-.068249.13869-.127857.027006-.052618.034045-.113132.019813-.170475z" fill="#000"/><path d="m234.50344 227c-1.416213.001368-2.693676-.850863-3.236271-2.159012-.542595-1.308148-.24337-2.81436.758044-3.815775 1.001415-1.001414 2.507627-1.300639 3.815775-.758044 1.308149.542595 2.16038 1.820058 2.159012 3.236271-.001873 1.93032-1.56624 3.494687-3.49656 3.49656zm0-6.487796c-1.210149-.001371-2.301902.72655-2.765957 1.844188-.464055 1.117639-.208976 2.404778.646244 3.260968.85522.856191 2.142069 1.11273 3.260233.649944 1.118164-.462787 1.847323-1.553714 1.847323-2.763864-.001864-1.649917-1.337929-2.987499-2.987843-2.991236z" fill="#ff9622"/><path d="m183 229 .601238.016545 3.398762 24.983455h-4z" fill="#000"/><path d="m117 142-9 11h-6c1.09-1.381395 6.06-7.132093 15-11z" fill="#000"/><path d="m257.07019 214c-.101748 0-.193317-.061786-.232141-.15579-.028132-.062149-.029101-.1332-.002673-.196092.026427-.062892.077864-.111944.141958-.135377 7.906488-3.181109 13.939463-9.779385 16.399149-17.93578 2.414273-8.174022.878822-16.715975-4.311202-24.05801-3.097433-4.372074-8.038734-8.750778-12.621873-7.925421-1.834494.278956-3.320851 1.63381-3.767328 3.434018-.358161 1.342449-.95178 6.208412 6.43364 12.403565.104999.088519.119747.244773.033164.351357-.042546.050722-.103573.082391-.169557.087991-.065985.005599-.13148-.015333-.181972-.058159-7.61093-6.38409-6.96425-11.498655-6.596139-12.927286.493315-1.98716 2.133706-3.482925 4.158651-3.792004 1.532135-.275119 7.004046-.503832 13.116004 8.124302 5.306095 7.467994 6.848178 16.165737 4.390793 24.485605-2.503694 8.303047-8.645408 15.019779-16.694301 18.257305-.029345.019042-.061946.032526-.096173.039776z" fill="#955f6d"/><path d="m273.305668 185.999145c-3.309478 0-7.840153-1.524753-13.807141-6.565096-.094695-.086187-.10766-.231105-.029785-.332916.08552-.0948.22846-.109179.330948-.033291 6.691763 5.659565 12.777893 7.657059 17.146403 5.689528 3.971373-1.807732 6.370745-6.884695 6.546147-13.932519.25483-10.137282-3.875398-22.528401-11.331651-33.997345-9.097754-13.982457-22.590494-25.874203-39.02536-34.353564-.079218-.041034-.130657-.121465-.135229-.210995-.003993-.08953.039531-.174558.114466-.223054.074936-.048496.169899-.053092.249117-.012058 16.507674 8.52264 30.069913 20.460995 39.214 34.52668 7.509204 11.552173 11.669218 24.046496 11.411078 34.29031-.182021 7.247574-2.674057 12.484337-6.84069 14.375298-1.211175.531417-2.521053.796994-3.842303.779022z" fill="#955f6d"/><path d="m208 110.316293 5.458274 2.948506c8.683024 4.690805 15.836819-.670115 20.408205-9.596046 4.571386-8.9259311 4.822453-18.0227415-3.863832-22.7168967l-5.455013-2.9518563" fill="#f9f9f9"/><path d="m220.221916 115c-2.285589-.034948-4.527439-.630128-6.52784-1.73305l-5.549326-2.910466c-.083279-.038224-.138724-.119021-.144289-.210265-.005566-.091243.039649-.178144.117668-.22615.078019-.048007.176195-.049337.255493-.003462l5.549327 2.913773c7.705371 4.041579 15.152017.625089 20.426033-9.369716 2.431355-4.610442 3.492793-8.9761407 3.064901-12.6340671-.480964-4.1308771-2.799541-7.3092381-6.889392-9.4557066l-5.549326-2.9104658c-.115733-.0664784-.160554-.2106403-.102827-.3307348.064397-.1181979.211541-.16368.331699-.1025278l5.549327 2.9104659c4.242432 2.2258449 6.633983 5.5364997 7.151433 9.8393589.437843 3.7538394-.640179 8.2220659-3.117972 12.9218063-3.930635 7.418381-9.032167 11.301207-14.564909 11.301207z" fill="#955f6d"/><ellipse cx="216.317569" cy="93.690826" fill="#955f6d" rx="18.051169" ry="5.731056" transform="matrix(.46561452 -.88498764 .88498764 .46561452 32.681745 241.505391)"/><path d="m208.592566 109.999798c-.36732.004974-.730195-.081822-1.056215-.252859-1.451061-.767887-1.891973-3.204517-1.247057-6.851152.631755-3.5602053 2.211141-7.8882983 4.455186-12.193122 4.74474-9.1115999 10.759569-15.0220064 13.720919-13.4496654 1.447771.7712116 1.891973 3.2045174 1.243766 6.854476-.628464 3.5568814-2.21114 7.8849744-4.451895 12.1897981-4.23802 8.1209913-9.489479 13.7025243-12.664704 13.7025243zm14.806747-32.5107811c-2.905413 0-8.176615 5.7009828-12.210631 13.4463412-2.217721 4.2616093-3.780656 8.5398395-4.402539 12.0468579-.59556 3.367403-.236908 5.674389.987116 6.315958.260082.135976.549538.204514.84234.199712 2.905413 0 8.176614-5.701244 12.21063-13.4466023 2.217722-4.258285 3.783947-8.5365152 4.40583-12.0468579.59556-3.3674027.233618-5.6710651-.987116-6.3159576-.264308-.1373368-.558352-.2058903-.855501-.1994513z" fill="#955f6d"/><path d="m211.935211 72.1698185c1.30998 0 2.371929 1.0619484 2.371929 2.3719282v16.000577c0 1.3099798-1.061949 2.3719282-2.371929 2.3719282-1.309979 0-2.371928-1.0619484-2.371928-2.3719282v-16.000577c0-1.3099798 1.061949-2.3719282 2.371928-2.3719282z" fill="#f9f9f9" transform="matrix(.46561452 -.88498764 .88498764 .46561452 40.206419 231.669307)"/><path d="m218.424916 88.9864155c-.41501.0000753-.823751-.1059254-1.190651-.3087778l-13.86281-7.6176509c-1.254237-.6905661-1.735745-2.3138001-1.075479-3.6255946s2.212277-1.8153996 3.466514-1.1248335l13.866054 7.6312235c1.045331.5753033 1.580162 1.8226001 1.295665 3.0216606-.284498 1.1990605-1.31483 2.0401291-2.496049 2.0375572zm-13.856322-12.4902559c-.959151-.0045656-1.796885.6775465-2.027885 1.6511969s.204664 1.9862428 1.054601 2.4511602l13.866054 7.6312235c1.016828.5621976 2.276884.1558194 2.814414-.9076711.53753-1.0634906.148982-2.3813713-.867845-2.9435689l-13.866054-7.6312235c-.299808-.1659735-.63407-.2522084-.973285-.2511171z" fill="#955f6d"/><path d="m204.639889 86.0360334c1.30998 0 2.371928 1.0619485 2.371928 2.3719282v18.3725054h-2.371928c-1.30998 0-2.371928-1.061949-2.371928-2.371928v-16.0005774c0-1.3099797 1.061948-2.3719282 2.371928-2.3719282z" fill="#f9f9f9" transform="matrix(.46561452 -.88498764 .88498764 .46561452 24.036476 232.622941)"/><path d="m211.570894 102.999869c-.418809.000905-.831386-.105148-1.201271-.308788l-13.986452-7.6314702c-.818585-.4467324-1.345092-1.3122581-1.381192-2.2705419-.036099-.9582838.423694-1.8637396 1.206181-2.375291.782486-.5115513 1.768786-.5514814 2.587371-.104749l16.064945 8.7614302c.058369.0305004.102138.0844582.121109.149304.024553.0619598.024553.1314568 0 .1934166l-1.093254 2.1513353c-.451717.891112-1.346437 1.445276-2.317437 1.435354zm-13.983179-12.4906397c-.965224-.0015842-1.806964.6797125-2.039605 1.6508416-.232642.9711291.203844 1.9815088 1.05764 2.4482346l13.989725 7.6484365c.492617.268836 1.0681.323693 1.599746.152494.531647-.171199.975868-.554418 1.234859-1.065284l.981965-1.9239858-15.848912-8.6460589c-.299306-.1697521-.63427-.260643-.975418-.264678z" fill="#955f6d"/><circle cx="50.211811" cy="181.204717" fill="#955f6d" r="14.102372" transform="matrix(.92387953 -.38268343 .38268343 .92387953 -65.521897 33.008616)"/><path d="m50.5002115 196c-5.8649195 0-11.1522786-3.53312-13.3963752-8.951728-2.2440965-5.418609-1.0029461-11.655487 3.1446542-15.802136 4.1476003-4.146648 10.3847632-5.386367 15.8028559-3.141026 5.4180926 2.24534 8.9499989 7.53351 8.9486536 13.39843-.0110037 8.002911-6.4968755 14.487294-14.4997885 14.49646zm0-28.330663c-7.6404187 0-13.8342018 6.193784-13.8342018 13.834203s6.1937831 13.834202 13.8342018 13.834202 13.8342019-6.193783 13.8342019-13.834202c-.0055063-7.638137-6.1960651-13.828696-13.8342019-13.834203z" fill="#000"/><path d="m51 168h17l-9.0287867 7" fill="#955f6d"/><path d="m58.4668799 175c-.1085268.001003-.2056591-.067179-.2415806-.169587-.0359215-.102409-.0026619-.216322.082721-.283317l8.7338992-7.040126h-16.7884201c-.1400039 0-.2534994-.113489-.2534994-.253485s.1134955-.253485.2534994-.253485h17.4948385c.1067611.000779.2015908.068362.2371636.169019.0355728.100658.0042629.212814-.078304.280495l-9.291598 7.493018c-.0421032.034648-.0942568.054797-.1487196.057468z" fill="#000"/><path d="m61.7412901 179h-7.8751294c-1.0306521 0-1.8661607-.786409-1.8661607-1.756494 0-.134484.1158284-.243506.2587099-.243506s.2587099.109022.2587099.243506c0 .701115.6038519 1.269481 1.3487409 1.269481h7.8751294c.1428815 0 .2587099.109022.2587099.243507 0 .134484-.1158284.243506-.2587099.243506z" fill="#000"/><path d="m54 164.695296c0-2.711624-1.6829263-5.155469-4.2621711-6.189349-2.5792448-1.033881-5.5454405-.453611-7.5122706 1.469608-1.9668302 1.923219-2.5458545 4.80956-1.4664533 7.310028.6423634 1.527699.2991187 3.279759-.8759361 4.471132-3.5128405 3.659768-4.7555415 8.860287-3.2617994 13.650144 1.4937422 4.789857 5.4980385 8.444713 10.5103406 9.593141v-23.612855c3.7952198-.010907 6.866436-3.003226 6.8682899-6.691849z" fill="#000"/><path d="m47.0844336 194.993306h-.0594887c-4.9646189-1.186092-8.9305057-4.958803-10.4097265-9.902673-1.4792207-4.943871-.2481185-10.311393 3.2314178-14.088764 1.074775-1.134887 1.3917685-2.802935.8097079-4.260756-1.1708089-2.834677-.3877754-6.110992 1.9334225-8.089693 2.3211978-1.978702 5.6424756-2.2011 8.2007127-.549133 2.5582372 1.651967 3.7604004 4.79535 2.968314 7.761466s-3.3948063 5.067379-6.4264899 5.188322v23.696899c-.0050895.136446-.1131395.245872-.2478698.251026zm-.0198295-37.523437h-.3470177c-3.3576303.193039-6.0116098 2.954954-6.1108162 6.359337-.0233126.918631.1479812 1.831659.5023494 2.677616.6581238 1.640283.3049614 3.518981-.902246 4.799626-3.3281356 3.60427-4.5346724 8.717887-3.1750223 13.456572s5.0842724 8.401159 9.8014076 9.637863v-23.603182c-.000012-.137341.1089626-.249195.2445649-.251026 3.5087444-.080403 6.3117518-2.984064 6.3117518-6.538403s-2.8030074-6.458001-6.3117518-6.538403z" fill="#000"/><path d="m47 191c-2.209139 0-4-2.014719-4-4.5s1.790861-4.5 4-4.5" fill="#955f6d"/><path d="m47 190.509448c-2.4603962-.000001-4.4549413-1.795091-4.4549413-4.009448s1.9945451-4.009447 4.4549413-4.009448v-.490552c-2.7614237 0-5 2.014719-5 4.5s2.2385763 4.5 5 4.5z" fill="#000"/><path d="m136.156221 95.9095662h30.338154c3.781743 0 6.847452 3.0657087 6.847452 6.8474518 0 3.781743-3.065709 6.847452-6.847452 6.847452h-30.338154c-3.781744 0-6.847452-3.065709-6.847452-6.847452 0-3.7817431 3.065708-6.8474518 6.847452-6.8474518z" fill="#f9f9f9" transform="matrix(.56092801 -.82786458 .82786458 .56092801 -18.626196 170.394584)"/><path d="m143.065818 121.999989c-2.616913-.002968-5.018393-1.449722-6.243197-3.761178-1.224803-2.311457-1.0728-5.109927.395167-7.275266l16.972502-25.0383718c2.241195-3.09317 6.534268-3.8496598 9.698632-1.7090129 3.164365 2.1406469 4.057295 6.4053927 2.017251 9.6346384l-.204846-.1386984.204846.1386984-16.972502 25.0482793c-1.319645 1.943166-3.518158 3.104984-5.867853 3.100911zm16.992325-38.6836799c-2.186196-.0042124-4.231653 1.0774151-5.458161 2.886261l-16.972501 25.0383719c-2.03914 3.009326-1.251445 7.101102 1.759364 9.139237 3.01081 2.038135 7.104602 1.250828 9.143742-1.758498l16.972501-25.0383722c1.367237-2.0137477 1.509773-4.6176367.370503-6.7684544s-3.373986-3.4967367-5.80884-3.4985453z" fill="#ff9622"/><path d="m137 111.006579c2.113035-3.001017 6.28633-3.896543 9.5212-2.043107s4.411605 5.814291 2.684674 9.036528" fill="#f9f9f9"/><path d="m148.96285 117.999138c-.040477-.00006-.08029-.009827-.115777-.028404-.11802-.061302-.164646-.200313-.105854-.315596 1.590811-2.954251.498495-6.579429-2.493874-8.27667-2.992368-1.69724-6.852292-.88092-8.812618 1.863745-.076001.100328-.220192.127842-.330792.06312-.106639-.071596-.135732-.210378-.066159-.315597 2.096616-2.977579 6.266543-3.87317 9.498281-2.039983 3.231738 1.833188 4.398804 5.756161 2.658348 8.93577-.04792.077145-.137908.121298-.231555.113615z" fill="#ff9622"/><path d="m122 143.237619 2.578693 1.762381 6.209779-5.006615.57849-5.122127 12.363999-18.419195c.23226-.344614.319037-.768449.241148-1.177815s-.31403-.770549-.656223-1.00371c-.711205-.486564-1.678348-.298923-2.16035.419143l-12.357461 18.419196-4.497188 2.43895z" fill="#f9f9f9"/><path d="m124.894943 144.999158c-.051345.000842-.101623-.014698-.144068-.043675l-2.640137-1.794037c-.090821-.06239-.13137-.176241-.100513-.282208l2.3453-7.824553c.019174-.06415.06241-.118343.120615-.151183l4.556582-2.455882 12.631113-18.696281c.589965-.799255 1.703587-.989688 2.52438-.431676.820794.558012 1.056613 1.665855.534561 2.51128l-12.621062 18.703001-.582975 5.150296c-.009201.065794-.042676.125735-.093812.167981l-6.365813 5.099903c-.047175.035222-.105559.051949-.164171.047034zm-2.345299-2.150156 2.345299 1.58574 6.148036-4.918483.582974-5.109981c.003172-.039918.017066-.07823.040205-.110867l12.667968-18.750035c.269323-.398492.306177-.91079.096679-1.343917-.209498-.433126-.63352-.721279-1.112342-.755914-.478821-.034635-.939698.18951-1.209021.588002l-12.667968 18.750035c-.023446.033605-.054431.061223-.090461.080631l-4.516377 2.435724z" fill="#ff9622"/><path d="m155.23155 119c-.119141-.000624-.221462-.085109-.244984-.202281s.038225-.234804.147838-.281644c.509261-.206751 1.006899-.44122 1.490696-.702364.120291-.06461.270013-.019549.334988.100818.062474.120863.017979.269655-.100497.336059-.498736.270342-1.012058.512677-1.537594.725888-.028905.012042-.05935.01996-.090447.023524zm3.483874-1.982749c-.079206.000538-.153899-.036928-.200993-.100818-.083992-.110482-.063015-.268316.046898-.352862.439015-.330311.858461-.686017 1.256205-1.065307.099237-.098671.2592-.098671.358437 0 .097968.098404.097968.257818 0 .356222-.411846.390787-.844622.758757-1.296403 1.102274-.049683.041505-.112941.063058-.177544.060491zm2.850746-2.822897c-.055687-.001421-.109548-.020215-.154094-.053769-.108831-.085561-.128294-.243259-.043549-.352862.336824-.430609.649945-.879357.937966-1.344237.024381-.105393.113092-.183419.220436-.193884s.20937.048966.253523.147678c.044152.098712.02058.214681-.058574.288169-.298789.485175-.623067.954079-.971465 1.404727-.042154.061327-.110117.099756-.184243.104178zm2.009927-3.471491c-.032306-.00026-.064221-.007121-.093797-.020163-.063502-.025234-.114027-.075318-.139938-.138718-.025911-.063399-.024975-.134649.002593-.197341.213496-.507721.398037-1.027211.55273-1.555954.040361-.134085.180837-.210544.314889-.17139.131856.040424.206604.179899.167494.312535-.161235.546326-.35133 1.08366-.56948 1.609723-.035534.092808-.122132.155989-.221092.161308zm-28.855851-2.016355c-.11452-.001239-.213711-.080017-.241191-.191553-.137345-.554498-.247891-1.115717-.334988-1.680296-.019425-.138272.076561-.266162.214393-.28565.137831-.019488.265313.076805.284739.215077.077047.541056.184244 1.085472.314889 1.623166.016166.065073.005813.133927-.028765.191322-.034579.057395-.090533.098599-.155478.114492zm29.907713-1.865128h-.033499c-.066229-.008379-.126411-.042855-.167262-.095817-.040852-.052961-.059015-.120056-.05048-.186473.074435-.545933.11694-1.095771.127295-1.646689.003632-.136569.115059-.245372.251241-.245324.06694.000853.130691.02883.176751.077568.046059.048738.07051.114093.06779.181198-.013286.568752-.056897 1.136383-.130645 1.700459-.015563.116771-.110664.206565-.227792.215078zm-30.380045-2.127254c-.066635-.000886-.13019-.028293-.17668-.076192s-.072106-.112365-.071211-.179213c.003333-.569327.036879-1.138072.100496-1.70382.015755-.138256.140218-.237543.27804-.221799.138307.017503.236862.143338.221092.28229-.06103.546817-.093457 1.096467-.097147 1.646689-.001833.139742-.115282.252045-.25459.252045zm30.393444-1.892013c-.124111-.002212-.22801-.09502-.244541-.218439-.070379-.546251-.171031-1.088145-.301489-1.623165-.031558-.134431.050601-.269303.184243-.302454.134812-.031824.270253.050298.304839.184833.134443.553775.23734 1.114782.308189 1.680296.009511.066056-.007845.133176-.048164.186265-.04032.053089-.100219.087691-.166228.096024zm-29.847414-2.090288c-.022195.003522-.044803.003522-.066998 0-.06445-.01732-.119386-.059646-.152692-.117646s-.042247-.126908-.024851-.191529c.150627-.549669.331803-1.0904498.54268-1.6198047.02449-.0643113.074138-.1157739.137409-.1424327s.134658-.0261935.197579.0012879c.064743.0237575.1167.0734886.143395.1372515s.025716.1357979-.0027.1988076c-.203191.5118187-.377658 1.0346484-.522581 1.5660354-.037261.102746-.13558.170302-.244541.16803zm28.808952-1.7945404c-.102237.0011217-.194964-.0600079-.234492-.1546028-.209283-.5095202-.447515-1.0065833-.713524-1.4887421-.043084-.0792411-.040756-.1755219.006108-.2525743.046863-.0770523.131143-.1231701.221092-.1209813.089948.0021889.1719.0523519.214984.131593.271831.4988703.517816 1.0114821.736974 1.5357903.028577.0625754.030024.1342341.003996.1979192-.026027.0636851-.077202.1137002-.141341.13814-.025829.0090883-.053027.0136358-.080398.013458zm-27.251259-1.9088316c-.090309.0004105-.17389-.0478354-.21892-.1263686s-.04458-.1752697.001178-.2533782c.289541-.4903118.604875-.9648256.944666-1.4215302.082704-.099698.226765-.1213762.334988-.0504089.111005.0835202.133502.2415019.050248.3528621-.313717.4381776-.604435.8924748-.870969 1.3610396-.04286.0863677-.131647.1400726-.227791.1377842zm25.241332-1.5660356c-.078421.0011405-.152361-.0365764-.197643-.1008178-.3366-.435125-.695522-.8524014-1.075311-1.25014-.082-.0599624-.119995-.1635231-.09631-.2625083s.104399-.1739596.204596-.190047c.100198-.0160874.200205.0298709.253501.1164962.392746.410759.762898.8426747 1.10881 1.2938277.058745.0758908.069368.1786876.02739.2650538-.041978.0863661-.129253.1412747-.225033.1415778zm-22.779171-1.5996416c-.101549-.0000896-.193059-.0614971-.231908-.155621-.038849-.094124-.017397-.2024544.054364-.2745347.405871-.3982832.833054-.7741054 1.279653-1.1257981.105391-.0749595.250269-.0575185.334988.0403271.085875.1098132.067974.2684474-.040198.3562227-.433171.3393476-.846976.7028655-1.239455 1.0888316-.035638.0383813-.0826.0642931-.133995.073933zm19.928425-1.2366976c-.055941.000033-.110249-.018917-.154095-.0537695-.435479-.334758-.88956-.6444311-1.36005-.9275232-.077194-.046224-.123942-.1302506-.122635-.2204279.001307-.0901772.05047-.172805.128971-.2167582.0785-.0439532.174411-.0425543.251604.0036698.485409.295483.955036.6162999 1.406949.9611291.101222.0822577.121711.2290779.046899.3360592-.037114.0638359-.101272.1071572-.174194.1176207zm-16.725942-1.176207c-.090356.0004246-.173785-.0485055-.217742-.1277025-.063596-.1191312-.022219-.2673799.093797-.3360591.495259-.2784096 1.005187-.5297019 1.527544-.7527725.061519-.0290191.132217-.0314199.195551-.0066407.063334.0247793.113746.074564.139437.1377037.027943.0618422.029832.1323788.00524.1956372s-.073585.1138873-.135885.140422c-.50592.214561-.999161.4580433-1.477297.7292483-.034003.0139303-.070472.0207901-.107196.0201636zm13.248768-.8233449c-.033396-.0001771-.066422-.0070319-.097146-.0201636-.50732-.2092183-1.026306-.3887511-1.554344-.5376946-.134131-.0380481-.21212-.1779748-.174193-.312535.037926-.1345603.177407-.2127988.311538-.1747508.54547.1571927 1.08221.343409 1.607942.5578582.113666.0438233.179643.1631108.156555.2830561s-.128593.2060132-.250352.2042297zm-9.527053-.6721183c-.123828-.0031744-.226872-.0964144-.24275-.2196537-.015879-.1232393.060148-.2396986.179102-.2743533.551811-.1424714 1.110953-.2546576 1.674939-.3360591.13674-.0179294.262327.0780624.28139.2150778.009547.0664352-.007716.1339464-.047961.1875682-.040246.0536218-.100149.0889243-.166431.0980821-.543697.0748186-1.082763.180284-1.614642.3158956-.01269.0071755-.026184.0128159-.040198.016803zm5.647894-.3360592h-.030149c-.544642-.0682717-1.092618-.1064161-1.64144-.1142601-.066635-.0008853-.13019-.0282929-.176679-.0761919-.04649-.047899-.072106-.112365-.071212-.179213.005341-.1376684.117268-.2469988.254591-.2486838.567878.0072861 1.134899.0465548 1.698388.1176207.127923.0208679.219031.1359288.210353.2656546-.008679.1297258-.114296.2315413-.243852.2350735z" fill="#ff9622"/><path d="m157.743195 120.990011c-.025735.002877-.051727.002877-.077462 0l-4.489467-1.424647c-.06948-.022068-.125866-.071788-.154925-.13661-.028455-.064412-.028455-.13725 0-.201662l2.091492-4.091794c.061795-.119901.21213-.169264.336794-.110589.123964.059745.176207.2039.117878.325262l-1.96351 3.83809 4.213295 1.333573c.122946.034199.199999.151776.179383.273724-.020616.121949-.132389.209752-.260214.204411z" fill="#ff9622"/><path d="m154.234674 120c-.117735-.001772-.216612-.102742-.232486-.237406-.015873-.134664.056039-.262454.169084-.300468 2.011634-.6593 3.873089-1.821013 5.45255-3.402874.095351-.087955.233205-.076817.317009.025613.041711.05478.062815.126472.058652.199243-.004164.072772-.033252.140638-.080843.188611-1.632962 1.634507-3.557134 2.834911-5.636415 3.516304-.015449.005682-.031397.009364-.047551.010977z" fill="#ff9622"/></g></svg>