<svg height="256" viewBox="0 0 243 256" width="243" xmlns="http://www.w3.org/2000/svg"><g fill="none"><path d="m173.157694 93.7154208h31.635474v131.1931972h-31.635474z" fill="#5b99c4" transform="matrix(.97711988 .21268932 -.21268932 .97711988 38.207746 -36.547977)"/><path d="m67.9676127 79c-2.7258245 0-5.2261859-.5219472-6.9918919-1.7941934-1.5985086-.9811603-3.039953-2.9158779-3.6555435-4.9484606-.2533294-.8356173-2.221699-8.381267 7.853212-15.6910366 2.4604523-1.7164924 4.7897968-3.6103384 6.9690923-5.666138 3.1564845-3.0714583 3.685943-3.8593978 3.341415-4.9635168-.1671974-.5370033-.5573247-1.791684-5.7075118-1.6687253l-.0557325-2.2584252c4.813259-.11794 7.1920222.8556922 7.9418773 3.2621697.8207873 2.6298108-1.0665169 4.4666633-3.9215394 7.2445263-2.2624283 2.1331708-4.679765 4.0990926-7.2325549 5.8819431-8.7955974 6.3838153-7.2148218 12.5267319-7.0070917 13.2067688.4686594 1.5256918 1.5554426 3.0112337 2.7030249 3.7038174l.0835987.055206c.0759988.0552059.1570642.1104119.2406629.1631085 3.4148806-4.117862 12.3447426-11.4652721 18.4246486-11.811564 1.834105-.1028838 3.3338152.3964791 4.4560645 1.4880513 1.6593077 1.6160287 1.7277066 3.2370762 1.489577 4.3161016-.8486536 3.8844913-6.9032267 6.8530658-9.1654584 7.6686083-3.0196866 1.0840441-6.5510987 1.8117589-9.7658491 1.8117589zm-3.1995505-2.5996984c2.8170231.6624714 7.1261565.4868161 12.185145-1.3399989 2.8018234-1.0037446 7.1920222-3.6235179 7.7189474-6.0224673.1063983-.5018723.1342646-1.2546807-.86132-2.2258036-.6535899-.6348684-1.5478428-.9134075-2.7283579-.8456547-2.3154309.1329961-5.5884469 1.6260661-9.2161242 4.2031802-2.5807971 1.8237714-4.9600716 3.9122533-7.0982903 6.2307443z" fill="#f9f9f9"/><path d="m62.878116 78.6011366c-.682482 1.0389138-1.2688099 2.1379765-1.7516917 3.2835193-1.0651497 2.5712481-1.8879905 6.175542.2347368 8.7392128 1.4134688 1.70743 4.6972597 2.1822774 8.8568965 2.7783624 5.641255.8133025 12.5546319 1.8160387 17.7819424 6.3447695l-.489666 2.2529994c-4.9193762-4.8166702-11.9968165-5.8977057-17.7289373-6.7691012-4.4120419-.6743844-8.2233596-1.2628921-9.9447627-3.2835193-2.2337855-2.6242896-2.4331855-6.3750789-.5805318-10.8482425l1.3705599-3.099137z" fill="#f9f9f9"/><path d="m140.75041 13.8448103h31.326748c4.779183-.0027048 9.363549 1.8939202 12.743899 5.2723558 3.380349 3.3784357 5.27957 7.9617269 5.27957 12.7409101v15.9134166h-67.358377v-15.9134166c0-9.946458 8.061702-18.0104453 18.00816-18.0132659z" fill="#f9f9f9" transform="matrix(.88253757 -.4702419 .4702419 .88253757 3.886359 77.174715)"/><path d="m67.2158217 77c-.2571904 0-.5143808 0-.7587117-.0150926-.5975503-.0236622-1.1915999-.1011298-1.7746139-.2314201l-.2983409-.0679168c-.8456938-.2177084-1.6505065-.5658511-2.3841552-1.0313286l.2108961-.3144294c.7473852.4741955 1.5718997.820408 2.4381652 1.0237823 4.7194443-5.7377087 12.2834145-10.3635948 16.9514207-10.3635948h.051438c2.4535967.0201235 3.0065561 1.386005 3.1891613 1.836268.1183075.2917905.480946 1.1872856-.5503875 2.6059913-2.5204662 3.4813629-10.6348239 6.5577407-17.0748721 6.5577407zm-.7432803-.392408c6.4297605.2515436 14.9453354-2.8499885 17.5095238-6.3892065.9078822-1.2577178.6043975-2.0123485.5143809-2.2487994-.1568862-.392408-.6378323-1.5796936-2.8290946-1.5973016h-.0694414c-4.5239795 0-11.8667661 4.4850217-16.5296284 10.0768351.4617435.086463.9293891.1394314 1.3991159.1584724z" fill="#5b99c4"/><path d="m65.9860075 79c-1.7625239-.0579641-3.4811184-.6324366-4.9860075-1.6666667l.1865672-.3333333c1.4532291.9969982 3.1122058 1.5506183 4.8134328 1.6062992z" fill="#5b99c4"/><path d="m60 77.8516129 1.6880302 2.1483871 1.3119698-1.9327189-2.4542884-1.0672811z" fill="#5b99c4"/><path d="m61.6580268 80-1.6580268-2.0907618.5869565-.9092382 2.4130435 1.0380875zm-1.3520067-2.1053485 1.3369565 1.6871961.9832776-1.4367909-1.9389632-.8484603z" fill="#5b99c4"/><path d="m87.907013 100 .092987-.4290884c-5.4242433-4.56324-12.4654278-5.5781498-18.2332065-6.4080634-4.1637525-.5986683-7.469958-1.0714364-8.813104-2.6952921-2.0482976-2.458908-1.2269122-5.9789749-.1782251-8.496979.4639251-1.0997804 1.0249019-2.1565068 1.6763495-3.1577826 1.0058178.3068046 2.0480881.479603 3.0995676.5138784.2970419 0 .5940838.0179857.8962916.0179857 7.3511412 0 16.1048368-3.494373 19.1269152-7.7338696 1.4929584-2.0940544 1.2759887-3.8540878.8317173-4.9794814-.8678789-2.1839832-2.8102746-3.3993055-5.4681538-3.4198606h-.09557c-3.4301882 0-8.1311991 2.0144032-12.5919935 5.3957229-2.5382738 1.9144077-4.8157191 4.1487853-6.7751382 6.6470168-1.3442575-.8419818-2.3376332-2.1385329-2.7973598-3.6511058-.4907649-1.60587-1.4206352-7.3433221 7.3046477-13.702567 2.5692888-1.8009148 5.0013191-3.7881806 7.276235-5.9455728 3.2338822-3.160352 4.496956-5.691203 3.8744595-7.7390084-.47785-1.5416351-2.19811-3.3402094-7.6817617-3.2091704v.3854087c5.2382692-.1284696 6.8629593 1.5262188 7.2994817 2.936815.5915008 1.8962112-.6405773 4.301162-3.7608087 7.3510302-2.2621277 2.1432878-4.6794007 4.1184647-7.2323245 5.9096013-8.9319207 6.510839-7.9581398 12.4589813-7.4467112 14.1316554.5034839 1.6604212 1.6139245 3.0730284 3.1124825 3.9594329l.1498124.0899287.1059019-.1387472c1.9608845-2.5278104 4.2504586-4.7854739 6.8087169-6.713821 4.3910541-3.3402094 9.0068269-5.3186412 12.3569429-5.3186412h.0671573c2.4874031.0205552 4.3032331 1.1485182 5.1117036 3.1757684.4081098 1.0277568.6044157 2.66189-.7878067 4.6249054-3.0814868 4.3217172-12.2820367 7.854631-19.6925863 7.5514428-1.0640901-.0381267-2.11769-.2231802-3.1305633-.5498499l-.1420635-.0462491-.0800722.1233308c-.6984139 1.0568508-1.2984291 2.1748889-1.7925833 3.3402095-1.0900146 2.6156409-1.9320638 6.2821632.2402165 8.8900959 1.4464649 1.7369089 4.8069128 2.2199546 9.0636523 2.8263311 5.7806937.8376218 12.8554567 1.8576703 18.2047939 6.46459z" fill="#5b99c4"/><path d="m87.9013568 102 .0986432-.442114c-5.0593588-4.8734748-12.3381901-5.9672595-18.2334204-6.8489316-4.5375882-.6823376-8.4573582-1.2777858-10.2277444-3.3222431-2.2973487-2.6552388-2.5024228-6.4502625-.5970511-10.9761798.5012447-1.1714177 1.1021652-2.2990309 1.796345-3.3707988l.1064308-.1635566-.166136-.1022229c-1.8771518-1.1497692-3.2621431-2.935939-3.8938113-5.0216981-.6126263-1.9831235-1.8326872-9.0160564 8.2626676-16.3019909 4.2286791-3.0666859 6.9647305-5.3794781 8.6131107-7.3140458 1.8015367-2.1185688 1.8378789-3.1816866 1.6977017-3.626356-.3374636-1.0733401-2.8165235-1.676455-6.025024-1.4694537l.0259587.3833358c3.343486-.2172236 5.3942266.4574473 5.6278553 1.198563.0726845.2351126.1713277 1.1576739-1.6276131 3.268576-1.6250173 1.909012-4.3403017 4.2141375-8.5430221 7.2501565-10.3030247 7.4341577-9.0362381 14.679203-8.4028448 16.7211047.6391997 2.1114334 2.0190923 3.930876 3.8938113 5.1341432-.6646905 1.0406401-1.2420247 2.1329375-1.7262563 3.2660205-1.9650768 4.6690292-1.7366399 8.6020538.6619479 11.3722934 1.8638377 2.1569024 5.8511005 2.7549061 10.4639689 3.447466 5.9159974.8893389 13.2259791 1.980568 18.1944824 6.9179322z" fill="#5b99c4"/><path d="m61.6220388 98.2518179h130.8104792v95.1513621h-130.8104792z" fill="#f9f9f9" transform="matrix(.21268932 -.97711988 .97711988 .21268932 -42.481015 238.932426)"/><path d="m67 255h4v1h-4z" fill="#000"/><path d="m152 256 8.348194-37h18.225398c10.024794 0 19.286594 5.237881 24.290304 13.73771 2.594662 4.408754 7.398333 7.125721 12.597718 7.125296 8.029329 0 14.538386 6.369006 14.538386 14.225573v1.911421z" fill="#5b99c4"/><path d="m112 250h69v-25h-43.502231c-4.951154-.013199-9.489045 2.809157-11.737802 7.300409l-1.172753 2.322843c-1.539677 3.069792-4.148401 5.444598-7.316238 6.660209l-2.384.914505c-1.73431.672792-2.882171 2.364084-2.886976 4.253755z" fill="#f9f9f9"/><path d="m153 250h28l-.002524-25h-22.555976z" fill="#000"/><path d="m192 169 3.296534 36 4.703466-21.480043z" fill="#000"/><path d="m192 142 3.296534 36 4.703466-21.480043z" fill="#000"/><path d="m205 82.3927492-4.72332-14.9456193-33.823347-7.4471299-10.453333 11.6072508 4.72332 14.9456193 33.825889 7.4471299z" fill="#000"/><path d="m195.221573 93.9999443h-.041183l-34.246739-7.3688747c-.067132-.0136774-.121387-.0623343-.141568-.126961l-4.782446-14.7807947c-.021803-.0645611-.005994-.135717.041184-.185363l10.581611-11.4747314c.046279-.0514694.117371-.0738728.185326-.0584021l34.246739 7.3637356c.067494.0157117.121991.0646723.144142.1295002l4.782446 14.7782555c.020589.0654263.004966.136711-.041184.1879022l-10.584185 11.4747314c-.036747.0400679-.089388.0623235-.144143.061002zm-34.097447-7.719287 34.02795 7.3154904 10.434895-11.3122214-4.715522-14.5700395-34.017655-7.3129512-10.432321 11.3122214z" fill="#000"/><path d="m190.300276 72.7025262c-2.480985-.124183-4.790589 1.2970531-5.851812 3.6009673-1.061223 2.3039141-.665068 5.0367723 1.003733 6.9242068s4.281593 2.5577331 6.619998 1.6983267c2.338404-.8594065 3.941894-3.0792659 4.062741-5.6244288.165001-3.4750989-2.447187-6.4295158-5.83466-6.599072zm14.699724 9.6459873-10.330011 11.6514865-15.001256-3.3510913-4.668733-15.0051555 10.31996-11.6437532 15.001256 3.3510913z" fill="#f9f9f9"/><path d="m195.265428 93.9999486h-.041025l-15.307764-3.3083486c-.066634-.0152607-.120793-.0632533-.14359-.127242l-4.764125-14.8135164c-.020597-.0647586-.004975-.135502.041026-.1857734l10.543639-11.5026789c.046188-.0497753.115229-.0719726.182052-.0585313l15.307763 3.3082926c.067236.0157464.121524.0648155.14359.1297868l4.764125 14.8109716c.020511.0655712.004947.1370137-.041026.1883182l-10.543638 11.5001341c-.036474.03854-.087767.0598285-.141027.0585873zm-15.159044-3.6646263 15.089813 3.2624855 10.39492-11.3372643-4.697457-14.6022946-15.089814-3.2650304-10.39492 11.3398092zm10.397484-4.929356c-.105129 0-.212822 0-.31795 0-2.311339-.1026201-4.390834-1.4243823-5.451554-3.4650995-1.060721-2.0407173-.940632-4.4886521.314821-6.4174462 1.255454-1.9287942 3.45449-3.0438074 5.764941-2.9230915 3.500699.1696978 6.226245 3.0793078 6.142041 6.5568305s-2.947428 6.2538342-6.452299 6.2564412zm0-12.4391802c-3.329921.082195-5.974303 2.8064609-5.932891 6.1121182s2.753223 5.9638278 6.084174 5.9638278c3.33095 0 6.042761-2.6581705 6.084173-5.9638278s-2.602969-6.0299232-5.932891-6.1121182z" fill="#000"/><path d="m146.210598 82.9985076c-.018666.0019899-.037615.0019899-.056281 0-.048366-.0155151-.089335-.0482188-.115121-.0918969l-18.892676-35.3930744c-4.738699-8.8777389-1.369369-19.9076922 7.526371-24.6385831l27.718638-14.73924351c8.898851-4.71801223 19.945791-1.35848778 24.694786 7.51001981l18.892675 35.3828636c.047302.0924711.012121.2057105-.079306.2552692l-59.607222 31.6891183c-.024933.014731-.05296.0234704-.081864.025527zm24.738277-76.61650377c-2.920947-.00130837-5.79706.71681542-8.373152 2.0906612l-27.723754 14.73924357c-8.70961 4.6306153-12.008238 15.4295823-7.36776 24.1203865l18.803137 35.2271494 59.264416-31.5078771-18.803136-35.214386c-3.109503-5.8242083-9.186261-9.4607714-15.799751-9.45517757z" fill="#5b99c4"/><path d="m152.231818 35.0859064h31.326749c9.94845 0 18.013263 8.0648125 18.013263 18.0132629v15.9134167h-67.348172v-15.9108652c-.001409-9.9474543 8.060706-18.0129966 18.00816-18.0158144z" fill="#f9f9f9" transform="matrix(.88253757 -.4702419 .4702419 .88253757 -4.754059 85.066385)"/><path d="m145.873525 82.9979979c-.018771.0026695-.037826.0026695-.056596 0-.048637-.0156101-.089835-.0485143-.115766-.09246l-7.545325-14.1386804c-2.28907-4.2892935-2.777665-9.3107437-1.3583-13.9596886s4.630423-8.5445672 8.926779-10.8298741l27.878858-14.8295623c8.948026-4.7451848 20.054861-1.3653046 24.830372 7.5560395l7.545326 14.1386804c.047566.0930377.012188.206971-.07975.2568334l-59.940703 31.8833021c-.026717.0116453-.055782.0174121-.084895.01541zm36.337444-55.6121516c-2.937415 0-5.829454.7235825-8.419997 2.106043l-27.884004 14.8141523c-8.758663 4.6600155-12.075635 15.5259423-7.408979 24.2707592l7.460431 13.9666019 59.59598-31.7009503-7.460431-13.966602c-3.133523-5.8481021-9.239815-9.4965741-15.883-9.4900041z" fill="#5b99c4"/><path d="m126.629886 73 11.370114-6.1612284-4.632459-8.8387716-11.367541 6.1612284z" fill="#f9f9f9"/><path d="m126.708923 73.9999875c-.069604-.0003271-.133371-.0395636-.165853-.1020639l-4.523253-8.6156068c-.045067-.0925364-.01082-.2046968.077901-.2551261l11.102073-6.0056673c.044209-.0233024.095707-.0278887.143237-.0127563.047982.0146006.088518.0475239.113081.0918454l4.523253 8.6156068c.046464.0924192.011907.2055952-.0779.2551261l-11.102074 6.0056673c-.027703.0154372-.058865.0233465-.090465.0229748zm-4.271961-8.7278758 4.344836 8.2762892 10.767855-5.8245278-4.33981-8.2762892z" fill="#5b99c4"/><path d="m127 72.689426 10.7603-5.689426 1.2397 2.310574-10.7603 5.689426z" fill="#5b99c4"/><path d="m127.495381 75.9972101c-.018603.0037199-.03774.0037199-.056342 0-.049065-.0133306-.090117-.0474798-.112685-.0937373l-1.303556-2.4892456c-.024169-.0450873-.029369-.0981987-.014414-.147245.014954-.0490464.04879-.0898547.093805-.1131363l11.311999-6.1293766c.044338-.0258318.097321-.0315022.145978-.0156229.049212.0157751.09051.0502994.115245.0963411l1.303556 2.4892456c.047353.0943229.012134.2098301-.079391.2603813l-11.314559 6.1293766c-.028378.0117416-.05916.0162124-.089636.0130191zm-1.044894-2.6038134 1.124285 2.1429384 10.973945-5.9445059-1.121724-2.1455421z" fill="#5b99c4"/><path d="m203 46-59 32" fill="#f9f9f9"/><path d="m143.195231 78c-.089512.0015369-.168212-.0587387-.189637-.1452715s.020122-.176313.100112-.2163368l59.597939-31.6075615c.06088-.0393746.138872-.0411634.201509-.0046218s.099186.1051526.094846.1772706c-.005167.072118-.050409.1353861-.117305.1634664l-59.597939 31.6101078c-.027441.0149877-.058226.0229468-.089525.0229468z" fill="#5b99c4"/><path d="m135.879827 48.9923265c-.071073.000262-.136314-.0392421-.168969-.1023127l-2.928805-5.4890786c-.026958-.0539499-.026958-.117424 0-.1713739 1.662989-3.5974262 4.46078-6.5508132 7.964608-8.4075496l27.741718-14.7586132c3.493199-1.8739424 7.505756-2.5497331 11.420802-1.9234795.060093.009111.11232.0461112.140808.0997549l2.926244 5.4890787c.035828.0640212.030821.1430702-.012801.2020676-.042835.0589167-.114712.0894123-.18689.0792924-3.832224-.6133951-7.760032.0470851-11.180148 1.8799966l-27.741719 14.7688445c-3.43307 1.8151459-6.173935 4.7072009-7.800758 8.2310601-.030968.0656407-.096358.1082046-.168969.1099862zm-2.713752-5.6860306 2.703512 5.0721542c1.681965-3.4425561 4.414274-6.2628405 7.803318-8.0545707l27.731478-14.7714022c3.381128-1.8157083 7.25237-2.5107883 11.054701-1.9848672l-2.703512-5.0695964c-3.803932-.5873374-7.695858.0779358-11.087983 1.8953435l-27.728917 14.7765179c-3.407045 1.796154-6.135605 4.6524331-7.772597 8.1364209zm-2.048115-3.2279671c-.070213-.0003561-.134787-.0384791-.168969-.0997549l-2.928805-5.4916365c-.026915-.0530595-.026915-.1157564 0-.168816 1.662331-3.5967942 4.461648-6.5481469 7.967168-8.3998762l27.736597-14.7688444c3.494989-1.87142307 7.507499-2.54705446 11.423362-1.92347952.058691.01093228.109408.04752767.138248.09975492l2.928804 5.4916365c.036763.061432.036763.1380778 0 .1995098-.042834.0589167-.114712.0894123-.18689.0792924-3.833333-.6126158-7.761967.0487506-11.182708 1.8825545l-27.744279 14.77396c-3.431253 1.8139409-6.171758 4.7029204-7.800758 8.2233867-.029476.066923-.095787.1099864-.168969.1099864zm-2.713752-5.6860306 2.703511 5.0695964c1.682926-3.4427369 4.416097-6.262986 7.805879-8.0545707l27.741718-14.7688444c3.378065-1.81105 7.244559-2.5033954 11.0419-1.9771938l-2.703512-5.06959637c-3.803104-.58752024-7.694278.07777794-11.085422 1.89534357l-27.736598 14.7688444c-3.401704 1.7991104-6.125334 4.6549321-7.759796 8.1364209z" fill="#5b99c4"/><path d="m143.915813 40.6932176 27.774524-14.7624999c3.461828-1.8457208 7.433324-2.5119008 11.309663-1.897086l-.468887-.8820683-1.56552-2.9300008c-3.876898-.6132548-7.848426.054726-11.309663 1.9021995l-27.766838 14.759943c-3.466821 1.8368015-6.237126 4.753781-7.889092 8.3067825l1.562958 2.9300008.471449.8795116c1.649981-3.5518206 4.417451-6.4686562 7.881406-8.3067824z" fill="#5b99c4"/><path d="m136.206536 48.9924334c-.07058.0002583-.135369-.0386959-.167798-.1008884l-2.01866-3.7580924c-.026771-.0531988-.026771-.1157892 0-.168988 1.651595-3.5461902 4.431291-6.4562326 7.911927-8.2829365l27.544286-14.5607162c3.469955-1.8476905 7.455434-2.514048 11.344157-1.8967016.058735.0097232.109519.0461094.13729.0983661l2.01866 3.7580924c.03558.06313.030607.1410785-.012712.1992546-.042538.0580964-.113917.0881674-.185595.0781885-3.805653-.6048557-7.706227.0464295-11.10263 1.853824l-27.54937 14.5632385c-3.409268 1.7898762-6.131129 4.6416691-7.746672 8.1164706-.030753.0647269-.09569.1066982-.167798.108455zm-1.805099-3.9523025 1.79493 3.3469722c1.670303-3.3946303 4.383668-6.1756518 7.749214-7.9424382l27.5392-14.5657606c3.357685-1.7904308 7.202086-2.4758341 10.978053-1.9572347l-1.794929-3.34445c-3.777559-.5793463-7.64256.0766753-11.011104 1.8689573l-27.54937 14.5708051c-3.379249 1.7725833-6.084409 4.5890797-7.705994 8.0231489z" fill="#5b99c4"/><path d="m175.950541 12.2206248c-3.876281-.6115143-7.846642.0563375-11.307889 1.9020925l-27.752235 14.7616694c-3.467579 1.8358027-6.238521 4.7527996-7.890417 8.3063152l2.034088 3.8092981c1.652682-3.5529822 4.423414-6.4697568 7.890417-8.3063152l27.75992-14.7616694c3.463444-1.847445 7.437071-2.5144944 11.315575-1.8995359z" fill="#5b99c4"/><path d="m132.206498 39.9924339c-.069725-.0003511-.13385-.03794-.167795-.0983573l-2.018625-3.7602744c-.026771-.053194-.026771-.1157788 0-.1689728 1.652496-3.5446131 4.431968-6.4533224 7.91179-8.2796653l27.54635-14.5644433c3.468919-1.847687 7.453585-2.5140093 11.341418-1.8965301.059372.0097242.110936.0459951.139829.0983573l2.018625 3.7602745c.033551.0632951.028249.1399486-.013703.1981042s-.11338.087869-.1846.0767917c-3.806693-.605167-7.708386.0469942-11.10498 1.8561784l-27.548892 14.5694873c-3.407404 1.7885261-6.12886 4.6370287-7.746537 8.1081705-.029271.0659854-.095121.1084454-.167795.1084454zm-1.805068-3.951945 1.794899 3.3441474c1.671228-3.3945014 4.385401-6.1752365 7.751621-7.9417198l27.548893-14.5619212c3.354585-1.7856758 7.194204-2.4683208 10.965151-1.9494917l-1.794899-3.3441475c-3.777491-.5791084-7.642366.0768439-11.010913 1.8687883l-27.548892 14.5619213c-3.378625 1.7731638-6.08353 4.5891891-7.70586 8.0224232z" fill="#5b99c4"/><path d="m134 61-11 6" fill="#f9f9f9"/><path d="m123.198056 67c-.090419.0004062-.169544-.0553657-.191913-.1352806-.022368-.0799149.017762-.1634608.097333-.202634l11.6071-5.6413238c.09649-.0463239.215879-.0125262.266663.0754893.050785.0880155.013733.1969192-.082757.2432431l-11.604473 5.6413238c-.028566.0129106-.060074.0194798-.091953.0191822z" fill="#5b99c4"/><path d="m135 63-11 6" fill="#f9f9f9"/><path d="m124.194137 69c-.072372.0007001-.139188-.0352388-.173416-.0932869-.047123-.0867493-.011314-.1918953.081453-.2391708l11.60837-5.646822c.096501-.0462317.215903-.0125013.266693.0753388.05079.08784.013734.1965267-.082767.2427583l-11.60837 5.6300801c-.027117.0175443-.058838.028269-.091963.0311025z" fill="#5b99c4"/><path d="m136 65-11 6" fill="#f9f9f9"/><path d="m125.200356 71c-.091862.0014454-.172627-.0552436-.194615-.1366275-.021987-.0813839.02065-.165822.10274-.2034643l11.594618-5.6349992c.062178-.0334611.139443-.0331926.20134.0006996.061897.0338923.098498.0959721.095376.16177s-.045466.1247601-.110342.153646l-11.597242 5.637394c-.028161.0140959-.059754.0215075-.091875.0215814z" fill="#5b99c4"/><path d="m151 58.2440758 8.013448 1.7559242 2.984002-7.5014481 8.015998 1.7559241 2.984002-7.5039494 8.015998 1.7534228 2.986552-7.5039494" fill="#f9f9f9"/><path d="m159.098944 59.9982284c-.013353.0023621-.027004.0023621-.040358 0l-7.925318-1.8081471c-.093901-.0297661-.149896-.1282161-.128851-.2265431.021045-.0983271.112117-.1637675.209567-.1505848l7.768931 1.7771504 2.890648-7.594218c.033856-.0889184.125907-.1393393.216924-.1188211l7.768931 1.7771503 2.89317-7.594218c.033857-.0889184.125908-.1393393.216925-.1188211l7.771454 1.7771504 2.89317-7.594218c.037613-.0998612.147155-.1495898.244671-.1110719.097515.0385179.146075.1506963.108462.2505575l-2.953707 7.749202c-.033857.0889184-.125908.1393394-.216925.1188211l-7.771453-1.7771503-2.893171 7.594218c-.033856.0889184-.125907.1393393-.216924.1188211l-7.768931-1.7952318-2.890648 7.5916349c-.023408.0798074-.095195.1344174-.176567.1343195z" fill="#5b99c4"/><path d="m180.81219 249h-68.621842c-.105126 0-.190348-.085069-.190348-.190008v-3.643079c.007256-1.989321 1.239705-3.769247 3.101409-4.479112l2.360319-.889236c3.041487-1.141833 5.54783-3.373634 7.030198-6.260116l1.157318-2.254757c2.291583-4.479776 6.909785-7.294892 11.948799-7.283659h43.211609c.105126 0 .190348.085103.190348.190042v24.619917c0 .104939-.085222.190008-.190348.190008zm-68.431493-.380015h68.241144v-24.239948h-43.023798c-4.896701-.012797-9.384685 2.723753-11.60871 7.078462l-1.159856 2.252223c-1.522743 2.976464-4.102776 5.279071-7.235774 6.457725l-2.357781.886702c-1.715236.652338-2.850473 2.292211-2.855225 4.124432z" fill="#000"/><path d="m218.969688 98.1736126c-.028741-.0421715-.072711-.0715228-.122643-.0818677l-124.2443402-27.0879513c-.050036-.0097198-.1018943-.0006101-.1456378.0255836-.0415764.0281685-.0708265.0711853-.0817615.1202431l-16.3753055 75.3156597c.1456378-.07931.2938306-.153502.4420234-.227695l16.2654384-74.8167782 123.8713032 27.0086421-27.862803 128.1740051-100.1451237-21.848423-.158413.35817 100.4134037 21.886799h.040881c.089481 0 .16651-.063605.186518-.150943l27.944565-128.5372928c.007046-.0479243-.002899-.0968057-.028105-.1381516z" fill="#000"/><path d="m72.5507715 165.024427c7.6033562-7.684364 12.4492285-18.285846 12.4492285-30.025283-.0013683-19.718203-13.7204077-36.7802974-32.9787526-41.0150139-19.2583449-4.2347164-38.8695265 5.4983974-47.14268159 23.3971159-8.27315507 17.898718-2.98023848 39.142734 12.72346999 51.067797 15.7037085 11.925064 37.58904 11.319635 52.6094364-1.455371z" fill="#f9f9f9"/><path d="m67 161-16 15c3.8693738-.818465 7.6038617-2.171094 11.0943275-4.018358z" fill="#000"/><circle cx="42.414258" cy="134.743176" fill="#000" r="29.885177" transform="matrix(.94322266 -.33216113 .33216113 .94322266 -42.348277 21.738727)"/><path d="m42.0604626 164.999951c-11.4980581.020646-21.99687-6.529447-27.0311827-16.864505s-3.718748-22.637467 3.3871709-31.674887c7.1059189-9.037419 18.752483-13.220449 29.9862883-10.770003 7.773413 1.697499 14.5538722 6.412963 18.8495572 13.108908s5.754664 14.823792 4.0559359 22.595273l-.185789-.040712.185789.040712c-3.0100599 13.749612-15.1695745 23.563262-29.2477696 23.605214zm-.0636264-59.622408c-15.7634908-.026108-28.7941176 12.279128-29.6663831 28.01495-.8722655 15.735823 10.718538 29.405256 26.3883862 31.120731 15.6698483 1.715475 29.9448111-9.122272 32.4993201-24.673929 2.5545091-15.551657-7.5037993-30.384581-22.8994071-33.769611-2.076603-.45477-4.1960786-.685096-6.3219161-.687011z" fill="#000"/><path d="m62.3799586 172.060514.2552475-.561595c-6.1807355 3.353953-13.1019704 5.108988-20.1339299 5.105412-23.2275307 0-42.11585234-18.890024-42.11585234-42.119647 0-23.229624 18.88832164-42.1196471 42.11585234-42.1196471s42.1158524 18.8900231 42.1158524 42.1196471c.0010369 3.353726-.396535 6.695688-1.1843488 9.955553.1352812-.02808.2731149-.053607.4083961-.076582.7698091-3.233994 1.1588241-6.546943 1.1588241-9.871313 0-23.428735-19.0593376-42.492342-42.4885139-42.492342s-42.5114861 19.076371-42.5114861 42.505105c0 23.428735 19.06189 42.494895 42.4910663 42.494895 6.9329676-.001735 13.7605365-1.697389 19.8888923-4.939486z" fill="#000"/><path d="m106 163.315071c0-9.662212-7.1280778-17.838045-16.6872902-19.137973-9.5592123-1.299927-18.6064899 4.676159-21.1778475 13.98881l-29.4458357 67.61987-23.6890266 3.388415 52.2712131 26.733675.1788623.092132 37.7475986-85.37578-.534031-.255922c.883671-2.246177 1.336357-4.638965 1.336357-7.053227z" fill="#5b99c4"/><path d="m125.594488 110c-20.246071.002477-37.6664376 14.29122-41.594488 34.117134.9937009-.163829 1.9987925-.249216 3.0059366-.255368.6574263-7.547395 5.6790864-14.012194 12.8380101-16.527435 7.1589233-2.51524 15.1299833-.615347 20.3782283 4.857128l40.888413 43.083095c-2.689179 4.07332-6.010345 7.693704-9.839006 10.725446 14.481499-10.997665 20.317568-29.993359 14.502684-47.204465-5.814885-17.211107-21.983752-28.798806-40.179778-28.795535z" fill="#000"/><path d="m138 193.879032v.120968c.336957-.322581.668478-.653226 1-1-.3125.306452-.657609.604839-1 .879032z" fill="#000"/><path d="m98.993 186.0015.014.01-.008-.023z" fill="#000"/><path d="m151.889242 154 4.999164 3.740673c2.628634 2.708257 5.081858 5.661162 7.111594 9.220795l-.443535 1.790826-8.056298 1.247706-4.77865-3.850765 3.555797-5.382263-5.277314-4.555351z" fill="#f9f9f9"/><path d="m129.719003 147-14.719003-32.983254 20.300054-1.016746 12.643932 27.92494m-17.448422 5.973385 17.504436-5.991178" fill="#dbbab4"/><path d="m133 146.205063 15.220335-5.205063 6.779665 14.465823-9.786878 3.534177z" fill="#f9f9f9"/><path d="m154.651577 156-6.553917-14.537512-17.271109 5.941596-.122075-.362417 17.235504-5.931387-12.494914-27.714684-19.867752.987714 16.083418 36.234033-.348423.155686-16.312309-36.74448 20.686673-1.028549.053408.119955 19.259919 42.724359z" fill="#000"/><path d="m161 175.991123-40.786294-43.044752c-6.233434-6.508674-16.145442-7.832128-23.8690035-3.186996-7.7235615 4.645133-11.1979175 14.019463-8.3665603 22.574226l.0739992.219382 19.9593586 60.202451-14.0037024 12.244566h55.0962004l-10.528294-31.74914c14.230803-3.846835 22.424296-17.259737 22.424296-17.259737z" fill="#5b99c4"/><path d="m143 177-7 10.99692 1.728334 5.00308 3.912274-1.423894z" fill="#000"/><path d="m145 158.906153 6.646953 7.093847 3.353047-4.981004-4.566727-4.018996z" fill="#5b99c4"/><path d="m152.517312 156.028922h.382718v6.057151h-.382718z" fill="#000" transform="matrix(.66340399 -.74826142 .74826142 .66340399 -67.615459 167.804126)"/><path d="m145.196196 159c-.08191.000331-.155063-.053997-.182366-.135439-.019752-.052352-.018294-.110953.004034-.16214.022327-.051187.063572-.090487.114119-.108736l9.624328-3.586394c.097353-.028192.19883.027661.232572.128007.033742.100345-.0117.211141-.104145.253928l-9.624328 3.586394c-.019834.012145-.04159.020405-.064214.02438z" fill="#000"/><path d="m152.191137 166c-.038802-.00021-.076803-.011338-.109857-.032169-.083151-.06159-.105954-.178442-.052313-.268071l5.610573-8.610468c.060673-.092533.183049-.117137.273336-.054955.090286.062182.114293.187602.053621.280135l-5.610574 8.597064c-.037852.05493-.099173.08785-.164786.088464z" fill="#000"/><path d="m148.808487 250h-20.616974c-.10577 0-.191513-.223858-.191513-.5s.085743-.5.191513-.5h20.616974c.10577 0 .191513.223858.191513.5s-.085743.5-.191513.5z" fill="#000"/><path d="m182.818232 114h-.041023l-93.6243529-20.6146274c-.0673262-.0143592-.1219637-.0639536-.1433309-.1301014-.0213673-.0661477-.0062181-.1387995.0397409-.1905881.0459589-.0517885.1157455-.0748459.1830717-.0604866l93.6166612 20.6094415c.050096.01114.093715.04206.12116.085885.027444.043825.036439.096923.024984.147488-.01748.085887-.090304.148864-.176911.152989z" fill="#000"/><path d="m159.19142 220h-.040388c-.04959-.009734-.093147-.039267-.120733-.081863s-.036847-.09462-.025671-.144204l27.619963-127.6235028c.014429-.0666998.063124-.1205869.127741-.1413624.064618-.0207755.135341-.0052832.18553.0406412s.072217.1153037.057788.1820036l-27.619963 127.6184234c-.019767.086714-.095865.149864-.184267.149864z" fill="#000"/><path d="m106.578651 93.8304195c2.711986.5625543 5.532923-.2962817 7.400192-2.2529927 1.867269-1.9567111 2.497186-4.7140263 1.65247-7.2332916-.844717-2.5192654-3.035737-4.4177446-5.747722-4.9802989l-6.581254-1.3638363-3.302337 14.4641035z" fill="#000"/><path d="m108.262794 94c-.560387-.0010913-1.119086-.0622347-1.666765-.1824089l-6.596029-1.4567025.040591-.1875472 3.25996-15.1733414 6.596029 1.4541333c3.867835.858522 6.478397 4.5266517 6.059343 8.5140526s-3.733503 7.0169342-7.693129 7.0318141zm-1.585584-.5600725c2.598126.6236901 5.326322-.2219657 7.134608-2.2115065 1.808287-1.9895408 2.414805-4.8128544 1.586127-7.3833544-.828677-2.5704999-2.963382-4.4875192-5.582547-5.0132697l-6.225636-1.3719208-3.138188 14.6106997z" fill="#000"/><circle cx="101.837051" cy="84.771396" fill="#f9f9f9" r="7.616089" transform="matrix(.99021943 -.13951876 .13951876 .99021943 -10.831176 15.037292)"/><path d="m102.010368 93c-3.3931201.0043915-6.4198689-2.1324298-7.5517351-5.3313807-1.1318661-3.1989509-.1225695-6.7639792 2.5181941-8.8947422 2.6407637-2.1307631 6.338397-2.3636332 9.225591-.5810107 2.887195 1.7826225 4.335732 5.1928609 3.614101 8.5085417-.796725 3.670038-4.040379 6.290767-7.795697 6.2985919zm-.033974-15.6053295c-3.9875288.0076719-7.2920034 3.094161-7.5715748 7.0721031-.2795714 3.977942 2.5607093 7.4963345 6.5079638 8.0617274 3.947254.565393 7.660901-2.0142343 8.509116-5.9107255.891144-4.1040449-1.711559-8.1539557-5.814759-9.0479993-.535809-.1161914-1.082484-.174892-1.630746-.1751057z" fill="#000"/><circle cx="101.833547" cy="84.766407" fill="#f9f9f9" r="5.368259" transform="matrix(.31167164 -.95018987 .95018987 .31167164 -10.449263 155.108327)"/><path d="m101.50906 90c-2.6368313.0042004-4.9056075-1.8636443-5.4078361-4.4521937s.9034345-5.1692981 3.3505272-6.1514516c2.4470929-.9821535 5.2469199-.0893006 6.6736459 2.1281969 1.087905 1.6908825 1.166379 3.8406649.204651 5.6063648-.961729 1.7656999-2.810355 2.8658557-4.820988 2.8690836zm-.012619-10.6157665c-2.7327705-.0041007-4.991239 2.1303558-5.1412922 4.8589904-.1500533 2.7286346 1.8607483 5.0978642 4.5774902 5.393434 2.716742.2955697 5.189997-1.585814 5.630243-4.2828769s-1.306371-5.2672553-3.976087-5.8509158c-.358065-.0790259-.723673-.1188025-1.090354-.1186317z" fill="#000"/><path d="m102 85 5 1" fill="#f9f9f9"/><path d="m104.266902 82.6565115h.382718v5.3682586h-.382718z" fill="#000" transform="matrix(.21251878 -.97715698 .97715698 .21251878 -1.132284 169.276271)"/><path d="m123 250.0024v5.8176c.001369.098871.085942.178707.190678.18h4.182203c2.542373 0 4.627119-2.6904 4.627119-6h-9z" fill="#000"/><ellipse cx="123.5" cy="250" fill="#f9f9f9" rx="4.5" ry="6"/><path d="m123.5 256c-2.473887 0-4.5-2.9146-4.5-6.5s2.018692-6.5 4.5-6.5 4.5 2.9146 4.5 6.5-2.018692 6.5-4.5 6.5zm0-12.6022c-2.275976 0-4.128917 2.7404-4.128917 6.1048s1.852941 6.1074 4.128917 6.1074 4.128917-2.7404 4.128917-6.1074-1.852941-6.1048-4.128917-6.1048z" fill="#000"/><path d="m119 249c0-3.313248 2.015195-6 4.5-6s4.5 2.686752 4.5 6z" fill="#000"/><path d="m127.814426 248.999985h-8.628885c-.102472 0-.185541-.078257-.185541-.174773 0-3.208527 2.018684-5.825212 4.499983-5.825212 2.4813 0 4.500001 2.612025 4.500001 5.825212.000655.04654-.018677.091359-.053619.12427-.034943.032912-.082527.05112-.131939.050503zm-8.44087-.349529h8.252855c-.069268-2.935907-1.892516-5.296283-4.126428-5.296283-2.233911 0-4.057159 2.360376-4.126427 5.296283z" fill="#000"/><path d="m171 250.0024v5.8176c0 .099411.083797.18.187166.18h2.27344c2.495544 0 4.539394-2.6904 4.539394-6h-6.987522z" fill="#000"/><path d="m176 250c0 3.314356-2.014617 6-4.49871 6s-4.50129-2.685644-4.50129-6" fill="#000"/><path d="m171.499982 256c-2.473877 0-4.499982-2.612039-4.499982-5.825243 0-.096515.083069-.174757.185541-.174757.102471 0 .185541.078242.185541.174757 0 3.029126 1.850459 5.473398 4.1289 5.473398s4.1289-2.455922 4.1289-5.473398c0-.096515.08307-.174757.185541-.174757.102472 0 .185577.078242.185577.174757.009859 3.213204-2.01872 5.825243-4.500018 5.825243z" fill="#000"/><path d="m140.330125 250.0024-1.103031 5.6376h-.039928c-.103369 0-.187166.080589-.187166.18s.083797.18.187166.18h2.27344c2.495544 0 4.539394-2.6904 4.539394-6h-5.669875z" fill="#000"/><path d="m144 250c0 3.314356-2.015195 6-4.5 6s-4.5-2.685644-4.5-6" fill="#000"/><path d="m139.5 256c-2.473887 0-4.5-2.612039-4.5-5.825243 0-.096515.08307-.174757.185542-.174757.102471 0 .185541.078242.185541.174757 0 3.029126 1.852941 5.473398 4.128917 5.473398s4.128917-2.455922 4.128917-5.473398c0-.096515.08307-.174757.185541-.174757.102472 0 .185542.078242.185542.174757 0 3.213204-2.018692 5.825243-4.5 5.825243z" fill="#000"/><path d="m164.796428 167c-.072411-.000759-.139031-.036659-.175235-.094468-2.772457-4.386686-6.340548-8.302615-10.549122-11.577511-.041085-.031438-.066782-.076745-.071342-.125783-.00456-.049039.012398-.097716.047079-.13514.071994-.078677.199079-.089728.285767-.02485 4.244577 3.303693 7.842797 7.254125 10.638088 11.679396.037281.057391.037811.128915.001384.18677-.036426.057855-.104064.092914-.176619.091586z" fill="#000"/><path d="m87 149 8.6346484 44 3.3653516-7.165956z" fill="#000"/><path d="m149 250.0024v5.8176c.001369.098871.085942.178707.190678.18h4.184746c2.542373 0 4.624576-2.6904 4.624576-6h-9z" fill="#000"/><ellipse cx="149.5" cy="250" fill="#f9f9f9" rx="4.5" ry="6"/><path d="m149.5 256c-2.473887 0-4.5-2.9146-4.5-6.5s2.018692-6.5 4.5-6.5 4.5 2.9146 4.5 6.5-2.018692 6.5-4.5 6.5zm0-12.6022c-2.275976 0-4.128917 2.7404-4.128917 6.1048s1.852941 6.1074 4.128917 6.1074 4.131391-2.7404 4.131391-6.1074-1.852941-6.1048-4.131391-6.1048z" fill="#000"/><path d="m145 249c0-3.313248 2.015195-6 4.5-6s4.5 2.686752 4.5 6z" fill="#000"/><path d="m153.814426 248.999985h-8.628885c-.102472 0-.185541-.078257-.185541-.174773 0-3.208527 2.018684-5.825212 4.499983-5.825212 2.4813 0 4.500001 2.612025 4.500001 5.825212.000655.04654-.018677.091359-.053619.12427-.034943.032912-.082527.05112-.131939.050503zm-8.44087-.349529h8.257803c-.071742-2.935907-1.89499-5.296283-4.128902-5.296283-2.233911 0-4.059633 2.360376-4.128901 5.296283z" fill="#000"/><path d="m148.800918 224.99577c-.083567-.000062-.157798-.052891-.184539-.131335l-19.610549-58.624514c-.02468-.098036.031075-.19835.127888-.230099.096814-.031749.201964.015799.241191.109065l19.610548 58.621938c.020689.050052.019249.106405-.003971.155354s-.066092.086009-.118188.102167c-.02078.002871-.041913.001654-.06238-.002576z" fill="#000"/><path d="m88.2186017 151.99158c-.0805799-.000062-.1521572-.052523-.1779427-.13042-2.9193985-8.667043.4645259-18.239285 8.1340263-23.009045 7.6695007-4.769759 17.5584587-3.452092 23.7703427 3.167312.073296.074881.073296.196188 0 .271069-.073387.074788-.192274.074788-.265661 0-6.092082-6.481385-15.781781-7.768202-23.2968453-3.093882-7.5150646 4.674319-10.8334908 14.052104-7.9784587 22.546912.0191669.049759.0173982.105377-.0048896.153763s-.0631263.085267-.1129034.101963c-.0228329.002184-.0458623-.000427-.0676683-.007672z" fill="#000"/><path d="m159.807022 176c-.052494 0-.102762-.021208-.139777-.058201l-40.611502-42.618676c-.074324-.073957-.074324-.193767 0-.267724.074417-.073865.194971-.073865.269388 0l40.619126 42.626253c.074324.073957.074324.193767 0 .267724-.037307.034076-.086594.052218-.137235.050624z" fill="#000"/><path d="m155.802731 171c-.052072-.001086-.101747-.022321-.138463-.059391l-33.608026-35.611377c-.074989-.075356-.074989-.197431 0-.272786.075082-.075261.196715-.075261.271797 0l33.615719 35.621671c.074989.075355.074989.197431 0 .272786-.039098.033713-.089531.051199-.141027.049097z" fill="#000"/><path d="m148.806967 225h-55.5383013c-.08066 0-.1528025-.049669-.1800519-.124905-.0287539-.073963-.0070734-.157858.0540155-.20902l14.0183287-12.161425-20.1529549-60.259081c-.0294826-.098539.0249273-.202544.1231778-.235457.0982505-.032912.2051773.017047.2420704.113103l20.1941097 60.381435c.02498.073047.002569.153806-.056588.203923l-13.7276732 11.90907h54.7563622l-19.322144-57.776325c-.024423-.09704.030752-.196335.126561-.227761s.199868.015639.238687.107956l19.407026 58.026131c.020217.0585.010408.123078-.025722.173334-.03697.049187-.095016.079022-.156903.079022z" fill="#000"/><path d="m119.399713 124 6.750666-4.323625c2.337803-1.497335 5.211213-1.901766 7.871017-1.107842 2.659804.793925 4.842366 2.707512 5.978604 5.241812l-3.431674-10.810345-21.568326 1.107176z" fill="#000"/><circle cx="160" cy="151" fill="#dbbab4" r="5"/><path d="m159.5 157c-3.037566 0-5.5-2.462434-5.5-5.5s2.462434-5.5 5.5-5.5 5.5 2.462434 5.5 5.5c-.002928 3.036352-2.463648 5.497072-5.5 5.5zm0-10.593675c-2.063663 0-3.924075 1.243263-4.713556 3.149942s-.352519 4.101194 1.107091 5.560045c1.45961 1.45885 3.654352 1.894669 5.56062 1.104195 1.906267-.790474 3.148561-2.651533 3.147487-4.715196-.00293-2.815914-2.285726-5.097522-5.101642-5.098986z" fill="#000"/><circle cx="163" cy="158" fill="#dbbab4" r="2"/><path d="m163.002682 159c-.809154.001068-1.539229-.485528-1.849623-1.232779-.310393-.747252-.139939-1.607909.431839-2.180446s1.432209-.744133 2.179873-.434732 1.235229 1.03883 1.235229 1.847983c0 1.103517-.893801 1.998505-1.997318 1.999974zm0-3.599419c-.878955 0-1.591489.712533-1.591489 1.591487s.712534 1.591488 1.591489 1.591488 1.591488-.712534 1.591488-1.591488-.712533-1.591487-1.591488-1.591487z" fill="#000"/><path d="m163 147.687215-6-4.687215 1.888147 6" fill="#dbbab4"/><path d="m158.950177 149c-.078838-.001159-.147667-.057452-.169446-.138585l-1.774471-6.621826c-.020386-.079848.010135-.164607.075309-.209137.065128-.045644.150637-.039472.209454.015118l5.648183 5.172987c.073059.068741.081422.187388.018828.267091-.030526.03819-.074005.061786-.12082.065569s-.093108-.012559-.128642-.045411l-5.189269-4.764793 1.609733 6.017094c.027295.100195-.026442.20511-.120024.234334z" fill="#000"/><path d="m160.312558 176.387996c1.02004-1.53289 2.805108-4.696997 3.687442-7.127434-8.902392-1.172358-17.167259 1.500115-21.34177 10.286498-3.503834 7.377032-.925685 18.845973 2.828059 18.442581s3.593088-8.19138 3.514035-9.855373c1.099092 3.607838 3.236074 6.837496 6.541001 6.050881 5.2022-1.230346.339163-10.954615.339163-10.954615l-.056102-.14623c1.935524 3.345633 4.69728 5.909694 7.02297 3.781801 1.626962-1.49003.731878-3.625487-.591623-6.708915-.691077-1.61861-1.83352-2.304377-1.943175-3.769194z" fill="#dbbab4"/><g fill="#000"><path d="m145.441572 199c-.795903 0-1.566538-.514847-2.238634-1.467313-2.423081-3.457196-3.186137-11.921277-.545762-17.651522 3.790013-8.198934 11.370038-11.965039 21.342824-10.610992l-.050534.383561c-9.803499-1.333453-17.244556 2.357998-20.948662 10.389608-2.589842 5.616978-1.852053 13.900863.505335 17.265386.452275.646133 1.182484 1.395235 2.099667 1.287117 3.918873-.432471 3.309944-10.083274 3.302364-10.181095l.379001-.028316c.090878 1.689961.029985 3.384848-.18192 5.063518-.134182 1.250944-.475932 2.469582-1.01067 3.603927-.606402 1.16098-1.427572 1.801964-2.438242 1.917804-.071017.013494-.142717.022948-.214767.028317z"/><path d="m154.498314 194c-1.050974-.014797-2.055918-.42512-2.806858-1.146053-2.836771-2.534022-4.045764-8.811654-3.602051-11.853947l.36893.051316c-.381394 2.626879.650613 8.999812 3.489877 11.531391 1.032006.92124 2.201115 1.23891 3.469934.940789.808723-.156138 1.492494-.682012 1.839664-1.414849 1.385979-2.895677-1.600358-8.882519-1.630271-8.943609l.334031-.161279c.127131.244361 3.096019 6.206767 1.635256 9.258835-.393487.835782-1.170694 1.436932-2.091433 1.617669-.329617.07916-.667715.119358-1.007079.119737z"/><path d="m161.12748 188c-.415305-.00391-.825608-.089574-1.206701-.251938-3.074399-1.25969-5.756811-6.767054-5.920779-9.042054l.381738-.027713c.161406 2.227131 2.838694 7.558139 5.687637 8.722093.882097.410853 1.929805.251119 2.643982-.403101 2.049599-1.720737.171654-5.215116-1.327115-8.021706-.87108-1.635077-1.624307-3.04593-1.593563-3.975581h.384299c-.028181.828876.737856 2.267442 1.55001 3.77907 1.562819 2.925 3.507376 6.568023 1.237445 8.485271-.499756.4586-1.153575.72044-1.836953.735659z"/><path d="m159.804796 176c-.037408 0-.073903-.011573-.104462-.033182-.081879-.057851-.105231-.16922-.053505-.255171 4.557879-6.882988 6.983089-14.96148 6.970945-23.220565 0-23.220565-18.854165-42.103222-42.039692-42.103222-19.996746-.000362-37.2263352 14.106334-41.2014459 33.733612-.0244455.099212-.1224051.161687-.2225093.141909-.1001042-.019779-.1670337-.114832-.1520261-.215909 4.0115425-19.809744 21.4010813-34.047472 41.5836253-34.047472 23.386808 0 42.414274 19.056174 42.414274 42.478324.012338 8.335246-2.435025 16.488285-7.034689 23.434908-.035048.05464-.095673.086768-.160515.086768z"/><path d="m127 231 23-6h-12.048469c-4.373549.000802-8.46757 2.243788-10.951531 6z"/><path d="m69 255h104v1h-104z"/><path d="m156.184674 108h-.039557c-.09945-.022552-.16238-.122502-.14092-.22382l4.628117-21.6272468c.014132-.0660361.061825-.1193869.125114-.1399556.063288-.0205688.132556-.0052306.181712.0402367.049157.0454674.070732.1141563.0566.1801924l-4.628117 21.6272473c-.021514.084761-.09689.143819-.182949.143346z"/><path d="m182.809867 113.994999c-.013618.002445-.027582.002445-.0412 0l-26.615098-5.625663c-.050236-.010207-.094221-.039411-.122243-.081163-.028022-.041751-.037775-.092616-.027107-.141363.024295-.100924.127399-.164329.231749-.142517l26.615099 5.625663c.094891.021664.15828.108597.147803.2027s-.091535.165872-.189003.167344z"/><path d="m182.80986 110.9975h-.041202l-26.616117-5.625616c-.104531-.022094-.170823-.122281-.148068-.223775.022755-.101493.12594-.165859.230471-.143766l26.616117 5.625616c.094895.021664.158286.108596.147809.202698-.010478.094103-.091539.165871-.18901.167343z"/><path d="m183.794757 108.999619h-.04118l-26.602043-5.628145c-.050089-.010154-.093864-.039453-.12146-.081294-.027597-.041842-.036694-.092706-.025242-.141133.010507-.048756.040569-.091447.083547-.118643.042978-.027197.095337-.036664.145515-.026309l26.602042 5.623147c.102155.015063.173978.105567.162946.205327-.011032.099759-.101006.173392-.204125.16705z"/><path d="m184.809968 106.995003h-.041179l-26.60104-5.621823c-.07223-.009263-.132932-.057221-.156952-.123999-.02402-.066777-.007265-.140995.043323-.191897.050587-.050902.126386-.069814.195985-.048898l26.601041 5.621823c.094841.021649.158196.108522.147724.202561-.010471.094039-.091487.165759-.188902.16723z"/><path d="m184.807662 104h-.041198l-26.613972-5.6287681c-.067614-.0142685-.12224-.0624214-.1433-.12632-.02106-.0638987-.005356-.1338353.041198-.1834654.046554-.0496302.116884-.0714138.184498-.0571453l26.613972 5.6162878c.103578.022382.16912.121589.146769.222155-.013991.090229-.093846.157037-.187967.157256z"/><path d="m185.807159 102h-.041197l-26.613473-5.6279953c-.067613-.0142982-.122237-.0625513-.143297-.126583-.02106-.0640316-.005356-.1341138.041197-.1838473s.116882-.0715625.184494-.0572643l26.613473 5.6279789c.05031.010746.094115.040572.121676.082847.027561.042276.036594.093496.02509.142272-.020511.084448-.098654.143722-.187963.142592z"/><path d="m185.80985 98.9900078h-.041203l-26.617487-5.6206032c-.103591-.0223992-.169142-.121683-.146788-.2223261.010463-.0486164.040653-.0911038.083768-.117889.043114-.0267852.095526-.0356149.145427-.0244996l26.617487 5.6255993c.0949.0216445.158294.1084985.147816.2025171s-.091544.1657233-.18902.1671937z"/><path d="m186.809853 96.9982856c-.013633.0022859-.027569.0022859-.041203 0l-26.61703-5.6291004c-.050118-.0101559-.093917-.0394595-.121529-.081308-.027613-.0418486-.036715-.0927216-.025256-.1411565.02309-.1005488.12544-.1641747.22919-.1424772l26.617031 5.6241013c.094899.0216579.158292.108566.147814.2026431s-.091542.1658265-.189017.1672977z"/><path d="m186.812209 93.9974996h-.041204l-26.617476-5.6258946c-.067622-.0138462-.1225-.0616688-.143962-.1254534-.021461-.0637847-.006245-.1338409.039916-.1837793s.116255-.072172.183878-.0583258l26.617476 5.6258947c.09453.0214683.157958.1077305.148168.2015108-.009789.0937802-.089752.1659318-.186796.168548z"/><path d="m187.798655 91.9948254h-.041183l-26.603968-5.6237272c-.050214-.0102039-.094181-.0393978-.122191-.0811351s-.03776-.0925849-.027096-.1413146c.02313-.1007259.124844-.1650936.229079-.1449672l26.603968 5.6237273c.101044.0156046.172001.1050535.161753.2039077-.010249.0988542-.098142.1727742-.200362.168508z"/><path d="m161 86v23l-5-1.104614z"/></g><path d="m235.682045 238.195444c.321433.745355-.253097 1.714572-.169575 2.482823s.802317 1.6408.632742 2.406507-1.192086 1.223605-1.591979 1.907908c-.399893.684302-.293593 1.780713-.890901 2.322559-.597309.541846-1.660316.277282-2.404421.600355-.744105.323072-1.313573 1.271938-2.080457 1.353342-.766883.081404-1.533767-.763163-2.295589-.933603-.761822-.170439-1.794457.254388-2.472757-.137369-.678299-.391757-.787131-1.508519-1.316104-2.108874-.528972-.600354-1.597041-.824216-1.918474-1.572115-.321433-.7479.253097-1.714573.169575-2.482824-.083522-.76825-.804849-1.6408-.632743-2.406507s1.189556-1.226148 1.589449-1.907907.296123-1.780714.893432-2.322559c.597309-.541846 1.660316-.277283 2.404421-.600355.744105-.323073 1.313573-1.271939 2.080456-1.353343.766884-.081404 1.533768.763163 2.29559.933603.761821.17044 1.794457-.254388 2.472756.134825.6783.389214.787132 1.511063 1.313573 2.111418.526442.600355 1.594511.824216 1.921006 1.572116zm-7.681491-10.47314-27.220574-63.088137c4.02171-3.655551 6.327423-7.476453 4.014117-12.866927-2.077926-4.820646-7.501792-10.033049-12.492864-10.760598-.218475-.032558-.437394.056134-.572336.231873-.134942.175738-.164824.411067-.078123.615238l5.53523 12.818593-10.359257 4.515381-5.53523-12.833857c-.088905-.203481-.280408-.342671-.500517-.363791s-.434355.079138-.559959.262036c-2.882774 4.159238-2.804314 11.701832-.723857 16.535198 2.325961 5.38793 6.68429 6.298638 12.09044 5.850915l27.220573 63.088138c-4.598996 4.63504-5.273562 11.900284-1.607259 17.310591 3.666302 5.410307 10.639584 7.439981 16.614944 4.836019s9.267759-9.107249 7.84466-15.495107c-1.423099-6.387857-7.160384-10.858924-13.669988-10.653021zm-23.353253-76.295944-25.27932 11.017529" fill="#f9f9f9"/><path d="m229.185384 255.999948c-5.603438.015207-10.668489-3.333889-12.847846-8.495261s-1.047102-11.126318 2.872041-15.130493l-27.405326-63.189418c-3.069479.2404-5.371588 0-7.226064-.767235-2.268856-.928353-3.918701-2.641843-5.046734-5.245325-2.02074-4.657112-2.302109-12.403622.749464-16.792202.166083-.241986.450323-.374931.742552-.347307.29223.027624.546512.211475.664292.480294l5.517388 12.72586 10.119047-4.386023-5.519945-12.72586c-.118366-.266809-.081058-.577007.0972-.808153.179943-.235695.474227-.354368.767369-.309451 5.294851.767234 10.743175 6.273419 12.774146 10.933089 2.557899 5.915377-.557621 9.922897-4.003111 13.060886l27.405326 63.189418c4.985629-.089665 9.637572 2.496733 12.191911 6.778487 2.554338 4.281755 2.619944 9.60323.171941 13.946635-2.448002 4.343404-7.034769 7.043662-12.021093 7.076893zm-37.138131-87.209019.053716.127872 27.563916 63.552576-.092084.092068c-4.513402 4.523071-5.244216 11.587503-1.752279 16.938434 3.491937 5.35093 10.253432 7.527716 16.21208 5.219294 6.165928-2.365912 9.720792-8.838581 8.408514-15.31016-1.312277-6.471579-7.107805-11.048886-13.70848-10.826956h-.130453l-.053716-.1202-27.57159-63.555134.102316-.092068c3.552922-3.214712 6.499621-6.979275 4.008228-12.718188-.020464-.051149-.046043-.104855-.069064-.158562l-25.202975 10.925417.069063.161119c2.488835 5.736356 7.251643 6.160892 12.022124 5.764488zm-11.10128-22.359766c-.140033-.000151-.271137.068738-.350432.184136-2.253509 3.222384-3.199932 10.127493-.92596 15.894538l7.185138-3.112414-5.519946-12.72586c-.057552-.142531-.189717-.241145-.342758-.255745zm11.60007-5.033057c-.132488-.001009-.257666.060621-.337642.166234-.093966.120305-.113655.282712-.051158.421979l5.517387 12.710515 7.18258-3.112414c-2.140962-4.447401-7.272106-9.475344-12.244661-10.196544-.022489.000833-.044806.004266-.066506.01023zm37.255795 108.86032c-.480885 0-.923402-.255744-1.353129-.511489-.542069-.424896-1.247254-.58189-1.918424-.427094-.534601.051149-1.089665.104855-1.534739-.161119-.445074-.265975-.667612-.767235-.882475-1.263379-.119261-.321191-.285639-.622861-.493675-.895107-.234782-.23108-.504006-.424336-.798064-.572868-.470653-.276205-.959212-.562639-1.174075-1.058784-.214864-.496145-.089527-1.048553.030694-1.580502.090641-.316628.132898-.645134.125337-.974388-.055741-.338652-.161786-.667075-.314621-.974388-.214864-.49103-.434843-.999962-.322295-1.503779.112547-.503817.5346-.879762.936191-1.235247.571625-.383549.939223-1.004878 1.000138-1.690473.115105-.529392.237885-1.079243.634359-1.429613.396474-.350371.928517-.388732 1.455444-.439881.349034-.01368.69399-.080072 1.02316-.196924.310174-.161741.594639-.368588.844106-.613787.399032-.350371.810854-.713528 1.31476-.767235.503906-.053706 1.02316.237843 1.478466.51149.540956.425151 1.245507.582212 1.915866.427094.537158-.051149 1.092222-.104856 1.534739.161119.442516.265974.667611.767234.882475 1.260822.117671.322704.284166.625448.493674.897664.235462.230273.504555.423434.798065.572868.470653.276204.956654.562639 1.174075 1.058783.214864.496145.089527 1.048554-.030695 1.580503-.091543.316487-.134663.645001-.127894.974388.05676.337921.163665.665475.317179.97183.212306.493587.432285 1.002519.319737 1.506337-.112547.503817-.532043.879762-.936191 1.235247-.569832.384861-.936187 1.005678-.99758 1.690473-.117663.529391-.237885 1.076685-.636917 1.429613s-.925959.388732-1.452886.439881c-.712873-.021372-1.398235.275784-1.869824.810711-.399032.35037-.810854.713528-1.317318.767234zm-2.655099-1.370792c.161619-.002091.322952.014211.480885.048592.364078.102222.709484.261944 1.023159.473128.432285.255744.841549.511489 1.245697.46034s.729001-.342698 1.097338-.667494c.533851-.586577 1.294131-.915414 2.087246-.902779.488558-.046034.951538-.092068 1.238023-.345255.286484-.253187.406706-.73143.511579-1.22246.0789-.764908.488156-1.457157 1.12036-1.895069.376011-.332468.729001-.644477.81597-1.022979.086968-.378502-.099758-.813268-.296717-1.278724-.170552-.343415-.287853-.710776-.347874-1.089473-.012126-.369696.033615-.739015.135569-1.094587.112547-.493588.217421-.961601.051158-1.34266-.166264-.383617-.578085-.624018-1.02316-.88232-.329918-.16819-.631198-.387421-.892706-.649591-.236713-.301391-.424858-.63792-.557622-.997405-.199516-.455226-.386243-.884877-.723886-1.084358-.337642-.199481-.813411-.158562-1.309644-.10997-.375517.057627-.757631.057627-1.133149 0-.363399-.104056-.708527-.263649-1.023159-.473128-.432285-.255745-.836433-.51149-1.243139-.460341s-.731559.342698-1.099896.667494c-.277703.273318-.596105.50194-.943865.677724-.366493.133403-.751188.210156-1.140823.227613-.491116.046034-.951538.08951-1.238023.342698-.286484.253187-.406706.733987-.51158 1.225017-.058785.370836-.176211.729958-.347874 1.063898-.211485.314889-.470323.595248-.767369.831171-.376011.329911-.729001.641919-.81597 1.022979s.099758.815826.296716 1.278724c.170887.34328.288204.710693.347874 1.089473.010854.369637-.034864.738762-.135568 1.094587-.112548.493588-.217422.961601-.051158 1.34266.166263.38106.578085.624018 1.023159.879762.329541.169868.630698.389873.892707.65215.235225.301445.423247.636893.557622.994847.196958.457783.383685.887434.723885 1.086915.340201.199481.813412.156004 1.309644.10997.20719-.035804.439959-.058821.644591-.058821z" fill="#000"/><path d="m164.865868 152c-.065786 0-.121845-.062073-.132371-.14648l-.731619-5.64996c-.007988-.06147.00986-.12381.046821-.163537.036962-.039727.087421-.050806.132371-.029064.04495.021743.077562.073004.08555.134474l.731619 5.649959c.011877.095524-.037563.185697-.110905.202283z" fill="#5b99c4"/><path d="m165 149.019335c.935247-.132057 1.816565.426163 1.977067 1.25226.074282.39562-.033546.801091-.2994 1.125856s-.667589.54177-1.115481.602549" fill="#5b99c4"/><path d="m165.625631 152c-.08223-.000047-.152302-.075732-.165459-.178712-.007724-.055775.002643-.113144.028747-.159081.026103-.045937.065729-.076545.109881-.084874.330445-.064833.626724-.294653.822823-.638255.196765-.336924.277442-.760667.223593-1.17439-.117481-.869564-.76434-1.457556-1.45112-1.319061-.09137.018744-.177434-.059972-.19229-.175875-.013411-.11647.04929-.225058.140864-.243956.868779-.176087 1.687422.567757 1.8357 1.667974.069378.524017-.02968 1.06145-.27502 1.4921-.247325.437005-.622836.72939-1.041944.811293z" fill="#5b99c4"/><path d="m236.494809 238.806597c.3321.753052-.261496 1.732276-.175202 2.50846.086293.776183.828942 1.657742.65374 2.431356-.175203.773613-1.231647 1.236239-1.644811 1.927607-.413163.691369-.303335 1.799101-.920466 2.346541-.617131.547441-1.715414.280146-2.484213.606554-.768798.326408-1.357165 1.285072-2.149498 1.367317-.792333.082244-1.584666-.771044-2.371769-.943243-.787104-.1722-1.854008.257014-2.554817-.138788-.70081-.395802-.813253-1.524095-1.35978-2.130649s-1.65004-.832726-1.98214-1.588349c-.3321-.755622.261496-1.732276.175202-2.50846-.086294-.776183-.831557-1.657742-.65374-2.431356.177817-.773613 1.229032-1.238809 1.642195-1.927607.413164-.688799.305951-1.799101.923082-2.346541.61713-.547441 1.715414-.280146 2.484213-.606554.768798-.326408 1.357164-1.285072 2.149497-1.367317.792334-.082244 1.584667.771044 2.37177.943243.787103.1722 1.854007-.257014 2.554817.136218.700809.393232.813253 1.526665 1.357165 2.133219.543911.606554 1.647425.832726 1.984755 1.588349z" fill="#000"/><path d="m229.652524 250c-.480141 0-.921973-.250999-1.351036-.501998-.54123-.417012-1.245324-.571093-1.915456-.419169-.533774.0502-1.087979.102909-1.532365-.15813s-.666579-.752997-.88111-1.239936c-.119076-.315231-.285197-.611303-.492911-.878497-.234419-.226793-.503227-.416462-.79683-.562239-.469925-.271079-.955174-.552198-1.172259-1.039136-.217085-.486939-.089388-1.029097.030647-1.551176.090501-.310752.132692-.633162.125143-.956307-.055655-.332368-.161536-.654697-.314135-.956307-.214531-.481919-.43417-.981407-.321796-1.475876.112373-.494468.533773-.863437.934742-1.212326.570741-.376431.937771-.986232.998592-1.659105.114927-.519568.237516-1.059217.633377-1.403086s.927081-.381518 1.453193-.431718c.348494-.013426.692917-.078586 1.021577-.19327.309695-.15874.593719-.361748.842801-.602398.398415-.343869.8096-.700288 1.312726-.752998.503127-.052709 1.021577.23343 1.476179.501999.540119.417262 1.243581.571409 1.912902.419169.536328-.0502 1.090533-.10291 1.532365.158129s.666579.752998.88111 1.237426c.117489.316717.283727.613843.492911.881008.235097.226.503774.415577.79683.562238.469925.271079.955174.552198 1.17226 1.039137.214531.486938.089388 1.029097-.030648 1.551175-.091402.310614-.134455.633033-.127697.956307.056672.331651.163412.653128.316689.953797.211977.484429.431616.983917.319243 1.478386-.112374.494468-.53122.863437-.934743 1.212326-.568951.37772-.93474.987017-.996037 1.659105-.117482.519569-.237517 1.056707-.635932 1.403086s-.924527.381519-1.450639.431719c-.71177-.020976-1.396072.270666-1.866932.795667-.398415.343869-.809599.700288-1.31528.752998zm-2.650992-1.345356c.161369-.002053.322453.013947.480141.04769.363515.100325.708387.257084 1.021577.464349.431616.250999.840247.501998 1.24377.451798s.727873-.336339 1.095641-.655108c.534407-.572908 1.293322-.892822 2.084016-.878497.487803-.04518.950067-.09036 1.236108-.338849.286042-.248489.406077-.717858.510789-1.199777.078777-.750714.4874-1.430118 1.118626-1.859904.37543-.326299.727874-.632518.814708-1.003997s-.099604-.798177-.296257-1.254996c-.170289-.337043-.287408-.697588-.347336-1.069257-.012108-.362836.033563-.725303.135358-1.074277.112374-.484428.217086-.943757.051079-1.317746-.166006-.376498-.577191-.612438-1.021576-.865947-.329408-.165069-.630223-.380233-.891326-.637538-.236347-.295798-.424201-.626083-.55676-.978897-.199207-.446779-.385645-.868457-.722765-1.064237-.337121-.195779-.812154-.155619-1.307619-.10793-.374936.056559-.756459.056559-1.131396 0-.362837-.102124-.707431-.258757-1.021577-.464348-.431616-.250999-.835139-.501999-1.241215-.451799-.406077.0502-.730428.336339-1.098196.655108-.277273.268246-.595182.492627-.942404.665148-.365926.130928-.750026.206257-1.139058.22339-.490357.045179-.950067.087849-1.236108.336339-.286042.248489-.406077.720367-.510789 1.202286-.058695.363955-.175939.716413-.347336 1.044157-.211158.309045-.469596.584202-.766182.815747-.37543.323789-.727874.630008-.814708 1.003997s.099604.800688.296257 1.254996c.170623.33691.287759.697506.347337 1.069257.010836.362779-.034811.725054-.135359 1.074277-.112374.484428-.217085.943757-.051079 1.317746s.577191.612438 1.021577.863437c.328728.167196.629348.383067.891325.640048.234862.295852.422593.625076.55676.976387.196653.449289.383091.870968.722765 1.066747.339675.19578.812154.15311 1.307619.10793.206869-.03514.439278-.05773.643593-.05773z" fill="#000"/><path d="m67 45 2.8898233-.8680556c.6526842-.1968385 1.1068172-.8523911 1.1101767-1.6025641.0013023-.7432684-.4419901-1.3973609-1.0860948-1.6025641l-2.8898233-.9268162" fill="#f9f9f9"/><path d="m67.1108383 45-.1108383-.3566122 3.4246181-.8073303c.6773186-.157727 1.1507353-.6897512 1.1573616-1.3006394.0066262-.6108882-.4551653-1.1506149-1.1289416-1.3194696l-3.410408-.8593363.1165223-.3566122 3.410408.8593363c.8541492.2179022 1.4382883.9036401 1.4303599 1.679141-.0079285.7755008-.6059952 1.4520614-1.464464 1.6566688z" fill="#5b99c4"/><path d="m66.6092915 44.9998286-6.1883215-.0579824c-1.3086666.0048729-2.3825782-1.0812715-2.4208593-2.4484349-.0061478-.6641139.2439078-1.3028233.6937202-1.7719485s1.0614624-.7291189 1.6968784-.721291l6.266495.0579823c.6271175.0055657 1.226393.2714644 1.6658093.7391199.4394162.4676556.6829228 1.0987008.6769864 1.7541196-.0054284.6563488-.2605364 1.2834827-.7090882 1.7428864-.4485517.4594037-1.0536405.7132776-1.6816203.7055486z" fill="#5b99c4"/><path d="m66.3571324 44.9951148h-.0240746l-6.5670002-.0537372c-1.4933046.002016-2.7181942-1.0796995-2.7658975-2.4425989-.0078595-.6602343.2738731-1.2958989.7823975-1.7652995.5085245-.4694005 1.2015699-.7334792 1.9246511-.7334792h.0294245l6.6499236.0537372c1.4628039.0475044 2.6198942 1.1472127 2.6134161 2.4837864-.0065327 1.3365737-1.1742822 2.4268469-2.6374906 2.4624764zm-6.6499237-4.640938c-.6162008 0-1.2067821.225143-1.6399819.6253034-.4331998.4001603-.6729728.9420041-.6658243 1.5046429.0405703 1.1668371 1.0915458 2.0918619 2.370005 2.0859795l6.5643253.0537372c.8421347.0320149 1.6364382-.3576196 2.0721433-1.016461s.4435453-1.4821499.0204532-2.1478104-1.2098552-1.0678492-2.0524723-1.0492118l-6.6392238-.048852z" fill="#5b99c4"/><circle cx="60.199738" cy="42.286839" fill="#f9f9f9" r="2.393264" transform="matrix(.2680792 -.96339688 .96339688 .2680792 3.322432 88.946857)"/><path d="m59.5317466 44.764837h-.0223933c-1.3920334-.005845-2.5154865-1.0772176-2.5093281-2.3929778.0062092-1.3157602 1.1396881-2.3776563 2.5317214-2.3718354h.0273697c1.360654.045763 2.436943 1.1046012 2.4309172 2.3915017-.0060765 1.2869005-1.0922802 2.3366542-2.4533106 2.3709596zm0-4.412016c-1.355725.005188-2.4510822 1.0468344-2.448343 2.3282836.0027496 1.2814492 1.1025595 2.3188954 2.4582957 2.3188954 1.3557361 0 2.455546-1.0374462 2.4582956-2.3188954.0027392-1.2814492-1.092618-2.3230956-2.448343-2.3282836z" fill="#5b99c4"/><path d="m57.5256487 38.8970595c.4572623 0 .8279467.3706844.8279467.8279467v5.0850472c0 .4572623-.3706844.8279467-.8279467.8279467s-.8279467-.3706844-.8279467-.8279467v-5.0850472c0-.4572623.3706844-.8279467.8279467-.8279467z" fill="#f9f9f9" transform="matrix(.00890106 -.99996038 .99996038 .00890106 14.747754 99.414674)"/><path d="m59.9978446 43-4.9956985-.0440098c-.55347 0-1.0021461-.4378633-1.0021461-.9779951s.4486761-.9779951 1.0021461-.9779951l4.9956985.0415648c.55347 0 1.0021554.4378633 1.0021554.9779951.0006562.2598038-.1046328.5091893-.2926439.6931281-.188011.1839388-.4432912.287312-.7095115.287312zm-4.9931931-1.6283619c-.3459188 0-.6263413.2736646-.6263413.611247s.2804225.6112469.6263413.6112469l4.9931931.0440098c.2529393.002859.4826094-.1436262.5814579-.3708578.0988484-.2272317.0473053-.4902229-.1304922-.665817-.1167216-.1150921-.2750342-.1809291-.4409443-.1833741l-4.993193-.0415648z" fill="#5b99c4"/></g></svg>