<?xml version="1.0" encoding="UTF-8"?>
<svg width="436px" height="334px" viewBox="0 0 436 334" version="1.1" xmlns="http://www.w3.org/2000/svg" xmlns:xlink="http://www.w3.org/1999/xlink">
    <title>sharepair_hero_2</title>
    <g id="Repair-guidance-tool" stroke="none" stroke-width="1" fill="none" fill-rule="evenodd">
        <g id="Repair-guidance" transform="translate(-803.000000, -192.000000)">
            <g id="sharepair_hero_2" transform="translate(803.000000, 192.000000)">
                <polygon id="Path" fill="#955F6D" fill-rule="nonzero" points="184.264368 87.8945148 183 92 193 88.9831224 189.859606 86"></polygon>
                <path d="M205.180112,207.208762 L271.860792,207.208762 L271.860792,163.051465 L272,163.051465 L271.860792,131.034574 L269.009135,130.190024 L260.403543,130 C260.403543,130 254.231984,146.570071 251.894976,150.408551 C247.59218,157.523885 238.007913,158.600686 234.734414,158.600686 L174.761033,158.600686 C174.301225,158.600686 173.841416,158.566904 173.373171,158.566904 C159.021477,158.559064 146.146137,167.396991 140.98184,180.801052 C135.817542,194.205114 139.430256,209.40856 150.070579,219.049353 L162.160591,257.898654 L127,273.809976 L211.166061,274 L193.022605,222.127738 L192.82012,222.072842 C198.257384,218.383419 202.542101,213.230633 205.180112,207.208762 L205.180112,207.208762 Z" id="Path" fill="#F5F5F5" fill-rule="nonzero"></path>
                <circle id="Oval" fill="#F9F9F9" fill-rule="nonzero" cx="381" cy="207" r="54"></circle>
                <polyline id="Path" fill="#F9F9F9" fill-rule="nonzero" points="121 275 211 275 211 333 121 333"></polyline>
                <polyline id="Path" fill="#F9F9F9" fill-rule="nonzero" points="284 275 398 275 398 333 284 333"></polyline>
                <polyline id="Path" fill="#F9F9F9" fill-rule="nonzero" points="212 208 328 208 328 274 212 274"></polyline>
                <rect id="Rectangle" fill="#71B8C5" fill-rule="nonzero" x="270" y="275" width="48" height="58"></rect>
                <path d="M317.681762,332.999972 L269.318181,332.999972 C269.142455,332.999972 269,332.857814 269,332.682489 L269,274.317511 C269,274.142186 269.142455,274.000028 269.318181,274.000028 L317.681762,274.000028 C317.766497,273.998906 317.848099,274.031983 317.908022,274.091768 C317.967944,274.151553 318.001096,274.232969 317.999972,274.317511 L317.999972,332.682489 C318.001096,332.767031 317.967944,332.848447 317.908022,332.908232 C317.848099,332.968017 317.766497,333.001094 317.681762,332.999972 L317.681762,332.999972 Z M269.653333,332.35657 L317.36358,332.35657 L317.36358,274.634965 L269.653333,274.634965 L269.653333,332.35657 Z" id="Shape" fill="#5A939D" fill-rule="nonzero"></path>
                <path d="M383.499676,327 C379.444525,326.99966 375.954383,324.134665 375.163893,320.157285 C374.373404,316.179906 376.502758,312.198043 380.249599,310.647089 C383.99644,309.096134 388.317082,310.408106 390.568932,313.780575 C392.820781,317.153044 392.376584,321.646607 389.508019,324.512908 L389.508019,324.512908 C387.915875,326.108271 385.753576,327.003326 383.499676,327 Z M383.499676,310.616486 C379.738618,310.619022 376.503062,313.277909 375.771621,316.967178 C375.040181,320.656447 377.016555,324.348671 380.492148,325.785973 C383.967742,327.223276 387.974633,326.005381 390.062519,322.877059 C392.150406,319.748737 391.737831,315.581196 389.077093,312.92298 C387.599115,311.438839 385.590103,310.605685 383.495572,310.608272 L383.499676,310.616486 Z" id="Shape" fill="#5A939D" fill-rule="nonzero"></path>
                <path d="M383.336229,318.999079 C383.246908,318.999501 383.161184,318.963923 383.098418,318.900382 C382.967194,318.769018 382.967194,318.556207 383.098418,318.424843 L389.434058,312.090304 C389.566654,311.966772 389.77328,311.970417 389.901434,312.098549 C390.029588,312.226681 390.033234,312.433271 389.90968,312.565843 L383.583014,318.909355 C383.517479,318.973345 383.427566,319.006035 383.336229,318.999079 Z" id="Path" fill="#5A939D" fill-rule="nonzero"></path>
                <rect id="Rectangle" stroke="#000000" stroke-width="1.5" fill="#000000" fill-rule="nonzero" stroke-linecap="round" stroke-linejoin="round" x="325" y="311" width="5" height="15" rx="2.5"></rect>
                <rect id="Rectangle" stroke="#000000" stroke-width="1.5" fill="#5A939D" fill-rule="nonzero" stroke-linecap="round" stroke-linejoin="round" x="326" y="314" width="9" height="3"></rect>
                <rect id="Rectangle" stroke="#000000" stroke-width="1.5" fill="#F9F9F9" fill-rule="nonzero" stroke-linecap="round" stroke-linejoin="round" x="331" y="314" width="4" height="3"></rect>
                <rect id="Rectangle" stroke="#000000" stroke-width="1.5" fill="#000000" fill-rule="nonzero" stroke-linecap="round" stroke-linejoin="round" x="339" y="311" width="5" height="15" rx="2.5"></rect>
                <rect id="Rectangle" stroke="#000000" stroke-width="1.5" fill="#5A939D" fill-rule="nonzero" stroke-linecap="round" stroke-linejoin="round" x="340" y="320" width="9" height="3"></rect>
                <rect id="Rectangle" stroke="#000000" stroke-width="1.5" fill="#F9F9F9" fill-rule="nonzero" stroke-linecap="round" stroke-linejoin="round" x="345" y="320" width="4" height="3"></rect>
                <path d="M288.5,275 C288.223858,275 288,274.857246 288,274.68115 L288,207.31885 C288,207.142754 288.223858,207 288.5,207 C288.776142,207 289,207.142754 289,207.31885 L289,274.68115 C288.996409,274.856289 288.774641,274.99771 288.5,275 L288.5,275 Z" id="Path" fill="#000000" fill-rule="nonzero"></path>
                <path d="M327.683087,275 L211.316913,275 C211.142838,274.99771 211.002276,274.856289 211,274.68115 L211,207.31885 C211.002276,207.143711 211.142838,207.00229 211.316913,207 L327.683087,207 C327.858113,207 328,207.142754 328,207.31885 L328,274.68115 C328,274.857246 327.858113,275 327.683087,275 L327.683087,275 Z M211.633826,274.362301 L327.366174,274.362301 L327.366174,207.616443 L211.633826,207.616443 L211.633826,274.362301 Z" id="Shape" fill="#000000" fill-rule="nonzero"></path>
                <rect id="Rectangle" fill="#000000" fill-rule="nonzero" x="215" y="211" width="71" height="60"></rect>
                <polyline id="Path" stroke="#F5F5F5" stroke-width="2" stroke-linecap="round" stroke-linejoin="round" points="224 230 237.247869 241 250.495739 230 263.747869 241 277 230"></polyline>
                <polyline id="Path" stroke="#F5F5F5" stroke-width="2" stroke-linecap="round" stroke-linejoin="round" points="224 245 237.247869 256 250.495739 245 263.747869 256 277 245"></polyline>
                <path d="M327.682984,275 L211.317016,275 C211.141933,275 211,274.776142 211,274.5 C211,274.223858 211.141933,274 211.317016,274 L327.682984,274 C327.858067,274 328,274.223858 328,274.5 C328,274.776142 327.858067,275 327.682984,275 L327.682984,275 Z" id="Path" fill="#000000" fill-rule="nonzero"></path>
                <circle id="Oval" fill="#71B8C5" fill-rule="nonzero" cx="307.5" cy="226.5" r="10.5"></circle>
                <path d="M308.500153,238 C304.253362,238 300.424737,235.441795 298.79956,231.518271 C297.174383,227.594747 298.072706,223.078576 301.075641,220.075641 C304.078576,217.072706 308.594747,216.174383 312.518271,217.79956 C316.441795,219.424737 319,223.253362 319,227.500153 C318.995421,233.297161 314.297161,237.995421 308.500153,238 Z M308.500153,217.830663 C303.159841,217.830663 298.830663,222.159841 298.830663,227.500153 C298.830663,232.840466 303.159841,237.169644 308.500153,237.169644 C313.840466,237.169644 318.169644,232.840466 318.169644,227.500153 C318.162782,222.162686 313.837621,217.837524 308.500153,217.830663 L308.500153,217.830663 Z" id="Shape" fill="#5A939D" fill-rule="nonzero"></path>
                <rect id="Rectangle" fill="#000000" fill-rule="nonzero" x="308" y="226" width="11" height="1"></rect>
                <circle id="Oval" fill="#71B8C5" fill-rule="nonzero" transform="translate(308.341607, 254.833633) rotate(-4.230000) translate(-308.341607, -254.833633) " cx="308.341607" cy="254.833633" r="10.254715"></circle>
                <path d="M308.487545,265.000001 C302.690183,264.993122 297.995423,260.28907 298.000003,254.491702 C298.00459,248.694335 302.706782,243.997712 308.504147,244.000001 C314.301512,244.002291 319.000003,248.702627 319.000003,254.500001 C318.993123,260.301002 314.288551,265.000001 308.487545,265.000001 Z M308.487545,244.830361 C303.148783,244.837238 298.825791,249.169522 298.830371,254.508289 C298.834958,259.847057 303.165381,264.171912 308.504147,264.169623 C313.842912,264.167333 318.169629,259.838766 318.169629,254.499996 C318.167337,249.154347 313.833191,244.822058 308.487545,244.822058 L308.487545,244.830361 Z" id="Shape" fill="#5A939D" fill-rule="nonzero"></path>
                <rect id="Rectangle" fill="#000000" fill-rule="nonzero" x="308" y="244" width="1" height="11"></rect>
                <path d="M381.504217,261.40625 C379.345599,261.39846 377.189522,261.262787 375.048193,261 L364,274 L399,274 L387.951807,261 C385.813266,261.262414 383.660018,261.398086 381.504217,261.40625 Z" id="Path" fill="#000000" fill-rule="nonzero"></path>
                <path d="M398.668894,274.999825 L363.318328,274.999825 C363.194742,274.999087 363.08237,274.929359 363.028709,274.820113 C362.978557,274.709546 362.994956,274.580816 363.0713,274.485765 L374.230154,261.111848 C374.29976,261.029691 374.407651,260.988607 374.515514,261.003185 C378.822375,261.52142 383.177625,261.52142 387.484486,261.003185 C387.592447,260.98777 387.700743,261.029008 387.769846,261.111848 L398.9287,274.485765 C399.005044,274.580816 399.021443,274.709546 398.971291,274.820113 C398.915674,274.933511 398.797074,275.003995 398.668894,274.999825 L398.668894,274.999825 Z M363.978489,274.372922 L397.995956,274.372922 L387.37375,261.646805 C383.129998,262.148649 378.840188,262.148649 374.596437,261.646805 L363.978489,274.372922 Z" id="Shape" fill="#000000" fill-rule="nonzero"></path>
                <path d="M377.008384,205.016612 L383.929654,212 L413.694047,198.396985 C424.752986,193.346612 427.528201,178.686149 418.992947,169.985465 L418.816876,169.803584 C413.114124,164.035131 406.181703,159.656066 398.547744,157 L377,205.016612 L377.008384,205.016612 Z" id="Path" fill="#71B8C5" fill-rule="nonzero"></path>
                <path d="M432,224.535076 C429.34451,232.171989 424.965411,239.107219 419.196416,244.812262 L419.014535,244.988366 C410.313851,253.533632 395.653388,250.749502 390.603015,239.688457 L377,209.918395 L377,209.918395 L383.979159,203 L432,224.535076 Z" id="Path" fill="#71B8C5" fill-rule="nonzero"></path>
                <path d="M385,209.979159 L378.077496,203 L348.307792,216.603015 C337.24688,221.653388 334.47117,236.313851 343.007946,245.014535 L343.184049,245.196416 C348.881143,250.962978 355.807563,255.342 363.435833,258 L384.987421,209.979159 L385,209.979159 Z" id="Path" fill="#71B8C5" fill-rule="nonzero"></path>
                <path d="M378.016612,212 L385,205.077496 L385,205.077496 L371.396985,175.307792 C366.346612,164.24688 351.686149,161.47117 342.985465,170.007946 L342.803584,170.184049 C337.037022,175.881143 332.658,182.807563 330,190.435833 L378.016612,212 Z" id="Path" fill="#71B8C5" fill-rule="nonzero"></path>
                <path d="M381,262 C351.194924,261.955856 327.044144,237.805072 327,208 C327,178.219844 351.232497,154 381,154 C410.806023,154.041827 434.958159,178.193966 435,208 C435.012641,237.7675 410.780145,262 381,262 Z M380.999993,154.603281 C359.40739,154.601575 339.940065,167.607559 331.676145,187.556199 C323.412226,207.504838 327.979271,230.467298 343.247547,245.735576 C358.515822,261.003854 381.478279,265.5709 401.426916,257.306979 C421.375553,249.043058 434.381535,229.57573 434.379829,207.983125 C434.344954,178.517392 410.465724,154.640046 380.999993,154.6075 L380.999993,154.603281 Z" id="Shape" fill="#000000" fill-rule="nonzero"></path>
                <path d="M381.5,262 C381.223858,262 381,261.858379 381,261.68368 L381,154.31632 C381,154.141621 381.223858,154 381.5,154 C381.776142,154 382,154.141621 382,154.31632 L382,261.68368 C381.996409,261.857429 381.774641,261.997728 381.5,262 L381.5,262 Z" id="Path" fill="#000000" fill-rule="nonzero"></path>
                <path d="M434.68368,208 L327.31632,208 C327.141621,208 327,207.776142 327,207.5 C327,207.223858 327.141621,207 327.31632,207 L434.68368,207 C434.858379,207 435,207.223858 435,207.5 C435,207.776142 434.858379,208 434.68368,208 Z" id="Path" fill="#000000" fill-rule="nonzero"></path>
                <circle id="Oval" fill="#000000" fill-rule="nonzero" cx="381.5" cy="207.5" r="16.5"></circle>
                <path d="M381.504457,224 C374.83016,224.001704 368.812189,219.982292 366.257258,213.816372 C363.702328,207.650453 365.113709,200.55259 369.83315,195.83315 C374.55259,191.113709 381.650453,189.702328 387.816372,192.257258 C393.982292,194.812189 398.001704,200.83016 398,207.504457 C397.988383,216.609877 390.609877,223.988383 381.504457,224 Z M381.504457,191.637196 C375.086365,191.635491 369.299292,195.500343 366.842013,201.429397 C364.384734,207.35845 365.741229,214.183934 370.278902,218.722813 C374.816575,223.261692 381.641697,224.62 387.571403,222.164297 C393.50111,219.708594 397.367501,213.922548 397.367501,207.504457 C397.358209,198.746708 390.262202,191.648816 381.504457,191.637196 L381.504457,191.637196 Z" id="Shape" fill="#000000" fill-rule="nonzero"></path>
                <circle id="Oval" stroke="#000000" stroke-width="1.5" stroke-linecap="round" stroke-linejoin="round" cx="381" cy="208" r="17"></circle>
                <circle id="Oval" stroke="#000000" stroke-width="1.5" stroke-linecap="round" stroke-linejoin="round" cx="381" cy="207" r="29"></circle>
                <circle id="Oval" stroke="#000000" stroke-width="1.5" stroke-linecap="round" stroke-linejoin="round" cx="381.5" cy="207.5" r="41.5"></circle>
                <circle id="Oval" stroke="#000000" stroke-width="1.5" stroke-linecap="round" stroke-linejoin="round" cx="381" cy="207" r="54"></circle>
                <path d="M236.63068,159 C219.518053,159.003339 203.681304,149.77755 195,134.747808 L238,126 L238,158.719184 L236.63068,159 Z" id="Path" fill="#DBBAB4" fill-rule="nonzero"></path>
                <g id="Group" transform="translate(238.000000, 130.000000)" fill="#559DAA" fill-rule="nonzero">
                    <path d="M0,0 L0,28.4942529 L35.13527,37 L58,14.4937931 C53.7453052,10.4025287 39.2240317,0.0808045977 30.5827465,0.0808045977 C19.0993251,0.0935632184 0,0 0,0 Z" id="Path"></path>
                </g>
                <path d="M210.660532,274 L125.316566,274 C125.167897,274 125.039554,273.896102 125.007839,273.751376 C124.974693,273.606268 125.049071,273.458045 125.185462,273.397402 L161.103515,257.245245 L140.021272,206.479516 C135.529081,195.71525 136.731077,183.426406 143.224666,173.728989 C149.718254,164.031573 160.644791,158.207869 172.344559,158.208459 L234.961148,158.208459 C243.917448,158.206064 251.886776,152.544491 254.808484,144.108506 L262.374409,122.242202 C262.402639,122.125167 262.495136,122.03427 262.612973,122.007767 C262.73081,121.981264 262.853525,122.023757 262.929472,122.117361 C263.005418,122.210966 263.02141,122.33943 262.970717,122.448686 L255.409021,144.314991 C252.39884,153.006036 244.188285,158.838572 234.961148,158.840555 L172.344559,158.840555 C160.86035,158.848058 150.138497,164.569588 143.767419,174.090248 C137.39634,183.610908 136.217726,195.672913 140.626038,206.239319 L161.822468,257.287384 C161.859225,257.364238 161.86285,257.452724 161.8325,257.532306 C161.80215,257.611888 161.740465,257.675646 161.661761,257.708782 L126.788305,273.359476 L210.212244,273.359476 L195.503308,231.013265 C195.446084,230.848025 195.534129,230.667849 195.699963,230.61083 C195.865797,230.553811 196.046621,230.641541 196.103846,230.80678 L210.956572,273.582817 C210.991031,273.678857 210.976857,273.785565 210.91851,273.869367 C210.857724,273.950682 210.762285,274 210.660532,274 L210.660532,274 Z" id="Path" fill="#000000" fill-rule="nonzero"></path>
                <path d="M240,130.296089 L203.338432,146 C198.462014,141.391061 195.110003,135.50419 191,129.998603 L239.608371,122 L240,130.296089 Z" id="Path" fill="#000000" fill-rule="nonzero"></path>
                <path d="M236.694003,159.987166 C219.179763,159.939793 202.980231,150.626828 194.041372,135.466554 C193.956835,135.317395 194.005861,135.127593 194.151871,135.038769 C194.300639,134.958305 194.485876,135.006782 194.576867,135.149993 C203.397942,150.118735 219.390755,159.31396 236.681253,159.358323 C236.857292,159.358323 237,159.501967 237,159.679162 C237,159.856356 236.857292,160 236.681253,160 L236.694003,159.987166 Z" id="Path" fill="#000000" fill-rule="nonzero"></path>
                <path d="M364.934417,78.1318167 C364.873339,78.0497651 364.77744,78.0009995 364.675197,78 L303.32071,78.0212608 C303.144689,78.0212608 303.001996,78.1640423 303.001996,78.3401722 C303.001996,78.5163021 303.144689,78.6590837 303.32071,78.6590837 L303.32071,117.030509 C303.159324,117.027132 303.021593,117.146572 303.001996,117.306899 C302.992483,117.391575 303.01723,117.476539 303.070718,117.542842 C303.124207,117.609145 303.201988,117.651272 303.286714,117.659828 C305.359911,117.885719 307.443798,117.999276 309.52925,118 C320.53478,117.989565 331.317595,114.896327 340.656942,109.070479 C352.072353,101.985239 360.672345,91.1507881 364.985411,78.4209631 C365.016402,78.3220171 364.997382,78.2141721 364.934417,78.1318167 Z" id="Path" fill="#000000" fill-rule="nonzero"></path>
                <path d="M364.975781,39.3265791 C357.988592,19.0444789 340.414862,4.23373098 319.223486,0.767565474 C298.032111,-2.69860004 276.647016,5.73985103 263.548502,22.7366349 L245.257783,47.114988 C232.061705,64.7260475 214.064371,78.1655561 193.419991,85.8248576 L87.4538405,125.265023 C74.4136103,130.078183 67.7486675,144.539267 72.5672742,157.564757 C77.3858808,170.590248 91.8633285,177.247657 104.903559,172.434497 L199.298547,137.236799 C211.865073,132.557327 225.169126,130.164018 238.580487,130.170243 L238.622748,130.170243 L303.570016,130.195571 C303.682348,130.19622 303.790317,130.15217 303.870072,130.073151 C303.949179,129.993486 303.993279,129.88564 303.99263,129.773435 L303.99263,58.1749507 C303.990387,53.3261197 305.917475,48.6751791 309.3496,45.2461416 C312.781725,41.8171041 317.437483,39.8911207 322.291801,39.8922413 L364.574298,39.8922413 C364.711811,39.8929794 364.841085,39.8268408 364.920842,39.7149442 C365.000369,39.6023619 365.022444,39.4571895 364.975781,39.3265791 Z M96.409024,160.125013 C90.1258131,160.125013 85.0322642,155.03722 85.0322642,148.761111 C85.0322642,142.485002 90.1258131,137.397211 96.409024,137.397211 C102.692235,137.397211 107.785785,142.485002 107.785785,148.761111 C107.786905,151.775349 106.588646,154.666452 104.454847,156.79784 C102.321047,158.929227 99.426672,160.126132 96.409024,160.125013 L96.409024,160.125013 Z" id="Shape" fill="#71B8C5" fill-rule="nonzero"></path>
                <line x1="189" y1="87" x2="87" y2="125" id="Path" fill="#955F6D" fill-rule="nonzero"></line>
                <path d="M226.657269,63.7572621 C218.884208,61.3849451 190.414304,63.1875659 183,90.0015505 L189.120218,87.7312686 L189.043341,88.2116841 L189.154385,88.1734209 C191.366718,90.2183752 193.489361,96.4000041 197.69621,95.4306703 C201.001897,94.6654067 203.44913,91.8424345 198.076322,83.3777693 C201.262422,86.5833733 202.163585,96.4595246 208.095883,95.9833606 C212.499193,95.6304891 215.911653,89.0747313 208.710894,81.2690431 C213.771925,86.0689462 216.2277,94.7121728 223.330228,92.1655458 C228.95502,90.1503518 226.512058,78.8244512 219.22161,73.6631736 C224.214307,76.7497366 229.531593,87.5527072 235.023987,83.9049509 C241.191184,79.8065394 237.47122,67.0521468 226.657269,63.7572621 Z" id="Path" fill="#DBBAB4" fill-rule="nonzero"></path>
                <polygon id="Path" fill="#DBBAB4" fill-rule="nonzero" points="269 130 261 130 263.528497 121 269 121"></polygon>
                <polyline id="Path" fill="#F5F5F5" fill-rule="nonzero" points="236 214.275551 101.66752 275 74 213.869933 97.0908426 228.341213 226.080337 170.189905 233.226897 166.970309 231.711217 164"></polyline>
                <path d="M101.884176,274.995481 C101.846463,275.001506 101.80804,275.001506 101.770327,274.995481 C101.693437,274.965181 101.631389,274.905849 101.597444,274.830165 L74.0289487,213.481184 C73.9701937,213.352766 74.0028383,213.200774 74.1090651,213.108165 C74.2151097,213.018945 74.3657317,213.007036 74.4843475,213.078493 L97.334405,227.490607 L232.465572,166.145865 L231.107808,163.462668 C231.028629,163.305818 231.090929,163.11414 231.246958,163.034544 C231.402987,162.954948 231.593661,163.017575 231.67284,163.174426 L233.178186,166.141626 C233.253663,166.299659 233.187641,166.489287 233.030603,166.565512 L97.444038,228.156108 C97.3505638,228.2066 97.2381297,228.2066 97.1446554,228.156108 L75.0367294,214.20179 L102.023326,274.279114 L235.552164,213.464229 C235.711686,213.391656 235.899528,213.462823 235.971721,213.623186 C236.043913,213.783548 235.973119,213.972379 235.813596,214.044952 L102.002243,274.965809 C101.965365,274.983836 101.925155,274.993942 101.884176,274.995481 L101.884176,274.995481 Z" id="Path" fill="#000000" fill-rule="nonzero"></path>
                <path d="M321.433726,182.147352 C314.883507,167.17194 305.732652,154.16888 295.562686,145 L272.626348,167.656527 L282.77517,181.003899 L264.706038,181.003899 C247.402295,181.003899 242.843783,185.943277 237.841259,192.383171 C233.650641,197.78163 229.684143,213.445664 237.346504,214.54661 C244.374563,215.554039 248.603239,200.723153 251.960808,195.885794 C248.184601,206.402162 248.036597,216.433945 254.569901,216.982293 C261.103206,217.53064 262.181518,205.211951 265.196564,198.278969 C261.686763,209.194909 262.49444,216.336178 267.73377,216.884525 C271.154769,217.24584 273.336765,213.874991 273.569343,208.92286 L273.569343,208.893105 C273.569343,212.825054 275.260813,214.801655 277.455496,214.844163 C281.151359,214.895172 281.523482,210.988728 282.419961,208.161975 L282.369217,208.07696 L304.497879,208.07696 C317.78015,208.081211 326.778773,194.372525 321.433726,182.147352 Z M265.192335,198.261966 C265.579739,197.330992 266.075102,196.449237 266.668143,195.634999 L265.192335,198.261966 Z" id="Shape" fill="#DBBAB4" fill-rule="nonzero"></path>
                <polygon id="Path" fill="#000000" fill-rule="nonzero" points="198 236.456146 162.095898 259 158 249.319554 196.486947 232"></polygon>
                <path d="M304.141205,208 L281.936225,208 C281.76043,208 281.61792,207.85768 281.61792,207.682137 C281.61792,207.506594 281.76043,207.364289 281.936225,207.364289 L304.141205,207.364289 C310.283217,207.37666 316.016702,204.2931 319.386264,199.165252 C322.755826,194.037404 323.306362,187.55785 320.850113,181.936432 C315.235207,169.175886 308.160341,158.318191 299.820741,149.664244 C291.332599,140.866205 281.995642,134.780472 271.97539,131.5808 C269.999651,130.951174 267.937838,130.632338 265.863928,130.635731 L237.318305,130.635731 C237.14251,130.635731 237,130.493425 237,130.317883 C237,130.14234 237.14251,130 237.318305,130 L265.859684,130 C267.999835,129.996124 270.127547,130.324974 272.166373,130.974769 C282.271507,134.208345 291.727297,140.349172 300.274857,149.223494 C308.665385,157.932535 315.782692,168.8538 321.431551,181.677915 C323.970731,187.496119 323.40014,194.200678 319.91416,199.507583 C316.428179,204.814488 310.497014,208.007919 304.141205,208 Z" id="Path" fill="#000000" fill-rule="nonzero"></path>
                <path d="M272.5,181 C272.225359,180.99772 272.003591,180.856885 272,180.682472 L272,131.317528 C272,131.142162 272.223858,131 272.5,131 C272.776142,131 273,131.142162 273,131.317528 L273,180.682472 C273,180.766686 272.947322,180.84745 272.853553,180.906998 C272.759785,180.966546 272.632608,181 272.5,181 Z" id="Path" fill="#000000" fill-rule="nonzero"></path>
                <path d="M263.166211,150 L253.31677,150 C253.141823,150 253,149.857426 253,149.681552 C253,149.505678 253.141823,149.363104 253.31677,149.363104 L263.166211,149.363104 C266.587901,149.360766 269.361802,146.574072 269.36646,143.134261 L269.36646,121.318448 C269.36646,121.142574 269.508282,121 269.68323,121 C269.858177,121 270,121.142574 270,121.318448 L270,143.134261 C269.995342,146.92582 266.937796,149.997661 263.166211,150 L263.166211,150 Z" id="Path" fill="#000000" fill-rule="nonzero"></path>
                <path d="M272.068888,168 L282,181 L265,181 C266.876985,181 268.67691,180.259555 270.002948,178.9419 C271.328987,177.624245 272.072256,175.837581 272.068888,173.975806 L272.068888,168 Z" id="Path" fill="#000000" fill-rule="nonzero"></path>
                <path d="M282.666941,180.999246 L264.319421,180.999246 C264.143009,180.999246 264,180.854518 264,180.675988 C264,180.497457 264.143009,180.35273 264.319421,180.35273 L265.541737,180.35273 C269.305174,180.35273 272.356043,177.265209 272.356043,173.45656 L272.356043,167.323279 C272.356043,167.184139 272.444021,167.060609 272.574454,167.016609 C272.704887,166.972609 272.848507,167.018012 272.931,167.129324 L282.935254,180.490653 C283.007118,180.589372 283.020175,180.719857 282.969326,180.831151 C282.909669,180.942189 282.79154,181.007857 282.666941,180.999246 L282.666941,180.999246 Z M268.557067,180.36135 L282.0281,180.36135 L272.977849,168.293053 L272.977849,173.46518 C272.981282,176.446311 271.248427,179.149468 268.557067,180.36135 Z" id="Shape" fill="#000000" fill-rule="nonzero"></path>
                <line x1="272" y1="168" x2="295" y2="145" id="Path" fill="#F5F5F5" fill-rule="nonzero"></line>
                <path d="M272.30927,168 C272.227111,168.000371 272.14826,167.967638 272.090527,167.909177 C271.969824,167.788315 271.969824,167.592519 272.090527,167.471657 L294.468374,145.092083 C294.546523,145.013191 294.660822,144.981986 294.768214,145.010224 C294.875607,145.038462 294.959778,145.121853 294.989021,145.228984 C295.018265,145.336115 294.988137,145.450711 294.909988,145.529604 L272.528013,167.909177 C272.470551,167.968039 272.391522,168.000846 272.30927,168 Z" id="Path" fill="#000000" fill-rule="nonzero"></path>
                <path d="M238.499977,159 C238.223847,159 238,158.85833 238,158.683608 L238,130.316363 C238,130.141641 238.223847,130 238.499977,130 C238.776107,130 238.999954,130.141641 238.999954,130.316363 L238.999954,158.683608 C239.001766,158.767859 238.949672,158.848995 238.855513,158.908575 C238.761353,158.968155 238.633126,159.001117 238.499977,159 Z" id="Path" fill="#000000" fill-rule="nonzero"></path>
                <polygon id="Path" fill="#000000" fill-rule="nonzero" points="275.012224 98 274 79 294 94.4905535"></polygon>
                <path d="M274.357321,98 C274.282497,97.9994568 274.210123,97.9736549 274.15226,97.9268949 C274.078066,97.8697336 274.03334,97.7831411 274.030096,97.6903785 L273.000431,78.3390364 C272.993875,78.212983 273.062524,78.0947444 273.176109,78.0364547 C273.289695,77.9781651 273.427339,77.9905378 273.528353,78.0681176 L293.872968,93.8416116 C293.975045,93.9194341 294.021183,94.0491214 293.990769,94.1727345 C293.958495,94.2947742 293.858686,94.388147 293.733352,94.4135513 L274.418402,97.9827988 L274.357321,98 Z M273.689783,79.0270841 L274.66273,97.2904508 L292.904385,93.919017 L273.689783,79.0270841 Z" id="Shape" fill="#000000" fill-rule="nonzero"></path>
                <circle id="Oval" fill="#DBBAB4" fill-rule="nonzero" cx="266.5" cy="108.5" r="14.5"></circle>
                <path d="M265.5,123 C257.491871,123 251,116.508129 251,108.5 C251,100.491871 257.491871,94 265.5,94 C273.508129,94 280,100.491871 280,108.5 C279.990762,116.504299 273.504299,122.990762 265.5,123 Z M265.5,94.6286127 C257.839044,94.6286127 251.628613,100.839044 251.628613,108.5 C251.628613,116.160956 257.839044,122.371387 265.5,122.371387 C273.160956,122.371387 279.371387,116.160956 279.371387,108.5 C279.362151,100.842874 273.157126,94.6378493 265.5,94.6286127 L265.5,94.6286127 Z" id="Shape" fill="#000000" fill-rule="nonzero"></path>
                <polyline id="Path" fill="#DBBAB4" fill-rule="nonzero" points="265 101 256 111 264.356522 108.621297"></polyline>
                <path d="M256.30443,111 C256.184465,111.000172 256.075624,110.923098 256.026576,110.803243 C255.977529,110.683388 255.997447,110.543163 256.077424,110.445273 L264.468547,100.109614 C264.581435,99.9745315 264.772147,99.9627135 264.898238,100.082988 C264.958514,100.14179 264.994951,100.224424 264.999514,100.312669 C265.004076,100.400914 264.97639,100.487522 264.92256,100.553395 L257.220563,110.028119 L264.002374,107.889095 C264.079792,107.863119 264.163515,107.87251 264.234513,107.915133 C264.305511,107.957757 264.357754,108.029993 264.379366,108.115423 C264.426381,108.291891 264.333821,108.47667 264.172629,108.52814 L256.377397,110.986686 C256.35372,110.994641 256.329184,110.999118 256.30443,111 Z" id="Path" fill="#000000" fill-rule="nonzero"></path>
                <circle id="Oval" fill="#DBBAB4" fill-rule="nonzero" cx="282.5" cy="114.5" r="3.5"></circle>
                <path d="M282.504019,118 C281.088062,118.001599 279.810636,117.149883 279.26766,115.84217 C278.724684,114.534458 279.023144,113.028418 280.02381,112.026617 C281.024475,111.024817 282.530177,110.724648 283.838505,111.26614 C285.146834,111.807632 286,113.08409 286,114.500047 C285.997819,116.430561 284.434531,117.995622 282.504019,118 L282.504019,118 Z M282.504019,111.599295 C281.328449,111.597693 280.267815,112.304816 279.817202,113.390594 C279.366589,114.476372 279.614852,115.726704 280.446107,116.557958 C281.277361,117.389211 282.527694,117.637474 283.613473,117.186862 C284.699252,116.736249 285.406375,115.675616 285.404773,114.500047 C285.402585,112.898914 284.105154,111.601484 282.504019,111.599295 Z" id="Shape" fill="#000000" fill-rule="nonzero"></path>
                <path d="M261.707496,112.999913 L260.320155,112.999913 C260.143338,112.999913 260,112.840605 260,112.644089 C260,112.447573 260.143338,112.288265 260.320155,112.288265 L261.707496,112.288265 C264.888673,112.30156 267.942612,110.900841 270.189482,108.39792 L270.445607,108.11326 C270.525419,108.018064 270.645621,107.978878 270.759055,108.011075 C270.87249,108.043271 270.961066,108.141716 270.990036,108.267788 C271.019005,108.393861 270.983747,108.527454 270.898093,108.616159 L270.641969,108.900818 C268.275131,111.537234 265.058437,113.013038 261.707496,112.999913 L261.707496,112.999913 Z" id="Path" fill="#000000" fill-rule="nonzero"></path>
                <path d="M280.696928,112 C281.591174,107.833122 280.483311,103.501402 277.680237,100.20481 C274.877163,96.908218 270.676514,94.9967908 266.24195,95 C263.303857,94.9941253 260.431946,95.8368259 258,97.418454" id="Path" fill="#000000" fill-rule="nonzero"></path>
                <path d="M280.385454,112 L280.321881,112 C280.149955,111.965455 280.03809,111.797247 280.071824,111.623844 C280.924977,107.456152 279.871323,103.122707 277.203058,99.8252443 C274.534793,96.5277812 270.535584,94.616857 266.314475,94.6224019 C263.518213,94.6180347 260.785121,95.4605732 258.469481,97.0408025 C258.327403,97.1262846 258.144193,97.0893439 258.045656,96.9553467 C257.959612,96.8114239 257.998457,96.624938 258.134659,96.5280674 C262.629738,93.4709419 268.431274,93.1639786 273.219083,95.72994 C278.006892,98.2959013 280.999467,103.315949 281,108.782437 C281,109.787103 280.899216,110.789193 280.699084,111.773391 C280.65712,111.911515 280.528677,112.004257 280.385454,112 Z" id="Path" fill="#000000" fill-rule="nonzero"></path>
                <path d="M259,96 C259.697898,98.1516974 258.688889,98.9263084 260.509309,100.217327 C262.32973,101.508345 263.927327,99.1500849 265.747748,100.441103 C267.568168,101.732122 265.970571,104.090382 267.790991,105.385704 C269.611411,106.681026 271.209009,104.318462 273.029429,105.60948 C274.84985,106.900499 273.252252,109.258759 275.076877,110.554081 C276.901502,111.849403 277.918919,109.831111 280,110.614329" id="Path" fill="#000000" fill-rule="nonzero"></path>
                <path d="M275.954178,112 C275.423865,111.992136 274.909581,111.823486 274.484266,111.51797 C273.428834,110.813464 273.364739,109.804085 273.30919,108.914184 C273.253641,108.024282 273.202365,107.315656 272.403314,106.784187 C271.604262,106.252718 270.873579,106.466954 270.018979,106.718269 C269.164378,106.969584 268.134585,107.270337 267.079153,106.565832 C266.023722,105.861326 265.9639,104.856067 265.904078,103.966165 C265.844256,103.076264 265.801526,102.367638 265.002474,101.832049 C264.203423,101.29646 263.47274,101.518936 262.618139,101.770251 C261.763539,102.021566 260.733745,102.322319 259.678314,101.617814 C258.396413,100.752632 258.353683,100.060486 258.315226,99.1788241 C258.313387,98.5841529 258.215354,97.9933974 258.024662,97.4278601 C257.978405,97.320835 257.998183,97.1978492 258.075883,97.1093553 C258.153582,97.0208615 258.276124,96.9817549 258.393238,97.0080784 C258.510352,97.0344019 258.602326,97.1217246 258.631428,97.2342241 C258.840533,97.8544851 258.950048,98.5019262 258.956177,99.1541046 C258.990361,99.9780876 259.011726,100.418919 260.045792,101.111064 C260.844843,101.642533 261.5798,101.428298 262.430127,101.176983 C263.280455,100.925668 264.314521,100.620794 265.369953,101.3253 C266.425384,102.029805 266.489479,103.039185 266.545028,103.929086 C266.600577,104.818988 266.64758,105.527613 267.446631,106.059082 C268.245683,106.590551 268.980639,106.376316 269.830967,106.125001 C270.681294,105.873686 271.719633,105.572932 272.770792,106.273318 C273.82195,106.973704 273.890318,107.987203 273.945867,108.877104 C274.001416,109.767006 274.048419,110.475631 274.847471,111.0071 C275.646522,111.53857 276.325929,111.382013 277.112162,111.134818 C277.958086,110.782271 278.909417,110.744114 279.782788,111.0277 C279.86688,111.055297 279.93532,111.11531 279.971773,111.193413 C280.008226,111.271517 280.009421,111.360706 279.975073,111.439692 C279.945409,111.520019 279.883051,111.585207 279.802405,111.620198 C279.721759,111.655188 279.6298,111.656954 279.547773,111.625088 C278.663261,111.307854 278.000946,111.51797 277.300174,111.740445 C276.86833,111.894239 276.414153,111.98182 275.954178,112 L275.954178,112 Z" id="Path" fill="#000000" fill-rule="nonzero"></path>
                <polygon id="Path" fill="#000000" fill-rule="nonzero" points="261 129 269 125.395725 268.934211 122 263.473684 122"></polygon>
                <path d="M237.372029,214 C237.126168,213.999643 236.880615,213.98271 236.637059,213.949317 C234.763522,213.68323 233.433779,212.606211 232.681815,210.75205 C230.557624,205.514783 233.794891,195.411925 236.930197,191.420621 C242.351133,184.515031 247.173047,180 264.170824,180 L287.681371,180 C287.857345,180 288,180.141823 288,180.31677 C288,180.491718 287.857345,180.63354 287.681371,180.63354 L264.170824,180.63354 C246.212912,180.63354 241.947537,186.065093 237.431506,191.821863 C235.851108,193.832298 234.317442,197.287205 233.425282,200.839255 C232.422664,204.847453 232.367435,208.285466 233.276588,210.523975 C233.935088,212.154286 235.094896,213.100373 236.726275,213.328447 C241.633156,214.029565 245.223039,206.570683 248.0822,200.598509 C249.21227,198.241739 250.206392,196.210186 251.136787,194.879752 C251.234469,194.745046 251.421056,194.709801 251.561626,194.799503 C251.631229,194.847992 251.678462,194.922118 251.692823,195.005399 C251.707183,195.08868 251.687481,195.174213 251.638096,195.242981 C250.724694,196.510062 249.713579,198.621863 248.638739,200.873043 C245.830558,206.748075 242.342636,214 237.372029,214 Z" id="Path" fill="#000000" fill-rule="nonzero"></path>
                <path d="M254.988173,217 C254.839993,217 254.68758,217 254.535167,217 C252.801918,216.908367 251.229773,215.952538 250.348034,214.454318 C247.951758,210.525481 248.790031,202.379297 252.545326,193.197869 C252.611965,193.035014 252.797723,192.957132 252.960229,193.023914 C253.122734,193.090696 253.20045,193.276854 253.133811,193.439709 C249.509761,202.302926 248.62915,210.410925 250.889948,214.119136 C251.664977,215.446358 253.053664,216.294433 254.585971,216.376308 C259.060995,216.749675 260.90689,210.529724 262.685045,204.496456 C263.781574,200.796731 264.801897,197.283689 266.44034,195.162287 C266.549747,195.033073 266.741009,195.012455 266.875335,195.115396 C267.009661,195.218336 267.039918,195.408715 266.944151,195.548382 C265.390382,197.580685 264.370059,201.017357 263.294699,204.661926 C261.499608,210.729135 259.645246,217 254.988173,217 Z" id="Path" fill="#000000" fill-rule="nonzero"></path>
                <path d="M268.394845,217 C268.227665,217 268.056307,217 267.884948,216.974794 C266.398282,216.863246 265.05167,216.054317 264.252978,214.793018 C262.322057,211.815585 262.631338,205.92772 265.12231,198.21822 C265.156653,198.111248 265.245345,198.030759 265.354976,198.007074 C265.464607,197.983388 265.578521,198.020104 265.653809,198.10339 C265.729096,198.186677 265.754319,198.303881 265.719976,198.410852 C263.287517,205.948659 262.953159,211.635515 264.779592,214.449629 C265.47954,215.548173 266.654753,216.252511 267.95182,216.350832 C269.020467,216.483748 270.094724,216.151387 270.902534,215.437919 C272.352815,214.181618 273.230506,211.832335 273.372608,208.800462 C273.38381,208.627953 273.530401,208.495949 273.702787,208.503138 C273.785965,208.507464 273.864004,208.54478 273.919679,208.606849 C273.975353,208.668918 274.004085,208.750636 273.999531,208.833964 C273.849069,212.037531 272.891968,214.554321 271.312123,215.911126 C270.505165,216.619062 269.467391,217.006382 268.394845,217 L268.394845,217 Z" id="Path" fill="#000000" fill-rule="nonzero"></path>
                <path d="M277.061954,215 L276.985767,215 C275.77946,214.980602 274.665709,214.326384 274.03052,213.264086 C272.314311,210.56885 272.759403,205.440012 275.23347,199.198195 C275.262631,199.11868 275.322309,199.055238 275.398297,199.022971 C275.474286,198.990704 275.559789,198.992498 275.634453,199.027926 C275.709746,199.059919 275.769304,199.12215 275.799529,199.200408 C275.829754,199.278666 275.828065,199.36627 275.794846,199.443216 C272.374459,208.035578 273.769881,211.735816 274.527739,212.9277 C275.050089,213.82155 275.981033,214.372723 276.989777,214.38537 L277.053934,214.38537 C279.724483,214.38537 280.386105,211.872862 281.027679,209.43926 C281.147974,208.98244 281.272278,208.509009 281.404603,208.072954 C281.458035,207.910022 281.626377,207.820095 281.785537,207.869461 C281.86664,207.894615 281.933749,207.954009 281.970384,208.033056 C282.00702,208.112103 282.009788,208.203482 281.978009,208.284752 C281.849694,208.700043 281.733409,209.152709 281.609104,209.621988 C280.943472,212.130342 280.173584,215 277.061954,215 Z" id="Path" fill="#000000" fill-rule="nonzero"></path>
                <path d="M261.29105,130.995236 C261.260672,131.001588 261.229589,131.001588 261.199212,130.995236 C261.122484,130.967034 261.059487,130.901573 261.025913,130.815159 C260.992338,130.728745 260.991348,130.629514 261.023188,130.542184 L263.433952,122.260396 C263.459495,122.134569 263.543189,122.036844 263.64981,122.00835 C263.756431,121.979857 263.867466,122.025541 263.936184,122.126177 C264.004903,122.226814 264.019373,122.364927 263.973504,122.482391 L261.56274,130.76418 C261.524384,130.903069 261.414466,130.996548 261.29105,130.995236 Z" id="Path" fill="#000000" fill-rule="nonzero"></path>
                <rect id="Rectangle" fill="#000000" fill-rule="nonzero" x="303" y="0" width="1" height="130"></rect>
                <path d="M232.204275,84 C229.092957,84 225.998617,80.5564484 223.201402,77.4428686 C221.380453,75.4207338 219.661376,73.5085897 218.179998,72.7894204 C218.021918,72.7133476 217.955458,72.5240977 218.031435,72.3663797 C218.066422,72.289156 218.131324,72.2293653 218.211315,72.2006651 C218.291305,72.171965 218.379553,72.1768069 218.455899,72.214085 C220.047638,72.971328 221.809162,74.9300066 223.672557,77.0029062 C227.030064,80.7383559 230.837503,84.9687633 234.284147,82.6801129 C236.491358,81.2206223 237.594963,78.70353 237.323307,75.776088 C236.860641,70.8392026 232.802769,66.0461511 226.983373,63.6094364 C226.82162,63.5405129 226.746555,63.3539522 226.81571,63.1927413 C226.884865,63.0315304 227.072053,62.9567167 227.233807,63.0256402 C233.26119,65.5638846 237.471869,70.5515349 237.955757,75.7168623 C238.252882,78.8854375 237.043161,81.6394327 234.636452,83.2089138 C233.924437,83.7112522 233.076537,83.9870388 232.204275,84 Z" id="Path" fill="#000000" fill-rule="nonzero"></path>
                <path d="M221.049487,92 C216.913634,92 213.739204,87.6969568 210.885249,83.8297184 C209.248231,81.6126146 207.697827,79.5139819 206.121439,78.3631189 C205.991517,78.2598502 205.961691,78.0777258 206.052148,77.9400075 C206.158011,77.812662 206.345774,77.7851454 206.485221,77.8765407 C208.152555,79.0866394 209.728943,81.219121 211.400607,83.478536 C214.787243,88.073526 218.290808,92.8250673 223.149894,90.9760704 C225.778651,89.9732963 226.341647,87.6334901 226.350308,85.8479599 C226.371962,81.0244897 222.140833,74.0008401 216.038825,71.6017984 C215.887393,71.5285698 215.818718,71.3541398 215.880886,71.2006394 C215.943053,71.047139 216.115297,70.9658434 216.277016,71.0136735 C222.721151,73.5311864 227.021572,80.7156184 227,85.8479599 C227,88.6531887 225.700698,90.6841235 223.383754,91.5684263 C222.639434,91.8512479 221.848114,91.9975519 221.049487,92 Z" id="Path" fill="#000000" fill-rule="nonzero"></path>
                <path d="M208.117152,96 C204.632774,96 202.694282,91.8510073 200.968451,88.1630137 C200.036012,86.1752191 199.160828,84.2973875 198.150686,83.2781141 C198.042504,83.2119989 197.98426,83.0843317 198.003707,82.9559447 C198.023154,82.8275578 198.116357,82.724424 198.238905,82.6956858 C198.361454,82.6669475 198.488557,82.7184187 198.55965,82.8255736 C199.647496,83.9209753 200.551308,85.8495591 201.504195,87.900794 C203.340446,91.8256312 205.246221,95.8900369 208.751047,95.3233039 C210.290455,95.1517682 211.590661,94.065155 212.075929,92.5446207 C212.955203,89.9351116 212.112736,85.1517163 207.111099,79.5393683 C207.056287,79.4771327 207.027644,79.3949173 207.03148,79.3108301 C207.035315,79.2267428 207.071314,79.1476807 207.131547,79.0910572 C207.252203,78.9696476 207.444394,78.9696476 207.56505,79.0910572 C211.900074,83.9590395 213.850835,89.1865165 212.652569,92.7349415 C212.089035,94.4739015 210.606226,95.7207667 208.845109,95.9365597 C208.604194,95.9753224 208.360942,95.9965214 208.117152,96 Z" id="Path" fill="#000000" fill-rule="nonzero"></path>
                <path d="M197.353319,95 C194.355442,95 192.321794,92.0279168 190.507289,89.3827627 C190.016409,88.6609711 189.547443,87.9773919 189.065328,87.3532544 C188.956401,87.2113875 188.986817,87.0108399 189.133262,86.905319 C189.279708,86.7997981 189.486728,86.8292625 189.595654,86.9711295 C190.086535,87.6122503 190.555501,88.3000752 191.055147,89.0303585 C193.053732,91.9472459 195.122443,94.974525 198.278103,94.2569792 C199.715682,93.9342959 200.657997,93.2677001 201.074369,92.2826668 C201.898347,90.3210918 200.802632,87.0263253 197.81352,82.4917755 C197.715486,82.3428737 197.760618,82.1451776 197.914326,82.0502088 C198.068033,81.95524 198.27211,81.9989612 198.370143,82.147863 C201.521421,86.9371628 202.603988,90.3295835 201.683587,92.5204334 C201.179558,93.7135125 200.083842,94.5032375 198.427121,94.8768708 C198.075299,94.9579598 197.714961,94.9992784 197.353319,95 L197.353319,95 Z" id="Path" fill="#000000" fill-rule="nonzero"></path>
                <path d="M227.802181,64.365377 C220.535345,61.3705809 208.9939,63.6957073 201.329525,67.539029 C194.528622,70.9497691 185.834066,77.6173499 183,90 L183.722409,89.7379553 C186.599221,77.8419596 195.020202,71.3989885 201.624473,68.0839155 C211.56294,63.0925887 222.189619,62.7223986 227.549979,64.9310607 C227.62918,64.9655183 227.719351,64.9672709 227.799903,64.9359183 C227.880455,64.9045657 227.94451,64.8427849 227.97744,64.7646832 C228.041889,64.6073306 227.963565,64.4288788 227.802181,64.365377 L227.802181,64.365377 Z" id="Path" fill="#000000" fill-rule="nonzero"></path>
                <path d="M110,331.997893 L29.0453894,331.997893 C18.7106489,332.12243 9.10684015,326.718164 3.90293149,317.849701 C-1.30097716,308.981237 -1.30097716,298.018763 3.90293149,289.150299 C9.10684015,280.281836 18.7106489,274.87757 29.0453894,275.002107 L42.0569326,275.002107 L42.0569326,277.183764 L29.0453894,277.183764 C19.498711,277.06405 10.6251791,282.053549 5.81670317,290.245025 C1.00822724,298.4365 1.00822724,308.5635 5.81670317,316.754975 C10.6251791,324.946451 19.498711,329.93595 29.0453894,329.816236 L110,329.816236 L110,331.997893 Z" id="Path" fill="#F9F9F9" fill-rule="nonzero"></path>
                <path d="M109.684925,332.99788 L29.1954354,332.99788 C18.8070732,333.123902 9.15373565,327.624665 3.92302956,318.600895 C-1.30767652,309.577125 -1.30767652,298.422875 3.92302956,289.399105 C9.15373565,280.375335 18.8070732,274.876098 29.1954354,275.00212 L42.1322212,275.00212 C42.2161142,275.000973 42.2969056,275.033969 42.3562324,275.09361 C42.4155592,275.153251 42.4483819,275.234469 42.4472404,275.318806 L42.4472404,277.514496 C42.4472404,277.689397 42.3062015,277.831182 42.1322212,277.831182 L29.1954354,277.831182 C19.7191266,277.560567 10.8451465,282.488283 6.02757524,290.696281 C1.21000403,298.90428 1.21000403,309.09572 6.02757524,317.303719 C10.8451465,325.511717 19.7191266,330.439433 29.1954354,330.168818 L109.684925,330.168818 C109.768818,330.167671 109.849609,330.200667 109.908936,330.260308 C109.968263,330.319948 110.001085,330.401167 109.999973,330.485504 L109.999973,332.681194 C110.001085,332.765531 109.968263,332.846749 109.908936,332.90639 C109.849609,332.966031 109.768818,332.999027 109.684925,332.99788 Z M29.1954354,275.635492 C19.0330746,275.510843 9.58915516,280.88966 4.47184394,289.7169 C-0.645467267,298.54414 -0.645467267,309.45586 4.47184394,318.2831 C9.58915516,327.11034 19.0330746,332.489157 29.1954354,332.364508 L109.369906,332.364508 L109.369906,330.80219 L29.1954354,330.80219 C19.5905892,330.923386 10.663304,325.84159 5.8257416,317.499151 C0.988179197,309.156712 0.988179197,298.843288 5.8257416,290.500849 C10.663304,282.15841 19.5905892,277.076614 29.1954354,277.19781 L41.8172021,277.19781 L41.8172021,275.635492 L29.1954354,275.635492 Z" id="Shape" fill="#000000" fill-rule="nonzero"></path>
                <circle id="Oval" fill="#F9F9F9" fill-rule="nonzero" cx="47.5" cy="254.5" r="17.5"></circle>
                <path d="M41,271 L54,271 L54,287.40625 C54,288.624588 53.4879679,289.793027 52.576545,290.654522 C51.665122,291.516017 50.4289672,292 49.1400205,292 L45.86443,292 C44.5754833,292 43.3393285,291.516017 42.4279056,290.654522 C41.5164826,289.793027 41.0044505,288.624588 41.0044505,287.40625 L41.0044505,271 L41,271 Z" id="Path" fill="#000000" fill-rule="nonzero"></path>
                <circle id="Oval" fill="#000000" fill-rule="nonzero" cx="47" cy="235" r="2"></circle>
                <path d="M63.3132997,261 C60.7435552,267.265813 54.4752575,271.380635 47.5,271.380635 C40.5247425,271.380635 34.2564448,267.265813 31.6867003,261 L31,261 C33.6021978,267.621759 40.1695597,272 47.5,272 C54.8304403,272 61.3978022,267.621759 64,261 L63.3132997,261 Z" id="Path" fill="#000000" fill-rule="nonzero"></path>
                <path d="M87.981391,260.580419 C83.0635953,246.696503 66.2146525,237 46.99976,237 C27.7848674,237 10.9528244,246.696503 6.018129,260.580419 C5.98401107,260.67624 5.99859348,260.782526 6.05728166,260.865789 C6.11596983,260.949051 6.21153725,260.999038 6.31387273,261 L87.6814223,261 C87.7843456,261 87.880726,260.94989 87.9391419,260.865734 C88.0009747,260.783874 88.0168757,260.676492 87.981391,260.580419 L87.981391,260.580419 Z" id="Path" fill="#71B8C5" fill-rule="nonzero"></path>
                <path d="M87.6830224,261 L6.31697763,261 C6.14191572,261 6,260.776142 6,260.5 C6,260.223858 6.14191572,260 6.31697763,260 L87.6830224,260 C87.8580843,260 88,260.223858 88,260.5 C88,260.776142 87.8580843,261 87.6830224,261 L87.6830224,261 Z" id="Path" fill="#000000" fill-rule="nonzero"></path>
                <rect id="Rectangle" fill="#71B8C5" fill-rule="nonzero" x="101" y="274" width="22" height="58"></rect>
                <rect id="Rectangle" fill="#000000" fill-rule="nonzero" x="111" y="280" width="4" height="37"></rect>
                <path d="M114.642798,317.999973 L110.357138,317.999973 C110.159896,317.999973 110,317.858713 110,317.684496 L110,281.315504 C110,281.141287 110.159896,281.000027 110.357138,281.000027 L114.642798,281.000027 C114.737908,280.998913 114.829501,281.031781 114.89676,281.091188 C114.964019,281.150595 115.00123,281.231497 114.999969,281.315504 L114.999969,317.684496 C115.00123,317.768503 114.964019,317.849405 114.89676,317.908812 C114.829501,317.968219 114.737908,318.001087 114.642798,317.999973 L114.642798,317.999973 Z M110.719038,317.369049 L114.271374,317.369049 L114.271374,281.618333 L110.704753,281.618333 L110.719038,317.369049 Z" id="Shape" fill="#000000" fill-rule="nonzero"></path>
                <rect id="Rectangle" fill="#F9F9F9" fill-rule="nonzero" x="96" y="289" width="21" height="3"></rect>
                <path d="M117.684693,292 L96.3153067,292 C96.1421142,291.997841 96.0022642,291.864514 96,291.699399 L96,288.300601 C96,288.134584 96.1411676,288 96.3153067,288 L117.684693,288 C117.858832,288 118,288.134584 118,288.300601 L118,291.699399 C117.997736,291.864514 117.857886,291.997841 117.684693,292 L117.684693,292 Z M96.6306134,291.398798 L117.369387,291.398798 L117.369387,288.593186 L96.6306134,288.593186 L96.6306134,291.398798 Z" id="Shape" fill="#000000" fill-rule="nonzero"></path>
                <rect id="Rectangle" fill="#F9F9F9" fill-rule="nonzero" x="111" y="289" width="8" height="3"></rect>
                <path d="M118.661145,292 L110.338855,292 C110.152728,291.997841 110.002433,291.864514 110,291.699399 L110,288.300601 C110,288.134584 110.151711,288 110.338855,288 L118.661145,288 C118.848289,288 119,288.134584 119,288.300601 L119,291.699399 C118.997567,291.864514 118.847272,291.997841 118.661145,292 L118.661145,292 Z M110.677711,291.398798 L118.322289,291.398798 L118.322289,288.593186 L110.677711,288.593186 L110.677711,291.398798 Z" id="Shape" fill="#000000" fill-rule="nonzero"></path>
                <path d="M169,300.002187 L165.626453,300.002187 C161.855977,299.924755 158.338576,301.908519 156.430818,305.188395 C154.523061,308.46827 154.523061,312.53173 156.430818,315.811605 C158.338576,319.091481 161.855977,321.075245 165.626453,320.997813 L169,320.997813 L169,300.002187 Z" id="Path" fill="#5A939D" fill-rule="nonzero"></path>
                <path d="M169.668265,321.997879 L166.214419,321.997879 C162.2349,322.074119 158.523031,320.090076 156.50987,316.810671 C154.49671,313.531266 154.49671,309.468734 156.50987,306.189329 C158.523031,302.909924 162.2349,300.925881 166.214419,301.002121 L169.668265,301.002121 C169.851445,301.002121 169.999971,301.143945 169.999971,301.318894 L169.999971,321.681106 C170.001143,321.765466 169.966585,321.846707 169.904121,321.906364 C169.841657,321.966022 169.756594,321.999027 169.668265,321.997879 L169.668265,321.997879 Z M166.214419,301.635668 C162.473502,301.561734 158.983142,303.425527 157.089979,306.507965 C155.196816,309.590404 155.196816,313.409596 157.089979,316.492035 C158.983142,319.574473 162.473502,321.438266 166.214419,321.364332 L169.33659,321.364332 L169.33659,301.635668 L166.214419,301.635668 Z" id="Shape" fill="#5A939D" fill-rule="nonzero"></path>
                <circle id="Oval" fill="#F9F9F9" fill-rule="nonzero" transform="translate(169.102651, 311.027214) rotate(-86.730000) translate(-169.102651, -311.027214) " cx="169.102651" cy="311.027214" r="10.1787229"></circle>
                <path d="M169.500152,322 C165.252977,322 161.424085,319.441337 159.799156,315.517294 C158.174227,311.593252 159.073324,307.07675 162.077135,304.074147 C165.080945,301.071544 169.597808,300.174265 173.521196,301.800772 C177.444584,303.42728 180.001706,307.257201 180,311.504377 C179.993011,317.299702 175.295479,321.995346 169.500152,322 Z M169.500152,301.638069 C164.051141,301.638069 159.633845,306.055365 159.633845,311.504377 C159.633845,316.953388 164.051141,321.370685 169.500152,321.370685 C174.949163,321.370685 179.366459,316.953388 179.366459,311.504377 C179.361801,306.057296 174.947232,301.642726 169.500152,301.638069 Z" id="Shape" fill="#5A939D" fill-rule="nonzero"></path>
                <path d="M168.677608,311 L158.322392,311 C158.14434,311 158,310.776142 158,310.5 C158,310.223858 158.14434,310 158.322392,310 L168.677608,310 C168.85566,310 169,310.223858 169,310.5 C169,310.776142 168.85566,311 168.677608,311 L168.677608,311 Z" id="Path" fill="#5A939D" fill-rule="nonzero"></path>
                <path d="M210.682961,333 L101.317039,333 C101.141943,333 101,332.857983 101,332.682796 C101,332.507609 101.141943,332.365591 101.317039,332.365591 L210.378603,332.365591 L210.378603,274.634409 L101.317039,274.634409 C101.141943,274.634409 101,274.492391 101,274.317204 C101,274.142017 101.141943,274 101.317039,274 L210.682961,274 C210.857105,274.002278 210.997723,274.142969 211,274.317204 L211,332.682796 C211,332.857983 210.858057,333 210.682961,333 Z" id="Path" fill="#000000" fill-rule="nonzero"></path>
                <path d="M398.683031,333 L201.316969,333 C201.141912,333 201,332.776142 201,332.5 C201,332.223858 201.141912,332 201.316969,332 L398.683031,332 C398.858088,332 399,332.223858 399,332.5 C399,332.776142 398.858088,333 398.683031,333 Z" id="Path" fill="#000000" fill-rule="nonzero"></path>
                <polygon id="Rectangle" fill="#F9F9F9" fill-rule="nonzero" transform="translate(229.727662, 293.182491) rotate(-44.990000) translate(-229.727662, -293.182491) " points="209.406102 287.278325 250.049223 287.278325 250.049223 299.086657 209.406102 299.086657"></polygon>
                <path d="M218.713413,312 C218.628675,312.000389 218.547348,311.966658 218.487802,311.906414 L210.093369,303.493101 C209.968877,303.368553 209.968877,303.166784 210.093369,303.042236 L239.039691,274.093295 C239.164338,273.968902 239.366267,273.968902 239.490913,274.093295 L247.906631,282.506608 C248.031123,282.631156 248.031123,282.832924 247.906631,282.957473 L218.926254,311.906414 C218.869847,311.963587 218.793708,311.997062 218.713413,312 Z M210.748918,303.267669 L218.713413,311.230116 L247.234055,282.73204 L239.269559,274.769593 L210.748918,303.267669 Z" id="Shape" fill="#5A939D" fill-rule="nonzero"></path>
                <polygon id="Rectangle" fill="#F9F9F9" fill-rule="nonzero" transform="translate(249.443245, 312.943133) rotate(-44.970000) translate(-249.443245, -312.943133) " points="243.49475 290.947635 255.391739 290.947635 255.391739 334.938632 243.49475 334.938632"></polygon>
                <path d="M261.297799,333 C261.214069,333 261.133711,332.967039 261.074874,332.907471 L230.092535,301.915776 C230.034118,301.856172 230.000969,301.776321 230,301.692874 C230,301.609246 230.033358,301.52907 230.092535,301.469973 L238.479554,293.092248 C238.602717,292.969251 238.802241,292.969251 238.925404,293.092248 L269.907743,324.083943 C270.030752,324.207093 270.030752,324.406596 269.907743,324.529746 L261.520723,332.907471 C261.461887,332.967039 261.381529,333 261.297799,333 Z M230.761309,301.692874 L261.297799,332.238767 L269.238968,324.306845 L238.702479,293.760952 L230.761309,301.692874 Z" id="Shape" fill="#5A939D" fill-rule="nonzero"></path>
                <path d="M257.31429,329 C257.231246,328.998191 257.151909,328.965229 257.091996,328.907644 C256.969335,328.784719 256.969335,328.58558 257.091996,328.462655 L265.455284,320.100218 C265.533704,320.015984 265.651807,319.98131 265.763261,320.009799 C265.874716,320.038289 265.961746,320.125397 265.990209,320.236952 C266.018673,320.348507 265.98403,320.466717 265.899872,320.545208 L257.536584,328.907644 C257.477143,328.965947 257.39751,328.999033 257.31429,329 L257.31429,329 Z" id="Path" fill="#5A939D" fill-rule="nonzero"></path>
                <path d="M253.314073,324.999767 C253.231086,324.997957 253.151804,324.964966 253.091933,324.90733 C252.969356,324.784297 252.969356,324.584983 253.091933,324.46195 L261.462014,316.09216 C261.584743,315.96928 261.783565,315.96928 261.906295,316.09216 C261.966209,316.150685 262,316.23099 262,316.31485 C262,316.398711 261.966209,316.479016 261.906295,316.537541 L253.548787,324.90733 C253.486847,324.969631 253.401751,325.003144 253.314073,324.999767 Z" id="Path" fill="#5A939D" fill-rule="nonzero"></path>
                <path d="M249.313,322 C249.185847,321.997561 249.07228,321.919814 249.023949,321.802118 C248.975619,321.684421 249.001752,321.549248 249.090464,321.458074 L257.462833,313.093921 C257.521317,313.033869 257.601566,313 257.685369,313 C257.769171,313 257.84942,313.033869 257.907904,313.093921 C258.030699,313.216933 258.030699,313.416213 257.907904,313.539225 L249.535535,321.907578 C249.475557,321.965205 249.396135,321.99819 249.313,322 Z" id="Path" fill="#5A939D" fill-rule="nonzero"></path>
                <path d="M245.31462,318 C245.23104,318.000391 245.150825,317.96707 245.092093,317.907557 C244.969302,317.78452 244.969302,317.585201 245.092093,317.462165 L253.464163,309.092162 C253.587107,308.969279 253.786275,308.969279 253.909218,309.092162 C254.030261,309.217549 254.030261,309.416369 253.909218,309.541756 L245.537148,317.907557 C245.478416,317.96707 245.398201,318.000391 245.31462,318 L245.31462,318 Z" id="Path" fill="#5A939D" fill-rule="nonzero"></path>
                <path d="M241.314839,314 C241.231201,314.000378 241.15093,313.967028 241.092157,313.907465 C240.969281,313.784326 240.969281,313.584839 241.092157,313.461699 L249.470061,305.08465 C249.594221,304.968852 249.787703,304.972269 249.907704,305.092379 C250.027706,305.212489 250.031119,305.406145 249.915426,305.530417 L241.537522,313.907465 C241.479025,313.967437 241.398573,314.000862 241.314839,314 L241.314839,314 Z" id="Path" fill="#5A939D" fill-rule="nonzero"></path>
                <path d="M237.314512,310 C237.23096,310.000391 237.150773,309.96707 237.092061,309.907557 C236.969313,309.78452 236.969313,309.585201 237.092061,309.462165 L245.461261,301.092162 C245.584162,300.969279 245.783262,300.969279 245.906163,301.092162 C245.966161,301.150689 246,301.230995 246,301.314858 C246,301.398721 245.966161,301.479028 245.906163,301.537554 L237.536964,309.894951 C237.481379,309.960396 237.400312,309.998677 237.314512,310 Z" id="Path" fill="#5A939D" fill-rule="nonzero"></path>
                <path d="M233.316288,306 C233.232448,306.001818 233.151691,305.968255 233.093837,305.907471 C233.033839,305.848937 233,305.768619 233,305.684745 C233,305.600871 233.033839,305.520552 233.093837,305.462018 L241.458839,297.090863 C241.584088,296.969712 241.78269,296.969712 241.907939,297.090863 C242.030687,297.213916 242.030687,297.413263 241.907939,297.536316 L233.538739,305.907471 C233.480027,305.966992 233.39984,306.000319 233.316288,306 Z" id="Path" fill="#5A939D" fill-rule="nonzero"></path>
                <polygon id="Path" fill="#5A939D" fill-rule="nonzero" points="240 294.475273 240 311 230 301.375203 238.53129 293"></polygon>
                <path d="M392,297 L354,297 L354,282 L392,282 L392,297 Z M354,292.696685 L392,292.696685" id="Shape" stroke="#000000" stroke-width="1.5" fill="#71B8C5" fill-rule="nonzero" stroke-linecap="round" stroke-linejoin="round"></path>
                <polygon id="Path" stroke="#000000" stroke-width="1.5" stroke-linecap="round" stroke-linejoin="round" points="399 333 318 333 318 304 399 304"></polygon>
                <path d="M399,303.791036 L318.307584,303.791036 L318.307584,275 L399,275 L399,303.791036 Z M318.29073,303.791036 L270,303.791036" id="Shape" stroke="#000000" stroke-width="1.5" stroke-linejoin="round"></path>
                <circle id="Oval" fill="#F9F9F9" fill-rule="nonzero" cx="368" cy="323" r="3"></circle>
                <path d="M368.5,327 C366.567003,327 365,325.432997 365,323.5 C365,321.567003 366.567003,320 368.5,320 C370.432997,320 372,321.567003 372,323.5 C371.997502,325.431961 370.431961,326.997502 368.5,327 L368.5,327 Z M368.5,320.680052 C366.942586,320.680052 365.680052,321.942586 365.680052,323.5 C365.680052,325.057414 366.942586,326.319948 368.5,326.319948 C370.057414,326.319948 371.319948,325.057414 371.319948,323.5 C371.317452,321.943621 370.056379,320.682548 368.5,320.680052 Z" id="Shape" fill="#5A939D" fill-rule="nonzero"></path>
                <circle id="Oval" fill="#5A939D" fill-rule="nonzero" cx="368.5" cy="322.5" r="1.5"></circle>
                <circle id="Oval" fill="#F9F9F9" fill-rule="nonzero" cx="368" cy="313" r="3"></circle>
                <path d="M368.5,317 C366.567003,317 365,315.432997 365,313.5 C365,311.567003 366.567003,310 368.5,310 C370.432997,310 372,311.567003 372,313.5 C371.997502,315.431961 370.431961,316.997502 368.5,317 L368.5,317 Z M368.5,310.684585 C367.359025,310.684585 366.330484,311.372137 365.894277,312.426436 C365.458069,313.480735 365.700164,314.694 366.507604,315.500142 C367.315044,316.306283 368.528697,316.546426 369.582293,316.108523 C370.635888,315.670619 371.321783,314.640973 371.319952,313.5 C371.317447,311.944356 370.055646,310.684585 368.5,310.684585 Z" id="Shape" fill="#5A939D" fill-rule="nonzero"></path>
                <path d="M344,280 L341.607247,280 C340.129863,280.143906 339,281.443971 339,283 C339,284.556029 340.129863,285.856094 341.607247,286 L343.938437,286" id="Path" stroke="#000000" stroke-width="1.5" fill="#5A939D" fill-rule="nonzero" stroke-linecap="round" stroke-linejoin="round"></path>
                <circle id="Oval" stroke="#000000" stroke-width="1.5" fill="#F9F9F9" fill-rule="nonzero" stroke-linecap="round" stroke-linejoin="round" cx="344" cy="283" r="3"></circle>
                <path d="M344,291.0129 L341.40454,291.0129 C340.227215,290.907633 339.089412,291.452838 338.466891,292.420543 C337.84437,293.388249 337.84437,294.611751 338.466891,295.579457 C339.089412,296.547162 340.227215,297.092367 341.40454,296.9871 L343.933221,296.9871" id="Path" stroke="#000000" stroke-width="1.5" fill="#5A939D" fill-rule="nonzero" stroke-linecap="round" stroke-linejoin="round"></path>
                <circle id="Oval" stroke="#000000" stroke-width="1.5" fill="#F9F9F9" fill-rule="nonzero" stroke-linecap="round" stroke-linejoin="round" cx="344" cy="294" r="3"></circle>
                <path d="M331,280.0129 L328.40454,280.0129 C327.227215,279.907633 326.089412,280.452838 325.466891,281.420543 C324.84437,282.388249 324.84437,283.611751 325.466891,284.579457 C326.089412,285.547162 327.227215,286.092367 328.40454,285.9871 L330.933221,285.9871" id="Path" stroke="#000000" stroke-width="1.5" fill="#5A939D" fill-rule="nonzero" stroke-linecap="round" stroke-linejoin="round"></path>
                <circle id="Oval" stroke="#000000" stroke-width="1.5" fill="#F9F9F9" fill-rule="nonzero" stroke-linecap="round" stroke-linejoin="round" cx="330" cy="283" r="3"></circle>
                <path d="M331,291.0129 L328.40454,291.0129 C327.227215,290.907633 326.089412,291.452838 325.466891,292.420543 C324.84437,293.388249 324.84437,294.611751 325.466891,295.579457 C326.089412,296.547162 327.227215,297.092367 328.40454,296.9871 L330.933221,296.9871" id="Path" stroke="#000000" stroke-width="1.5" fill="#5A939D" fill-rule="nonzero" stroke-linecap="round" stroke-linejoin="round"></path>
                <circle id="Oval" stroke="#000000" stroke-width="1.5" fill="#F9F9F9" fill-rule="nonzero" stroke-linecap="round" stroke-linejoin="round" cx="330" cy="294" r="3"></circle>
                <rect id="Rectangle" stroke="#000000" stroke-width="1.5" fill="#000000" fill-rule="nonzero" stroke-linecap="round" stroke-linejoin="round" x="352" y="311" width="5" height="15" rx="2.5"></rect>
                <rect id="Rectangle" stroke="#000000" stroke-width="1.5" fill="#5A939D" fill-rule="nonzero" stroke-linecap="round" stroke-linejoin="round" x="354" y="314" width="9" height="3"></rect>
                <rect id="Rectangle" stroke="#000000" stroke-width="1.5" fill="#F9F9F9" fill-rule="nonzero" stroke-linecap="round" stroke-linejoin="round" x="358" y="314" width="4" height="3"></rect>
            </g>
        </g>
    </g>
</svg>