<svg height="316" viewBox="0 0 323 316" width="323" xmlns="http://www.w3.org/2000/svg"><g fill="none"><path d="m167.41083 110.848848c-5.392156.006836-10.603213-1.967922-14.663863-5.556949 11.277097-6.0132819 5.951397-16.4279621 3.79056-17.7049565-4.245281-2.5098275-5.638548 3.7426607-7.821212 5.3545441-2.546441 1.8805306-6.220592 2.8152757-6.678951 7.1504324l.061842.040481c-1.142261 8.066777 7.730267 14.8676 18.836388 14.8676 6.777172 0 12.714017-2.531908 16.064406-6.33345-2.995723 1.441166-6.271972 2.186773-9.58917 2.182298z" fill="#dbbab4"/><path d="m273 25.7042722-.062085-4.8231335c-.083859-7.0831232-5.855997-12.7855328-12.957503-12.80097504l-48.053785-.08016366c-6.114841-.01058145-11.504013 4.0029304-13.231408 9.8539303l-.942231 3.183851h-20.630478l12.555777 24.997237-48.678287 155.9649817h131.839309v-176.3139421z" fill="#f9f9f9"/><path d="m220 189v-.529663c12.530866 0 18.386411-8.524039 20.761566-13.605271.12443-.264831.245201-.533194.365972-.801556-.585555-.681499-1.16013-1.412434-1.720067-2.182211-3.271785-4.52332-5.489573-9.968253-5.811628-14.209086-.25618-3.485181.823436-5.769793 3.044883-6.430106 1.757605-.597587 3.714808-.064704 4.88938 1.331219 3.143696 3.439277 3.897597 12.683658.234222 21.394845 3.253487 3.693515 6.924182 6.002844 10.539981 6.539569 7.593909 1.161727 14.572987-5.296627 20.186991-18.622943l.5087.197741c-3.98909 9.484495-10.829098 20.480294-20.779865 18.947803-3.659715-.561443-7.396285-2.842524-10.693688-6.514852-.084174.190678-.168347.377826-.25984.568505-2.437371 5.197757-8.428325 13.916006-21.266607 13.916006zm18.159508-37.464813c-.463446.004348-.923593.075765-1.365074.211865-2.631335.783901-2.796022 4.025437-2.656953 5.88985.307416 4.149025 2.495926 9.491557 5.712816 13.940724.487962.677968.990563 1.320626 1.507803 1.927972 3.46575-8.446355 2.759425-17.302317-.248861-20.582695-.719454-.863977-1.801162-1.372872-2.949731-1.387716z" fill="#8e6995"/><path d="m200.593076 173c-14.93935-25.433673-29.478733-58.476525-13.901595-71.45581 6.392283-5.3260589 17.249076-6.423572 30.563331-3.090656 1.762021.4404735 3.534853.9543592 5.293272 1.5306454-1.592666-6.6731733-1.974618-13.379382-1.059375-19.5973993 1.441326-9.7564876 5.920249-17.7877874 13.332271-23.8589802 8.64796-7.1173173 21.162278-11.3311803 37.139384-12.5277999l.039636.5505919c-15.854593 1.1856077-28.260812 5.359094-36.840308 12.4066697-7.30032 5.9977805-11.717986 13.9116207-13.134089 23.5249544-.918846 6.240041-.511671 13.0049795 1.131441 19.71853 9.3434 3.149385 18.276022 8.045982 23.825129 13.214204 5.268049 4.889256 6.914765 9.477521 4.637469 12.920555-2.399809 3.633907-5.765307 4.720408-9.728955 3.149386-5.379752-2.132626-11.289191-9.088436-15.425798-18.158519-1.570338-3.433675-2.824854-7.008237-3.747449-10.677812-1.852105-.616663-3.718623-1.1635839-5.577934-1.6297517-17.735525-4.4377703-26.466361-.0330355-30.091297 2.9842077-8.435364 7.025552-12.845823 25.004211 14.024108 70.747382zm22.700894-72.178921c.907301 3.515878 2.121658 6.941989 3.62854 10.237338 4.078954 8.948953 9.876691 15.783633 15.133929 17.879552 3.707813 1.468245 6.846302.451486 9.094771-2.936489 2.111544-3.189762.493655-7.528426-4.550988-12.208457-5.415785-5.047092-14.135811-9.844582-23.288235-12.971944z" fill="#8e6995"/><path d="m178.225705 84-.225705-.499976c15.398915-6.9522209 28.074806-17.0539256 36.604276-29.2358223 9.647074-13.7329172 13.516825-29.7066027 11.190606-46.18756304l.54242-.07663866c2.344421 16.6232893-1.558093 32.7283553-11.285256 46.5817047-8.613199 12.2512365-21.354618 22.4259304-36.826341 29.4182953z" fill="#8e6995"/><path d="m273 201.999895h-132.545242c-.144084.003125-.28076-.063564-.366481-.17893-.084188-.115935-.109887-.264089-.069632-.401428l48.811626-155.1661998-13.31426-26.2533372h97.483989zm-132.413309-.547514h131.863587v-180.9049803h-96.036388l13.010081 25.6584951-.032983.1058308z" fill="#000"/><path d="m297.460123 141h-.460123c0-2.780247.662577-4.188424 1.300613-5.549661.638037-1.361238 1.226994-2.650261 1.226994-5.28969s-.613497-3.924842-1.226994-5.28969c-.613496-1.364849-1.300613-2.769415-1.300613-5.549661 0-2.780247.662577-4.184813 1.300613-5.546051.638037-1.361237 1.226994-2.64665 1.226994-5.282468 0-2.635819-.613497-3.924842-1.226994-5.28608-.613496-1.361237-1.300613-2.769414-1.300613-5.5496609 0-2.7802466.662577-4.1848128 1.300613-5.5460504.638037-1.3612377 1.226994-2.6466504 1.226994-5.2824686 0-2.6358183-.613497-3.921231-1.226994-5.2824687-.613496-1.3612376-1.300613-2.7694145-1.300613-5.5460504h.460123c0 2.639429.613497 3.921231 1.242331 5.2824686.628834 1.3612377 1.297546 2.7694145 1.297546 5.5460505 0 2.7766359-.659509 4.1848128-1.297546 5.5460504s-1.242331 2.6466504-1.242331 5.2824686c0 2.6358179.613497 3.9248419 1.242331 5.2860789.628834 1.361238 1.297546 2.769415 1.297546 5.549662 0 2.780246-.659509 4.184812-1.297546 5.54605s-1.242331 2.64665-1.242331 5.282469c0 2.635818.613497 3.928452 1.242331 5.28969.628834 1.361237 1.297546 2.769414 1.297546 5.549661 0 2.780246-.659509 4.188423-1.297546 5.549661s-1.242331 2.650261-1.242331 5.28969z" fill="#000"/><path d="m272 65h25v11h-25z" fill="#000"/><path d="m297 77h-25v-12h25zm-24.456128-.6h23.912256v-10.8h-23.912256z" fill="#000"/><path d="m272 141h25v11h-25z" fill="#000"/><path d="m297 153h-25v-12h25zm-24.456128-.601002h23.912256v-10.797996h-23.912256z" fill="#000"/><path d="m74.1683697 110.86522h189.8731993v.546398h-189.8731993z" fill="#000" transform="matrix(.29887424 -.95429251 .95429251 .29887424 12.505289 239.297613)"/><path d="m272 20h-76l1.27642-4.0411166c1.662876-5.3399055 6.691027-8.97951805 12.376516-8.95879537h49.374398c7.155204.00800715 12.953632 5.70297237 12.961694 12.73050417zm-75.257555-.5388156h74.705293c-.160648-6.6214829-5.665751-11.91043529-12.409432-11.92226084h-49.374398c-5.443857-.01785144-10.258089 3.46602764-11.853513 8.57801234z" fill="#000"/><circle cx="236" cy="4" fill="#000" r="4"/><path d="m74.1683697 110.86522h189.8731993v.546398h-189.8731993z" fill="#000" transform="matrix(.29887424 -.95429251 .95429251 .29887424 12.505289 239.297613)"/><path d="m145 160h-98.8254001l-8.1745999-10.986119c20.3945133-10.598673 38.9963831-16.98612 57.9524005-25.013881h29.1386695c3.216536 0 19.120313 12.387447 19.120313 12.387447z" fill="#f9f9f9"/><path d="m129 126h-37s7.5337393-5 22.532168-5c6.955898.011538 14.467832 5 14.467832 5z" fill="#8e6995"/><path d="m144 137h-60v-6h53.627764l5.882064 4.671514z" fill="#8e6995"/><path d="m144 149h-106l11.4398757-6h94.5601243z" fill="#8e6995"/><path d="m31 155h58v6h-58z" fill="#8e6995"/><path d="m156.636552 147c-.23624-.199904-23.602284-20.222471-33.746105-23.720798-10.968848-3.787474-22.686397-.556876-28.6941853 1.702757l-.1962617-.499761c6.076843-2.288191 17.936137-5.550916 29.075805-1.709896 10.241952 3.534024 33.687954 23.624415 33.924195 23.824319z" fill="#000"/><path d="m142 136h1v12h-1z" fill="#000"/><path d="m144 148h13c-.788313-.772377-6.35667-6.191083-13-12z" fill="#dbbab4"/><path d="m157 147h-14v-12l.434359.354919c6.72 5.447074 12.409744 10.58406 13.037949 11.15193zm-13.475897-.545455h12.03282c-1.640513-1.494396-6.461538-5.742216-12.03282-10.288916z" fill="#000"/><path d="m74 155h67v1h-67z" fill="#000"/><path d="m141 148h75v1h-75z" fill="#000"/><path d="m99 131h38v1h-38z" fill="#000"/><path d="m100 125h28v1h-28z" fill="#000"/><path d="m66 155h75v1h-75z" fill="#000"/><path d="m66 148h75v1h-75z" fill="#000"/><path d="m66 142h77v1h-77z" fill="#000"/><path d="m66 137h77v1h-77z" fill="#000"/><path d="m41 155h25v1h-25z" fill="#000"/><path d="m37 148h29v1h-29z" fill="#000"/><path d="m48 142h17v1h-17z" fill="#000"/><path d="m155 114h38v34h-38z" fill="#dbbab4"/><path d="m167.001229 67c-6.938985 0-13.471282 3.2740085-17.624625 8.8332641-4.153342 5.5592556-5.440937 12.7522788-3.474025 19.4073118.913439-.5588646 1.862699-1.0747397 2.690167-1.6658465 2.149269-1.5691199 3.521218-7.6557288 7.701545-5.2124873 2.127775 1.2431155 7.368408 11.381493-3.732563 17.2352419 7.368903 6.411687 18.082705 7.196057 26.306678 1.925943s11.988332-15.3324281 9.24301-24.707013-11.342774-15.816414-21.110187-15.816414z" fill="#8e6995"/><path d="m166.500026 66c-7.110136-.0017223-13.802503 3.3590461-18.048482 9.0635752-4.24598 5.7045291-5.54564 13.0811535-3.505022 19.8938388.159227-.101351.322072-.1990823.481299-.2931939-3.087041-10.5004861 2.005546-21.6749392 11.954609-26.2315023 9.949062-4.5565631 21.733827-1.111755 27.66418 8.0865249 5.930354 9.1982798 4.205699 21.3572142-4.048546 28.5425253-8.254245 7.185312-20.531894 7.215369-28.821203.070557-.166464.090492-.340166.184604-.513868.271476 7.51306 6.602349 18.482159 7.44943 26.919367 2.078829s12.315516-15.668616 9.51779-25.2724525-11.599341-16.2062069-21.600124-16.2029375z" fill="#000"/><path d="m177.411287 58.1460365c-13.459841-5.6362243-23.744541.9601371-20.950852 6.786923 2.691969 5.6215657 12.580684 2.5982334 17.681255 7.2889793-11.44359.4067756-20.754676 8.5203001-15.839381 14.449696 2.499425 3.016003 9.376478-.6449775 15.436131-1.1397046-9.772463 1.3742419-16.562326 8.1575002-12.482595 12.734642 2.786423 3.1222778 7.65449 1.4658581 12.885845.4470868-6.78623 1.465858-10.662519 4.397574-9.554489 7.7947.91912 2.832771 5.140533 2.8401 9.554489 2.748484v31.743157h18.85831v-55.1309225c0-10.8839962-2.721031-22.3433418-15.588713-27.723041z" fill="#dbbab4"/><path d="m164.635319 115v13.21611l-6.635319 9.415881 5.618357 9.368009h7.763286l5.618357-9.368009-6.638899-9.415881v-13.21611" fill="#dcddde"/><path d="m171.102424 147h-8.204848l-5.897576-9.576269 6.812466-9.408329v-13.015402h.546747v13.190645l-6.699472 9.258642 5.540368 9.00308h7.599782l5.544013-9.00308-6.703117-9.258642v-13.190645h.546747v13.015402l6.812466 9.408329z" fill="#000"/><path d="m169 118.745878v-4.745878h-6v7z" fill="#000"/><path d="m158 137h19v1h-19z" fill="#000"/><path d="m152 110h30v6h-30z" fill="#8e6995"/><path d="m182 116h-30v-6h30zm-29.445266-.57398h28.890532v-4.85204h-28.890532z" fill="#000"/><path d="m161.703183 88c-1.384514 0-2.518289-.3150531-3.299576-1.1856836-1.697029-1.8937062-1.860554-4.1736064-.461504-6.4365683 2.907115-4.6411046 12.060895-8.6385522 21.83607-7.0056965.146047.0273481.242512.1577448.218034.2947271-.012409.0665434-.052728.1257422-.11205.1645173-.059322.0387752-.132763.0539351-.204099.0421304-7.460385-1.2466617-17.784278 1.172133-21.265549 6.7753351-.90484 1.4533093-1.566209 3.6417426.406996 5.8437264 1.526236 1.6938338 4.891222.9180579 8.786756 0 2.180337-.5047624 4.407914-1.0163002 6.573715-1.1721329.149948-.0077886.279088.0975525.290712.2371367.006003.0670827-.017186.1335976-.064347.1845723-.047162.0509748-.114332.0821258-.186392.0864411-2.122194.142282-4.33887.6572075-6.482867 1.1551946-2.249381.5318638-4.331602 1.0163003-6.035899 1.0163003z" fill="#000"/><path d="m167.09476 102c-1.903518 0-3.572256-.462254-4.829227-1.852598-1.444795-1.6017621-1.665126-3.5833607-.595978-5.6115431 2.369464-4.4648679 10.72399-8.5355661 20.093485-7.3172233.096137.012162.178432.0742825.215884.1629614.037452.0886788.024372.1904436-.034314.2669604-.058685.0765168-.154061.116161-.250198.103999-9.138328-1.1896759-17.261687 2.7269378-19.544463 7.0341378-.675441 1.2756765-1.137776 3.1784412.516514 5.0167055 2.27194 2.5083523 6.017571 1.7128463 10.355568.7990893 2.622302-.551837 5.338517-1.1215918 8.033059-1.0320078.071546.0018596.139351.032107.188232.0839691.048882.0518622.074757.1210063.071831.1919497.000175.0716469-.02969.1401393-.082441.189074-.05275.048934-.123637.073904-.195682.068928-2.629527-.086001-5.309621.48017-7.903028 1.024841-2.123848.433587-4.207965.870757-6.039242.870757z" fill="#000"/><path d="m174.282047 111c-3.822196 0-7.891096-.337897-8.985634-3.119652-.424947-1.023563-.391369-2.215195.090343-3.206092 1.136234-2.47529 4.673502-4.541962 9.697952-5.6656655.093241-.0260174.19158.0080612.255918.0886861.064337.080625.084245.1947278.051806.2969407-.032438.102213-.111964.1759685-.206958.1919411-4.798592 1.0726266-8.287213 3.0764326-9.33658 5.3592016-.404353.833182-.432753 1.83455-.076444 2.695317 1.136235 2.887839 6.254501 2.813187 10.375523 2.750323h1.591423c.143928 0 .260604.131931.260604.294677s-.116676.294678-.260604.294678c-.50036 0-1.042417 0-1.584474 0-.608076.011787-1.237001.019645-1.872875.019645z" fill="#000"/><path d="m193.742576 147c-.152308 0-.275777-.122157-.275777-.272845v-59.7748652c0-14.2315911-4.960324-22.8971458-15.609024-27.2844921-9.192593-3.7761737-16.715811-2.0008628-19.815553 1.2478108-1.511263 1.5788626-1.878966 3.3978287-1.036925 5.1185707 1.397274 2.8594147 4.886783 3.3796391 8.578528 3.9253289 3.342427.4983967 6.795165 1.0113452 9.255103 3.2304839.107536.106525.107536.2790958 0 .3856208-.103429.1096538-.276363.1177243-.389766.0181897-2.334919-2.1063628-5.706762-2.6083975-8.964617-3.0922425-3.842504-.5711554-7.468063-1.1095693-8.994033-4.2272773-.933968-1.9135524-.522139-4.0017255 1.132527-5.7333813 3.224762-3.3796391 10.994342-5.2531742 20.425942-1.3787763 5.993571 2.4628802 10.339829 6.4500539 12.913755 11.8487454 2.044433 4.2854843 3.037264 9.4950033 3.037264 15.9268676v59.7894169c.002157.144579-.111487.265045-.257424.272845z" fill="#000"/><path d="m152.713299 114.981855c-.031664.005444-.064105.005444-.09577 0-7.661573-2.540345-12.304486-8.06741-11.534498-13.743267.008553-.07217.047596-.137981.108224-.182425s.137672-.063732.213562-.053464c.075736.009048.144558.046278.191274.103471.046717.057193.067487.129647.057727.20137-.735511 5.414564 3.746509 10.70574 11.15142 13.162617.132959.04287.213713.170522.190931.301813-.022782.131292-.142421.227736-.28287.22803z" fill="#000"/><path d="m151.619407 107c-.126201-.001063-.234823-.08923-.261561-.212306-.026739-.123075.035544-.248212.149974-.301328 6.30285-2.830373 7.803872-6.8245037 7.955054-9.6512852.197976-3.7786201-1.864578-7.1082597-2.980446-7.7583835-2.68528-1.5660441-4.11431.6429401-5.496546 2.7800875-.637124.9841653-1.241852 1.9144529-1.943768 2.4280867-.601129.4382049-1.270649.8261241-1.914972 1.2032678-2.091351 1.2176352-4.254694 2.4783725-4.589454 5.5889097-.015143.147662-.147136.255278-.295165.240653-.148514-.016937-.255906-.14969-.241171-.298123.359957-3.379925 2.645685-4.7089074 4.852222-5.9947876.642417-.359421 1.265961-.7514457 1.868178-1.1745331.626325-.4561642 1.198657-1.3433497 1.799786-2.2844129 1.378636-2.1299637 3.092032-4.7807447 6.223659-2.9560878 1.245452.7183688 3.459188 4.2024577 3.239615 8.2612417-.158382 2.9884144-1.720596 7.1836887-8.279015 10.1146337-.027894.009156-.057028.014001-.08639.014367z" fill="#000"/><path d="m155.500023 147c-.133149.000969-.261376-.02761-.355536-.079265-.094159-.051656-.146253-.122-.144441-.195046v-31.451404c0-.151483.223847-.274285.499977-.274285s.499977.122802.499977.274285v31.451404c0 .151484-.223847.274311-.499977.274311z" fill="#000"/><path d="m90 147h103v55h-103z" fill="#f9f9f9"/><g fill="#000"><path d="m192.7277 202h-102.4554246c-.1495562-.001983-.2703202-.124475-.2722754-.27617v-55.447611c0-.152524.1219019-.276195.2722754-.276195h102.4554246c.07251-.000976.142339.027799.193616.07981.051277.05201.078684.122838.078684.196385v55.447611c0 .152524-.121927.27617-.2723.27617zm-102.1831492-.55234h101.9108732v-54.89527h-101.9108732z"/><circle cx="95.948644" cy="152.81669" r="1" transform="matrix(.92887421 -.37039532 .37039532 .92887421 -49.778165 46.408136)"/><circle cx="95.94833" cy="156.445348" r="1" transform="matrix(.92887421 -.37039532 .37039532 .92887421 -51.122225 46.666111)"/><circle cx="99.577303" cy="152.817004" r="1" transform="matrix(.92887421 -.37039532 .37039532 .92887421 -49.52019 47.752197)"/><circle cx="99.576989" cy="156.445663" r="1" transform="matrix(.92887421 -.37039532 .37039532 .92887421 -50.86425 48.010172)"/><circle cx="103.205962" cy="152.817318" r="1" transform="matrix(.92887421 -.37039532 .37039532 .92887421 -49.262215 49.096258)"/><circle cx="103.205647" cy="156.445977" r="1" transform="matrix(.92887421 -.37039532 .37039532 .92887421 -50.606275 49.354232)"/><circle cx="106.834621" cy="152.817632" r="1" transform="matrix(.92887421 -.37039532 .37039532 .92887421 -49.00424 50.440318)"/><circle cx="106.834306" cy="156.442648" r="1" transform="matrix(.92887421 -.37039532 .37039532 .92887421 -50.346951 50.698034)"/><circle cx="110.463279" cy="152.814304" r="1" transform="matrix(.92887421 -.37039532 .37039532 .92887421 -48.744916 51.78412)"/><circle cx="110.462965" cy="156.442963" r="1" transform="matrix(.92887421 -.37039532 .37039532 .92887421 -50.088977 52.042095)"/><circle cx="110.461302" cy="160.068238" r="1" transform="matrix(.92887421 -.37039532 .37039532 .92887421 -51.43188 52.299329)"/><circle cx="110.460359" cy="170.954214" r="1" transform="matrix(.92887421 -.37039532 .37039532 .92887421 -55.464062 53.073253)"/><circle cx="110.46171" cy="181.833165" r="1" transform="matrix(.92887421 -.37039532 .37039532 .92887421 -59.493478 53.847528)"/><circle cx="110.460767" cy="192.719141" r="1" transform="matrix(.92887421 -.37039532 .37039532 .92887421 -63.52566 54.621452)"/><circle cx="114.084912" cy="152.815967" r="1" transform="matrix(.92887421 -.37039532 .37039532 .92887421 -48.48794 53.125674)"/><circle cx="114.084598" cy="156.444626" r="1" transform="matrix(.92887421 -.37039532 .37039532 .92887421 -49.832001 53.383649)"/><circle cx="114.086577" cy="160.069901" r="1" transform="matrix(.92887421 -.37039532 .37039532 .92887421 -51.174645 53.642232)"/><circle cx="114.086263" cy="163.69856" r="1" transform="matrix(.92887421 -.37039532 .37039532 .92887421 -52.518706 53.900207)"/><circle cx="114.085949" cy="167.327219" r="1" transform="matrix(.92887421 -.37039532 .37039532 .92887421 -53.862767 54.158182)"/><circle cx="114.085634" cy="170.952235" r="1" transform="matrix(.92887421 -.37039532 .37039532 .92887421 -55.205478 54.415898)"/><circle cx="114.083657" cy="178.206169" r="1" transform="matrix(.92887421 -.37039532 .37039532 .92887421 -57.892442 54.931107)"/><circle cx="114.083343" cy="181.834828" r="1" transform="matrix(.92887421 -.37039532 .37039532 .92887421 -59.236503 55.189082)"/><circle cx="114.086671" cy="185.463487" r="1" transform="matrix(.92887421 -.37039532 .37039532 .92887421 -60.580304 55.448406)"/><circle cx="114.086357" cy="189.092146" r="1" transform="matrix(.92887421 -.37039532 .37039532 .92887421 -61.924365 55.706381)"/><circle cx="114.086043" cy="192.720805" r="1" transform="matrix(.92887421 -.37039532 .37039532 .92887421 -63.268425 55.964356)"/><circle cx="114.085728" cy="196.345821" r="1" transform="matrix(.92887421 -.37039532 .37039532 .92887421 -64.611137 56.222071)"/><circle cx="117.713571" cy="152.816281" r="1" transform="matrix(.92887421 -.37039532 .37039532 .92887421 -48.229966 54.469734)"/><circle cx="117.713257" cy="156.44494" r="1" transform="matrix(.92887421 -.37039532 .37039532 .92887421 -49.574026 54.727709)"/><circle cx="117.711593" cy="160.070216" r="1" transform="matrix(.92887421 -.37039532 .37039532 .92887421 -50.91693 54.984944)"/><circle cx="117.714922" cy="163.698874" r="1" transform="matrix(.92887421 -.37039532 .37039532 .92887421 -52.260731 55.244268)"/><circle cx="117.714607" cy="167.323891" r="1" transform="matrix(.92887421 -.37039532 .37039532 .92887421 -53.603443 55.501983)"/><circle cx="117.714293" cy="170.952549" r="1" transform="matrix(.92887421 -.37039532 .37039532 .92887421 -54.947503 55.759958)"/><circle cx="117.713979" cy="174.581208" r="1" transform="matrix(.92887421 -.37039532 .37039532 .92887421 -56.291564 56.017933)"/><circle cx="117.712316" cy="178.206484" r="1" transform="matrix(.92887421 -.37039532 .37039532 .92887421 -57.634467 56.275168)"/><circle cx="117.712001" cy="181.835142" r="1" transform="matrix(.92887421 -.37039532 .37039532 .92887421 -58.978528 56.533142)"/><circle cx="117.711687" cy="185.463801" r="1" transform="matrix(.92887421 -.37039532 .37039532 .92887421 -60.322588 56.791117)"/><circle cx="117.711373" cy="189.09246" r="1" transform="matrix(.92887421 -.37039532 .37039532 .92887421 -61.666649 57.049092)"/><circle cx="117.714701" cy="192.717476" r="1" transform="matrix(.92887421 -.37039532 .37039532 .92887421 -63.009101 57.308157)"/><circle cx="117.714387" cy="196.346135" r="1" transform="matrix(.92887421 -.37039532 .37039532 .92887421 -64.353162 57.566132)"/><circle cx="121.34223" cy="152.816596" r="1" transform="matrix(.92887421 -.37039532 .37039532 .92887421 -47.971991 55.813795)"/><circle cx="121.341915" cy="156.445254" r="1" transform="matrix(.92887421 -.37039532 .37039532 .92887421 -49.316051 56.07177)"/><circle cx="121.340252" cy="160.07053" r="1" transform="matrix(.92887421 -.37039532 .37039532 .92887421 -50.658955 56.329004)"/><circle cx="121.339938" cy="163.699189" r="1" transform="matrix(.92887421 -.37039532 .37039532 .92887421 -52.003016 56.586979)"/><circle cx="121.343266" cy="167.324205" r="1" transform="matrix(.92887421 -.37039532 .37039532 .92887421 -53.345468 56.846044)"/><circle cx="121.342952" cy="170.952864" r="1" transform="matrix(.92887421 -.37039532 .37039532 .92887421 -54.689529 57.104019)"/><circle cx="121.342638" cy="174.581522" r="1" transform="matrix(.92887421 -.37039532 .37039532 .92887421 -56.033589 57.361994)"/><circle cx="121.340974" cy="178.206798" r="1" transform="matrix(.92887421 -.37039532 .37039532 .92887421 -57.376492 57.619228)"/><circle cx="121.34066" cy="181.835457" r="1" transform="matrix(.92887421 -.37039532 .37039532 .92887421 -58.720553 57.877203)"/><circle cx="121.340346" cy="185.464115" r="1" transform="matrix(.92887421 -.37039532 .37039532 .92887421 -60.064613 58.135178)"/><circle cx="121.340032" cy="189.089132" r="1" transform="matrix(.92887421 -.37039532 .37039532 .92887421 -61.407325 58.392894)"/><circle cx="121.339718" cy="192.71779" r="1" transform="matrix(.92887421 -.37039532 .37039532 .92887421 -62.751385 58.650869)"/><circle cx="121.343046" cy="196.346449" r="1" transform="matrix(.92887421 -.37039532 .37039532 .92887421 -64.095187 58.910193)"/><circle cx="124.970889" cy="152.81691" r="1" transform="matrix(.92887421 -.37039532 .37039532 .92887421 -47.714016 57.157856)"/><circle cx="124.970574" cy="156.445569" r="1" transform="matrix(.92887421 -.37039532 .37039532 .92887421 -49.058077 57.41583)"/><circle cx="124.968911" cy="160.070844" r="1" transform="matrix(.92887421 -.37039532 .37039532 .92887421 -50.40098 57.673065)"/><circle cx="124.968597" cy="163.69586" r="1" transform="matrix(.92887421 -.37039532 .37039532 .92887421 -51.743691 57.930781)"/><circle cx="124.968282" cy="167.324519" r="1" transform="matrix(.92887421 -.37039532 .37039532 .92887421 -53.087752 58.188755)"/><circle cx="124.971611" cy="170.953178" r="1" transform="matrix(.92887421 -.37039532 .37039532 .92887421 -54.431554 58.44808)"/><circle cx="124.971297" cy="174.581837" r="1" transform="matrix(.92887421 -.37039532 .37039532 .92887421 -55.775614 58.706055)"/><circle cx="124.969633" cy="178.207112" r="1" transform="matrix(.92887421 -.37039532 .37039532 .92887421 -57.118518 58.963289)"/><circle cx="124.969319" cy="181.835771" r="1" transform="matrix(.92887421 -.37039532 .37039532 .92887421 -58.462578 59.221264)"/><circle cx="124.969005" cy="185.460787" r="1" transform="matrix(.92887421 -.37039532 .37039532 .92887421 -59.805289 59.478979)"/><circle cx="124.968691" cy="189.089446" r="1" transform="matrix(.92887421 -.37039532 .37039532 .92887421 -61.14935 59.736954)"/><circle cx="124.968376" cy="192.718105" r="1" transform="matrix(.92887421 -.37039532 .37039532 .92887421 -62.493411 59.994929)"/><circle cx="124.968062" cy="196.346764" r="1" transform="matrix(.92887421 -.37039532 .37039532 .92887421 -63.837472 60.252904)"/><circle cx="128.599547" cy="152.817224" r="1" transform="matrix(.92887421 -.37039532 .37039532 .92887421 -47.456041 58.501916)"/><circle cx="128.599233" cy="156.445883" r="1" transform="matrix(.92887421 -.37039532 .37039532 .92887421 -48.800102 58.759891)"/><circle cx="128.59757" cy="160.067516" r="1" transform="matrix(.92887421 -.37039532 .37039532 .92887421 -50.141656 59.016867)"/><circle cx="128.597256" cy="163.696174" r="1" transform="matrix(.92887421 -.37039532 .37039532 .92887421 -51.485716 59.274841)"/><circle cx="128.596941" cy="167.324833" r="1" transform="matrix(.92887421 -.37039532 .37039532 .92887421 -52.829777 59.532816)"/><circle cx="128.596627" cy="170.953492" r="1" transform="matrix(.92887421 -.37039532 .37039532 .92887421 -54.173838 59.790791)"/><circle cx="128.596313" cy="174.582151" r="1" transform="matrix(.92887421 -.37039532 .37039532 .92887421 -55.517898 60.048766)"/><circle cx="128.598292" cy="178.207426" r="1" transform="matrix(.92887421 -.37039532 .37039532 .92887421 -56.860543 60.307349)"/><circle cx="128.597978" cy="181.832442" r="1" transform="matrix(.92887421 -.37039532 .37039532 .92887421 -58.203254 60.565065)"/><circle cx="128.597664" cy="185.461101" r="1" transform="matrix(.92887421 -.37039532 .37039532 .92887421 -59.547315 60.82304)"/><circle cx="128.59735" cy="189.08976" r="1" transform="matrix(.92887421 -.37039532 .37039532 .92887421 -60.891375 61.081015)"/><circle cx="128.597035" cy="192.718419" r="1" transform="matrix(.92887421 -.37039532 .37039532 .92887421 -62.235436 61.33899)"/><circle cx="128.596721" cy="196.347078" r="1" transform="matrix(.92887421 -.37039532 .37039532 .92887421 -63.579497 61.596965)"/><circle cx="132.224823" cy="152.818887" r="1" transform="matrix(.92887421 -.37039532 .37039532 .92887421 -47.198807 59.84482)"/><circle cx="132.224508" cy="156.443904" r="1" transform="matrix(.92887421 -.37039532 .37039532 .92887421 -48.541518 60.102535)"/><circle cx="132.222845" cy="160.069179" r="1" transform="matrix(.92887421 -.37039532 .37039532 .92887421 -49.884422 60.35977)"/><circle cx="132.222531" cy="163.697838" r="1" transform="matrix(.92887421 -.37039532 .37039532 .92887421 -51.228482 60.617745)"/><circle cx="132.222217" cy="167.326497" r="1" transform="matrix(.92887421 -.37039532 .37039532 .92887421 -52.572543 60.87572)"/><circle cx="132.221902" cy="170.955155" r="1" transform="matrix(.92887421 -.37039532 .37039532 .92887421 -53.916603 61.133694)"/><circle cx="132.221588" cy="174.583814" r="1" transform="matrix(.92887421 -.37039532 .37039532 .92887421 -55.260664 61.391669)"/><circle cx="132.219925" cy="178.205447" r="1" transform="matrix(.92887421 -.37039532 .37039532 .92887421 -56.602218 61.648645)"/><circle cx="132.223253" cy="181.834106" r="1" transform="matrix(.92887421 -.37039532 .37039532 .92887421 -57.94602 61.907968)"/><circle cx="132.222939" cy="185.462765" r="1" transform="matrix(.92887421 -.37039532 .37039532 .92887421 -59.29008 62.165943)"/><circle cx="132.222625" cy="189.091423" r="1" transform="matrix(.92887421 -.37039532 .37039532 .92887421 -60.634141 62.423918)"/><circle cx="132.222311" cy="192.720082" r="1" transform="matrix(.92887421 -.37039532 .37039532 .92887421 -61.978201 62.681893)"/><circle cx="132.221996" cy="196.348741" r="1" transform="matrix(.92887421 -.37039532 .37039532 .92887421 -63.322262 62.939868)"/><circle cx="135.849839" cy="152.815559" r="1" transform="matrix(.92887421 -.37039532 .37039532 .92887421 -46.939742 61.187272)"/><circle cx="135.853167" cy="156.444218" r="1" transform="matrix(.92887421 -.37039532 .37039532 .92887421 -48.283543 61.446596)"/><circle cx="135.851504" cy="160.069493" r="1" transform="matrix(.92887421 -.37039532 .37039532 .92887421 -49.626447 61.70383)"/><circle cx="135.85119" cy="163.698152" r="1" transform="matrix(.92887421 -.37039532 .37039532 .92887421 -50.970507 61.961805)"/><circle cx="135.850875" cy="167.326811" r="1" transform="matrix(.92887421 -.37039532 .37039532 .92887421 -52.314568 62.21978)"/><circle cx="135.850561" cy="170.95547" r="1" transform="matrix(.92887421 -.37039532 .37039532 .92887421 -53.658629 62.477755)"/><circle cx="135.850247" cy="174.584129" r="1" transform="matrix(.92887421 -.37039532 .37039532 .92887421 -55.002689 62.73573)"/><circle cx="135.848584" cy="178.205761" r="1" transform="matrix(.92887421 -.37039532 .37039532 .92887421 -56.344243 62.992705)"/><circle cx="135.848269" cy="181.83442" r="1" transform="matrix(.92887421 -.37039532 .37039532 .92887421 -57.688304 63.25068)"/><circle cx="135.851598" cy="185.463079" r="1" transform="matrix(.92887421 -.37039532 .37039532 .92887421 -59.032105 63.510004)"/><circle cx="135.851284" cy="189.091738" r="1" transform="matrix(.92887421 -.37039532 .37039532 .92887421 -60.376166 63.767979)"/><circle cx="135.850969" cy="192.720397" r="1" transform="matrix(.92887421 -.37039532 .37039532 .92887421 -61.720227 64.025954)"/><circle cx="135.850655" cy="196.349055" r="1" transform="matrix(.92887421 -.37039532 .37039532 .92887421 -63.064287 64.283928)"/><circle cx="139.478498" cy="152.815873" r="1" transform="matrix(.92887421 -.37039532 .37039532 .92887421 -46.681767 62.531333)"/><circle cx="139.478183" cy="156.444532" r="1" transform="matrix(.92887421 -.37039532 .37039532 .92887421 -48.025828 62.789307)"/><circle cx="139.47652" cy="160.069807" r="1" transform="matrix(.92887421 -.37039532 .37039532 .92887421 -49.368731 63.046542)"/><circle cx="139.479848" cy="163.698466" r="1" transform="matrix(.92887421 -.37039532 .37039532 .92887421 -50.712532 63.305866)"/><circle cx="139.479534" cy="167.327125" r="1" transform="matrix(.92887421 -.37039532 .37039532 .92887421 -52.056593 63.563841)"/><circle cx="139.47922" cy="170.955784" r="1" transform="matrix(.92887421 -.37039532 .37039532 .92887421 -53.400654 63.821816)"/><circle cx="139.478906" cy="174.5808" r="1" transform="matrix(.92887421 -.37039532 .37039532 .92887421 -54.743365 64.079531)"/><circle cx="139.477242" cy="178.206075" r="1" transform="matrix(.92887421 -.37039532 .37039532 .92887421 -56.086268 64.336766)"/><circle cx="139.476928" cy="181.834734" r="1" transform="matrix(.92887421 -.37039532 .37039532 .92887421 -57.430329 64.59474)"/><circle cx="139.476614" cy="185.463393" r="1" transform="matrix(.92887421 -.37039532 .37039532 .92887421 -58.77439 64.852715)"/><circle cx="139.479942" cy="189.092052" r="1" transform="matrix(.92887421 -.37039532 .37039532 .92887421 -60.118191 65.112039)"/><circle cx="139.479628" cy="192.720711" r="1" transform="matrix(.92887421 -.37039532 .37039532 .92887421 -61.462252 65.370014)"/><circle cx="139.479314" cy="196.345727" r="1" transform="matrix(.92887421 -.37039532 .37039532 .92887421 -62.804963 65.62773)"/><circle cx="143.107157" cy="152.816187" r="1" transform="matrix(.92887421 -.37039532 .37039532 .92887421 -46.423792 63.875393)"/><circle cx="143.106842" cy="156.444846" r="1" transform="matrix(.92887421 -.37039532 .37039532 .92887421 -47.767853 64.133368)"/><circle cx="143.105179" cy="160.070122" r="1" transform="matrix(.92887421 -.37039532 .37039532 .92887421 -49.110756 64.390603)"/><circle cx="143.104865" cy="163.69878" r="1" transform="matrix(.92887421 -.37039532 .37039532 .92887421 -50.454817 64.648577)"/><circle cx="143.108193" cy="167.327439" r="1" transform="matrix(.92887421 -.37039532 .37039532 .92887421 -51.798618 64.907901)"/><circle cx="143.107879" cy="170.952455" r="1" transform="matrix(.92887421 -.37039532 .37039532 .92887421 -53.141329 65.165617)"/><circle cx="143.107565" cy="174.581114" r="1" transform="matrix(.92887421 -.37039532 .37039532 .92887421 -54.48539 65.423592)"/><circle cx="143.105901" cy="178.20639" r="1" transform="matrix(.92887421 -.37039532 .37039532 .92887421 -55.828294 65.680826)"/><circle cx="143.105587" cy="181.835048" r="1" transform="matrix(.92887421 -.37039532 .37039532 .92887421 -57.172354 65.938801)"/><circle cx="143.105273" cy="185.463707" r="1" transform="matrix(.92887421 -.37039532 .37039532 .92887421 -58.516415 66.196776)"/><circle cx="143.104959" cy="189.092366" r="1" transform="matrix(.92887421 -.37039532 .37039532 .92887421 -59.860475 66.454751)"/><circle cx="143.104644" cy="192.717382" r="1" transform="matrix(.92887421 -.37039532 .37039532 .92887421 -61.203187 66.712466)"/><circle cx="143.107973" cy="196.346041" r="1" transform="matrix(.92887421 -.37039532 .37039532 .92887421 -62.546988 66.971791)"/><circle cx="146.735815" cy="152.816502" r="1" transform="matrix(.92887421 -.37039532 .37039532 .92887421 -46.165817 65.219454)"/><circle cx="146.735501" cy="156.445161" r="1" transform="matrix(.92887421 -.37039532 .37039532 .92887421 -47.509878 65.477429)"/><circle cx="146.733838" cy="160.070436" r="1" transform="matrix(.92887421 -.37039532 .37039532 .92887421 -48.852781 65.734663)"/><circle cx="146.733524" cy="163.699095" r="1" transform="matrix(.92887421 -.37039532 .37039532 .92887421 -50.196842 65.992638)"/><circle cx="146.733209" cy="167.324111" r="1" transform="matrix(.92887421 -.37039532 .37039532 .92887421 -51.539553 66.250354)"/><circle cx="146.736538" cy="170.95277" r="1" transform="matrix(.92887421 -.37039532 .37039532 .92887421 -52.883355 66.509678)"/><circle cx="146.736224" cy="174.581428" r="1" transform="matrix(.92887421 -.37039532 .37039532 .92887421 -54.227415 66.767653)"/><circle cx="146.73456" cy="178.206704" r="1" transform="matrix(.92887421 -.37039532 .37039532 .92887421 -55.570319 67.024887)"/><circle cx="146.734246" cy="181.835363" r="1" transform="matrix(.92887421 -.37039532 .37039532 .92887421 -56.914379 67.282862)"/><circle cx="146.733932" cy="185.464021" r="1" transform="matrix(.92887421 -.37039532 .37039532 .92887421 -58.25844 67.540837)"/><circle cx="146.733618" cy="189.089038" r="1" transform="matrix(.92887421 -.37039532 .37039532 .92887421 -59.601151 67.798553)"/><circle cx="146.733303" cy="192.717696" r="1" transform="matrix(.92887421 -.37039532 .37039532 .92887421 -60.945212 68.056527)"/><circle cx="146.732989" cy="196.346355" r="1" transform="matrix(.92887421 -.37039532 .37039532 .92887421 -62.289272 68.314502)"/><circle cx="150.361091" cy="152.818165" r="1" transform="matrix(.92887421 -.37039532 .37039532 .92887421 -45.908583 66.562357)"/><circle cx="150.360776" cy="156.446824" r="1" transform="matrix(.92887421 -.37039532 .37039532 .92887421 -47.252644 66.820332)"/><circle cx="150.359113" cy="160.072099" r="1" transform="matrix(.92887421 -.37039532 .37039532 .92887421 -48.595547 67.077566)"/><circle cx="150.358799" cy="163.697115" r="1" transform="matrix(.92887421 -.37039532 .37039532 .92887421 -49.938258 67.335282)"/><circle cx="150.358485" cy="167.325774" r="1" transform="matrix(.92887421 -.37039532 .37039532 .92887421 -51.282319 67.593257)"/><circle cx="150.35817" cy="170.954433" r="1" transform="matrix(.92887421 -.37039532 .37039532 .92887421 -52.626379 67.851232)"/><circle cx="150.361499" cy="174.583092" r="1" transform="matrix(.92887421 -.37039532 .37039532 .92887421 -53.970181 68.110556)"/><circle cx="150.359835" cy="178.208367" r="1" transform="matrix(.92887421 -.37039532 .37039532 .92887421 -55.313084 68.36779)"/><circle cx="150.359521" cy="181.837026" r="1" transform="matrix(.92887421 -.37039532 .37039532 .92887421 -56.657145 68.625765)"/><circle cx="150.359207" cy="185.465685" r="1" transform="matrix(.92887421 -.37039532 .37039532 .92887421 -58.001206 68.88374)"/><circle cx="150.358893" cy="189.090701" r="1" transform="matrix(.92887421 -.37039532 .37039532 .92887421 -59.343917 69.141456)"/><circle cx="150.358579" cy="192.71936" r="1" transform="matrix(.92887421 -.37039532 .37039532 .92887421 -60.687978 69.399431)"/><circle cx="150.358264" cy="196.348019" r="1" transform="matrix(.92887421 -.37039532 .37039532 .92887421 -62.032038 69.657405)"/></g><path d="m155 147h38v55h-38z" fill="#8e6995"/><path d="m193.731237 202h-37.462474c-.148407 0-.26874-.123646-.26874-.27617v-55.447611c-.000949-.073547.027049-.144375.077656-.196385.050606-.052011.119522-.080786.191084-.07981h37.462474c.071562-.000976.140478.027799.191084.07981.050607.05201.078605.122838.077656.196385v55.447611c0 .152524-.120333.27617-.26874.27617zm-37.204507-.55234h36.935792v-54.89527h-36.935792z" fill="#000"/><path d="m171 154h3.067304c4.961172.100389 8.932696 4.324139 8.932696 9.5s-3.971524 9.399611-8.932696 9.5h-2.868529" fill="#000"/><path d="m175.003587 173h-2.808941v-.548948h2.808941c4.720067-.101291 8.497901-4.302859 8.497901-9.451052s-3.777834-9.349761-8.497901-9.451052h-3.003587v-.548948h3.003587c4.996177.104232 8.996413 4.550711 8.996413 10s-4.000236 9.895768-8.996413 10z" fill="#000"/><circle cx="171.667953" cy="162.831177" fill="#f9f9f9" r="9.678525" transform="matrix(.97946983 -.2015908 .2015908 .97946983 -29.300895 37.949631)"/><path d="m172.003803 173c-4.045228.001477-7.692891-2.434366-9.241617-6.171387s-.693413-8.039023 2.166995-10.899432c2.860409-2.860408 7.162411-3.715721 10.899432-2.166995s6.172864 5.196389 6.171387 9.241617c-.006052 5.518238-4.477959 9.990145-9.996197 9.996197zm0-19.447213c-3.823242-.002957-7.27167 2.29783-8.736813 5.829197-1.465144 3.531366-.658362 7.597615 2.044032 10.302104 2.702394 2.704488 6.768017 3.514419 10.300518 2.052011 3.5325-1.462407 5.835959-4.909052 5.835959-8.732296-.004029-5.215124-4.228576-9.442945-9.443696-9.451016z" fill="#000"/><path d="m172 162h10v1h-10z" fill="#000"/><path d="m172 178h3.023649c3.206941 0 6.170277 1.81069 7.773748 4.75s1.603471 6.56069 0 9.5-4.566807 4.75-7.773748 4.75h-2.827703" fill="#000"/><path d="m174.207885 198h-3v-.549048h3c5.111109 0 9.254481-4.231336 9.254481-9.450952s-4.143372-9.450952-9.254481-9.450952h-3.207885v-.549048h3.207885c5.408036 0 9.792115 4.477153 9.792115 10s-4.384079 10-9.792115 10z" fill="#000"/><circle cx="171.695302" cy="186.947176" fill="#f9f9f9" r="9.678525" transform="matrix(.18498058 -.98274218 .98274218 .18498058 -43.785869 321.097794)"/><path d="m171.999061 197.999959c-4.770429-.000685-8.8761-3.371023-9.80618-8.049918s1.574467-9.363231 5.98198-11.188292c4.407513-1.825062 9.490458-.282552 12.140349 3.684204 2.649892 3.966756 2.12871 9.25298-1.244815 12.625869-1.871396 1.881359-4.41774 2.935748-7.071334 2.928137zm0-19.446254c-4.502541.004786-8.374914 3.188967-9.249572 7.605749-.874657 4.416783 1.49192 8.836471 5.652818 10.55689s8.957662.26258 11.457576-3.482203c2.499914-3.744782 2.006966-8.733906-1.17746-11.917046-1.773927-1.768528-4.178476-2.758794-6.683362-2.75241z" fill="#000"/><path d="m167.985519 178.651374h.546398v9.678525h-.546398z" fill="#000" transform="matrix(.70710678 -.70710678 .70710678 .70710678 -80.465635 172.720043)"/><path d="m194 147h26v55h-26z" fill="#8e6995"/><path d="m219.726499 202h-26.452998c-.150229-.001983-.271537-.124475-.273501-.27617v-55.44766c0-.152524.12245-.27617.273501-.27617h26.452998c.151051 0 .273501.123646.273501.27617v55.44766c-.001964.151695-.123272.274187-.273501.27617zm-26.179497-.552341h25.89141v-54.895318h-25.89141z" fill="#000"/><path d="m218 202h-14" fill="#000"/><path d="m262 202h-58" fill="#000"/><path d="m34.5766123 316 31.6475687-101.454195h10.5553107l31.6438963 101.454195h.576612l-31.7540767-101.807149-.0624357-.192851h-11.3669752l-31.8165124 102z" fill="#000"/><path d="m43 287h57v1h-57z" fill="#000"/><path d="m295.05045 246.844129-55.596924-40.844129-.163831.217913-111.692622 4.419999-.276693-.203386-.16019.217913-.16019.221545 141.520767 103.966213.218441.159803 54.260792-73.501999z" fill="#8e6995"/><path d="m161 236.404529 32 23.595471v-52l-31.894076 1.250721-.105924.003657z" fill="#000"/><path d="m208 316-20.559165-17.50214v-84.49786h-70.440835v102z" fill="#8e6995"/><path d="m194.576612 316 31.647569-101.454195h10.555311l31.643896 101.454195h.576612l-31.754077-101.807149-.062435-.192851h-11.366976l-31.816512 102z" fill="#000"/><path d="m204 287h57v1h-57z" fill="#000"/><path d="m30 201h242v12h-242z" fill="#f9f9f9"/><path d="m92.9644077 133c-3.9889081 4.088564-9.478035 6.39389-15.2102963 6.388027-4.9373163 0-6.1689044-1.560711-9.7723048-4.355473l-18.9818066 8.605688c14.8558036 9.41508 46 2.497138 46-10.355136z" fill="#000"/><path d="m37.2748245 149c-.1264615-.000985-.2361702-.082718-.2666377-.198647-.0304676-.115928.026038-.236631.1373322-.293358 8.8334118-4.421062 19.0891839-8.957275 30.4865387-13.493487.1380788-.045238.2896171.018596.3462442.145852.0566272.127256-.0011297.274172-.1319665.335684-11.3825771 4.536213-21.6235714 9.072425-30.4422055 13.462083-.0385794.024214-.0831116.038635-.1293054.041873z" fill="#000"/><circle cx="82.572873" cy="123.103458" fill="#dbbab4" r="18.031124" transform="matrix(.9999961 -.00279252 .00279252 .9999961 -.343447 .231067)"/><path d="m83.0038449 141c-7.2805399.001447-13.8449965-4.383129-16.6321424-11.109054-2.787146-6.725926-1.2480492-14.468521 3.8995577-19.617152s12.8898957-6.689269 19.6163763-3.903462c6.7264805 2.785807 11.1123635 9.349391 11.1123635 16.62993-.009869 9.935491-8.060666 17.98789-17.9961551 17.999738zm0-35.462169c-7.063546-.001448-13.432308 4.252606-16.1360793 10.778194-2.7037714 6.525588-1.2099875 14.037359 3.7846939 19.03204s12.506453 6.488465 19.0320415 3.784694c6.5255884-2.703771 10.779642-9.072533 10.778194-16.136079-.013815-9.635947-7.8228994-17.443429-17.4588501-17.455266z" fill="#000"/><path d="m81.6322672 105c-4.2648192-.005394-8.3908324 1.551625-11.6322672 4.389646 6.9471079 4.896857 16.147639 4.804829 23-.230057-3.2032674-2.694862-7.2219806-4.165351-11.3677328-4.159589z" fill="#000"/><path d="m47.7854449 98.1751529-.7814699 11.0240961c-.0378673.525328.1968858 1.031737.6158127 1.328429l8.7942379 6.219297c.421573.29328.9605356.334501 1.4188902.108519l9.5793091-4.808541c.4572812-.228796.762132-.693964.7994762-1.21991l.7850712-11.0278379c.033925-.5264618-.2014097-1.0325956-.619414-1.3321718l-8.8086429-6.2118122c-.4209203-.2944956-.9599117-.3371403-1.4188902-.1122617l-9.5757078 4.8085414c-.4511727.235993-.7504279.7002977-.7886725 1.2236521z" fill="#000"/><circle cx="59.5" cy="105.5" fill="#f9f9f9" r="3.5"/><path d="m73 112 25 14h-12.6107174" fill="#dbbab4"/><path d="m98.727102 126h-12.3354754c-.1495324 0-.2707523-.123367-.2707523-.275537 0-.152171.1212199-.275529.2707523-.275529h11.3318868l-23.5879416-13.934414c-.1295947-.076086-.174042-.244675-.0992758-.376556s.2404334-.177113.3700281-.101028l24.4579591 14.448735c.1066091.062442.158459.19017.1262374.310975-.0322215.120805-.1404163.204326-.2634186.203354z" fill="#000"/><path d="m93.7383253 129h-10.1180891c-1.4463196-.002001-2.6183142-1.222019-2.6202362-2.727603 0-.150441.1171558-.272397.2616747-.272397.144519 0 .2616747.121956.2616747.272397 0 1.203526.9372461 2.179177 2.0933978 2.179177h10.1215781c.1445189 0 .2616747.121956.2616747.272397s-.1171558.272397-.2616747.272397z" fill="#000"/><path d="m64 122.935251c-.0048669 4.954712 2.0556477 9.687997 5.6874164 13.064749 5.6403721-3.102742 9.3125836-8.123478 9.3125836-13.790769 0-5.327759-3.2380584-10.081204-8.3212674-13.209231-4.2280444 3.393338-6.6847431 8.519276-6.6787326 13.935251z" fill="#000"/><circle cx="66.127952" cy="138.018629" fill="#dbbab4" r="4.170836" transform="matrix(.9999961 -.00279252 .00279252 .9999961 -.385162 .185202)"/><path d="m66.5000622 142c-1.8203878 0-3.4614588-1.096774-4.1577463-2.778736-.6962874-1.681963-.3106164-3.617754.9771193-4.904436 1.2877358-1.286682 3.2238408-1.670767 4.9052315-.973101s2.7768181 2.339636 2.7753333 4.160024c-.004069 2.482964-2.0169733 4.49422-4.4999378 4.496249zm0-8.443366c-2.1799312 0-3.9471146 1.767185-3.9471146 3.947117 0 2.179933 1.7671834 3.947117 3.9471146 3.947117s3.9471146-1.767184 3.9471146-3.947117c0-2.179932-1.7671834-3.947117-3.9471146-3.947117z" fill="#000"/><path d="m91.7862802 160.722396v-10.722396c-3.9206535 4.292581-8.4750968 1.064995-13.4496101 2.484988-4.4586378 1.271473-4.7423693 6.042215-4.7423693 7.668687h-41.5943008l1.3486458 41.846325h58.6513542v-41.020411c-.1231871-.0268-.2115854-.133179-.2137198-.257193z" fill="#dbbab4"/><path d="m74.1367697 167.164851h-23.02658l-13.7247393-18.164851c-16.5406273 8.817499-31.44166937 16.578944-36.19393274 28.970215-3.5470054 9.223111.10496241 24.029785 20.81513074 24.029785h71.9933516z" fill="#dbbab4"/><path d="m73.7407271 161h-41.7407271v-.601805h41.1861917c.0477415-1.689068.5692251-7.101304 5.1413882-8.553661 1.9684172-.625878 3.8119721-.441324 5.5967682-.264795 2.8571429.284855 5.3213368.529589 7.6496512-2.579739l.4260007.401204c-2.5119354 3.354062-5.2405435 3.085255-8.1270657 2.808425-1.7297099-.168506-3.5218509-.349047-5.3911128.244734-4.5317664 1.436309-4.7741461 7.149448-4.7741461 8.276831z" fill="#000"/><path d="m83.1422003 160.38677c18.4236457-1.006263 28.9793107-.294876 28.9793107 5.097664 0 5.016574-10.035468 5.492061-19.2725783 5.492061h.4226601c12.7231522-.169554 20.7284072 1.168445 20.7284072 5.492061 0 5.016573-11.0867 5.897514-20.7284072 5.897514 11.5599342-.165867 18.8499182 1.172131 18.8499182 5.495747 0 5.016573-10.082431 5.897515-18.8499182 5.897515 12.7050902 0 16.9786532 1.105784 16.9786532 4.618491 0 4.054541-6.029228 4.622177-16.9786532 4.622177h-23.2715928" fill="#dbbab4"/><path d="m94.139717 171c-.1520581 0-.2753256-.128904-.2753256-.287915 0-.159012.1232675-.287916.2753256-.287916 10.029195 0 19.309504-.660286 19.309504-5.435844.013152-.934738-.361794-1.829545-1.027882-2.45304-3.472774-3.454986-15.5724178-3.27072-28.1309376-2.564367-.0983644.005486-.1920555-.044322-.245781-.13066-.0537254-.086338-.059323-.196091-.014684-.287915.0446389-.091825.1327326-.15177.231097-.157256 17.3418436-.971235 25.6089546-.184266 28.5384196 2.721761.772538.735005 1.209115 1.779326 1.200547 2.871477 0 5.562527-10.249583 6.011675-19.860283 6.011675z" fill="#000"/><path d="m94.2675204 182c-.1477322 0-.2675204-.124217-.2675204-.277445 0-.153229.1197882-.277446.2675204-.277446 13.4031756 0 20.1974936-1.897727 20.1974936-5.64139.003386-.799363-.317641-1.563318-.884509-2.104886-2.200575-2.252857-8.516973-3.277556-19.309418-3.129585-.0715098.003059-.1410802-.02455-.1923585-.076337-.0512783-.051786-.0797421-.123183-.0787285-.197409-.0009247-.073585.0263483-.144548.0758454-.197274.0494972-.052726.1171629-.082896.1881085-.083871 11.0956041-.15167 17.3513701.895224 19.6910411 3.288654.666463.64803 1.044716 1.553193 1.045005 2.500708 0 4.16908-6.780052 6.196281-20.7324796 6.196281z" fill="#000"/><path d="m94.279433 193c-.1543266 0-.279433-.124186-.279433-.277377s.1251064-.277377.279433-.277377c12.716063 0 19.16165-1.897259 19.16165-5.643697.00884-.852684-.345699-1.669377-.976152-2.248603-2.198206-2.148747-8.14454-3.125114-18.1817722-2.984576-.0744045.001996-.1464614-.025954-.1997895-.077496-.0533282-.051543-.0833693-.122299-.0833693-.196183 0-.15239.1222405-.277065.2757072-.281075 10.3352938-.144236 16.2406448.854321 18.5841558 3.147304.73249.685184 1.145407 1.641566 1.140137 2.640629 0 4.164353-6.464267 6.198451-19.720567 6.198451z" fill="#000"/><path d="m94.6236471 202h-72.3457069c-11.3211776 0-16.7290128-4.299122-19.2965526-7.904022-3.77130136-5.325994-3.44035785-11.877726-1.87292208-16.234701 4.31681265-12.004278 17.79094148-19.04052 33.39256428-27.186797l3.1166878-1.630702c.0865588-.055911.1974477-.058451.2865046-.006562.0890569.051888.1410225.149315.1342638.251721-.0067586.102407-.0710834.192246-.1661965.23212l-3.1166878 1.634317c-15.499794 8.092041-28.88664102 15.084894-33.13435557 26.890306-1.52015812 4.226808-1.84382815 10.58329 1.81837096 15.739344 3.55673359 5.018656 10.07377511 7.672614 18.84923331 7.672614h72.3347967c11.4048229 0 16.8308419-.639987 16.8308419-4.262965 0-3.178241-4.254988-4.262965-16.8308419-4.262965-.1506388 0-.2727556-.121412-.2727556-.271181s.1221168-.271181.2727556-.271181c13.1540959 0 17.3763529 1.167886 17.3763529 4.801711 0 4.089409-5.600583 4.808943-17.3763529 4.808943z" fill="#dbbab4"/><path d="m95.2627241 202c-.1450985 0-.2627241-.12633-.2627241-.282167s.1176256-.282167.2627241-.282167c10.9853699 0 16.2118279-.665914 16.2118279-4.435666 0-3.306998-4.098496-4.435666-16.2118279-4.435666-.1450985 0-.2627241-.12633-.2627241-.282167s.1176256-.282167.2627241-.282167c12.6703069 0 16.7372759 1.215199 16.7372759 4.996238 0 4.255079-5.394601 5.003762-16.7372759 5.003762z" fill="#000"/><path d="m40.9687164 147.252235h.5463977v13.78015h-.5463977z" fill="#000" transform="matrix(.7952619 -.60626604 .60626604 .7952619 -85.007456 56.562376)"/><path d="m30 202h242" fill="#f9f9f9"/><path d="m30 201h242v1h-242z" fill="#000"/><path d="m30 206h242" fill="#f9f9f9"/><path d="m30 205h242v1h-242z" fill="#000"/><path d="m30 207h242" fill="#f9f9f9"/><path d="m30 207h242v1h-242z" fill="#000"/><path d="m30 210h242" fill="#f9f9f9"/><path d="m30 210h242v1h-242z" fill="#000"/><path d="m30 214h242" fill="#f9f9f9"/><path d="m30 213h242v1h-242z" fill="#000"/><path d="m155 147h1v55h-1z" fill="#000"/><path d="m194 189h26" fill="#f9f9f9"/><path d="m194 189h26v1h-26z" fill="#000"/><path d="m194 192h26" fill="#f9f9f9"/><path d="m194 192h26v1h-26z" fill="#000"/><path d="m194 196h26" fill="#f9f9f9"/><path d="m194 195h26v1h-26z" fill="#000"/><path d="m194 199h26" fill="#f9f9f9"/><path d="m194 198h26v1h-26z" fill="#000"/><path d="m194 202h26" fill="#f9f9f9"/><path d="m194 201h26v1h-26z" fill="#000"/></g></svg>