<?xml version="1.0" encoding="UTF-8"?>
<svg width="294px" height="287px" viewBox="0 0 294 287" version="1.1" xmlns="http://www.w3.org/2000/svg" xmlns:xlink="http://www.w3.org/1999/xlink">
    <title>sharepair_repaircafe</title>
    <g id="Repair-guidance-tool" stroke="none" stroke-width="1" fill="none" fill-rule="evenodd" opacity="0.099999994">
        <g id="Repair-guidance---step-3" transform="translate(-973.000000, -1080.000000)" fill-rule="nonzero">
            <g id="Bitmap-Copy" transform="translate(731.000000, 1030.000000)">
                <g id="sharepair_repaircafe" transform="translate(242.000000, 50.000000)">
                    <path d="M152.232759,102.293615 C147.302788,102.299718 142.538393,100.536541 138.825799,97.3320525 C149.136287,91.9630509 144.267076,82.6642294 142.291453,81.5240558 C138.410053,79.2831384 137.136209,84.8657172 135.140631,86.3048987 C132.812456,87.9839439 129.453233,88.8185378 129.034161,92.6892133 L129.090703,92.7253572 C128.04635,99.9278366 136.158376,106 146.312543,106 C152.508814,106 157.936787,103.739368 161,100.345134 C158.261053,101.631889 155.265625,102.29761 152.232759,102.293615 L152.232759,102.293615 Z" id="Path" fill="#DBBAB4"></path>
                    <path d="M248,23.0616077 L247.943559,18.6859815 C247.867323,12.2600553 242.619925,7.08673525 236.164011,7.07272579 L192.478752,7 C186.919806,6.99040033 182.020559,10.6315245 180.450199,15.9396481 L179.593625,18.8280902 L160.838645,18.8280902 L172.252988,41.5059959 L128,183 L247.853918,183 L247.853918,23.0450835 L248,23.0616077 Z" id="Path" fill="#F9F9F9"></path>
                    <path d="M200,173 L200,172.498214 C211.348709,172.498214 216.651844,164.422808 218.802928,159.60901 C218.915619,159.358117 219.024997,159.103879 219.134374,158.849641 C218.60406,158.20401 218.08369,157.511546 217.576578,156.782284 C214.613451,152.497033 212.604889,147.338675 212.313216,143.321044 C212.081204,140.019293 213.05897,137.854924 215.070847,137.229364 C216.662639,136.663229 218.435201,137.168066 219.498964,138.490519 C222.346085,141.748782 223.028863,150.506616 219.71109,158.75932 C222.657644,162.258439 225.982047,164.446225 229.256732,164.954701 C236.134236,166.055285 242.45491,159.936844 247.53929,147.311913 L248,147.499247 C244.387239,156.484557 238.192515,166.90163 229.1805,165.449797 C225.866041,164.917904 222.481978,162.75688 219.49565,159.277832 C219.419417,159.458474 219.343185,159.635772 219.260323,159.816415 C217.052893,164.740606 211.627123,173 200,173 Z M216.446347,137.507019 C216.026622,137.511139 215.609886,137.578797 215.210054,137.707733 C212.826958,138.450376 212.677807,141.521305 212.803756,143.287591 C213.082171,147.218247 215.064218,152.279593 217.977627,156.494593 C218.419555,157.136879 218.874741,157.745712 219.343185,158.321093 C222.481978,150.319283 221.842287,141.929424 219.117801,138.821698 C218.46622,138.003193 217.48656,137.521082 216.446347,137.507019 L216.446347,137.507019 Z" id="Shape" fill="#8E6995"></path>
                    <path d="M182.802374,157 C169.162097,134.12941 155.887009,104.416458 170.109613,92.7451628 C175.946046,87.9558388 185.858769,86.9689278 198.015263,89.9659686 C199.624065,90.3620533 201.242738,90.8241521 202.84825,91.3423628 C201.394077,85.3416799 201.045339,79.3112907 201.880995,73.7198953 C203.196989,64.9466196 207.28644,57.7246756 214.053938,52.2653084 C221.949901,45.8652402 233.376018,42.07603 247.96381,41 L248,41.4951059 C233.524067,42.5612338 222.19665,46.3141361 214.363197,52.651491 C207.697688,58.0448441 203.664167,65.1611655 202.371203,73.8057136 C201.532256,79.4169133 201.904025,85.5001138 203.404258,91.5371045 C211.935188,94.3691099 220.09106,98.7722513 225.157636,103.419645 C229.967594,107.816185 231.471117,111.942067 229.391847,115.038129 C227.200717,118.305827 224.127871,119.282836 220.508888,117.870134 C215.596941,115.952424 210.201366,109.697587 206.424464,101.541543 C204.990677,98.4538977 203.845249,95.2395637 203.00288,91.9397906 C201.311827,91.385272 199.607615,90.8934669 197.909983,90.4742773 C181.716679,86.4837241 173.745046,90.4445709 170.435321,93.157751 C162.733467,99.4753016 158.706526,115.642158 183.239942,156.775552 L182.802374,157 Z M203.529277,92.0949237 C204.357682,95.2564883 205.466443,98.3373323 206.842292,101.300592 C210.566554,109.347712 215.86014,115.493626 220.660227,117.378329 C224.045622,118.698611 226.911198,117.784316 228.964149,114.737765 C230.89208,111.869451 229.414877,107.968017 224.808898,103.759618 C219.864051,99.2211473 211.902288,94.907125 203.545727,92.0949237 L203.529277,92.0949237 Z" id="Shape" fill="#8E6995"></path>
                    <path d="M162.202674,76 L162,75.5460744 C175.827597,69.2341897 187.21003,60.0629052 194.869146,49.0030252 C203.531824,36.534982 207.006703,22.032557 204.917853,7.06957983 L205.404924,7 C207.510119,22.0921969 204.00582,36.7139016 195.271225,49.2912845 C187.536923,60.4141176 176.09565,69.6516687 162.202674,76 Z" id="Path" fill="#8E6995"></path>
                    <path d="M248,183.999905 L128.410308,183.999905 C128.280308,184.002738 128.15699,183.942278 128.079648,183.837688 C128.003689,183.732582 127.980502,183.598267 128.016823,183.473756 L172.057388,42.8011024 L160.044521,19 L248,19 L248,183.999905 Z M128.529345,183.503533 L247.50401,183.503533 L247.50401,19.4962699 L160.854637,19.4962699 L172.593056,42.7580923 L172.563297,42.8540379 L128.529345,183.503533 Z" id="Shape" fill="#000000"></path>
                    <path d="M270.460123,129 L270,129 C270,126.433618 270.662577,125.133763 271.300613,123.877236 C271.93865,122.620709 272.527607,121.430841 272.527607,118.994445 C272.527607,116.558049 271.91411,115.371514 271.300613,114.111654 C270.687117,112.851794 270,111.555272 270,108.98889 C270,106.422509 270.662577,105.125986 271.300613,103.869459 C271.93865,102.612932 272.527607,101.426397 272.527607,98.9933341 C272.527607,96.5602711 271.91411,95.3704033 271.300613,94.1138762 C270.687117,92.8573492 270,91.5574936 270,88.9911121 C270,86.4247306 270.662577,85.128208 271.300613,83.8716809 C271.93865,82.6151539 272.527607,81.428619 272.527607,78.995556 C272.527607,76.5624931 271.91411,75.3759582 271.300613,74.1194312 C270.687117,72.8629041 270,71.5630486 270,69 L270.460123,69 C270.460123,71.436396 271.07362,72.6195978 271.702454,73.8761249 C272.331288,75.1326519 273,76.4325075 273,78.995556 C273,81.5586046 272.340491,82.8584602 271.702454,84.1149872 C271.064417,85.3715143 270.460123,86.5580491 270.460123,88.9911121 C270.460123,91.4241751 271.07362,92.6140429 271.702454,93.8705699 C272.331288,95.127097 273,96.4269526 273,98.9933341 C273,101.559716 272.340491,102.856238 271.702454,104.112765 C271.064417,105.369292 270.460123,106.555827 270.460123,108.98889 C270.460123,111.421953 271.07362,112.615154 271.702454,113.871681 C272.331288,115.128208 273,116.428064 273,118.994445 C273,121.560827 272.340491,122.860682 271.702454,124.117209 C271.064417,125.373736 270.460123,126.563604 270.460123,129 Z" id="Path" fill="#000000"></path>
                    <rect id="Rectangle" fill="#000000" x="248" y="60" width="23" height="10"></rect>
                    <path d="M271,70 L248,70 L248,60 L271,60 L271,70 Z M248.500363,69.5 L270.499637,69.5 L270.499637,60.5 L248.500363,60.5 L248.500363,69.5 Z" id="Shape" fill="#000000"></path>
                    <rect id="Rectangle" fill="#000000" x="248" y="128" width="23" height="10"></rect>
                    <path d="M271,138 L248,138 L248,128 L271,128 L271,138 Z M248.500363,137.499165 L270.499637,137.499165 L270.499637,128.500835 L248.500363,128.500835 L248.500363,137.499165 Z" id="Shape" fill="#000000"></path>
                    <polygon id="Rectangle" fill="#000000" transform="translate(153.858284, 101.298656) rotate(-72.610000) translate(-153.858284, -101.298656) " points="67.6342202 101.05053 240.082347 101.05053 240.082347 101.546783 67.6342202 101.546783"></polygon>
                    <path d="M248,19 L179,19 L180.158855,15.2697385 C181.668572,10.340595 186.233603,6.98095263 191.395428,7.00008126 L236.222185,7.00008126 C242.718357,7.00747247 247.982719,12.2643635 247.990038,18.7513159 L248,19 Z M179.674062,18.5026318 L247.498604,18.5026318 C247.352753,12.3904937 242.354699,7.50838379 236.232146,7.4974679 L191.40539,7.4974679 C186.462941,7.48098965 182.092126,10.696878 180.643648,15.4156332 L179.674062,18.5026318 Z" id="Shape" fill="#000000"></path>
                    <circle id="Oval" fill="#000000" cx="213.5" cy="3.5" r="3.5"></circle>
                    <polygon id="Rectangle" fill="#000000" transform="translate(153.858284, 101.298656) rotate(-72.610000) translate(-153.858284, -101.298656) " points="67.6342202 101.05053 240.082347 101.05053 240.082347 101.546783 67.6342202 101.546783"></polygon>
                    <path d="M131,145 L41.4106186,145 L34,134.92939 C52.488484,125.213941 69.3518613,119.358781 86.5362883,112 L112.951718,112 C115.867643,112 130.285085,123.35516 130.285085,123.35516 L131,145 Z" id="Path" fill="#F9F9F9"></path>
                    <path d="M117,114 L83,114 C83,114 89.9228956,110 103.705235,110 C110.097142,110.009231 117,114 117,114 Z" id="Path" fill="#8E6995"></path>
                    <polygon id="Path" fill="#8E6995" points="131 125 77 125 77 120 125.264988 120 130.558845 123.892928"></polygon>
                    <polygon id="Path" fill="#8E6995" points="131 135 35 135 45.3606422 130 131 130"></polygon>
                    <rect id="Rectangle" fill="#8E6995" x="28" y="141" width="53" height="5"></rect>
                    <path d="M142.671166,134 C142.457425,133.815473 121.316719,115.333104 112.138975,112.103879 C102.21478,108.607749 91.613188,111.589839 86.1775701,113.675655 L86,113.214337 C91.4980962,111.10216 102.227934,108.090414 112.306681,111.635971 C121.573209,114.898147 142.786258,133.443123 143,133.627651 L142.671166,134 Z" id="Path" fill="#000000"></path>
                    <rect id="Rectangle" fill="#000000" x="130" y="124" width="1" height="10"></rect>
                    <path d="M130,134 L142,134 C141.272326,133.356353 136.132304,128.840764 130,124 L130,134 Z" id="Path" fill="#DBBAB4"></path>
                    <path d="M143,134 L130,134 L130,123 L130.403333,123.325342 C136.643333,128.318493 141.926667,133.027397 142.51,133.547945 L143,134 Z M130.486667,133.5 L141.66,133.5 C140.136667,132.130137 135.66,128.236301 130.486667,124.068493 L130.486667,133.5 Z" id="Shape" fill="#000000"></path>
                    <rect id="Rectangle" fill="#000000" x="67" y="141" width="61" height="1"></rect>
                    <rect id="Rectangle" fill="#000000" x="128" y="135" width="69" height="1"></rect>
                    <rect id="Rectangle" fill="#000000" x="90" y="119" width="35" height="1"></rect>
                    <rect id="Rectangle" fill="#000000" x="92" y="114" width="25" height="1"></rect>
                    <rect id="Rectangle" fill="#000000" x="60" y="141" width="69" height="1"></rect>
                    <rect id="Rectangle" fill="#000000" x="60" y="135" width="69" height="1"></rect>
                    <rect id="Rectangle" fill="#000000" x="61" y="130" width="70" height="1"></rect>
                    <rect id="Rectangle" fill="#000000" x="61" y="124" width="70" height="1"></rect>
                    <rect id="Rectangle" fill="#000000" x="38" y="141" width="23" height="1"></rect>
                    <rect id="Rectangle" fill="#000000" x="34" y="135" width="26" height="1"></rect>
                    <rect id="Rectangle" fill="#000000" x="45" y="130" width="15" height="1"></rect>
                    <rect id="Rectangle" fill="#DBBAB4" x="141" y="103" width="35" height="30"></rect>
                    <path d="M152.001117,62 C145.692949,62 139.754497,64.9763713 135.978731,70.0302401 C132.202965,75.0841088 131.032425,81.6232208 132.820526,87.6732508 C133.650926,87.1651921 134.513889,86.6962148 135.266133,86.1588449 C137.220013,84.7323723 138.46724,79.1990914 142.267537,81.4202201 C144.201878,82.5503251 148.96609,91.7670319 138.874299,97.0886216 C145.573301,102.917428 155.313121,103.630492 162.78946,98.8394793 C170.265799,94.0484668 173.687944,84.9009081 171.192196,76.3785582 C168.696449,67.8562082 160.880584,62 152.001117,62 L152.001117,62 Z" id="Path" fill="#8E6995"></path>
                    <path d="M152.500023,61 C146.0219,60.9984308 139.92441,64.0604642 136.055851,69.2579241 C132.187292,74.4553839 131.003157,81.1763084 132.862387,87.3834216 C133.00746,87.2910796 133.15583,87.2020356 133.300904,87.1162895 C130.488266,77.5491799 135.128179,67.3680115 144.19288,63.2164762 C153.257581,59.0649409 163.994812,62.2035439 169.398023,70.5841989 C174.801233,78.9648538 173.229881,90.042994 165.709347,96.5896112 C158.188813,103.136228 147.002511,103.163613 139.450029,96.6538962 C139.298362,96.7363444 139.1401,96.8220905 138.981838,96.9012407 C145.82707,102.916714 155.821139,103.688499 163.508373,98.795285 C171.195607,93.9020708 174.729176,84.519435 172.180137,75.7692728 C169.631098,67.0191107 161.611848,61.0036176 152.500023,61.0065965 L152.500023,61 Z" id="Path" fill="#000000"></path>
                    <path d="M161.675237,53.9440566 C149.306734,48.8383005 139.855929,54.8138278 142.423103,60.0922103 C144.896803,65.1846875 153.983731,62.4459042 158.670742,66.6951681 L158.670742,66.6951681 C148.155011,67.0636589 139.598878,74.4135576 144.115635,79.7848927 C146.412404,82.5170366 152.731858,79.2006189 158.300188,78.7524544 C149.320087,79.9973559 143.080753,86.1421899 146.829695,90.2885419 C149.390192,93.1169582 153.863551,91.6164369 158.670742,90.6935499 L158.670742,90.6935499 C152.434747,92.0214449 148.872751,94.6772348 149.890941,97.7546314 C150.735538,100.320788 154.614675,100.327428 158.670742,100.244434 L158.670742,129 L176,129 L176,79.0578702 C176,69.1982501 173.499593,58.8174312 161.675237,53.9440566 Z" id="Path" fill="#DBBAB4"></path>
                    <polyline id="Path" fill="#DCDDDE" points="149.286091 105 149.286091 116.9771 143 125.510242 148.322654 134 155.677346 134 161 125.510242 154.710516 116.9771 154.710516 105"></polyline>
                    <polygon id="Path" fill="#000000" points="155.692182 134 148.307818 134 143 125.321506 149.131219 116.795208 149.131219 105 149.623291 105 149.623291 116.954022 143.593767 125.344666 148.580098 133.503708 155.419902 133.503708 160.409513 125.344666 154.376709 116.954022 154.376709 105 154.868781 105 154.868781 116.795208 161 125.321506"></polygon>
                    <polygon id="Path" fill="#000000" points="155 108.067895 155 104 149 104 149 110"></polygon>
                    <rect id="Rectangle" fill="#000000" x="143" y="125" width="18" height="1"></rect>
                    <rect id="Rectangle" fill="#8E6995" x="139" y="100" width="27" height="5"></rect>
                    <path d="M166,105 L139,105 L139,100 L166,100 L166,105 Z M139.49926,104.521684 L165.50074,104.521684 L165.50074,100.478316 L139.49926,100.478316 L139.49926,104.521684 Z" id="Shape" fill="#000000"></path>
                    <path d="M147.294211,82 C146.030089,82 144.994904,81.6849469 144.281554,80.8143164 C142.732093,78.9206102 142.582788,76.64071 143.860181,74.3777481 C146.514503,69.7366435 154.872302,65.7391959 163.797463,67.3720516 C163.930809,67.3993997 164.018886,67.5297964 163.996537,67.6667787 C163.985207,67.7333221 163.948394,67.7925209 163.89423,67.831296 C163.840067,67.8700712 163.773012,67.8852311 163.707879,67.8734264 C156.896223,66.6267647 147.47006,69.0455594 144.291508,74.6487615 C143.46535,76.1020708 142.861492,78.2905041 144.663113,80.4924879 C146.056633,82.1863217 149.129011,81.4105458 152.685804,80.4924879 C154.676546,79.9877255 156.710421,79.4761877 158.687891,79.320355 C158.8248,79.3125664 158.942711,79.4179075 158.953324,79.5574917 C158.958805,79.6245744 158.937632,79.6910893 158.894572,79.742064 C158.851512,79.7930388 158.790182,79.8241898 158.724388,79.8285051 C156.786733,79.9707871 154.762811,80.4857126 152.805248,80.9836997 C150.751466,81.5155635 148.850307,82 147.294211,82 Z" id="Path" fill="#000000"></path>
                    <path d="M151.514306,92 C149.792076,92 148.282266,91.5685633 147.145006,90.2709088 C145.837811,88.7759306 145.638463,86.9264385 146.605788,85.0334683 C148.749588,80.8662583 156.308445,77.06694 164.785607,78.2040599 C164.872589,78.2154111 164.947046,78.2733903 164.980931,78.3561572 C165.014816,78.4389241 165.002982,78.5339045 164.949885,78.6053202 C164.896789,78.6767359 164.810497,78.7137372 164.723515,78.702386 C156.455505,77.5920218 149.105799,81.2475279 147.04043,85.2675812 C146.429316,86.4582127 146.011014,88.2341264 147.507753,89.9498397 C149.563317,92.2909689 152.952221,91.5484965 156.877075,90.6956566 C159.249635,90.1806081 161.707162,89.6488374 164.145081,89.7324491 C164.209813,89.7341848 164.271161,89.7624156 164.315387,89.8108203 C164.359613,89.859225 164.383024,89.9237595 164.380377,89.9899733 C164.380534,90.0568437 164.353514,90.12077 164.305787,90.1664422 C164.25806,90.2121144 164.193925,90.2354192 164.128742,90.2307752 C161.749646,90.1505079 159.324799,90.6789342 156.978383,91.1872937 C155.056806,91.5919746 153.171176,92 151.514306,92 Z" id="Path" fill="#000000"></path>
                    <path d="M158.568043,100 C155.039863,100 151.283955,99.7184193 150.273612,97.4002897 C149.881353,96.5473209 149.912349,95.5542944 150.357006,94.7285471 C151.405837,92.6658046 154.671008,90.9435784 159.308961,90.0071588 C159.39503,89.9854776 159.485805,90.0138764 159.545193,90.0810639 C159.604582,90.1482513 159.622958,90.243337 159.593015,90.3285144 C159.563072,90.4136919 159.489663,90.4751548 159.401976,90.4884654 C154.972507,91.3823204 151.75224,93.0521595 150.783595,94.9544665 C150.410346,95.6487853 150.38413,96.4832584 150.713031,97.2005638 C151.761863,99.6070967 156.486417,99.544887 160.290436,99.4924999 C160.803626,99.4924999 161.297571,99.4924999 161.759442,99.4924999 C161.892299,99.4924999 162,99.6024429 162,99.7380645 C162,99.873686 161.892299,99.983629 161.759442,99.983629 C161.297571,99.983629 160.797211,99.983629 160.296851,99.983629 C159.73555,99.9934516 159.155004,100 158.568043,100 Z" id="Path" fill="#000000"></path>
                    <path d="M175.769674,134 C175.633398,134 175.522925,133.888702 175.522925,133.751408 L175.522925,79.289864 C175.522925,66.3233033 171.084741,58.4280201 161.556957,54.4306601 C153.332005,50.9901463 146.600705,52.6076518 143.827251,55.5675544 C142.475069,57.0060736 142.146071,58.6633539 142.899476,60.231141 C144.149669,62.8363856 147.271861,63.3103678 150.575001,63.8075518 C153.565594,64.2616466 156.654886,64.7289997 158.855883,66.7508816 C158.952099,66.8479377 158.952099,67.0051688 158.855883,67.102225 C158.763341,67.2021318 158.60861,67.2094849 158.507145,67.1187978 C156.418007,65.1996672 153.401095,64.7422579 150.486172,64.3014213 C147.048142,63.7810353 143.804221,63.2904804 142.438879,60.449902 C141.603224,58.7064432 141.971702,56.8038854 143.452193,55.2261546 C146.337506,52.1469279 153.289235,50.4399292 161.728036,53.9699362 C167.090704,56.2138937 170.979462,59.846652 173.282448,64.7654598 C175.111677,68.6700121 176,73.4164628 176,79.2766058 L176,133.751408 C176.00193,133.883136 175.900249,133.992894 175.769674,134 Z" id="Path" fill="#000000"></path>
                    <path d="M138.737191,104.983151 C138.708165,104.988206 138.678428,104.988206 138.649402,104.983151 C131.626293,102.624259 127.370289,97.4919842 128.076112,92.2215459 C128.083952,92.1545312 128.119741,92.0934209 128.175317,92.0521514 C128.230893,92.0108819 128.301516,91.9929719 128.371082,92.0025059 C128.440507,92.0109082 128.503594,92.0454785 128.546417,92.0985863 C128.589241,92.1516942 128.60828,92.218973 128.599333,92.2855729 C127.925115,97.3133824 132.033633,102.226617 138.821468,104.508003 C138.943347,104.547811 139.017372,104.666344 138.996488,104.788258 C138.975605,104.910172 138.865936,104.999727 138.737191,105 L138.737191,104.983151 Z" id="Path" fill="#000000"></path>
                    <path d="M137.550584,98 C137.438406,97.9989933 137.341852,97.9154662 137.318085,97.7988684 C137.294318,97.6822706 137.34968,97.5637195 137.451396,97.5133996 C143.053929,94.8319934 144.38817,91.04808 144.522554,88.3700766 C144.698533,84.7903312 142.865152,81.6359358 141.87327,81.020029 C139.486354,79.5364083 138.216105,81.6291302 136.987451,83.6537961 C136.421118,84.5861632 135.883582,85.4674884 135.259657,85.9540887 C134.72532,86.3692303 134.130191,86.7367327 133.557459,87.0940267 C131.69848,88.2475758 129.775509,89.4419585 129.477945,92.3887831 C129.464484,92.5286735 129.347157,92.6306259 129.215576,92.6167707 C129.083564,92.600725 128.988104,92.4749591 129.001201,92.3343383 C129.321163,89.1323037 131.352922,87.8732678 133.314288,86.6550655 C133.885326,86.3145615 134.439586,85.9431696 134.974891,85.54235 C135.531624,85.1101944 136.040364,84.2697028 136.5747,83.3781693 C137.800154,81.360309 139.323173,78.8490428 142.106842,80.5776651 C143.21391,81.258225 145.181676,84.5589408 144.986499,88.4041046 C144.845716,91.235234 143.457081,95.2097042 137.627375,97.9863888 C137.60258,97.9950632 137.576684,97.9996534 137.550584,98 L137.550584,98 Z" id="Path" fill="#000000"></path>
                    <path d="M141.500023,134 C141.366874,134.000878 141.238647,133.974979 141.144487,133.928166 C141.050328,133.881353 140.998234,133.817603 141.000046,133.751406 L141.000046,105.248571 C141.000046,105.111289 141.223893,105 141.500023,105 C141.776153,105 142,105.111289 142,105.248571 L142,133.751406 C142,133.888688 141.776153,134 141.500023,134 Z" id="Path" fill="#000000"></path>
                    <rect id="Rectangle" fill="#F9F9F9" x="83" y="133" width="93" height="50"></rect>
                    <path d="M176.751493,183 L83.2484844,183 C83.1119962,182.998229 83.0017844,182.888862 83,182.753419 L83,133.246625 C83,133.110442 83.1112502,133.000021 83.2484844,133.000021 L176.751493,133.000021 C176.817667,132.99915 176.881394,133.024842 176.928191,133.07128 C176.974987,133.117718 177,133.180957 177,133.246625 L177,182.753419 C177,182.889602 176.888727,183 176.751493,183 L176.751493,183 Z M83.4969687,182.506839 L176.503009,182.506839 L176.503009,133.493205 L83.4969687,133.493205 L83.4969687,182.506839 Z" id="Shape" fill="#000000"></path>
                    <circle id="Oval" fill="#000000" transform="translate(87.415672, 139.152022) rotate(-21.740000) translate(-87.415672, -139.152022) " cx="87.4156719" cy="139.152022" r="1"></circle>
                    <circle id="Oval" fill="#000000" transform="translate(87.415386, 142.447671) rotate(-21.740000) translate(-87.415386, -142.447671) " cx="87.4153865" cy="142.447671" r="1"></circle>
                    <circle id="Oval" fill="#000000" transform="translate(90.711321, 139.152308) rotate(-21.740000) translate(-90.711321, -139.152308) " cx="90.7113209" cy="139.152308" r="1"></circle>
                    <circle id="Oval" fill="#000000" transform="translate(90.711035, 142.447957) rotate(-21.740000) translate(-90.711035, -142.447957) " cx="90.7110355" cy="142.447957" r="1"></circle>
                    <circle id="Oval" fill="#000000" transform="translate(94.006970, 139.152593) rotate(-21.740000) translate(-94.006970, -139.152593) " cx="94.0069699" cy="139.152593" r="1"></circle>
                    <circle id="Oval" fill="#000000" transform="translate(94.006685, 142.448242) rotate(-21.740000) translate(-94.006685, -142.448242) " cx="94.0066845" cy="142.448242" r="1"></circle>
                    <circle id="Oval" fill="#000000" transform="translate(97.302619, 139.152878) rotate(-21.740000) translate(-97.302619, -139.152878) " cx="97.3026189" cy="139.152878" r="1"></circle>
                    <circle id="Oval" fill="#000000" transform="translate(97.302334, 142.445219) rotate(-21.740000) translate(-97.302334, -142.445219) " cx="97.3023335" cy="142.445219" r="1"></circle>
                    <circle id="Oval" fill="#000000" transform="translate(100.598268, 139.149855) rotate(-21.740000) translate(-100.598268, -139.149855) " cx="100.598268" cy="139.149855" r="1"></circle>
                    <circle id="Oval" fill="#000000" transform="translate(100.597983, 142.445504) rotate(-21.740000) translate(-100.597983, -142.445504) " cx="100.597983" cy="142.445504" r="1"></circle>
                    <circle id="Oval" fill="#000000" transform="translate(100.596472, 145.738080) rotate(-21.740000) translate(-100.596472, -145.738080) " cx="100.596472" cy="145.73808" r="1"></circle>
                    <circle id="Oval" fill="#000000" transform="translate(100.595616, 155.625027) rotate(-21.740000) translate(-100.595616, -155.625027) " cx="100.595616" cy="155.625027" r="1"></circle>
                    <circle id="Oval" fill="#000000" transform="translate(100.596842, 165.505593) rotate(-21.740000) translate(-100.596842, -165.505593) " cx="100.596842" cy="165.505593" r="1"></circle>
                    <circle id="Oval" fill="#000000" transform="translate(100.595986, 175.392540) rotate(-21.740000) translate(-100.595986, -175.392540) " cx="100.595986" cy="175.39254" r="1"></circle>
                    <circle id="Oval" fill="#000000" transform="translate(103.887535, 139.151366) rotate(-21.740000) translate(-103.887535, -139.151366) " cx="103.887535" cy="139.151366" r="1"></circle>
                    <circle id="Oval" fill="#000000" transform="translate(103.887250, 142.447015) rotate(-21.740000) translate(-103.887250, -142.447015) " cx="103.88725" cy="142.447015" r="1"></circle>
                    <circle id="Oval" fill="#000000" transform="translate(103.889048, 145.739591) rotate(-21.740000) translate(-103.889048, -145.739591) " cx="103.889048" cy="145.739591" r="1"></circle>
                    <circle id="Oval" fill="#000000" transform="translate(103.888762, 149.035240) rotate(-21.740000) translate(-103.888762, -149.035240) " cx="103.888762" cy="149.03524" r="1"></circle>
                    <circle id="Oval" fill="#000000" transform="translate(103.888477, 152.330889) rotate(-21.740000) translate(-103.888477, -152.330889) " cx="103.888477" cy="152.330889" r="1"></circle>
                    <circle id="Oval" fill="#000000" transform="translate(103.888192, 155.623230) rotate(-21.740000) translate(-103.888192, -155.623230) " cx="103.888192" cy="155.62323" r="1"></circle>
                    <circle id="Oval" fill="#000000" transform="translate(103.886395, 162.211455) rotate(-21.740000) translate(-103.886395, -162.211455) " cx="103.886395" cy="162.211455" r="1"></circle>
                    <circle id="Oval" fill="#000000" transform="translate(103.886110, 165.507104) rotate(-21.740000) translate(-103.886110, -165.507104) " cx="103.88611" cy="165.507104" r="1"></circle>
                    <circle id="Oval" fill="#000000" transform="translate(103.889133, 168.802753) rotate(-21.740000) translate(-103.889133, -168.802753) " cx="103.889133" cy="168.802753" r="1"></circle>
                    <circle id="Oval" fill="#000000" transform="translate(103.888848, 172.098402) rotate(-21.740000) translate(-103.888848, -172.098402) " cx="103.888848" cy="172.098402" r="1"></circle>
                    <circle id="Oval" fill="#000000" transform="translate(103.888562, 175.394051) rotate(-21.740000) translate(-103.888562, -175.394051) " cx="103.888562" cy="175.394051" r="1"></circle>
                    <circle id="Oval" fill="#000000" transform="translate(103.888277, 178.686392) rotate(-21.740000) translate(-103.888277, -178.686392) " cx="103.888277" cy="178.686392" r="1"></circle>
                    <circle id="Oval" fill="#000000" transform="translate(107.183185, 139.151652) rotate(-21.740000) translate(-107.183185, -139.151652) " cx="107.183185" cy="139.151652" r="1"></circle>
                    <circle id="Oval" fill="#000000" transform="translate(107.182899, 142.447301) rotate(-21.740000) translate(-107.182899, -142.447301) " cx="107.182899" cy="142.447301" r="1"></circle>
                    <circle id="Oval" fill="#000000" transform="translate(107.181388, 145.739877) rotate(-21.740000) translate(-107.181388, -145.739877) " cx="107.181388" cy="145.739877" r="1"></circle>
                    <circle id="Oval" fill="#000000" transform="translate(107.184411, 149.035526) rotate(-21.740000) translate(-107.184411, -149.035526) " cx="107.184411" cy="149.035526" r="1"></circle>
                    <circle id="Oval" fill="#000000" transform="translate(107.184126, 152.327866) rotate(-21.740000) translate(-107.184126, -152.327866) " cx="107.184126" cy="152.327866" r="1"></circle>
                    <circle id="Oval" fill="#000000" transform="translate(107.183841, 155.623515) rotate(-21.740000) translate(-107.183841, -155.623515) " cx="107.183841" cy="155.623515" r="1"></circle>
                    <circle id="Oval" fill="#000000" transform="translate(107.183555, 158.919164) rotate(-21.740000) translate(-107.183555, -158.919164) " cx="107.183555" cy="158.919164" r="1"></circle>
                    <circle id="Oval" fill="#000000" transform="translate(107.182044, 162.211740) rotate(-21.740000) translate(-107.182044, -162.211740) " cx="107.182044" cy="162.21174" r="1"></circle>
                    <circle id="Oval" fill="#000000" transform="translate(107.181759, 165.507389) rotate(-21.740000) translate(-107.181759, -165.507389) " cx="107.181759" cy="165.507389" r="1"></circle>
                    <circle id="Oval" fill="#000000" transform="translate(107.181474, 168.803038) rotate(-21.740000) translate(-107.181474, -168.803038) " cx="107.181474" cy="168.803038" r="1"></circle>
                    <circle id="Oval" fill="#000000" transform="translate(107.181188, 172.098687) rotate(-21.740000) translate(-107.181188, -172.098687) " cx="107.181188" cy="172.098687" r="1"></circle>
                    <circle id="Oval" fill="#000000" transform="translate(107.184211, 175.391028) rotate(-21.740000) translate(-107.184211, -175.391028) " cx="107.184211" cy="175.391028" r="1"></circle>
                    <circle id="Oval" fill="#000000" transform="translate(107.183926, 178.686677) rotate(-21.740000) translate(-107.183926, -178.686677) " cx="107.183926" cy="178.686677" r="1"></circle>
                    <circle id="Oval" fill="#000000" transform="translate(110.478834, 139.151937) rotate(-21.740000) translate(-110.478834, -139.151937) " cx="110.478834" cy="139.151937" r="1"></circle>
                    <circle id="Oval" fill="#000000" transform="translate(110.478548, 142.447586) rotate(-21.740000) translate(-110.478548, -142.447586) " cx="110.478548" cy="142.447586" r="1"></circle>
                    <circle id="Oval" fill="#000000" transform="translate(110.477037, 145.740162) rotate(-21.740000) translate(-110.477037, -145.740162) " cx="110.477037" cy="145.740162" r="1"></circle>
                    <circle id="Oval" fill="#000000" transform="translate(110.476752, 149.035811) rotate(-21.740000) translate(-110.476752, -149.035811) " cx="110.476752" cy="149.035811" r="1"></circle>
                    <circle id="Oval" fill="#000000" transform="translate(110.479775, 152.328152) rotate(-21.740000) translate(-110.479775, -152.328152) " cx="110.479775" cy="152.328152" r="1"></circle>
                    <circle id="Oval" fill="#000000" transform="translate(110.479490, 155.623801) rotate(-21.740000) translate(-110.479490, -155.623801) " cx="110.47949" cy="155.623801" r="1"></circle>
                    <circle id="Oval" fill="#000000" transform="translate(110.479204, 158.919450) rotate(-21.740000) translate(-110.479204, -158.919450) " cx="110.479204" cy="158.91945" r="1"></circle>
                    <circle id="Oval" fill="#000000" transform="translate(110.477693, 162.212026) rotate(-21.740000) translate(-110.477693, -162.212026) " cx="110.477693" cy="162.212026" r="1"></circle>
                    <circle id="Oval" fill="#000000" transform="translate(110.477408, 165.507675) rotate(-21.740000) translate(-110.477408, -165.507675) " cx="110.477408" cy="165.507675" r="1"></circle>
                    <circle id="Oval" fill="#000000" transform="translate(110.477123, 168.803324) rotate(-21.740000) translate(-110.477123, -168.803324) " cx="110.477123" cy="168.803324" r="1"></circle>
                    <circle id="Oval" fill="#000000" transform="translate(110.476837, 172.095664) rotate(-21.740000) translate(-110.476837, -172.095664) " cx="110.476837" cy="172.095664" r="1"></circle>
                    <circle id="Oval" fill="#000000" transform="translate(110.476552, 175.391313) rotate(-21.740000) translate(-110.476552, -175.391313) " cx="110.476552" cy="175.391313" r="1"></circle>
                    <circle id="Oval" fill="#000000" transform="translate(110.479575, 178.686962) rotate(-21.740000) translate(-110.479575, -178.686962) " cx="110.479575" cy="178.686962" r="1"></circle>
                    <circle id="Oval" fill="#000000" transform="translate(113.774483, 139.152222) rotate(-21.740000) translate(-113.774483, -139.152222) " cx="113.774483" cy="139.152222" r="1"></circle>
                    <circle id="Oval" fill="#000000" transform="translate(113.774197, 142.447871) rotate(-21.740000) translate(-113.774197, -142.447871) " cx="113.774197" cy="142.447871" r="1"></circle>
                    <circle id="Oval" fill="#000000" transform="translate(113.772686, 145.740447) rotate(-21.740000) translate(-113.772686, -145.740447) " cx="113.772686" cy="145.740447" r="1"></circle>
                    <circle id="Oval" fill="#000000" transform="translate(113.772401, 149.032788) rotate(-21.740000) translate(-113.772401, -149.032788) " cx="113.772401" cy="149.032788" r="1"></circle>
                    <circle id="Oval" fill="#000000" transform="translate(113.772116, 152.328437) rotate(-21.740000) translate(-113.772116, -152.328437) " cx="113.772116" cy="152.328437" r="1"></circle>
                    <circle id="Oval" fill="#000000" transform="translate(113.775139, 155.624086) rotate(-21.740000) translate(-113.775139, -155.624086) " cx="113.775139" cy="155.624086" r="1"></circle>
                    <circle id="Oval" fill="#000000" transform="translate(113.774853, 158.919735) rotate(-21.740000) translate(-113.774853, -158.919735) " cx="113.774853" cy="158.919735" r="1"></circle>
                    <circle id="Oval" fill="#000000" transform="translate(113.773342, 162.212311) rotate(-21.740000) translate(-113.773342, -162.212311) " cx="113.773342" cy="162.212311" r="1"></circle>
                    <circle id="Oval" fill="#000000" transform="translate(113.773057, 165.507960) rotate(-21.740000) translate(-113.773057, -165.507960) " cx="113.773057" cy="165.50796" r="1"></circle>
                    <circle id="Oval" fill="#000000" transform="translate(113.772772, 168.800301) rotate(-21.740000) translate(-113.772772, -168.800301) " cx="113.772772" cy="168.800301" r="1"></circle>
                    <circle id="Oval" fill="#000000" transform="translate(113.772486, 172.095950) rotate(-21.740000) translate(-113.772486, -172.095950) " cx="113.772486" cy="172.09595" r="1"></circle>
                    <circle id="Oval" fill="#000000" transform="translate(113.772201, 175.391599) rotate(-21.740000) translate(-113.772201, -175.391599) " cx="113.772201" cy="175.391599" r="1"></circle>
                    <circle id="Oval" fill="#000000" transform="translate(113.771916, 178.687248) rotate(-21.740000) translate(-113.771916, -178.687248) " cx="113.771916" cy="178.687248" r="1"></circle>
                    <circle id="Oval" fill="#000000" transform="translate(117.070132, 139.152508) rotate(-21.740000) translate(-117.070132, -139.152508) " cx="117.070132" cy="139.152508" r="1"></circle>
                    <circle id="Oval" fill="#000000" transform="translate(117.069846, 142.448157) rotate(-21.740000) translate(-117.069846, -142.448157) " cx="117.069846" cy="142.448157" r="1"></circle>
                    <circle id="Oval" fill="#000000" transform="translate(117.068335, 145.737424) rotate(-21.740000) translate(-117.068335, -145.737424) " cx="117.068335" cy="145.737424" r="1"></circle>
                    <circle id="Oval" fill="#000000" transform="translate(117.068050, 149.033073) rotate(-21.740000) translate(-117.068050, -149.033073) " cx="117.06805" cy="149.033073" r="1"></circle>
                    <circle id="Oval" fill="#000000" transform="translate(117.067765, 152.328722) rotate(-21.740000) translate(-117.067765, -152.328722) " cx="117.067765" cy="152.328722" r="1"></circle>
                    <circle id="Oval" fill="#000000" transform="translate(117.067479, 155.624371) rotate(-21.740000) translate(-117.067479, -155.624371) " cx="117.067479" cy="155.624371" r="1"></circle>
                    <circle id="Oval" fill="#000000" transform="translate(117.067194, 158.920020) rotate(-21.740000) translate(-117.067194, -158.920020) " cx="117.067194" cy="158.92002" r="1"></circle>
                    <circle id="Oval" fill="#000000" transform="translate(117.068992, 162.212596) rotate(-21.740000) translate(-117.068992, -162.212596) " cx="117.068992" cy="162.212596" r="1"></circle>
                    <circle id="Oval" fill="#000000" transform="translate(117.068706, 165.504937) rotate(-21.740000) translate(-117.068706, -165.504937) " cx="117.068706" cy="165.504937" r="1"></circle>
                    <circle id="Oval" fill="#000000" transform="translate(117.068421, 168.800586) rotate(-21.740000) translate(-117.068421, -168.800586) " cx="117.068421" cy="168.800586" r="1"></circle>
                    <circle id="Oval" fill="#000000" transform="translate(117.068135, 172.096235) rotate(-21.740000) translate(-117.068135, -172.096235) " cx="117.068135" cy="172.096235" r="1"></circle>
                    <circle id="Oval" fill="#000000" transform="translate(117.067850, 175.391884) rotate(-21.740000) translate(-117.067850, -175.391884) " cx="117.06785" cy="175.391884" r="1"></circle>
                    <circle id="Oval" fill="#000000" transform="translate(117.067565, 178.687533) rotate(-21.740000) translate(-117.067565, -178.687533) " cx="117.067565" cy="178.687533" r="1"></circle>
                    <circle id="Oval" fill="#000000" transform="translate(120.362707, 139.154018) rotate(-21.740000) translate(-120.362707, -139.154018) " cx="120.362707" cy="139.154018" r="1"></circle>
                    <circle id="Oval" fill="#000000" transform="translate(120.362422, 142.446359) rotate(-21.740000) translate(-120.362422, -142.446359) " cx="120.362422" cy="142.446359" r="1"></circle>
                    <circle id="Oval" fill="#000000" transform="translate(120.360911, 145.738935) rotate(-21.740000) translate(-120.360911, -145.738935) " cx="120.360911" cy="145.738935" r="1"></circle>
                    <circle id="Oval" fill="#000000" transform="translate(120.360626, 149.034584) rotate(-21.740000) translate(-120.360626, -149.034584) " cx="120.360626" cy="149.034584" r="1"></circle>
                    <circle id="Oval" fill="#000000" transform="translate(120.360341, 152.330233) rotate(-21.740000) translate(-120.360341, -152.330233) " cx="120.360341" cy="152.330233" r="1"></circle>
                    <circle id="Oval" fill="#000000" transform="translate(120.360055, 155.625882) rotate(-21.740000) translate(-120.360055, -155.625882) " cx="120.360055" cy="155.625882" r="1"></circle>
                    <circle id="Oval" fill="#000000" transform="translate(120.359770, 158.921531) rotate(-21.740000) translate(-120.359770, -158.921531) " cx="120.35977" cy="158.921531" r="1"></circle>
                    <circle id="Oval" fill="#000000" transform="translate(120.358259, 162.210799) rotate(-21.740000) translate(-120.358259, -162.210799) " cx="120.358259" cy="162.210799" r="1"></circle>
                    <circle id="Oval" fill="#000000" transform="translate(120.361282, 165.506448) rotate(-21.740000) translate(-120.361282, -165.506448) " cx="120.361282" cy="165.506448" r="1"></circle>
                    <circle id="Oval" fill="#000000" transform="translate(120.360997, 168.802097) rotate(-21.740000) translate(-120.360997, -168.802097) " cx="120.360997" cy="168.802097" r="1"></circle>
                    <circle id="Oval" fill="#000000" transform="translate(120.360711, 172.097746) rotate(-21.740000) translate(-120.360711, -172.097746) " cx="120.360711" cy="172.097746" r="1"></circle>
                    <circle id="Oval" fill="#000000" transform="translate(120.360426, 175.393395) rotate(-21.740000) translate(-120.360426, -175.393395) " cx="120.360426" cy="175.393395" r="1"></circle>
                    <circle id="Oval" fill="#000000" transform="translate(120.360141, 178.689044) rotate(-21.740000) translate(-120.360141, -178.689044) " cx="120.360141" cy="178.689044" r="1"></circle>
                    <circle id="Oval" fill="#000000" transform="translate(123.655048, 139.150995) rotate(-21.740000) translate(-123.655048, -139.150995) " cx="123.655048" cy="139.150995" r="1"></circle>
                    <circle id="Oval" fill="#000000" transform="translate(123.658071, 142.446644) rotate(-21.740000) translate(-123.658071, -142.446644) " cx="123.658071" cy="142.446644" r="1"></circle>
                    <circle id="Oval" fill="#000000" transform="translate(123.656560, 145.739220) rotate(-21.740000) translate(-123.656560, -145.739220) " cx="123.65656" cy="145.73922" r="1"></circle>
                    <circle id="Oval" fill="#000000" transform="translate(123.656275, 149.034869) rotate(-21.740000) translate(-123.656275, -149.034869) " cx="123.656275" cy="149.034869" r="1"></circle>
                    <circle id="Oval" fill="#000000" transform="translate(123.655990, 152.330518) rotate(-21.740000) translate(-123.655990, -152.330518) " cx="123.65599" cy="152.330518" r="1"></circle>
                    <circle id="Oval" fill="#000000" transform="translate(123.655704, 155.626167) rotate(-21.740000) translate(-123.655704, -155.626167) " cx="123.655704" cy="155.626167" r="1"></circle>
                    <circle id="Oval" fill="#000000" transform="translate(123.655419, 158.921816) rotate(-21.740000) translate(-123.655419, -158.921816) " cx="123.655419" cy="158.921816" r="1"></circle>
                    <circle id="Oval" fill="#000000" transform="translate(123.653908, 162.211084) rotate(-21.740000) translate(-123.653908, -162.211084) " cx="123.653908" cy="162.211084" r="1"></circle>
                    <circle id="Oval" fill="#000000" transform="translate(123.653623, 165.506733) rotate(-21.740000) translate(-123.653623, -165.506733) " cx="123.653623" cy="165.506733" r="1"></circle>
                    <circle id="Oval" fill="#000000" transform="translate(123.656646, 168.802382) rotate(-21.740000) translate(-123.656646, -168.802382) " cx="123.656646" cy="168.802382" r="1"></circle>
                    <circle id="Oval" fill="#000000" transform="translate(123.656360, 172.098031) rotate(-21.740000) translate(-123.656360, -172.098031) " cx="123.65636" cy="172.098031" r="1"></circle>
                    <circle id="Oval" fill="#000000" transform="translate(123.656075, 175.393680) rotate(-21.740000) translate(-123.656075, -175.393680) " cx="123.656075" cy="175.39368" r="1"></circle>
                    <circle id="Oval" fill="#000000" transform="translate(123.655790, 178.689329) rotate(-21.740000) translate(-123.655790, -178.689329) " cx="123.65579" cy="178.689329" r="1"></circle>
                    <circle id="Oval" fill="#000000" transform="translate(126.950697, 139.151281) rotate(-21.740000) translate(-126.950697, -139.151281) " cx="126.950697" cy="139.151281" r="1"></circle>
                    <circle id="Oval" fill="#000000" transform="translate(126.950412, 142.446930) rotate(-21.740000) translate(-126.950412, -142.446930) " cx="126.950412" cy="142.44693" r="1"></circle>
                    <circle id="Oval" fill="#000000" transform="translate(126.948901, 145.739506) rotate(-21.740000) translate(-126.948901, -145.739506) " cx="126.948901" cy="145.739506" r="1"></circle>
                    <circle id="Oval" fill="#000000" transform="translate(126.951924, 149.035155) rotate(-21.740000) translate(-126.951924, -149.035155) " cx="126.951924" cy="149.035155" r="1"></circle>
                    <circle id="Oval" fill="#000000" transform="translate(126.951639, 152.330804) rotate(-21.740000) translate(-126.951639, -152.330804) " cx="126.951639" cy="152.330804" r="1"></circle>
                    <circle id="Oval" fill="#000000" transform="translate(126.951353, 155.626453) rotate(-21.740000) translate(-126.951353, -155.626453) " cx="126.951353" cy="155.626453" r="1"></circle>
                    <circle id="Oval" fill="#000000" transform="translate(126.951068, 158.918793) rotate(-21.740000) translate(-126.951068, -158.918793) " cx="126.951068" cy="158.918793" r="1"></circle>
                    <circle id="Oval" fill="#000000" transform="translate(126.949557, 162.211369) rotate(-21.740000) translate(-126.949557, -162.211369) " cx="126.949557" cy="162.211369" r="1"></circle>
                    <circle id="Oval" fill="#000000" transform="translate(126.949272, 165.507018) rotate(-21.740000) translate(-126.949272, -165.507018) " cx="126.949272" cy="165.507018" r="1"></circle>
                    <circle id="Oval" fill="#000000" transform="translate(126.948986, 168.802667) rotate(-21.740000) translate(-126.948986, -168.802667) " cx="126.948986" cy="168.802667" r="1"></circle>
                    <circle id="Oval" fill="#000000" transform="translate(126.952009, 172.098316) rotate(-21.740000) translate(-126.952009, -172.098316) " cx="126.952009" cy="172.098316" r="1"></circle>
                    <circle id="Oval" fill="#000000" transform="translate(126.951724, 175.393965) rotate(-21.740000) translate(-126.951724, -175.393965) " cx="126.951724" cy="175.393965" r="1"></circle>
                    <circle id="Oval" fill="#000000" transform="translate(126.951439, 178.686306) rotate(-21.740000) translate(-126.951439, -178.686306) " cx="126.951439" cy="178.686306" r="1"></circle>
                    <circle id="Oval" fill="#000000" transform="translate(130.246346, 139.151566) rotate(-21.740000) translate(-130.246346, -139.151566) " cx="130.246346" cy="139.151566" r="1"></circle>
                    <circle id="Oval" fill="#000000" transform="translate(130.246061, 142.447215) rotate(-21.740000) translate(-130.246061, -142.447215) " cx="130.246061" cy="142.447215" r="1"></circle>
                    <circle id="Oval" fill="#000000" transform="translate(130.244550, 145.739791) rotate(-21.740000) translate(-130.244550, -145.739791) " cx="130.24455" cy="145.739791" r="1"></circle>
                    <circle id="Oval" fill="#000000" transform="translate(130.244265, 149.035440) rotate(-21.740000) translate(-130.244265, -149.035440) " cx="130.244265" cy="149.03544" r="1"></circle>
                    <circle id="Oval" fill="#000000" transform="translate(130.247288, 152.331089) rotate(-21.740000) translate(-130.247288, -152.331089) " cx="130.247288" cy="152.331089" r="1"></circle>
                    <circle id="Oval" fill="#000000" transform="translate(130.247002, 155.623430) rotate(-21.740000) translate(-130.247002, -155.623430) " cx="130.247002" cy="155.62343" r="1"></circle>
                    <circle id="Oval" fill="#000000" transform="translate(130.246717, 158.919079) rotate(-21.740000) translate(-130.246717, -158.919079) " cx="130.246717" cy="158.919079" r="1"></circle>
                    <circle id="Oval" fill="#000000" transform="translate(130.245206, 162.211655) rotate(-21.740000) translate(-130.245206, -162.211655) " cx="130.245206" cy="162.211655" r="1"></circle>
                    <circle id="Oval" fill="#000000" transform="translate(130.244921, 165.507304) rotate(-21.740000) translate(-130.244921, -165.507304) " cx="130.244921" cy="165.507304" r="1"></circle>
                    <circle id="Oval" fill="#000000" transform="translate(130.244635, 168.802953) rotate(-21.740000) translate(-130.244635, -168.802953) " cx="130.244635" cy="168.802953" r="1"></circle>
                    <circle id="Oval" fill="#000000" transform="translate(130.244350, 172.098602) rotate(-21.740000) translate(-130.244350, -172.098602) " cx="130.24435" cy="172.098602" r="1"></circle>
                    <circle id="Oval" fill="#000000" transform="translate(130.244065, 175.390943) rotate(-21.740000) translate(-130.244065, -175.390943) " cx="130.244065" cy="175.390943" r="1"></circle>
                    <circle id="Oval" fill="#000000" transform="translate(130.247088, 178.686592) rotate(-21.740000) translate(-130.247088, -178.686592) " cx="130.247088" cy="178.686592" r="1"></circle>
                    <circle id="Oval" fill="#000000" transform="translate(133.541995, 139.151852) rotate(-21.740000) translate(-133.541995, -139.151852) " cx="133.541995" cy="139.151852" r="1"></circle>
                    <circle id="Oval" fill="#000000" transform="translate(133.541710, 142.447501) rotate(-21.740000) translate(-133.541710, -142.447501) " cx="133.54171" cy="142.447501" r="1"></circle>
                    <circle id="Oval" fill="#000000" transform="translate(133.540199, 145.740077) rotate(-21.740000) translate(-133.540199, -145.740077) " cx="133.540199" cy="145.740077" r="1"></circle>
                    <circle id="Oval" fill="#000000" transform="translate(133.539914, 149.035726) rotate(-21.740000) translate(-133.539914, -149.035726) " cx="133.539914" cy="149.035726" r="1"></circle>
                    <circle id="Oval" fill="#000000" transform="translate(133.539628, 152.328066) rotate(-21.740000) translate(-133.539628, -152.328066) " cx="133.539628" cy="152.328066" r="1"></circle>
                    <circle id="Oval" fill="#000000" transform="translate(133.542651, 155.623715) rotate(-21.740000) translate(-133.542651, -155.623715) " cx="133.542651" cy="155.623715" r="1"></circle>
                    <circle id="Oval" fill="#000000" transform="translate(133.542366, 158.919364) rotate(-21.740000) translate(-133.542366, -158.919364) " cx="133.542366" cy="158.919364" r="1"></circle>
                    <circle id="Oval" fill="#000000" transform="translate(133.540855, 162.211940) rotate(-21.740000) translate(-133.540855, -162.211940) " cx="133.540855" cy="162.21194" r="1"></circle>
                    <circle id="Oval" fill="#000000" transform="translate(133.540570, 165.507589) rotate(-21.740000) translate(-133.540570, -165.507589) " cx="133.54057" cy="165.507589" r="1"></circle>
                    <circle id="Oval" fill="#000000" transform="translate(133.540284, 168.803238) rotate(-21.740000) translate(-133.540284, -168.803238) " cx="133.540284" cy="168.803238" r="1"></circle>
                    <circle id="Oval" fill="#000000" transform="translate(133.539999, 172.095579) rotate(-21.740000) translate(-133.539999, -172.095579) " cx="133.539999" cy="172.095579" r="1"></circle>
                    <circle id="Oval" fill="#000000" transform="translate(133.539714, 175.391228) rotate(-21.740000) translate(-133.539714, -175.391228) " cx="133.539714" cy="175.391228" r="1"></circle>
                    <circle id="Oval" fill="#000000" transform="translate(133.539428, 178.686877) rotate(-21.740000) translate(-133.539428, -178.686877) " cx="133.539428" cy="178.686877" r="1"></circle>
                    <circle id="Oval" fill="#000000" transform="translate(136.834571, 139.153362) rotate(-21.740000) translate(-136.834571, -139.153362) " cx="136.834571" cy="139.153362" r="1"></circle>
                    <circle id="Oval" fill="#000000" transform="translate(136.834286, 142.449011) rotate(-21.740000) translate(-136.834286, -142.449011) " cx="136.834286" cy="142.449011" r="1"></circle>
                    <circle id="Oval" fill="#000000" transform="translate(136.832775, 145.741587) rotate(-21.740000) translate(-136.832775, -145.741587) " cx="136.832775" cy="145.741587" r="1"></circle>
                    <circle id="Oval" fill="#000000" transform="translate(136.832490, 149.033928) rotate(-21.740000) translate(-136.832490, -149.033928) " cx="136.83249" cy="149.033928" r="1"></circle>
                    <circle id="Oval" fill="#000000" transform="translate(136.832204, 152.329577) rotate(-21.740000) translate(-136.832204, -152.329577) " cx="136.832204" cy="152.329577" r="1"></circle>
                    <circle id="Oval" fill="#000000" transform="translate(136.831919, 155.625226) rotate(-21.740000) translate(-136.831919, -155.625226) " cx="136.831919" cy="155.625226" r="1"></circle>
                    <circle id="Oval" fill="#000000" transform="translate(136.834942, 158.920875) rotate(-21.740000) translate(-136.834942, -158.920875) " cx="136.834942" cy="158.920875" r="1"></circle>
                    <circle id="Oval" fill="#000000" transform="translate(136.833431, 162.213451) rotate(-21.740000) translate(-136.833431, -162.213451) " cx="136.833431" cy="162.213451" r="1"></circle>
                    <circle id="Oval" fill="#000000" transform="translate(136.833146, 165.509100) rotate(-21.740000) translate(-136.833146, -165.509100) " cx="136.833146" cy="165.5091" r="1"></circle>
                    <circle id="Oval" fill="#000000" transform="translate(136.832860, 168.804749) rotate(-21.740000) translate(-136.832860, -168.804749) " cx="136.83286" cy="168.804749" r="1"></circle>
                    <circle id="Oval" fill="#000000" transform="translate(136.832575, 172.097090) rotate(-21.740000) translate(-136.832575, -172.097090) " cx="136.832575" cy="172.09709" r="1"></circle>
                    <circle id="Oval" fill="#000000" transform="translate(136.832290, 175.392739) rotate(-21.740000) translate(-136.832290, -175.392739) " cx="136.83229" cy="175.392739" r="1"></circle>
                    <circle id="Oval" fill="#000000" transform="translate(136.832004, 178.688388) rotate(-21.740000) translate(-136.832004, -178.688388) " cx="136.832004" cy="178.688388" r="1"></circle>
                    <rect id="Rectangle" fill="#8E6995" x="141" y="133" width="35" height="50"></rect>
                    <path d="M175.752455,183 L141.247545,183 C141.110854,183 141.000022,182.889602 141.000022,182.753419 L141.000022,133.246625 C140.999147,133.180957 141.024935,133.117718 141.071546,133.07128 C141.118158,133.024842 141.181633,132.99915 141.247545,133.000021 L175.752455,133.000021 C175.818367,132.99915 175.881842,133.024842 175.928454,133.07128 C175.975065,133.117718 176.000853,133.180957 175.999978,133.246625 L175.999978,182.753419 C175.999978,182.889602 175.889146,183 175.752455,183 L175.752455,183 Z M141.485146,182.506839 L175.504954,182.506839 L175.504954,133.493205 L141.485146,133.493205 L141.485146,182.506839 Z" id="Shape" fill="#000000"></path>
                    <path d="M156,139 L158.811695,139 C163.359436,139.095105 167,143.096553 167,148 C167,152.903447 163.359436,156.904895 158.811695,157 L156.18221,157" id="Path" fill="#000000"></path>
                    <path d="M159.003587,157 L156.194646,157 L156.194646,156.505947 L159.003587,156.505947 C163.723654,156.414785 167.501488,152.633374 167.501488,148 C167.501488,143.366626 163.723654,139.585215 159.003587,139.494053 L156,139.494053 L156,139 L159.003587,139 C163.999764,139.093809 168,143.09564 168,148 C168,152.90436 163.999764,156.906191 159.003587,157 L159.003587,157 Z" id="Path" fill="#000000"></path>
                    <circle id="Oval" fill="#F9F9F9" transform="translate(156.186057, 148.247458) rotate(-11.630000) translate(-156.186057, -148.247458) " cx="156.186057" cy="148.247458" r="8.79030548"></circle>
                    <path d="M157.003423,157 C153.362718,157.00133 150.07982,154.809071 148.685967,151.445752 C147.292114,148.082433 148.061895,144.210631 150.636263,141.636263 C153.210631,139.061895 157.082433,138.292114 160.445752,139.685967 C163.809071,141.07982 166.00133,144.362718 166,148.003423 C165.994554,152.969837 161.969837,156.994554 157.003423,157 L157.003423,157 Z M157.003423,139.497508 C153.562505,139.494847 150.45892,141.565556 149.140291,144.743785 C147.821662,147.922015 148.547765,151.58164 150.97992,154.015679 C153.412075,156.449719 157.071136,157.178657 160.250386,155.86249 C163.429636,154.546323 165.50275,151.444343 165.50275,148.003423 C165.499124,143.309811 161.697032,139.504772 157.003423,139.497508 L157.003423,139.497508 Z" id="Shape" fill="#000000"></path>
                    <rect id="Rectangle" fill="#000000" x="156" y="148" width="9" height="1"></rect>
                    <path d="M156,161 L159.023649,161 C162.23059,161 165.193926,162.71539 166.797397,165.5 C168.400868,168.28461 168.400868,171.71539 166.797397,174.5 C165.193926,177.28461 162.23059,179 159.023649,179 L156.195946,179" id="Path" fill="#000000"></path>
                    <path d="M158.961125,179 L156.191894,179 L156.191894,178.505857 L158.961125,178.505857 C163.679071,178.505857 167.503722,174.697655 167.503722,170 C167.503722,165.302345 163.679071,161.494143 158.961125,161.494143 L156,161.494143 L156,161 L158.961125,161 C163.953158,161 168,165.029437 168,170 C168,174.970563 163.953158,179 158.961125,179 L158.961125,179 Z" id="Path" fill="#000000"></path>
                    <circle id="Oval" fill="#F9F9F9" transform="translate(156.210896, 170.150281) rotate(-79.340000) translate(-156.210896, -170.150281) " cx="156.210896" cy="170.150281" r="8.79030548"></circle>
                    <path d="M156.999155,178.999963 C152.705768,178.999347 149.010665,175.966043 148.173593,171.755037 C147.336521,167.544032 149.590613,163.328129 153.557375,161.685574 C157.524136,160.043019 162.098787,161.431277 164.483689,165.001358 C166.868592,168.571438 166.399528,173.329039 163.363355,176.36464 C161.679099,178.057863 159.387389,179.006813 156.999155,178.999963 L156.999155,178.999963 Z M156.999155,161.498334 C152.946868,161.502642 149.461732,164.368405 148.674541,168.343509 C147.887349,172.318613 150.017268,176.296332 153.762076,177.844709 C157.506885,179.393087 161.823972,178.081031 164.073895,174.710727 C166.323818,171.340423 165.880164,166.850211 163.014181,163.985385 C161.417646,162.39371 159.253553,161.502471 156.999155,161.508216 L156.999155,161.498334 Z" id="Shape" fill="#000000"></path>
                    <polygon id="Rectangle" fill="#000000" transform="translate(153.089695, 167.010955) rotate(-45.000000) translate(-153.089695, -167.010955) " points="152.841568 162.615802 153.337821 162.615802 153.337821 171.406108 152.841568 171.406108"></polygon>
                    <rect id="Rectangle" fill="#8E6995" x="176" y="133" width="24" height="50"></rect>
                    <path d="M199.756888,183 L176.243112,183 C176.109575,182.998229 176.001746,182.888862 176,182.753419 L176,133.246581 C176,133.110398 176.108845,133 176.243112,133 L199.756888,133 C199.891155,133 200,133.110398 200,133.246581 L200,182.753419 C199.998254,182.888862 199.890425,182.998229 199.756888,183 L199.756888,183 Z M176.486224,182.506839 L199.50081,182.506839 L199.50081,133.493161 L176.486224,133.493161 L176.486224,182.506839 Z" id="Shape" fill="#000000"></path>
                    <line x1="198" y1="184" x2="185" y2="184" id="Path" fill="#000000"></line>
                    <line x1="238" y1="184" x2="185" y2="184" id="Path" fill="#000000"></line>
                    <polygon id="Path" fill="#000000" points="30.5227952 287 59.2165908 194.497646 68.7867391 194.497646 97.4772048 287 98 287 69.2096371 194.175835 69.1530287 194 58.8469713 194 30 287"></polygon>
                    <rect id="Rectangle" fill="#000000" x="38" y="262" width="52" height="1"></rect>
                    <polygon id="Path" fill="#8E6995" points="268.617245 225.096961 218.126161 188 217.977376 188.197921 217.977376 188.197921 116.542239 192.212415 116.290958 192.027689 116.145479 192.22561 116.145479 192.22561 116.145479 192.22561 116 192.426829 244.523962 286.854858 244.722342 287 294 220.241303"></polygon>
                    <polygon id="Path" fill="#000000" points="147 215.673324 176 237 176 190 147.095994 191.130459 147 191.133765"></polygon>
                    <polygon id="Path" fill="#8E6995" points="189 287 170.248234 271.042166 170.248234 194 106 194 106 287"></polygon>
                    <polygon id="Path" fill="#000000" points="177.522795 287 206.216591 194.497646 215.786739 194.497646 244.477205 287 245 287 216.209637 194.175835 216.153029 194 205.846971 194 177 287"></polygon>
                    <rect id="Rectangle" fill="#000000" x="185" y="262" width="52" height="1"></rect>
                    <rect id="Rectangle" fill="#F9F9F9" x="28" y="184" width="220" height="11"></rect>
                    <path d="M85.1414157,120 C81.4993692,123.815993 76.4875577,125.967631 71.2537539,125.962158 C66.7457694,125.962158 65.6212759,124.505495 62.3312147,121.89705 L45,129.929026 C58.5639946,138.716434 87,132.259688 87,120.264232 L85.1414157,120 Z" id="Path" fill="#000000"></path>
                    <path d="M34.2393632,136 C34.1292194,135.999086 34.0336667,135.92319 34.0071304,135.815542 C33.9805941,135.707894 34.0298087,135.595813 34.1267423,135.543139 C41.8203591,131.437866 50.7528057,127.225669 60.6795341,123.013472 C60.7997963,122.971465 60.9317812,123.03074 60.9811017,123.148906 C61.0304221,123.267072 60.9801177,123.403494 60.8661631,123.460613 C50.9523056,127.67281 42.0327299,131.885007 34.3519841,135.961118 C34.3183827,135.983603 34.2795966,135.996993 34.2393632,136 Z" id="Path" fill="#000000"></path>
                    <circle id="Oval" fill="#DBBAB4" transform="translate(75.267424, 112.165637) rotate(-0.160000) translate(-75.267424, -112.165637) " cx="75.2674237" cy="112.165637" r="16.3763689"></circle>
                    <path d="M75.5035245,128 C68.8296963,128.001327 62.8122777,123.982132 60.2573939,117.8167 C57.7025101,111.651268 59.1133488,104.55389 63.8319885,99.8343111 C68.5506282,95.1147324 75.6477262,93.7024812 81.8136668,96.2561378 C87.9796073,98.8097943 92,104.826413 92,111.500241 C91.9909533,120.607774 84.6110562,127.98914 75.5035245,128 L75.5035245,128 Z M75.5035245,95.4930121 C69.0286073,95.4916844 63.1905755,99.3912335 60.7121184,105.373023 C58.2336614,111.354812 59.6029633,118.240602 64.1814212,122.81906 C68.7598791,127.397518 75.6456698,128.76682 81.6274592,126.288363 C87.6092486,123.809906 91.5087979,117.971874 91.5074702,111.496957 C91.4948063,102.664005 84.3364793,95.5071471 75.5035245,95.496296 L75.5035245,95.4930121 Z" id="Shape" fill="#000000"></path>
                    <path d="M74.6207657,96 C70.7268004,95.9952801 66.9595709,97.3576721 64,99.8409399 C70.3430116,104.12569 78.7434964,104.045165 85,99.6396404 C82.0752776,97.2816359 78.4060177,95.9949579 74.6207657,96 L74.6207657,96 Z" id="Path" fill="#000000"></path>
                    <path d="M43.7140409,90.4341346 L43.0036136,100.135339 C42.9691889,100.597628 43.1826007,101.043268 43.5634434,101.304357 L51.5582051,106.777338 C51.9414533,107.035424 52.4314193,107.071699 52.8481053,106.872835 L61.5565681,102.641319 C61.9722783,102.439978 62.2494154,102.030631 62.2833646,101.567798 L62.9970657,91.8633004 C63.0279067,91.4000141 62.813966,90.9546164 62.4339621,90.6909893 L54.4261049,85.2245945 C54.04345,84.9654384 53.5534579,84.9279111 53.1362048,85.1258043 L44.4310158,89.3573207 C44.0208588,89.5649946 43.7488086,89.9735826 43.7140409,90.4341346 Z" id="Path" fill="#000000"></path>
                    <circle id="Oval" fill="#F9F9F9" cx="54" cy="96" r="3"></circle>
                    <polyline id="Path" fill="#DBBAB4" points="67 102 90 115 78.3981399 115"></polyline>
                    <path d="M89.7489339,115 L78.4002965,115 C78.2627267,115 78.1512043,114.884857 78.1512043,114.742832 C78.1512043,114.600806 78.2627267,114.485671 78.4002965,114.485671 L88.8256324,114.485671 L67.1247261,101.480218 C67.0054989,101.409206 66.9646074,101.251855 67.0333923,101.128766 C67.1021772,101.005677 67.254591,100.963461 67.3738182,101.034474 L89.8751405,114.519959 C89.9732209,114.578239 90.0209228,114.697451 89.991279,114.810203 C89.9616352,114.922954 89.862096,115.000907 89.7489339,115 Z" id="Path" fill="#000000"></path>
                    <path d="M84.7584541,117 L75.4186795,117 C74.0836153,116.998666 73.0017742,116.185321 73,115.181598 C73,115.081304 73.1081438,115 73.2415459,115 C73.374948,115 73.4830918,115.081304 73.4830918,115.181598 C73.4830918,115.983949 74.348242,116.634383 75.4154589,116.634383 L84.7584541,116.634383 C84.8918562,116.634383 85,116.715687 85,116.815981 C85,116.916274 84.8918562,116.997579 84.7584541,116.997579 L84.7584541,117 Z" id="Path" fill="#000000"></path>
                    <path d="M59,111.90301 C58.9954575,116.490707 60.9186045,120.873377 64.3082553,124 C69.5726026,121.12709 73,116.478261 73,111.230769 C73,106.297659 69.9778122,101.896321 65.2334838,99 C61.287309,102.141979 58.9943902,106.888218 59,111.90301 L59,111.90301 Z" id="Path" fill="#000000"></path>
                    <circle id="Oval" fill="#DBBAB4" transform="translate(60.331689, 125.712012) rotate(-0.160000) translate(-60.331689, -125.712012) " cx="60.3316889" cy="125.712012" r="3.78806916"></circle>
                    <path d="M60.0000559,129 C58.3819332,129 56.9232031,128.02509 56.3042809,126.530012 C55.6853586,125.034934 56.0281773,123.314231 57.1728315,122.170514 C58.3174857,121.026797 60.0384683,120.685388 61.533038,121.305535 C63.0276078,121.925682 64.0013212,123.385211 64,125.003334 C63.9963844,127.210413 62.2071359,128.998197 60.0000559,129 Z M60.0000559,121.494786 C58.062339,121.494786 56.4915091,123.065616 56.4915091,125.003334 C56.4915091,126.941052 58.062339,128.511883 60.0000559,128.511883 C61.9377729,128.511883 63.5086028,126.941052 63.5086028,125.003334 C63.5086028,123.065616 61.9377729,121.494786 60.0000559,121.494786 Z" id="Shape" fill="#000000"></path>
                    <path d="M82.8076522,145.897597 L82.8076522,136 C79.2790641,139.962382 75.1800651,136.983072 70.7030031,138.293835 C66.6902291,139.467503 66.4348707,143.871264 66.4348707,145.372623 L29,145.372623 L30.2137812,184 L83,184 L83,146.135005 C82.8891316,146.110267 82.8095732,146.012071 82.8076522,145.897597 L82.8076522,145.897597 Z" id="Path" fill="#DBBAB4"></path>
                    <path d="M67.8272574,152.451186 L46.7603863,152.451186 L34.2037099,136 C19.0707956,143.985659 5.43792733,151.014892 1.09011191,162.237176 C-2.1550207,170.590182 1.18614134,184 20.1337421,184 L86,184 L67.8272574,152.451186 Z" id="Path" fill="#DBBAB4"></path>
                    <path d="M66.5666544,146 L29,146 L29,145.498495 L66.0675725,145.498495 C66.1105398,144.090939 66.5798751,139.580742 70.6948219,138.370445 C72.4663974,137.84888 74.1255968,138.002675 75.7319133,138.149783 C78.3033419,138.387161 80.5211164,138.591107 82.6165993,136 L83,136.334336 C80.7392582,139.129388 78.2835108,138.905383 75.6856408,138.674691 C74.1289019,138.534269 72.515975,138.383818 70.8336394,138.878636 C66.7550496,140.07556 66.5369078,144.83651 66.5369078,145.775995 L66.5666544,146 Z" id="Path" fill="#000000"></path>
                    <path d="M76.9474548,145.350791 C93.6962233,144.438134 103.292282,145.083346 103.292282,149.974254 C103.292282,154.52417 94.1691297,154.955426 85.771757,154.955426 L86.1559934,154.955426 C97.7224959,154.801645 105,156.015178 105,159.936597 C105,164.486512 94.9211823,165.285506 86.1559934,165.285506 C96.6650246,165.135068 103.292282,166.348601 103.292282,170.27002 C103.292282,174.819935 94.1264368,175.618929 86.1559934,175.618929 L86.1559934,175.618929 C97.7060755,175.618929 101.591133,176.621849 101.591133,179.807793 C101.591133,183.485168 96.1100164,184 86.1559934,184 L65,184" id="Path" fill="#DBBAB4"></path>
                    <path d="M85.1257453,155 C84.988893,155 84.8779522,154.881838 84.8779522,154.736077 C84.8779522,154.590317 84.988893,154.472155 85.1257453,154.472155 C94.1520208,154.472155 102.504299,153.866893 102.504299,149.489298 C102.516136,148.632455 102.178684,147.812215 101.579205,147.240678 C98.4537085,144.073607 87.5640291,144.242518 76.2613613,144.890008 C76.1728333,144.895037 76.0885113,144.84938 76.0401584,144.770237 C75.9918055,144.691093 75.9867677,144.590486 76.0269427,144.506314 C76.0671178,144.422142 76.1464021,144.367192 76.23493,144.362163 C91.8425894,143.471864 99.2829893,144.193252 101.919507,146.85711 C102.614792,147.530865 103.007712,148.488159 103,149.489298 C103,154.588281 93.7753753,155 85.1257453,155 Z" id="Path" fill="#000000"></path>
                    <path d="M86.2420423,165 C86.1083798,165 86,164.886135 86,164.745675 C86,164.605215 86.1083798,164.49135 86.2420423,164.49135 C98.3687247,164.49135 104.515965,162.751767 104.515965,159.320075 C104.519029,158.587326 104.228576,157.887034 103.715695,157.390597 C101.724699,155.325478 96.0098624,154.386171 86.2452692,154.521811 C86.1805698,154.524615 86.1176252,154.499307 86.0712305,154.451836 C86.0248359,154.404364 85.9990829,154.338917 86,154.270877 C85.9991634,154.203424 86.0238389,154.138375 86.0686221,154.090042 C86.1134052,154.04171 86.1746266,154.014054 86.2388154,154.013161 C96.2776949,153.87413 101.937674,154.833783 104.054519,157.02776 C104.657509,157.621788 104.999738,158.45152 105,159.320075 C105,163.141732 98.865667,165 86.2420423,165 Z" id="Path" fill="#000000"></path>
                    <path d="M85.2514897,176 C85.1125958,176 85,175.886163 85,175.745738 C85,175.605313 85.1125958,175.491476 85.2514897,175.491476 C96.6959465,175.491476 102.496975,173.752322 102.496975,170.318086 C102.50493,169.53646 102.185846,168.787824 101.618438,168.256867 C99.6400522,166.287182 94.288352,165.392179 85.2548429,165.521005 C85.1878789,165.522836 85.1230277,165.497215 85.0750323,165.449968 C85.027037,165.40272 85,165.33786 85,165.270133 C85,165.130442 85.1100165,165.016157 85.2481365,165.012481 C94.5499012,164.880265 99.8647164,165.795609 101.973876,167.89751 C102.633118,168.525595 103.004743,169.402279 103,170.318086 C103,174.13541 97.1821598,176 85.2514897,176 Z" id="Path" fill="#000000"></path>
                    <path d="M86.1751072,184 L20.2888384,184 C9.97848025,184 5.05348745,180.02534 2.71519228,176.692508 C-0.719385748,171.768476 -0.417990762,165.711214 1.00949538,161.683068 C4.94087833,150.584773 17.2119599,144.079567 31.4205807,136.548104 L34.2589928,135.040474 C34.3378231,134.988783 34.4388113,134.986434 34.5199167,135.034407 C34.6010221,135.082379 34.6483478,135.172453 34.6421926,135.26713 C34.6360374,135.361808 34.5774559,135.444868 34.4908351,135.481732 L31.652423,136.992705 C17.5365391,144.474025 5.34494634,150.939116 1.47649201,161.853553 C0.0920622921,165.761357 -0.202708628,171.638104 3.13250842,176.405022 C6.37167651,181.044912 12.3068393,183.498571 20.2987745,183.498571 L86.1751072,183.498571 C96.5616421,183.498571 101.503195,182.906885 101.503195,179.557339 C101.503195,176.618965 97.6281167,175.616107 86.1751072,175.616107 C86.0379183,175.616107 85.9267047,175.503859 85.9267047,175.365393 C85.9267047,175.226927 86.0379183,175.114678 86.1751072,175.114678 C98.1547299,175.114678 102,176.194422 102,179.553996 C102,183.334771 96.8994695,184 86.1751072,184 Z" id="Path" fill="#DBBAB4"></path>
                    <path d="M86.2472697,184 C86.1107064,184 86,183.886303 86,183.74605 C86,183.605797 86.1107064,183.492099 86.2472697,183.492099 C96.5864414,183.492099 101.505461,182.892777 101.505461,179.5 C101.505461,176.523702 97.6480528,175.507901 86.2472697,175.507901 C86.1107064,175.507901 86,175.394203 86,175.25395 C86,175.113697 86.1107064,175 86.2472697,175 C98.1722646,175 102,176.093679 102,179.496614 C102,183.326185 96.9227282,184 86.2472697,184 Z" id="Path" fill="#000000"></path>
                    <polygon id="Rectangle" fill="#000000" transform="translate(37.729497, 140.355988) rotate(-37.320000) translate(-37.729497, -140.355988) " points="37.4813705 134.09823 37.9776241 134.09823 37.9776241 146.613745 37.4813705 146.613745"></polygon>
                    <line x1="28" y1="184" x2="248" y2="184" id="Path" fill="#F9F9F9"></line>
                    <rect id="Rectangle" fill="#000000" x="28" y="183" width="220" height="1"></rect>
                    <line x1="28" y1="186" x2="248" y2="186" id="Path" fill="#F9F9F9"></line>
                    <rect id="Rectangle" fill="#000000" x="28" y="186" width="220" height="1"></rect>
                    <line x1="28" y1="189" x2="248" y2="189" id="Path" fill="#F9F9F9"></line>
                    <rect id="Rectangle" fill="#000000" x="28" y="188" width="220" height="1"></rect>
                    <line x1="28" y1="192" x2="248" y2="192" id="Path" fill="#F9F9F9"></line>
                    <rect id="Rectangle" fill="#000000" x="28" y="192" width="220" height="1"></rect>
                    <line x1="28" y1="195" x2="248" y2="195" id="Path" fill="#F9F9F9"></line>
                    <rect id="Rectangle" fill="#000000" x="28" y="194" width="220" height="1"></rect>
                    <rect id="Rectangle" fill="#000000" x="141" y="133" width="1" height="50"></rect>
                    <line x1="176" y1="172" x2="200" y2="172" id="Path" fill="#F9F9F9"></line>
                    <rect id="Rectangle" fill="#000000" x="176" y="172" width="24" height="1"></rect>
                    <line x1="176" y1="175" x2="200" y2="175" id="Path" fill="#F9F9F9"></line>
                    <rect id="Rectangle" fill="#000000" x="176" y="175" width="24" height="1"></rect>
                    <line x1="176" y1="178" x2="200" y2="178" id="Path" fill="#F9F9F9"></line>
                    <rect id="Rectangle" fill="#000000" x="176" y="178" width="24" height="1"></rect>
                    <line x1="176" y1="181" x2="200" y2="181" id="Path" fill="#F9F9F9"></line>
                    <rect id="Rectangle" fill="#000000" x="176" y="180" width="24" height="1"></rect>
                    <line x1="176" y1="184" x2="200" y2="184" id="Path" fill="#F9F9F9"></line>
                    <rect id="Rectangle" fill="#000000" x="176" y="183" width="24" height="1"></rect>
                </g>
            </g>
        </g>
    </g>
</svg>