<?xml version="1.0" encoding="UTF-8"?>
<svg width="207px" height="98px" viewBox="0 0 207 98" version="1.1" xmlns="http://www.w3.org/2000/svg" xmlns:xlink="http://www.w3.org/1999/xlink">
    <title>LABEL without logo (right) NL</title>
    <g id="Desktop" stroke="none" stroke-width="1" fill="none" fill-rule="evenodd">
        <g id="Artboard" transform="translate(-165.000000, -176.000000)" fill-rule="nonzero">
            <g id="LABEL-without-logo-(right)-NL" transform="translate(165.000000, 176.000000)">
                <g id="Group" fill="#71B8C5">
                    <path d="M206.57,0 L49.28,0 C22.06,0.04 0,21.76 0,48.55 C0,75.34 22.06,97.06 49.28,97.1 L206.57,97.1 L206.57,0 Z" id="Path"></path>
                </g>
                <g id="Group" transform="translate(64.190000, 24.650000)" fill="#FFFFFF">
                    <g transform="translate(15.960000, 0.000000)">
                        <path d="M2.35,7.68 L2.35,11.56 L-5.68434189e-14,11.56 L-5.68434189e-14,0 L4.49,0 C7.21,0 8.57,1.27 8.57,3.81 C8.57,5.32 8,6.43 6.87,7.14 L8.52,11.56 L5.95,11.56 L4.61,7.68 L2.35,7.68 Z M5.76,5.17 C6.03,4.83 6.17,4.38 6.17,3.83 C6.17,3.28 6.03,2.83 5.74,2.5 C5.45,2.17 5.03,2.01 4.49,2.01 L2.35,2.01 L2.35,5.68 L4.53,5.68 C5.08,5.68 5.49,5.51 5.76,5.17 Z" id="Shape"></path>
                        <path d="M12.49,9.41 C12.76,9.64 13.14,9.76 13.64,9.76 C14.69,9.76 15.64,9.73 16.46,9.66 L16.94,9.61 L16.97,11.29 C15.67,11.61 14.49,11.77 13.43,11.77 C12.15,11.77 11.22,11.43 10.64,10.75 C10.06,10.07 9.77,8.97 9.77,7.44 C9.77,4.39 11.02,2.87 13.53,2.87 C16,2.87 17.24,4.15 17.24,6.71 L17.07,8.29 L12.07,8.29 C12.08,8.8 12.22,9.18 12.49,9.41 Z M15,6.54 C15,5.86 14.89,5.39 14.68,5.12 C14.47,4.85 14.09,4.72 13.55,4.72 C13.01,4.72 12.63,4.86 12.41,5.14 C12.19,5.42 12.07,5.89 12.06,6.54 L15,6.54 Z" id="Shape"></path>
                        <path d="M18.87,15.13 L18.87,3.06 L21.13,3.06 L21.13,3.52 C21.87,3.08 22.51,2.86 23.07,2.86 C24.21,2.86 25.06,3.2 25.6,3.89 C26.14,4.58 26.42,5.74 26.42,7.38 C26.42,9.02 26.12,10.17 25.52,10.8 C24.92,11.44 23.93,11.76 22.56,11.76 C22.19,11.76 21.78,11.73 21.35,11.66 L21.15,11.63 L21.15,15.13 L18.87,15.13 L18.87,15.13 Z M22.63,4.89 C22.21,4.89 21.79,4.97 21.35,5.14 L21.15,5.22 L21.15,9.67 C21.66,9.74 22.07,9.77 22.39,9.77 C23.05,9.77 23.5,9.58 23.74,9.19 C23.98,8.8 24.11,8.15 24.11,7.22 C24.11,5.68 23.61,4.89 22.63,4.89 Z" id="Shape"></path>
                        <path d="M34.63,5.71 L34.63,9.25 C34.65,9.52 34.7,9.71 34.77,9.82 C34.84,9.93 34.98,10 35.19,10.05 L35.12,11.77 C34.54,11.77 34.08,11.73 33.74,11.65 C33.4,11.57 33.04,11.41 32.69,11.17 C31.87,11.57 31.04,11.76 30.19,11.76 C28.43,11.76 27.56,10.83 27.56,8.97 C27.56,8.06 27.8,7.42 28.29,7.04 C28.78,6.66 29.53,6.44 30.53,6.37 L32.35,6.23 L32.35,5.7 C32.35,5.35 32.27,5.11 32.11,4.98 C31.95,4.85 31.7,4.78 31.35,4.78 L28.15,4.92 L28.08,3.34 C29.29,3.01 30.45,2.85 31.54,2.85 C32.63,2.85 33.42,3.08 33.9,3.53 C34.39,3.99 34.63,4.71 34.63,5.71 Z M30.81,7.96 C30.17,8.02 29.86,8.36 29.86,8.98 C29.86,9.6 30.14,9.91 30.69,9.91 C31.12,9.91 31.59,9.84 32.1,9.71 L32.35,9.64 L32.35,7.82 L30.81,7.96 Z" id="Shape"></path>
                        <path d="M36.81,11.56 L36.81,3.06 L39.07,3.06 L39.07,3.96 C40.02,3.39 40.93,3.02 41.79,2.85 L41.79,5.14 C40.87,5.33 40.08,5.53 39.43,5.73 L39.09,5.85 L39.09,11.55 L36.81,11.55 L36.81,11.56 Z" id="Path"></path>
                        <path d="M45.42,9.41 C45.69,9.64 46.07,9.76 46.57,9.76 C47.62,9.76 48.56,9.73 49.39,9.66 L49.87,9.61 L49.9,11.29 C48.6,11.61 47.42,11.77 46.36,11.77 C45.08,11.77 44.15,11.43 43.57,10.75 C42.99,10.07 42.7,8.97 42.7,7.44 C42.7,4.39 43.95,2.87 46.46,2.87 C48.93,2.87 50.17,4.15 50.17,6.71 L50,8.29 L45,8.29 C45.01,8.8 45.15,9.18 45.42,9.41 Z M47.92,6.54 C47.92,5.86 47.81,5.39 47.6,5.12 C47.38,4.85 47.01,4.72 46.47,4.72 C45.93,4.72 45.55,4.86 45.33,5.14 C45.11,5.42 44.99,5.89 44.98,6.54 L47.92,6.54 Z" id="Shape"></path>
                        <path d="M51.8,11.56 L51.8,3.06 L54.06,3.06 L54.06,3.96 C55.01,3.39 55.92,3.02 56.78,2.85 L56.78,5.14 C55.86,5.33 55.07,5.53 54.42,5.73 L54.08,5.85 L54.08,11.55 L51.8,11.55 L51.8,11.56 Z" id="Path"></path>
                        <path d="M60.41,9.41 C60.68,9.64 61.06,9.76 61.56,9.76 C62.61,9.76 63.56,9.73 64.38,9.66 L64.86,9.61 L64.89,11.29 C63.59,11.61 62.41,11.77 61.35,11.77 C60.07,11.77 59.14,11.43 58.56,10.75 C57.98,10.07 57.69,8.97 57.69,7.44 C57.69,4.39 58.94,2.87 61.45,2.87 C63.92,2.87 65.16,4.15 65.16,6.71 L64.99,8.29 L59.99,8.29 C60,8.8 60.14,9.18 60.41,9.41 Z M62.92,6.54 C62.92,5.86 62.81,5.39 62.6,5.12 C62.38,4.85 62.01,4.72 61.47,4.72 C60.93,4.72 60.55,4.86 60.33,5.14 C60.11,5.42 59.99,5.89 59.98,6.54 L62.92,6.54 Z" id="Shape"></path>
                        <path d="M69.07,11.56 L66.79,11.56 L66.79,3.06 L69.05,3.06 L69.05,3.54 C69.82,3.09 70.53,2.86 71.17,2.86 C72.3,2.86 73.09,3.19 73.52,3.86 C73.95,4.53 74.17,5.56 74.17,6.95 L74.17,11.56 L71.89,11.56 L71.89,7.02 C71.89,6.3 71.81,5.76 71.64,5.41 C71.47,5.06 71.13,4.89 70.62,4.89 C70.16,4.89 69.71,4.97 69.28,5.13 L69.08,5.2 L69.08,11.56 L69.07,11.56 Z" id="Path"></path>
                        <polygon id="Path" points="75.48 13.65 76.33 9.23 78.85 9.23 77.32 13.65"></polygon>
                    </g>
                    <g transform="translate(7.840000, 16.660000)">
                        <path d="M2.72,9.75 C2.99,9.98 3.37,10.1 3.87,10.1 C4.92,10.1 5.86,10.07 6.69,10 L7.17,9.95 L7.2,11.63 C5.9,11.95 4.72,12.11 3.66,12.11 C2.38,12.11 1.45,11.77 0.87,11.09 C0.29,10.41 0,9.31 0,7.78 C0,4.73 1.25,3.21 3.76,3.21 C6.23,3.21 7.47,4.49 7.47,7.05 L7.3,8.63 L2.3,8.63 C2.32,9.14 2.46,9.52 2.72,9.75 Z M5.23,6.88 C5.23,6.2 5.12,5.73 4.91,5.46 C4.69,5.19 4.32,5.06 3.78,5.06 C3.24,5.06 2.86,5.2 2.64,5.48 C2.42,5.76 2.3,6.23 2.29,6.88 L5.23,6.88 Z" id="Shape"></path>
                        <path d="M11.39,9.75 C11.66,9.98 12.04,10.1 12.54,10.1 C13.59,10.1 14.53,10.07 15.36,10 L15.84,9.95 L15.87,11.63 C14.57,11.95 13.39,12.11 12.33,12.11 C11.05,12.11 10.12,11.77 9.54,11.09 C8.96,10.41 8.67,9.31 8.67,7.78 C8.67,4.73 9.92,3.21 12.43,3.21 C14.9,3.21 16.14,4.49 16.14,7.05 L15.97,8.63 L10.97,8.63 C10.99,9.14 11.13,9.52 11.39,9.75 Z M13.9,6.88 C13.9,6.2 13.79,5.73 13.58,5.46 C13.37,5.19 12.99,5.06 12.45,5.06 C11.91,5.06 11.53,5.2 11.31,5.48 C11.09,5.76 10.97,6.23 10.96,6.88 L13.9,6.88 Z" id="Shape"></path>
                        <path d="M20.06,11.9 L17.78,11.9 L17.78,3.4 L20.04,3.4 L20.04,3.88 C20.81,3.43 21.52,3.2 22.16,3.2 C23.29,3.2 24.08,3.53 24.51,4.2 C24.94,4.87 25.16,5.9 25.16,7.29 L25.16,11.9 L22.88,11.9 L22.88,7.36 C22.88,6.64 22.8,6.1 22.63,5.75 C22.46,5.4 22.12,5.23 21.61,5.23 C21.15,5.23 20.7,5.31 20.27,5.47 L20.06,5.54 L20.06,11.9 L20.06,11.9 Z" id="Path"></path>
                        <polygon id="Path" points="30.27 3.4 32.51 3.4 33.55 9.96 33.96 9.96 35.25 3.57 37.6 3.57 38.89 9.96 39.3 9.96 40.34 3.4 42.58 3.4 40.96 11.9 37.39 11.9 36.42 6.7 35.45 11.9 31.88 11.9"></polygon>
                        <path d="M46.33,9.75 C46.6,9.98 46.98,10.1 47.48,10.1 C48.53,10.1 49.48,10.07 50.3,10 L50.78,9.95 L50.81,11.63 C49.51,11.95 48.33,12.11 47.27,12.11 C45.99,12.11 45.06,11.77 44.48,11.09 C43.9,10.41 43.61,9.31 43.61,7.78 C43.61,4.73 44.86,3.21 47.37,3.21 C49.84,3.21 51.08,4.49 51.08,7.05 L50.91,8.63 L45.91,8.63 C45.92,9.14 46.06,9.52 46.33,9.75 Z M48.84,6.88 C48.84,6.2 48.73,5.73 48.52,5.46 C48.3,5.19 47.93,5.06 47.39,5.06 C46.85,5.06 46.47,5.2 46.25,5.48 C46.03,5.76 45.91,6.23 45.9,6.88 L48.84,6.88 Z" id="Shape"></path>
                        <path d="M52.71,11.9 L52.71,3.4 L54.97,3.4 L54.97,4.3 C55.92,3.73 56.83,3.36 57.69,3.19 L57.69,5.48 C56.77,5.67 55.98,5.87 55.33,6.07 L54.99,6.19 L54.99,11.89 L52.71,11.89 L52.71,11.9 Z" id="Path"></path>
                        <path d="M61.32,9.75 C61.59,9.98 61.97,10.1 62.47,10.1 C63.52,10.1 64.47,10.07 65.29,10 L65.77,9.95 L65.8,11.63 C64.5,11.95 63.32,12.11 62.26,12.11 C60.98,12.11 60.05,11.77 59.47,11.09 C58.89,10.41 58.6,9.31 58.6,7.78 C58.6,4.73 59.85,3.21 62.36,3.21 C64.83,3.21 66.07,4.49 66.07,7.05 L65.9,8.63 L60.9,8.63 C60.92,9.14 61.06,9.52 61.32,9.75 Z M63.83,6.88 C63.83,6.2 63.72,5.73 63.51,5.46 C63.3,5.19 62.92,5.06 62.38,5.06 C61.84,5.06 61.46,5.2 61.24,5.48 C61.02,5.76 60.9,6.23 60.89,6.88 L63.83,6.88 Z" id="Shape"></path>
                        <polygon id="Path" points="67.81 11.9 67.81 0 70.09 0 70.09 11.9"></polygon>
                        <path d="M79.52,0 L79.52,11.9 L77.26,11.9 L77.26,11.54 C76.47,11.91 75.78,12.1 75.2,12.1 C73.96,12.1 73.1,11.74 72.62,11.03 C72.14,10.32 71.89,9.19 71.89,7.64 C71.89,6.09 72.18,4.97 72.77,4.26 C73.35,3.55 74.23,3.2 75.41,3.2 C75.77,3.2 76.28,3.26 76.92,3.37 L77.24,3.44 L77.24,0.01 L79.52,0.01 L79.52,0 Z M77,9.86 L77.24,9.81 L77.24,5.34 C76.62,5.23 76.06,5.17 75.57,5.17 C74.65,5.17 74.19,5.99 74.19,7.62 C74.19,8.5 74.29,9.13 74.5,9.51 C74.7,9.88 75.04,10.07 75.51,10.07 C75.98,10.07 76.48,9.99 77,9.86 Z" id="Shape"></path>
                    </g>
                    <g transform="translate(0.000000, 33.660000)">
                        <polygon id="Path" points="0 3.4 2.38 3.4 3.74 9.96 4.22 9.96 5.65 3.4 7.96 3.4 5.92 11.9 2.04 11.9"></polygon>
                        <path d="M15.69,6.05 L15.69,9.59 C15.71,9.86 15.76,10.05 15.83,10.16 C15.9,10.27 16.04,10.34 16.25,10.39 L16.18,12.11 C15.6,12.11 15.14,12.07 14.79,11.99 C14.44,11.91 14.1,11.75 13.74,11.51 C12.92,11.91 12.09,12.1 11.24,12.1 C9.48,12.1 8.61,11.17 8.61,9.31 C8.61,8.4 8.85,7.76 9.34,7.38 C9.83,7 10.57,6.78 11.58,6.71 L13.4,6.57 L13.4,6.04 C13.4,5.69 13.32,5.45 13.16,5.32 C13,5.19 12.75,5.12 12.4,5.12 L9.2,5.26 L9.13,3.68 C10.34,3.35 11.5,3.19 12.59,3.19 C13.68,3.19 14.47,3.42 14.95,3.87 C15.45,4.33 15.69,5.05 15.69,6.05 Z M11.87,8.3 C11.23,8.36 10.92,8.7 10.92,9.32 C10.92,9.94 11.2,10.25 11.75,10.25 C12.18,10.25 12.65,10.18 13.16,10.05 L13.41,9.98 L13.41,8.16 L11.87,8.3 Z" id="Shape"></path>
                        <path d="M20.14,11.9 L17.86,11.9 L17.86,3.4 L20.12,3.4 L20.12,3.88 C20.89,3.43 21.6,3.2 22.24,3.2 C23.37,3.2 24.16,3.53 24.59,4.2 C25.02,4.87 25.24,5.9 25.24,7.29 L25.24,11.9 L22.96,11.9 L22.96,7.36 C22.96,6.64 22.88,6.1 22.71,5.75 C22.54,5.4 22.2,5.23 21.69,5.23 C21.23,5.23 20.78,5.31 20.35,5.47 L20.15,5.54 L20.15,11.9 L20.14,11.9 Z" id="Path"></path>
                        <polygon id="Path" points="30.21 3.4 32.59 3.4 33.95 9.96 34.43 9.96 35.86 3.4 38.17 3.4 36.13 11.9 32.25 11.9"></polygon>
                        <path d="M41.64,9.75 C41.91,9.98 42.29,10.1 42.79,10.1 C43.84,10.1 44.78,10.07 45.61,10 L46.09,9.95 L46.12,11.63 C44.82,11.95 43.64,12.11 42.58,12.11 C41.3,12.11 40.37,11.77 39.79,11.09 C39.21,10.41 38.92,9.31 38.92,7.78 C38.92,4.73 40.17,3.21 42.68,3.21 C45.15,3.21 46.39,4.49 46.39,7.05 L46.22,8.63 L41.22,8.63 C41.24,9.14 41.37,9.52 41.64,9.75 Z M44.15,6.88 C44.15,6.2 44.04,5.73 43.83,5.46 C43.61,5.19 43.24,5.06 42.7,5.06 C42.16,5.06 41.78,5.2 41.56,5.48 C41.34,5.76 41.22,6.23 41.21,6.88 L44.15,6.88 Z" id="Shape"></path>
                        <path d="M48.02,11.9 L48.02,3.4 L50.28,3.4 L50.28,4.3 C51.23,3.73 52.14,3.36 53,3.19 L53,5.48 C52.08,5.67 51.29,5.87 50.64,6.07 L50.3,6.19 L50.3,11.89 L48.02,11.89 L48.02,11.9 Z" id="Path"></path>
                        <path d="M60.45,5.52 C59.04,5.34 58.06,5.25 57.5,5.25 C56.94,5.25 56.58,5.3 56.41,5.4 C56.25,5.5 56.16,5.66 56.16,5.88 C56.16,6.1 56.27,6.25 56.49,6.34 C56.71,6.42 57.28,6.55 58.19,6.71 C59.1,6.88 59.75,7.14 60.14,7.52 C60.53,7.9 60.72,8.5 60.72,9.34 C60.72,11.18 59.58,12.09 57.3,12.09 C56.55,12.09 55.64,11.99 54.58,11.78 L54.04,11.68 L54.11,9.78 C55.52,9.96 56.49,10.05 57.04,10.05 C57.59,10.05 57.96,10 58.16,9.89 C58.36,9.78 58.46,9.62 58.46,9.4 C58.46,9.19 58.35,9.03 58.15,8.92 C57.94,8.82 57.4,8.69 56.52,8.55 C55.64,8.4 54.99,8.15 54.56,7.8 C54.13,7.45 53.91,6.82 53.91,5.92 C53.91,5.02 54.22,4.34 54.83,3.88 C55.44,3.42 56.23,3.19 57.19,3.19 C57.86,3.19 58.77,3.3 59.93,3.51 L60.49,3.61 L60.45,5.52 Z" id="Path"></path>
                        <path d="M65.55,3.19 C66.14,3.19 66.89,3.28 67.81,3.46 L68.27,3.56 L68.2,5.36 C67.31,5.27 66.64,5.22 66.21,5.22 C65.43,5.22 64.91,5.39 64.65,5.72 C64.4,6.05 64.27,6.69 64.27,7.62 C64.27,8.55 64.4,9.19 64.65,9.53 C64.91,9.88 65.43,10.05 66.22,10.05 L68.19,9.91 L68.26,11.73 C67.05,11.97 66.12,12.09 65.49,12.09 C64.23,12.09 63.33,11.74 62.78,11.03 C62.23,10.32 61.96,9.19 61.96,7.62 C61.96,6.06 62.24,4.92 62.81,4.23 C63.38,3.54 64.29,3.19 65.55,3.19 Z" id="Path"></path>
                        <path d="M72.23,11.9 L69.95,11.9 L69.95,5.68434189e-14 L72.23,5.68434189e-14 L72.23,3.81 C73.01,3.4 73.71,3.2 74.34,3.2 C75.47,3.2 76.26,3.53 76.69,4.2 C77.12,4.87 77.34,5.9 77.34,7.29 L77.34,11.9 L75.06,11.9 L75.06,7.34 C75.06,6.63 74.98,6.1 74.81,5.75 C74.64,5.4 74.3,5.23 73.79,5.23 C73.35,5.23 72.91,5.3 72.46,5.43 L72.24,5.5 L72.24,11.9 L72.23,11.9 Z" id="Path"></path>
                        <path d="M79.35,2.31 L79.35,5.68434189e-14 L81.63,5.68434189e-14 L81.63,2.31 L79.35,2.31 Z M79.35,11.9 L79.35,3.4 L81.63,3.4 L81.63,11.9 L79.35,11.9 Z" id="Shape"></path>
                        <polygon id="Path" points="83.84 11.9 83.84 5.68434189e-14 86.12 5.68434189e-14 86.12 11.9"></polygon>
                    </g>
                </g>
            </g>
        </g>
    </g>
</svg>