<?xml version="1.0" encoding="UTF-8"?>
<svg width="207px" height="98px" viewBox="0 0 207 98" version="1.1" xmlns="http://www.w3.org/2000/svg" xmlns:xlink="http://www.w3.org/1999/xlink">
    <title>LABEL without logo (right) FR</title>
    <g id="Desktop" stroke="none" stroke-width="1" fill="none" fill-rule="evenodd">
        <g id="Artboard" transform="translate(-165.000000, -548.000000)" fill-rule="nonzero">
            <g id="LABEL-without-logo-(right)-FR" transform="translate(165.000000, 548.000000)">
                <g id="Group" fill="#71B8C5">
                    <path d="M206.57,0 L49.28,0 C22.06,0.04 0,21.76 0,48.55 C0,75.34 22.06,97.06 49.28,97.1 L206.57,97.1 L206.57,0 Z" id="Path"></path>
                </g>
                <g id="Group" transform="translate(62.000000, 24.000000)" fill="#FFFFFF">
                    <path d="M18.5,9.2 L18.5,13.2 L16.1,13.2 L16.1,1.3 L20.7,1.3 C23.5,1.3 24.9,2.6 24.9,5.2 C24.9,6.8 24.3,7.9 23.1,8.6 L24.8,13.1 L22.2,13.1 L20.8,9.1 L18.5,9.1 L18.5,9.2 Z M22,6.6 C22.3,6.3 22.4,5.8 22.4,5.2 C22.4,4.6 22.3,4.2 22,3.8 C21.7,3.5 21.3,3.3 20.7,3.3 L18.5,3.3 L18.5,7.1 L20.7,7.1 C21.3,7.1 21.7,6.9 22,6.6 Z" id="Shape"></path>
                    <path d="M29.1,10.9 C29.4,11.1 29.8,11.3 30.3,11.3 C31.4,11.3 32.4,11.3 33.2,11.2 L33.7,11.1 L33.7,12.8 C32.4,13.1 31.1,13.3 30.1,13.3 C28.8,13.3 27.8,13 27.2,12.3 C26.6,11.6 26.3,10.5 26.3,8.9 C26.3,5.8 27.6,4.2 30.2,4.2 C32.7,4.2 34,5.5 34,8.2 L33.8,9.8 L28.7,9.8 C28.6,10.3 28.8,10.7 29.1,10.9 Z M27.5,1.8 L31.9,0 L32.6,2 L28,3.3 L27.5,1.8 Z M31.6,8 C31.6,7.3 31.5,6.8 31.3,6.5 C31.1,6.2 30.7,6.1 30.1,6.1 C29.5,6.1 29.2,6.2 28.9,6.5 C28.7,6.8 28.6,7.3 28.5,7.9 L31.6,7.9 L31.6,8 Z" id="Shape"></path>
                    <path d="M35.6,16.8 L35.6,4.4 L37.9,4.4 L37.9,4.9 C38.7,4.4 39.3,4.2 39.9,4.2 C41.1,4.2 41.9,4.6 42.5,5.3 C43.1,6 43.3,7.2 43.3,8.9 C43.3,10.6 43,11.8 42.4,12.4 C41.8,13 40.8,13.4 39.4,13.4 C39,13.4 38.6,13.4 38.2,13.3 L38,13.3 L38,16.9 L35.6,16.9 L35.6,16.8 Z M39.5,6.3 C39.1,6.3 38.6,6.4 38.2,6.6 L38,6.7 L38,11.3 C38.5,11.4 39,11.4 39.3,11.4 C40,11.4 40.4,11.2 40.7,10.8 C41,10.4 41.1,9.7 41.1,8.8 C41,7.1 40.5,6.3 39.5,6.3 Z" id="Shape"></path>
                    <path d="M51.9,7.1 L51.9,10.7 C51.9,11 52,11.2 52,11.3 C52.1,11.4 52.2,11.5 52.4,11.5 L52.3,13.3 C51.7,13.3 51.2,13.3 50.9,13.2 C50.5,13.1 50.2,13 49.8,12.7 C49,13.1 48.1,13.3 47.2,13.3 C45.4,13.3 44.5,12.3 44.5,10.4 C44.5,9.5 44.8,8.8 45.3,8.4 C45.8,8 46.6,7.8 47.6,7.7 L49.5,7.6 L49.5,7.1 C49.5,6.7 49.4,6.5 49.3,6.4 C49.2,6.3 48.9,6.2 48.5,6.2 L45.2,6.3 L45.1,4.7 C46.3,4.4 47.5,4.2 48.7,4.2 C49.8,4.2 50.6,4.4 51.1,4.9 C51.6,5.4 51.9,6.1 51.9,7.1 Z M47.9,9.5 C47.2,9.6 46.9,9.9 46.9,10.5 C46.9,11.1 47.2,11.5 47.8,11.5 C48.2,11.5 48.7,11.4 49.3,11.3 L49.6,11.2 L49.6,9.3 L47.9,9.5 Z" id="Shape"></path>
                    <path d="M54.1,13.2 L54.1,4.4 L56.4,4.4 L56.4,5.3 C57.4,4.7 58.3,4.3 59.2,4.2 L59.2,6.6 C58.3,6.8 57.4,7 56.8,7.2 L56.5,7.3 L56.5,13.2 L54.1,13.2 L54.1,13.2 Z" id="Path"></path>
                    <path d="M63,10.9 C63.3,11.1 63.7,11.3 64.2,11.3 C65.3,11.3 66.3,11.3 67.1,11.2 L67.6,11.1 L67.6,12.8 C66.3,13.1 65,13.3 64,13.3 C62.7,13.3 61.7,13 61.1,12.3 C60.5,11.6 60.2,10.5 60.2,8.9 C60.2,5.8 61.5,4.2 64.1,4.2 C66.6,4.2 67.9,5.5 67.9,8.2 L67.7,9.8 L62.5,9.8 C62.5,10.3 62.7,10.7 63,10.9 Z M65.5,8 C65.5,7.3 65.4,6.8 65.2,6.5 C65,6.2 64.6,6.1 64,6.1 C63.4,6.1 63.1,6.2 62.8,6.5 C62.6,6.8 62.5,7.3 62.4,7.9 L65.5,7.9 L65.5,8 Z" id="Shape"></path>
                    <path d="M69.5,13.2 L69.5,4.4 L71.8,4.4 L71.8,5.3 C72.8,4.7 73.7,4.3 74.6,4.2 L74.6,6.6 C73.7,6.8 72.8,7 72.2,7.2 L71.9,7.3 L71.9,13.2 L69.5,13.2 L69.5,13.2 Z" id="Path"></path>
                    <polygon id="Path" points="75.3 15.3 76.2 10.8 78.8 10.8 77.2 15.3"></polygon>
                    <path d="M13.3,21.4 L15.6,21.4 L15.6,30.1 L13.3,30.1 L13.3,29.6 C12.5,30.1 11.7,30.3 11.1,30.3 C9.9,30.3 9.1,30 8.6,29.3 C8.1,28.6 8,27.5 8,25.9 L8,21.3 L10.3,21.3 L10.3,25.9 C10.3,26.8 10.4,27.4 10.5,27.7 C10.6,28 11,28.2 11.5,28.2 C12,28.2 12.5,28.1 13,28 L13.2,27.9 L13.2,21.4 L13.3,21.4 Z" id="Path"></path>
                    <path d="M20.2,30.2 L17.9,30.2 L17.9,21.5 L20.2,21.5 L20.2,22 C21,21.5 21.7,21.3 22.4,21.3 C23.6,21.3 24.4,21.6 24.8,22.3 C25.2,23 25.5,24 25.5,25.5 L25.5,30.2 L23.2,30.2 L23.2,25.5 C23.2,24.8 23.1,24.2 22.9,23.8 C22.7,23.4 22.4,23.3 21.9,23.3 C21.4,23.3 21,23.4 20.5,23.5 L20.3,23.6 L20.3,30.2 L20.2,30.2 Z" id="Path"></path>
                    <path d="M33.7,30.2 L31.4,30.2 L31.4,21.5 L33.7,21.5 L33.7,22 C34.5,21.5 35.2,21.3 35.8,21.3 C36.7,21.3 37.5,21.6 38,22.1 C39.1,21.6 40.1,21.3 40.9,21.3 C42.1,21.3 42.9,21.6 43.3,22.3 C43.7,23 44,24 44,25.5 L44,30.2 L41.7,30.2 L41.7,25.5 C41.7,24.8 41.6,24.2 41.5,23.8 C41.4,23.4 41,23.3 40.5,23.3 C40.1,23.3 39.7,23.4 39.1,23.5 L38.8,23.6 C38.8,24.5 38.9,25.1 38.9,25.6 L38.9,30.1 L36.5,30.1 L36.5,25.6 C36.5,24.7 36.4,24.1 36.3,23.8 C36.1,23.4 35.8,23.3 35.3,23.3 C34.8,23.3 34.4,23.4 34,23.5 L33.8,23.6 L33.8,30.2 L33.7,30.2 Z" id="Path"></path>
                    <path d="M46.5,22.4 C47.1,21.6 48.2,21.2 49.6,21.2 C51,21.2 52.1,21.6 52.7,22.4 C53.3,23.2 53.6,24.3 53.6,25.8 C53.6,28.9 52.3,30.4 49.6,30.4 C46.9,30.4 45.6,28.9 45.6,25.8 C45.6,24.3 45.9,23.2 46.5,22.4 Z M48.3,27.7 C48.5,28.1 49,28.3 49.6,28.3 C50.2,28.3 50.6,28.1 50.9,27.7 C51.2,27.3 51.3,26.6 51.3,25.7 C51.3,24.8 51.2,24.1 50.9,23.7 C50.6,23.3 50.2,23.1 49.6,23.1 C49,23.1 48.6,23.3 48.3,23.7 C48,24.1 47.9,24.8 47.9,25.7 C47.9,26.6 48.1,27.3 48.3,27.7 Z" id="Shape"></path>
                    <path d="M57.7,30.2 L55.4,30.2 L55.4,21.5 L57.7,21.5 L57.7,22 C58.5,21.5 59.2,21.3 59.9,21.3 C61.1,21.3 61.9,21.6 62.3,22.3 C62.7,23 63,24 63,25.5 L63,30.2 L60.7,30.2 L60.7,25.5 C60.7,24.8 60.6,24.2 60.4,23.8 C60.2,23.4 59.9,23.3 59.4,23.3 C58.9,23.3 58.5,23.4 58,23.5 L57.8,23.6 L57.8,30.2 L57.7,30.2 Z" id="Path"></path>
                    <path d="M72.5,17.9 L72.5,30.1 L70.2,30.1 L70.2,29.7 C69.4,30.1 68.7,30.3 68.1,30.3 C66.8,30.3 65.9,29.9 65.4,29.2 C64.9,28.5 64.6,27.3 64.6,25.7 C64.6,24.1 64.9,22.9 65.5,22.2 C66.1,21.5 67,21.1 68.2,21.1 C68.6,21.1 69.1,21.2 69.8,21.3 L70.1,21.4 L70.1,17.9 L72.5,17.9 Z M69.9,28.1 L70.1,28 L70.1,23.4 C69.5,23.3 68.9,23.2 68.4,23.2 C67.5,23.2 67,24 67,25.7 C67,26.6 67.1,27.3 67.3,27.6 C67.5,28 67.9,28.2 68.3,28.2 C68.7,28.2 69.3,28.2 69.9,28.1 Z" id="Shape"></path>
                    <path d="M77,27.9 C77.3,28.1 77.7,28.3 78.2,28.3 C79.3,28.3 80.3,28.3 81.1,28.2 L81.6,28.1 L81.6,29.8 C80.3,30.1 79,30.3 78,30.3 C76.7,30.3 75.7,30 75.1,29.3 C74.5,28.6 74.2,27.5 74.2,25.9 C74.2,22.8 75.5,21.2 78.1,21.2 C80.6,21.2 81.9,22.5 81.9,25.2 L81.7,26.8 L76.6,26.8 C76.6,27.3 76.7,27.7 77,27.9 Z M79.6,25 C79.6,24.3 79.5,23.8 79.3,23.5 C79.1,23.2 78.7,23.1 78.1,23.1 C77.5,23.1 77.2,23.2 76.9,23.5 C76.7,23.8 76.6,24.3 76.5,24.9 L79.6,24.9 L79.6,25 Z" id="Shape"></path>
                    <path d="M7.9,34.9 L7.9,47.1 L5.6,47.1 L5.6,46.7 C4.8,47.1 4.1,47.3 3.5,47.3 C2.2,47.3 1.3,46.9 0.8,46.2 C0.3,45.5 5.68434189e-14,44.3 5.68434189e-14,42.7 C5.68434189e-14,41.1 0.3,39.9 0.9,39.2 C1.5,38.5 2.4,38.1 3.6,38.1 C4,38.1 4.5,38.2 5.2,38.3 L5.5,38.4 L5.5,34.9 L7.9,34.9 Z M5.3,45.1 L5.5,45 L5.5,40.4 C4.9,40.3 4.3,40.2 3.8,40.2 C2.9,40.2 2.4,41 2.4,42.7 C2.4,43.6 2.5,44.3 2.7,44.6 C2.9,45 3.3,45.2 3.7,45.2 C4.3,45.3 4.8,45.2 5.3,45.1 Z" id="Shape"></path>
                    <path d="M12.4,44.9 C12.7,45.1 13.1,45.3 13.6,45.3 C14.7,45.3 15.7,45.3 16.5,45.2 L17,45.1 L17,46.8 C15.7,47.1 14.4,47.3 13.4,47.3 C12.1,47.3 11.1,47 10.5,46.3 C9.9,45.6 9.6,44.5 9.6,42.9 C9.6,39.8 10.9,38.2 13.5,38.2 C16,38.2 17.3,39.5 17.3,42.2 L17.1,43.8 L12,43.8 C12,44.3 12.1,44.7 12.4,44.9 Z M15,42 C15,41.3 14.9,40.8 14.7,40.5 C14.5,40.2 14.1,40.1 13.5,40.1 C12.9,40.1 12.6,40.2 12.3,40.5 C12.1,40.8 12,41.3 11.9,41.9 L15,41.9 L15,42 Z" id="Shape"></path>
                    <path d="M30.3,34.9 L30.3,47.1 L28,47.1 L28,46.7 C27.2,47.1 26.5,47.3 25.9,47.3 C24.6,47.3 23.7,46.9 23.2,46.2 C22.7,45.5 22.4,44.3 22.4,42.7 C22.4,41.1 22.7,39.9 23.3,39.2 C23.9,38.5 24.8,38.1 26,38.1 C26.4,38.1 26.9,38.2 27.6,38.3 L27.9,38.4 L27.9,34.9 L30.3,34.9 Z M27.7,45.1 L27.9,45 L27.9,40.4 C27.3,40.3 26.7,40.2 26.2,40.2 C25.3,40.2 24.8,41 24.8,42.7 C24.8,43.6 24.9,44.3 25.1,44.6 C25.3,45 25.7,45.2 26.1,45.2 C26.6,45.3 27.1,45.2 27.7,45.1 Z" id="Shape"></path>
                    <path d="M32.4,37.3 L32.4,34.9 L34.7,34.9 L34.7,37.3 L32.4,37.3 Z M32.4,47.2 L32.4,38.4 L34.7,38.4 L34.7,47.2 L32.4,47.2 Z" id="Shape"></path>
                    <path d="M39.7,40.4 L39.7,47.2 L37.4,47.2 L37.4,40.4 L36.5,40.4 L36.5,38.4 L37.4,38.4 L37.4,38 C37.4,36.7 37.6,35.9 38,35.4 C38.4,34.9 39,34.7 40,34.7 C40.4,34.7 41,34.8 41.6,34.9 L42,35 L42,36.9 C41.5,36.9 41.1,36.9 40.7,36.9 C40.3,36.9 40.1,37 40,37.2 C39.9,37.4 39.8,37.7 39.8,38.2 L39.8,38.6 L41.9,38.6 L41.9,40.6 L39.7,40.6 L39.7,40.4 Z" id="Path"></path>
                    <path d="M46,40.4 L46,47.2 L43.7,47.2 L43.7,40.4 L42.8,40.4 L42.8,38.4 L43.7,38.4 L43.7,38 C43.7,36.7 43.9,35.9 44.3,35.4 C44.7,34.9 45.3,34.7 46.3,34.7 C46.7,34.7 47.3,34.8 47.9,34.9 L48.3,35 L48.3,36.9 C47.8,36.9 47.4,36.9 47,36.9 C46.7,36.9 46.4,37 46.3,37.2 C46.2,37.4 46.1,37.7 46.1,38.2 L46.1,38.6 L48.2,38.6 L48.2,40.6 L46,40.6 L46,40.4 Z" id="Path"></path>
                    <path d="M51.8,44.9 C52.1,45.1 52.5,45.3 53,45.3 C54.1,45.3 55.1,45.3 55.9,45.2 L56.4,45.1 L56.4,46.8 C55.1,47.1 53.8,47.3 52.8,47.3 C51.5,47.3 50.5,47 49.9,46.3 C49.3,45.6 49,44.5 49,42.9 C49,39.8 50.3,38.2 52.9,38.2 C55.4,38.2 56.7,39.5 56.7,42.2 L56.5,43.8 L51.4,43.8 C51.4,44.3 51.5,44.7 51.8,44.9 Z M50.2,35.8 L54.6,34 L55.3,36 L50.7,37.3 L50.2,35.8 Z M54.4,42 C54.4,41.3 54.3,40.8 54.1,40.5 C53.9,40.2 53.5,40.1 52.9,40.1 C52.3,40.1 52,40.2 51.7,40.5 C51.5,40.8 51.4,41.3 51.3,41.9 L54.4,41.9 L54.4,42 Z" id="Shape"></path>
                    <path d="M58.4,47.2 L58.4,38.4 L60.7,38.4 L60.7,39.3 C61.7,38.7 62.6,38.3 63.5,38.2 L63.5,40.6 C62.6,40.8 61.7,41 61.1,41.2 L60.8,41.3 L60.8,47.2 L58.4,47.2 L58.4,47.2 Z" id="Path"></path>
                    <path d="M67.2,44.9 C67.5,45.1 67.9,45.3 68.4,45.3 C69.5,45.3 70.5,45.3 71.3,45.2 L71.8,45.1 L71.8,46.8 C70.5,47.1 69.2,47.3 68.2,47.3 C66.9,47.3 65.9,47 65.3,46.3 C64.7,45.6 64.4,44.5 64.4,42.9 C64.4,39.8 65.7,38.2 68.3,38.2 C70.8,38.2 72.1,39.5 72.1,42.2 L71.9,43.8 L66.8,43.8 C66.8,44.3 67,44.7 67.2,44.9 Z M69.8,42 C69.8,41.3 69.7,40.8 69.5,40.5 C69.3,40.2 68.9,40.1 68.3,40.1 C67.7,40.1 67.4,40.2 67.1,40.5 C66.9,40.8 66.8,41.3 66.7,41.9 L69.8,41.9 L69.8,42 Z" id="Shape"></path>
                    <path d="M76.2,47.2 L73.9,47.2 L73.9,38.4 L76.2,38.4 L76.2,38.9 C77,38.4 77.7,38.2 78.4,38.2 C79.6,38.2 80.4,38.5 80.8,39.2 C81.2,39.9 81.5,41 81.5,42.4 L81.5,47.1 L79.2,47.1 L79.2,42.4 C79.2,41.7 79.1,41.1 78.9,40.7 C78.7,40.3 78.4,40.2 77.9,40.2 C77.4,40.2 77,40.3 76.5,40.4 L76.3,40.5 L76.3,47.2 L76.2,47.2 Z" id="Path"></path>
                    <path d="M86.8,38.2 C87.4,38.2 88.2,38.3 89.1,38.5 L89.6,38.6 L89.5,40.5 C88.6,40.4 87.9,40.4 87.5,40.4 C86.7,40.4 86.2,40.6 85.9,40.9 C85.6,41.2 85.5,41.9 85.5,42.9 C85.5,43.9 85.6,44.5 85.9,44.9 C86.2,45.3 86.7,45.4 87.5,45.4 L89.5,45.3 L89.6,47.2 C88.4,47.4 87.4,47.6 86.7,47.6 C85.4,47.6 84.5,47.2 83.9,46.5 C83.3,45.8 83.1,44.6 83.1,43 C83.1,41.4 83.4,40.2 84,39.5 C84.5,38.6 85.5,38.2 86.8,38.2 Z" id="Path"></path>
                    <path d="M93.7,44.9 C94,45.1 94.4,45.3 94.9,45.3 C96,45.3 97,45.3 97.8,45.2 L98.3,45.1 L98.3,46.8 C97,47.1 95.7,47.3 94.7,47.3 C93.4,47.3 92.4,47 91.8,46.3 C91.2,45.6 90.9,44.5 90.9,42.9 C90.9,39.8 92.2,38.2 94.8,38.2 C97.3,38.2 98.6,39.5 98.6,42.2 L98.4,43.8 L93.3,43.8 C93.2,44.3 93.4,44.7 93.7,44.9 Z M96.2,42 C96.2,41.3 96.1,40.8 95.9,40.5 C95.7,40.2 95.3,40.1 94.7,40.1 C94.1,40.1 93.8,40.2 93.5,40.5 C93.3,40.8 93.2,41.3 93.1,41.9 L96.2,41.9 L96.2,42 Z" id="Shape"></path>
                </g>
            </g>
        </g>
    </g>
</svg>