<?xml version="1.0" encoding="UTF-8"?>
<svg width="207px" height="98px" viewBox="0 0 207 98" version="1.1" xmlns="http://www.w3.org/2000/svg" xmlns:xlink="http://www.w3.org/1999/xlink">
    <title>LABEL without logo (right) ENG</title>
    <g id="Desktop" stroke="none" stroke-width="1" fill="none" fill-rule="evenodd">
        <g id="Artboard" transform="translate(-165.000000, -308.000000)" fill-rule="nonzero">
            <g id="LABEL-without-logo-(right)-ENG" transform="translate(165.000000, 308.000000)">
                <g id="Group" fill="#71B8C5">
                    <path d="M206.57,0 L49.28,0 C22.06,0.04 0,21.76 0,48.55 C0,75.34 22.06,97.06 49.28,97.1 L206.57,97.1 L206.57,0 Z" id="Path"></path>
                </g>
                <g id="Group" transform="translate(64.000000, 25.000000)" fill="#FFFFFF">
                    <path d="M18,8 L18,11.9 L15.7,11.9 L15.7,0.3 L20.2,0.3 C22.9,0.3 24.3,1.6 24.3,4.1 C24.3,5.6 23.7,6.7 22.6,7.4 L24.2,11.8 L21.6,11.8 L20.3,7.9 L18,7.9 L18,8 Z M21.4,5.5 C21.7,5.2 21.8,4.7 21.8,4.2 C21.8,3.7 21.7,3.2 21.4,2.9 C21.1,2.6 20.7,2.4 20.2,2.4 L18.1,2.4 L18.1,6.1 L20.3,6.1 C20.7,6 21.1,5.9 21.4,5.5 Z" id="Shape"></path>
                    <path d="M28.1,9.8 C28.4,10 28.7,10.1 29.2,10.1 C30.3,10.1 31.2,10.1 32,10 L32.5,9.9 L32.5,11.6 C31.2,11.9 30,12.1 29,12.1 C27.7,12.1 26.8,11.8 26.2,11.1 C25.6,10.4 25.3,9.3 25.3,7.8 C25.3,4.8 26.6,3.2 29.1,3.2 C31.6,3.2 32.8,4.5 32.8,7 L32.6,8.6 L27.6,8.6 C27.7,9.2 27.9,9.5 28.1,9.8 Z M30.6,6.9 C30.6,6.2 30.5,5.7 30.3,5.5 C30.1,5.2 29.7,5.1 29.2,5.1 C28.7,5.1 28.3,5.2 28.1,5.5 C27.9,5.8 27.8,6.2 27.8,6.9 L30.6,6.9 Z" id="Shape"></path>
                    <path d="M34.5,15.5 L34.5,3.4 L36.8,3.4 L36.8,3.9 C37.5,3.5 38.2,3.2 38.7,3.2 C39.8,3.2 40.7,3.5 41.2,4.2 C41.7,4.9 42,6.1 42,7.7 C42,9.3 41.7,10.5 41.1,11.1 C40.5,11.7 39.5,12.1 38.1,12.1 C37.7,12.1 37.3,12.1 36.9,12 L36.7,12 L36.7,15.5 L34.5,15.5 L34.5,15.5 Z M38.3,5.2 C37.9,5.2 37.5,5.3 37,5.5 L36.8,5.6 L36.8,10.1 C37.3,10.2 37.7,10.2 38,10.2 C38.7,10.2 39.1,10 39.4,9.6 C39.6,9.2 39.8,8.6 39.8,7.6 C39.7,6 39.3,5.2 38.3,5.2 Z" id="Shape"></path>
                    <path d="M50.3,6.1 L50.3,9.6 C50.3,9.9 50.4,10.1 50.4,10.2 C50.5,10.3 50.6,10.4 50.8,10.4 L50.7,12.1 C50.1,12.1 49.7,12.1 49.3,12 C49,11.9 48.6,11.8 48.3,11.5 C47.5,11.9 46.7,12.1 45.8,12.1 C44,12.1 43.2,11.2 43.2,9.3 C43.2,8.4 43.4,7.8 43.9,7.4 C44.4,7 45.1,6.8 46.1,6.7 L47.9,6.6 L47.9,6.1 C47.9,5.7 47.8,5.5 47.7,5.4 C47.5,5.3 47.3,5.2 46.9,5.2 L43.7,5.3 L43.6,3.7 C44.8,3.4 46,3.2 47.1,3.2 C48.2,3.2 49,3.4 49.5,3.9 C50,4.3 50.3,5.1 50.3,6.1 Z M46.4,8.3 C45.8,8.4 45.4,8.7 45.4,9.3 C45.4,9.9 45.7,10.2 46.2,10.2 C46.6,10.2 47.1,10.1 47.6,10 L47.9,9.9 L47.9,8.1 L46.4,8.3 Z" id="Shape"></path>
                    <path d="M52.4,2.3 L52.4,0 L54.7,0 L54.7,2.3 L52.4,2.3 Z M52.4,11.9 L52.4,3.4 L54.7,3.4 L54.7,11.9 L52.4,11.9 Z" id="Shape"></path>
                    <path d="M56.8,11.9 L56.8,3.4 L59.1,3.4 L59.1,4.3 C60.1,3.7 61,3.4 61.8,3.2 L61.8,5.5 C60.9,5.7 60.1,5.9 59.4,6.1 L59.1,6.2 L59.1,11.9 L56.8,11.9 Z" id="Path"></path>
                    <path d="M63.2,2.3 L63.2,0 L65.5,0 L65.5,2.3 L63.2,2.3 Z M63.2,11.9 L63.2,3.4 L65.5,3.4 L65.5,11.9 L63.2,11.9 Z" id="Shape"></path>
                    <path d="M69.8,11.9 L67.5,11.9 L67.5,3.4 L69.8,3.4 L69.8,3.9 C70.6,3.4 71.3,3.2 71.9,3.2 C73,3.2 73.8,3.5 74.2,4.2 C74.6,4.9 74.8,5.9 74.8,7.3 L74.8,11.9 L72.5,11.9 L72.5,7.4 C72.5,6.7 72.4,6.1 72.2,5.8 C72,5.5 71.7,5.3 71.2,5.3 C70.7,5.3 70.3,5.4 69.9,5.5 L69.7,5.6 L69.7,11.9 L69.8,11.9 Z" id="Path"></path>
                    <path d="M84.6,13 C84.6,14 84.2,14.7 83.5,15.2 C82.8,15.7 81.7,15.9 80.5,15.9 C79.2,15.9 78.2,15.7 77.6,15.4 C76.9,15.1 76.6,14.4 76.6,13.5 C76.6,12.8 77,12.1 77.8,11.5 C77.4,11.2 77.2,10.8 77.2,10.2 C77.2,10 77.4,9.6 77.7,9.1 L77.9,8.9 C77.1,8.3 76.7,7.5 76.7,6.4 C76.7,5.3 77,4.5 77.7,4 C78.4,3.5 79.2,3.3 80.3,3.3 C80.8,3.3 81.3,3.4 81.7,3.5 L82,3.6 L84.7,3.5 L84.7,5.3 L83.4,5.2 C83.6,5.6 83.8,6 83.8,6.4 C83.8,7.5 83.5,8.3 82.9,8.7 C82.3,9.1 81.4,9.3 80.2,9.3 C79.9,9.3 79.7,9.3 79.5,9.2 C79.4,9.5 79.3,9.7 79.3,9.9 C79.3,10.1 79.4,10.2 79.6,10.3 C79.8,10.4 80.2,10.4 81,10.4 C82.4,10.4 83.4,10.6 83.9,11 C84.4,11.4 84.6,12 84.6,13 Z M78.8,13.2 C78.8,13.7 79.4,13.9 80.6,13.9 C81.8,13.9 82.4,13.6 82.4,13 C82.4,12.7 82.3,12.5 82.1,12.4 C81.9,12.3 81.5,12.3 80.8,12.3 L79.3,12.2 C78.9,12.6 78.8,12.9 78.8,13.2 Z M78.9,6.3 C78.9,7.1 79.3,7.5 80.2,7.5 C81.1,7.5 81.5,7.1 81.5,6.3 C81.5,5.5 81.1,5.1 80.2,5.1 C79.3,5.1 78.9,5.4 78.9,6.3 Z" id="Shape"></path>
                    <polygon id="Path" points="85.3 14 86.2 9.6 88.7 9.6 87.2 14"></polygon>
                    <path d="M14.5,23.1 L14.5,26.6 C14.5,26.9 14.6,27.1 14.6,27.2 C14.7,27.3 14.8,27.4 15,27.4 L14.9,29.1 C14.3,29.1 13.9,29.1 13.5,29 C13.2,28.9 12.8,28.8 12.5,28.5 C11.7,28.9 10.9,29.1 10,29.1 C8.2,29.1 7.4,28.2 7.4,26.3 C7.4,25.4 7.6,24.8 8.1,24.4 C8.6,24 9.3,23.8 10.3,23.7 L12.1,23.6 L12.1,23.1 C12.1,22.7 12,22.5 11.9,22.4 C11.7,22.3 11.5,22.2 11.1,22.2 L7.9,22.3 L7.8,20.7 C9,20.4 10.2,20.2 11.3,20.2 C12.4,20.2 13.2,20.4 13.7,20.9 C14.2,21.3 14.5,22.1 14.5,23.1 Z M10.6,25.3 C10,25.4 9.6,25.7 9.6,26.3 C9.6,26.9 9.9,27.2 10.4,27.2 C10.8,27.2 11.3,27.1 11.8,27 L12.1,26.9 L12.1,25.1 L10.6,25.3 Z" id="Shape"></path>
                    <polygon id="Path" points="19.7 20.4 21.9 20.4 22.9 27 23.3 27 24.6 20.6 26.9 20.6 28.2 27 28.6 27 29.6 20.4 31.8 20.4 30.2 28.9 26.6 28.9 25.6 23.7 24.6 28.9 21 28.9"></polygon>
                    <path d="M34,21.4 C34.6,20.6 35.6,20.2 37,20.2 C38.4,20.2 39.4,20.6 40,21.4 C40.6,22.2 40.9,23.3 40.9,24.7 C40.9,27.7 39.6,29.2 37,29.2 C34.4,29.2 33.1,27.7 33.1,24.7 C33.1,23.2 33.4,22.1 34,21.4 Z M35.7,26.6 C35.9,27 36.3,27.2 36.9,27.2 C37.5,27.2 37.9,27 38.1,26.6 C38.3,26.2 38.4,25.6 38.4,24.7 C38.4,23.8 38.3,23.2 38.1,22.8 C37.9,22.4 37.5,22.2 36.9,22.2 C36.3,22.2 35.9,22.4 35.7,22.8 C35.5,23.2 35.4,23.8 35.4,24.7 C35.4,25.6 35.5,26.2 35.7,26.6 Z" id="Shape"></path>
                    <path d="M42.6,28.9 L42.6,20.4 L44.9,20.4 L44.9,21.3 C45.9,20.7 46.8,20.4 47.6,20.2 L47.6,22.5 C46.7,22.7 45.9,22.9 45.2,23.1 L44.9,23.2 L44.9,28.9 L42.6,28.9 Z" id="Path"></path>
                    <polygon id="Path" points="49 28.9 49 17 51.3 17 51.3 28.9"></polygon>
                    <path d="M60.7,17 L60.7,28.9 L58.4,28.9 L58.4,28.5 C57.6,28.9 56.9,29.1 56.3,29.1 C55.1,29.1 54.2,28.7 53.7,28 C53.2,27.3 53,26.2 53,24.6 C53,23.1 53.3,21.9 53.9,21.2 C54.5,20.5 55.4,20.1 56.5,20.1 C56.9,20.1 57.4,20.2 58,20.3 L58.3,20.4 L58.3,17 L60.7,17 Z M58.2,26.9 L58.4,26.8 L58.4,22.3 C57.8,22.2 57.2,22.1 56.7,22.1 C55.8,22.1 55.3,22.9 55.3,24.5 C55.3,25.4 55.4,26 55.6,26.4 C55.8,26.8 56.1,27 56.6,27 C57.1,27 57.7,27 58.2,26.9 Z" id="Shape"></path>
                    <path d="M0.9,38.4 C1.5,37.6 2.5,37.2 3.9,37.2 C5.3,37.2 6.3,37.6 6.9,38.4 C7.5,39.2 7.8,40.3 7.8,41.7 C7.8,44.7 6.5,46.2 3.9,46.2 C1.3,46.2 0,44.7 0,41.7 C0,40.2 0.3,39.1 0.9,38.4 Z M2.7,43.6 C2.9,44 3.3,44.2 3.9,44.2 C4.5,44.2 4.9,44 5.1,43.6 C5.3,43.2 5.4,42.6 5.4,41.7 C5.4,40.8 5.3,40.2 5.1,39.8 C4.9,39.4 4.5,39.2 3.9,39.2 C3.3,39.2 2.9,39.4 2.7,39.8 C2.5,40.2 2.4,40.8 2.4,41.7 C2.4,42.6 2.5,43.2 2.7,43.6 Z" id="Shape"></path>
                    <path d="M12.2,39.4 L12.2,46 L9.9,46 L9.9,39.4 L9,39.4 L9,37.5 L9.9,37.5 L9.9,37 C9.9,35.8 10.1,34.9 10.4,34.5 C10.8,34 11.4,33.8 12.3,33.8 C12.7,33.8 13.2,33.9 13.9,34 L14.3,34.1 L14.3,36 C13.8,36 13.4,36 13,36 C12.6,36 12.4,36.1 12.3,36.3 C12.2,36.5 12.1,36.8 12.1,37.2 L12.1,37.6 L14.2,37.6 L14.2,39.5 L12.2,39.5 L12.2,39.4 Z" id="Path"></path>
                    <path d="M26.6,34 L26.6,45.9 L24.3,45.9 L24.3,45.5 C23.5,45.9 22.8,46.1 22.2,46.1 C21,46.1 20.1,45.7 19.6,45 C19.1,44.3 18.9,43.2 18.9,41.6 C18.9,40.1 19.2,38.9 19.8,38.2 C20.4,37.5 21.3,37.1 22.4,37.1 C22.8,37.1 23.3,37.2 23.9,37.3 L24.2,37.4 L24.2,34 L26.6,34 Z M24,43.9 L24.2,43.8 L24.2,39.3 C23.6,39.2 23,39.1 22.5,39.1 C21.6,39.1 21.1,39.9 21.1,41.5 C21.1,42.4 21.2,43 21.4,43.4 C21.6,43.8 21.9,44 22.4,44 C22.9,44 23.5,44 24,43.9 Z" id="Shape"></path>
                    <path d="M28.7,36.3 L28.7,34 L31,34 L31,36.3 L28.7,36.3 Z M28.7,45.9 L28.7,37.4 L31,37.4 L31,45.9 L28.7,45.9 Z" id="Shape"></path>
                    <path d="M35.7,39.4 L35.7,46 L33.4,46 L33.4,39.4 L32.5,39.4 L32.5,37.5 L33.4,37.5 L33.4,37 C33.4,35.8 33.6,34.9 33.9,34.5 C34.3,34 34.9,33.8 35.8,33.8 C36.2,33.8 36.7,33.9 37.4,34 L37.8,34.1 L37.8,36 C37.3,36 36.9,36 36.5,36 C36.1,36 35.9,36.1 35.8,36.3 C35.7,36.5 35.6,36.8 35.6,37.2 L35.6,37.6 L37.7,37.6 L37.7,39.5 L35.7,39.5 L35.7,39.4 Z" id="Path"></path>
                    <path d="M41.8,39.4 L41.8,46 L39.5,46 L39.5,39.4 L38.6,39.4 L38.6,37.5 L39.5,37.5 L39.5,37 C39.5,35.8 39.7,34.9 40,34.5 C40.4,34 41,33.8 41.9,33.8 C42.3,33.8 42.8,33.9 43.5,34 L43.9,34.1 L43.9,36 C43.4,36 43,36 42.6,36 C42.2,36 42,36.1 41.9,36.3 C41.8,36.5 41.7,36.8 41.7,37.2 L41.7,37.6 L43.8,37.6 L43.8,39.5 L41.8,39.5 L41.8,39.4 Z" id="Path"></path>
                    <path d="M47.4,43.8 C47.7,44 48,44.1 48.5,44.1 C49.6,44.1 50.5,44.1 51.3,44 L51.8,43.9 L51.8,45.6 C50.5,45.9 49.3,46.1 48.3,46.1 C47,46.1 46.1,45.8 45.5,45.1 C44.9,44.4 44.6,43.3 44.6,41.8 C44.6,38.8 45.9,37.2 48.4,37.2 C50.9,37.2 52.1,38.5 52.1,41 L51.9,42.6 L46.9,42.6 C47,43.2 47.1,43.5 47.4,43.8 Z M49.9,40.9 C49.9,40.2 49.8,39.7 49.6,39.5 C49.4,39.2 49,39.1 48.5,39.1 C48,39.1 47.6,39.2 47.4,39.5 C47.2,39.8 47.1,40.2 47.1,40.9 L49.9,40.9 Z" id="Shape"></path>
                    <path d="M53.8,45.9 L53.8,37.4 L56.1,37.4 L56.1,38.3 C57.1,37.7 58,37.4 58.8,37.2 L58.8,39.5 C57.9,39.7 57.1,39.9 56.4,40.1 L56.1,40.2 L56.1,45.9 L53.8,45.9 Z" id="Path"></path>
                    <path d="M62.4,43.8 C62.7,44 63,44.1 63.5,44.1 C64.6,44.1 65.5,44.1 66.3,44 L66.8,43.9 L66.8,45.6 C65.5,45.9 64.3,46.1 63.3,46.1 C62,46.1 61.1,45.8 60.5,45.1 C59.9,44.4 59.6,43.3 59.6,41.8 C59.6,38.8 60.9,37.2 63.4,37.2 C65.9,37.2 67.1,38.5 67.1,41 L66.9,42.6 L61.9,42.6 C62,43.2 62.1,43.5 62.4,43.8 Z M64.9,40.9 C64.9,40.2 64.8,39.7 64.6,39.5 C64.4,39.2 64,39.1 63.5,39.1 C63,39.1 62.6,39.2 62.4,39.5 C62.2,39.8 62.1,40.2 62.1,40.9 L64.9,40.9 Z" id="Shape"></path>
                    <path d="M71.1,45.9 L68.8,45.9 L68.8,37.4 L71.1,37.4 L71.1,37.9 C71.9,37.4 72.6,37.2 73.2,37.2 C74.3,37.2 75.1,37.5 75.5,38.2 C75.9,38.9 76.1,39.9 76.1,41.3 L76.1,45.9 L73.8,45.9 L73.8,41.4 C73.8,40.7 73.7,40.1 73.5,39.8 C73.3,39.5 73,39.3 72.5,39.3 C72,39.3 71.6,39.4 71.2,39.5 L71,39.6 L71,45.9 L71.1,45.9 Z" id="Path"></path>
                    <path d="M81.4,37.2 C82,37.2 82.7,37.3 83.7,37.5 L84.2,37.6 L84.1,39.4 C83.2,39.3 82.5,39.3 82.1,39.3 C81.3,39.3 80.8,39.5 80.5,39.8 C80.2,40.1 80.1,40.8 80.1,41.7 C80.1,42.6 80.2,43.3 80.5,43.6 C80.8,43.9 81.3,44.1 82.1,44.1 L84.1,44 L84.2,45.8 C83,46 82.1,46.2 81.4,46.2 C80.1,46.2 79.2,45.8 78.7,45.1 C78.2,44.4 77.9,43.3 77.9,41.7 C77.9,40.1 78.2,39 78.7,38.3 C79.2,37.6 80.1,37.2 81.4,37.2 Z" id="Path"></path>
                    <path d="M88,43.8 C88.3,44 88.6,44.1 89.1,44.1 C90.2,44.1 91.1,44.1 91.9,44 L92.4,43.9 L92.4,45.6 C91.1,45.9 89.9,46.1 88.9,46.1 C87.6,46.1 86.7,45.8 86.1,45.1 C85.5,44.4 85.2,43.3 85.2,41.8 C85.2,38.8 86.5,37.2 89,37.2 C91.5,37.2 92.7,38.5 92.7,41 L92.5,42.6 L87.5,42.6 C87.6,43.2 87.7,43.5 88,43.8 Z M90.5,40.9 C90.5,40.2 90.4,39.7 90.2,39.5 C90,39.2 89.6,39.1 89.1,39.1 C88.6,39.1 88.2,39.2 88,39.5 C87.8,39.8 87.7,40.2 87.7,40.9 L90.5,40.9 Z" id="Shape"></path>
                </g>
            </g>
        </g>
    </g>
</svg>