<?xml version="1.0" encoding="UTF-8"?>
<svg width="207px" height="98px" viewBox="0 0 207 98" version="1.1" xmlns="http://www.w3.org/2000/svg" xmlns:xlink="http://www.w3.org/1999/xlink">
    <title>LABEL without logo (right) DE</title>
    <g id="Desktop" stroke="none" stroke-width="1" fill="none" fill-rule="evenodd">
        <g id="Artboard" transform="translate(-165.000000, -428.000000)" fill-rule="nonzero">
            <g id="LABEL-without-logo-(right)-DE" transform="translate(165.000000, 428.000000)">
                <g id="Group" fill="#71B8C5">
                    <path d="M206.57,0 L49.28,0 C22.06,0.04 0,21.76 0,48.55 C0,75.34 22.06,97.06 49.28,97.1 L206.57,97.1 L206.57,0 Z" id="Path"></path>
                </g>
                <g id="Group" transform="translate(64.000000, 25.000000)" fill="#FFFFFF">
                    <path d="M15.7,8 L15.7,11.9 L13.4,11.9 L13.4,0.3 L17.9,0.3 C20.6,0.3 22,1.6 22,4.1 C22,5.6 21.4,6.7 20.3,7.4 L21.9,11.8 L19.3,11.8 L18,7.9 L15.7,7.9 L15.7,8 Z M19.1,5.5 C19.4,5.2 19.5,4.7 19.5,4.2 C19.5,3.7 19.4,3.2 19.1,2.9 C18.8,2.6 18.4,2.4 17.9,2.4 L15.8,2.4 L15.8,6.1 L18,6.1 C18.4,6 18.8,5.9 19.1,5.5 Z" id="Shape"></path>
                    <path d="M25.4,9.8 C25.7,10 26,10.1 26.5,10.1 C27.6,10.1 28.5,10.1 29.3,10 L29.8,9.9 L29.8,11.6 C28.5,11.9 27.3,12.1 26.3,12.1 C25,12.1 24.1,11.8 23.5,11.1 C22.9,10.4 22.6,9.3 22.6,7.8 C22.6,4.8 23.9,3.2 26.4,3.2 C28.9,3.2 30.1,4.5 30.1,7 L29.9,8.6 L24.9,8.6 C25,9.2 25.1,9.5 25.4,9.8 Z M27.9,6.9 C27.9,6.2 27.8,5.7 27.6,5.5 C27.4,5.2 27,5.1 26.5,5.1 C26,5.1 25.6,5.2 25.4,5.5 C25.2,5.8 25.1,6.2 25.1,6.9 L27.9,6.9 Z" id="Shape"></path>
                    <path d="M31.4,15.5 L31.4,3.4 L33.7,3.4 L33.7,3.9 C34.4,3.5 35.1,3.2 35.6,3.2 C36.7,3.2 37.6,3.5 38.1,4.2 C38.6,4.9 38.9,6.1 38.9,7.7 C38.9,9.3 38.6,10.5 38,11.1 C37.4,11.7 36.4,12.1 35,12.1 C34.6,12.1 34.2,12.1 33.8,12 L33.6,12 L33.6,15.5 L31.4,15.5 L31.4,15.5 Z M35.1,5.2 C34.7,5.2 34.3,5.3 33.8,5.5 L33.6,5.6 L33.6,10.1 C34.1,10.2 34.5,10.2 34.8,10.2 C35.5,10.2 35.9,10 36.2,9.6 C36.4,9.2 36.6,8.6 36.6,7.6 C36.6,6 36.1,5.2 35.1,5.2 Z" id="Shape"></path>
                    <path d="M46.7,6.1 L46.7,9.6 C46.7,9.9 46.8,10.1 46.8,10.2 C46.9,10.3 47,10.4 47.2,10.4 L47.1,12.1 C46.5,12.1 46.1,12.1 45.7,12 C45.4,11.9 45,11.8 44.7,11.5 C43.9,11.9 43.1,12.1 42.2,12.1 C40.4,12.1 39.6,11.2 39.6,9.3 C39.6,8.4 39.8,7.8 40.3,7.4 C40.8,7 41.5,6.8 42.5,6.7 L44.3,6.6 L44.3,6.1 C44.3,5.7 44.2,5.5 44.1,5.4 C43.9,5.3 43.7,5.2 43.3,5.2 L40.1,5.3 L40,3.7 C41.2,3.4 42.4,3.2 43.5,3.2 C44.6,3.2 45.4,3.4 45.9,3.9 C46.5,4.3 46.7,5.1 46.7,6.1 Z M42.9,8.3 C42.3,8.4 41.9,8.7 41.9,9.3 C41.9,9.9 42.2,10.2 42.7,10.2 C43.1,10.2 43.6,10.1 44.1,10 L44.4,9.9 L44.4,8.1 L42.9,8.3 Z" id="Shape"></path>
                    <path d="M48.4,11.9 L48.4,3.4 L50.7,3.4 L50.7,4.3 C51.7,3.7 52.6,3.4 53.4,3.2 L53.4,5.5 C52.5,5.7 51.7,5.9 51,6.1 L50.7,6.2 L50.7,11.9 L48.4,11.9 Z" id="Path"></path>
                    <path d="M54.3,2.3 L54.3,0 L56.6,0 L56.6,2.3 L54.3,2.3 Z M54.3,11.9 L54.3,3.4 L56.6,3.4 L56.6,11.9 L54.3,11.9 Z" id="Shape"></path>
                    <path d="M60.6,9.8 C60.9,10 61.2,10.1 61.7,10.1 C62.8,10.1 63.7,10.1 64.5,10 L65,9.9 L65,11.6 C63.7,11.9 62.5,12.1 61.5,12.1 C60.2,12.1 59.3,11.8 58.7,11.1 C58.1,10.4 57.8,9.3 57.8,7.8 C57.8,4.8 59.1,3.2 61.6,3.2 C64.1,3.2 65.3,4.5 65.3,7 L65.1,8.6 L60.1,8.6 C60.2,9.2 60.3,9.5 60.6,9.8 Z M63.1,6.9 C63.1,6.2 63,5.7 62.8,5.5 C62.6,5.2 62.2,5.1 61.7,5.1 C61.2,5.1 60.8,5.2 60.6,5.5 C60.4,5.8 60.3,6.2 60.3,6.9 L63.1,6.9 Z" id="Shape"></path>
                    <path d="M66.6,11.9 L66.6,3.4 L68.9,3.4 L68.9,4.3 C69.9,3.7 70.8,3.4 71.6,3.2 L71.6,5.5 C70.7,5.7 69.9,5.9 69.2,6.1 L68.9,6.2 L68.9,11.9 L66.6,11.9 Z" id="Path"></path>
                    <path d="M74.7,9.8 C75,10 75.3,10.1 75.8,10.1 C76.9,10.1 77.8,10.1 78.6,10 L79.1,9.9 L79.1,11.6 C77.8,11.9 76.6,12.1 75.6,12.1 C74.3,12.1 73.4,11.8 72.8,11.1 C72.2,10.4 71.9,9.3 71.9,7.8 C71.9,4.8 73.2,3.2 75.7,3.2 C78.2,3.2 79.4,4.5 79.4,7 L79.2,8.6 L74.2,8.6 C74.3,9.2 74.5,9.5 74.7,9.8 Z M77.2,6.9 C77.2,6.2 77.1,5.7 76.9,5.5 C76.7,5.2 76.3,5.1 75.8,5.1 C75.3,5.1 74.9,5.2 74.7,5.5 C74.5,5.8 74.4,6.2 74.4,6.9 L77.2,6.9 Z" id="Shape"></path>
                    <path d="M83,11.9 L80.7,11.9 L80.7,3.4 L83,3.4 L83,3.9 C83.8,3.4 84.5,3.2 85.1,3.2 C86.2,3.2 87,3.5 87.4,4.2 C87.8,4.9 88,5.9 88,7.3 L88,11.9 L85.7,11.9 L85.7,7.4 C85.7,6.7 85.6,6.1 85.4,5.8 C85.2,5.5 84.9,5.3 84.4,5.3 C83.9,5.3 83.5,5.4 83.1,5.5 L82.9,5.6 L82.9,11.9 L83,11.9 Z" id="Path"></path>
                    <polygon id="Path" points="89.6 8.4 89.6 6.3 94.6 6.3 94.6 8.4"></polygon>
                    <path d="M8.8,26.8 C9.1,27 9.4,27.1 9.9,27.1 C11,27.1 11.9,27.1 12.7,27 L13.2,26.9 L13.2,28.6 C11.9,28.9 10.7,29.1 9.7,29.1 C8.4,29.1 7.5,28.8 6.9,28.1 C6.3,27.4 6,26.3 6,24.8 C6,21.8 7.3,20.2 9.8,20.2 C12.3,20.2 13.5,21.5 13.5,24 L13.3,25.6 L8.3,25.6 C8.4,26.2 8.5,26.5 8.8,26.8 Z M11.3,23.9 C11.3,23.2 11.2,22.7 11,22.5 C10.8,22.2 10.4,22.1 9.9,22.1 C9.4,22.1 9,22.2 8.8,22.5 C8.6,22.8 8.5,23.2 8.5,23.9 L11.3,23.9 Z" id="Shape"></path>
                    <path d="M14.8,19.3 L14.8,17 L17.1,17 L17.1,19.3 L14.8,19.3 Z M14.8,28.9 L14.8,20.4 L17.1,20.4 L17.1,28.9 L14.8,28.9 Z" id="Shape"></path>
                    <path d="M21,28.9 L18.7,28.9 L18.7,20.4 L21,20.4 L21,20.9 C21.8,20.4 22.5,20.2 23.1,20.2 C24.2,20.2 25,20.5 25.4,21.2 C25.8,21.9 26,22.9 26,24.3 L26,28.9 L23.7,28.9 L23.7,24.4 C23.7,23.7 23.6,23.1 23.4,22.8 C23.2,22.5 22.9,22.3 22.4,22.3 C21.9,22.3 21.5,22.4 21.1,22.5 L20.9,22.6 L20.9,28.9 L21,28.9 Z" id="Path"></path>
                    <path d="M30,26.8 C30.3,27 30.6,27.1 31.1,27.1 C32.2,27.1 33.1,27.1 33.9,27 L34.4,26.9 L34.4,28.6 C33.1,28.9 31.9,29.1 30.9,29.1 C29.6,29.1 28.7,28.8 28.1,28.1 C27.5,27.4 27.2,26.3 27.2,24.8 C27.2,21.8 28.5,20.2 31,20.2 C33.5,20.2 34.7,21.5 34.7,24 L34.5,25.6 L29.5,25.6 C29.6,26.2 29.7,26.5 30,26.8 Z M32.5,23.9 C32.5,23.2 32.4,22.7 32.2,22.5 C32,22.2 31.6,22.1 31.1,22.1 C30.6,22.1 30.2,22.2 30,22.5 C29.8,22.8 29.7,23.2 29.7,23.9 L32.5,23.9 Z" id="Shape"></path>
                    <polygon id="Path" points="38.5 17.4 41 17.4 42.4 27 42.7 27 44.8 17.4 47.5 17.4 49.6 27 49.9 27 51.3 17.4 53.8 17.4 51.6 29 48 29 46.2 20.2 44.4 29 40.8 29"></polygon>
                    <path d="M56.6,26.8 C56.9,27 57.2,27.1 57.7,27.1 C58.8,27.1 59.7,27.1 60.5,27 L61,26.9 L61,28.6 C59.7,28.9 58.5,29.1 57.5,29.1 C56.2,29.1 55.3,28.8 54.7,28.1 C54.1,27.4 53.8,26.3 53.8,24.8 C53.8,21.8 55.1,20.2 57.6,20.2 C60.1,20.2 61.3,21.5 61.3,24 L61.1,25.6 L56.1,25.6 C56.2,26.2 56.3,26.5 56.6,26.8 Z M59.1,23.9 C59.1,23.2 59,22.7 58.8,22.5 C58.6,22.2 58.2,22.1 57.7,22.1 C57.2,22.1 56.8,22.2 56.6,22.5 C56.4,22.8 56.3,23.2 56.3,23.9 L59.1,23.9 Z" id="Shape"></path>
                    <polygon id="Path" points="62.7 28.9 62.7 17 65 17 65 28.9"></polygon>
                    <path d="M71.4,22.4 L69.3,22.4 L69.3,25.9 C69.3,26.2 69.3,26.5 69.3,26.6 C69.3,26.7 69.4,26.9 69.5,27 C69.6,27.1 69.8,27.2 70,27.2 L71.3,27.2 L71.4,29 C70.6,29.2 70.1,29.3 69.7,29.3 C68.7,29.3 68,29.1 67.6,28.6 C67.2,28.1 67,27.3 67,26.1 L67,22.6 L66,22.6 L66,20.7 L67,20.7 L67,18 L69.3,18 L69.3,20.4 L71.4,20.4 L71.4,22.4 L71.4,22.4 Z" id="Path"></path>
                    <polygon id="Path" points="75 20.4 77.4 20.4 78.8 27 79.3 27 80.7 20.4 83 20.4 81 28.9 77.1 28.9"></polygon>
                    <path d="M84.2,21.4 C84.8,20.6 85.8,20.2 87.2,20.2 C88.6,20.2 89.6,20.6 90.2,21.4 C90.8,22.2 91.1,23.3 91.1,24.7 C91.1,27.7 89.8,29.2 87.2,29.2 C84.6,29.2 83.3,27.7 83.3,24.7 C83.3,23.2 83.6,22.1 84.2,21.4 Z M85.9,26.6 C86.1,27 86.5,27.2 87.1,27.2 C87.7,27.2 88.1,27 88.3,26.6 C88.5,26.2 88.6,25.6 88.6,24.7 C88.6,23.8 88.5,23.2 88.3,22.8 C88.1,22.4 87.7,22.2 87.1,22.2 C86.5,22.2 86.1,22.4 85.9,22.8 C85.7,23.2 85.6,23.8 85.6,24.7 C85.6,25.6 85.7,26.2 85.9,26.6 Z" id="Shape"></path>
                    <polygon id="Path" points="92.4 28.9 92.4 17 94.7 17 94.7 28.9"></polygon>
                    <polygon id="Path" points="96.6 28.9 96.6 17 98.9 17 98.9 28.9"></polygon>
                    <path d="M103,26.8 C103.3,27 103.6,27.1 104.1,27.1 C105.2,27.1 106.1,27.1 106.9,27 L107.4,26.9 L107.4,28.6 C106.1,28.9 104.9,29.1 103.9,29.1 C102.6,29.1 101.7,28.8 101.1,28.1 C100.5,27.4 100.2,26.3 100.2,24.8 C100.2,21.8 101.5,20.2 104,20.2 C106.5,20.2 107.7,21.5 107.7,24 L107.5,25.6 L102.5,25.6 C102.6,26.2 102.7,26.5 103,26.8 Z M105.5,23.9 C105.5,23.2 105.4,22.7 105.2,22.5 C105,22.2 104.6,22.1 104.1,22.1 C103.6,22.1 103.2,22.2 103,22.5 C102.8,22.8 102.7,23.2 102.7,23.9 L105.5,23.9 Z" id="Shape"></path>
                    <path d="M108.9,28.9 L108.9,20.4 L111.2,20.4 L111.2,21.3 C112.2,20.7 113.1,20.4 113.9,20.2 L113.9,22.5 C113,22.7 112.2,22.9 111.5,23.1 L111.2,23.2 L111.2,28.9 L108.9,28.9 Z" id="Path"></path>
                    <path d="M2.3,42.1 C2.3,43.4 3,44.1 4.4,44.1 C5.8,44.1 6.5,43.4 6.5,42.1 L6.5,34.4 L8.8,34.4 L8.8,42 C8.8,43.4 8.4,44.5 7.7,45.1 C7,45.8 5.9,46.1 4.4,46.1 C2.9,46.1 1.8,45.8 1.1,45.1 C0.4,44.4 5.68434189e-14,43.4 5.68434189e-14,42 L5.68434189e-14,34.4 L2.3,34.4 L2.3,42.1 Z" id="Path"></path>
                    <path d="M12.8,45.9 L10.5,45.9 L10.5,37.4 L12.8,37.4 L12.8,37.9 C13.6,37.4 14.3,37.2 14.9,37.2 C16,37.2 16.8,37.5 17.2,38.2 C17.6,38.9 17.8,39.9 17.8,41.3 L17.8,45.9 L15.6,45.9 L15.6,41.4 C15.6,40.7 15.5,40.1 15.3,39.8 C15.1,39.5 14.8,39.3 14.3,39.3 C13.8,39.3 13.4,39.4 13,39.5 L12.8,39.6 L12.8,45.9 Z" id="Path"></path>
                    <path d="M24.2,39.4 L22.1,39.4 L22.1,42.9 C22.1,43.2 22.1,43.5 22.1,43.6 C22.1,43.7 22.2,43.9 22.3,44 C22.4,44.1 22.6,44.2 22.8,44.2 L24.1,44.2 L24.2,46 C23.4,46.2 22.9,46.3 22.5,46.3 C21.5,46.3 20.8,46.1 20.4,45.6 C20,45.1 19.8,44.3 19.8,43.1 L19.8,39.6 L18.8,39.6 L18.8,37.7 L19.8,37.7 L19.8,35 L22.1,35 L22.1,37.4 L24.2,37.4 L24.2,39.4 Z" id="Path"></path>
                    <path d="M27.5,43.8 C27.8,44 28.1,44.1 28.6,44.1 C29.7,44.1 30.6,44.1 31.4,44 L31.9,43.9 L31.9,45.6 C30.6,45.9 29.4,46.1 28.4,46.1 C27.1,46.1 26.2,45.8 25.6,45.1 C25,44.4 24.7,43.3 24.7,41.8 C24.7,38.8 26,37.2 28.5,37.2 C31,37.2 32.2,38.5 32.2,41 L32,42.6 L27,42.6 C27.1,43.2 27.2,43.5 27.5,43.8 Z M30,40.9 C30,40.2 29.9,39.7 29.7,39.5 C29.5,39.2 29.1,39.1 28.6,39.1 C28.1,39.1 27.7,39.2 27.5,39.5 C27.3,39.8 27.2,40.2 27.2,40.9 L30,40.9 Z" id="Shape"></path>
                    <path d="M33.5,45.9 L33.5,37.4 L35.8,37.4 L35.8,38.3 C36.8,37.7 37.7,37.4 38.5,37.2 L38.5,39.5 C37.6,39.7 36.8,39.9 36.1,40.1 L35.8,40.2 L35.8,45.9 L33.5,45.9 Z" id="Path"></path>
                    <path d="M45.5,39.5 C44.1,39.3 43.1,39.2 42.5,39.2 C41.9,39.2 41.6,39.3 41.4,39.4 C41.2,39.5 41.2,39.7 41.2,39.9 C41.2,40.1 41.3,40.3 41.5,40.4 C41.7,40.5 42.3,40.6 43.2,40.8 C44.1,41 44.8,41.2 45.1,41.6 C45.5,42 45.7,42.6 45.7,43.4 C45.7,45.2 44.6,46.2 42.3,46.2 C41.6,46.2 40.6,46.1 39.6,45.9 L39.1,45.8 L39.2,43.9 C40.6,44.1 41.6,44.2 42.1,44.2 C42.6,44.2 43,44.1 43.2,44 C43.4,43.9 43.5,43.7 43.5,43.5 C43.5,43.3 43.4,43.1 43.2,43 C43,42.9 42.4,42.8 41.6,42.6 C40.7,42.5 40.1,42.2 39.6,41.9 C39.2,41.5 39,40.9 39,40 C39,39.1 39.3,38.4 39.9,38 C40.5,37.5 41.3,37.3 42.3,37.3 C43,37.3 43.9,37.4 45,37.6 L45.6,37.7 L45.5,39.5 Z" id="Path"></path>
                    <path d="M50.1,37.2 C50.7,37.2 51.4,37.3 52.4,37.5 L52.9,37.6 L52.8,39.4 C51.9,39.3 51.2,39.3 50.8,39.3 C50,39.3 49.5,39.5 49.2,39.8 C48.9,40.1 48.8,40.8 48.8,41.7 C48.8,42.6 48.9,43.3 49.2,43.6 C49.5,43.9 50,44.1 50.8,44.1 L52.8,44 L52.9,45.8 C51.7,46 50.8,46.2 50.1,46.2 C48.8,46.2 47.9,45.8 47.4,45.1 C46.9,44.4 46.6,43.3 46.6,41.7 C46.6,40.1 46.9,39 47.4,38.3 C48,37.6 48.9,37.2 50.1,37.2 Z" id="Path"></path>
                    <path d="M56.4,45.9 L54.1,45.9 L54.1,34 L56.4,34 L56.4,37.8 C57.2,37.4 57.9,37.2 58.5,37.2 C59.6,37.2 60.4,37.5 60.8,38.2 C61.2,38.9 61.4,39.9 61.4,41.3 L61.4,45.9 L59.1,45.9 L59.1,41.3 C59.1,40.6 59,40.1 58.8,39.7 C58.6,39.4 58.3,39.2 57.8,39.2 C57.4,39.2 56.9,39.3 56.5,39.4 L56.3,39.5 L56.3,45.9 L56.4,45.9 Z" id="Path"></path>
                    <path d="M63.1,36.3 L63.1,34 L65.4,34 L65.4,36.3 L63.1,36.3 Z M63.1,45.9 L63.1,37.4 L65.4,37.4 L65.4,45.9 L63.1,45.9 Z" id="Shape"></path>
                    <path d="M69.3,43.8 C69.6,44 69.9,44.1 70.4,44.1 C71.5,44.1 72.4,44.1 73.2,44 L73.7,43.9 L73.7,45.6 C72.4,45.9 71.2,46.1 70.2,46.1 C68.9,46.1 68,45.8 67.4,45.1 C66.8,44.4 66.5,43.3 66.5,41.8 C66.5,38.8 67.8,37.2 70.3,37.2 C72.8,37.2 74,38.5 74,41 L73.8,42.6 L68.8,42.6 C68.9,43.2 69.1,43.5 69.3,43.8 Z M71.9,40.9 C71.9,40.2 71.8,39.7 71.6,39.5 C71.4,39.2 71,39.1 70.5,39.1 C70,39.1 69.6,39.2 69.4,39.5 C69.2,39.8 69.1,40.2 69.1,40.9 L71.9,40.9 Z" id="Shape"></path>
                    <path d="M82.5,34 L82.5,45.9 L80.2,45.9 L80.2,45.5 C79.4,45.9 78.7,46.1 78.1,46.1 C76.9,46.1 76,45.7 75.5,45 C75,44.3 74.8,43.2 74.8,41.6 C74.8,40.1 75.1,38.9 75.7,38.2 C76.3,37.5 77.2,37.1 78.3,37.1 C78.7,37.1 79.2,37.2 79.8,37.3 L80.1,37.4 L80.1,34 L82.5,34 Z M80,43.9 L80.2,43.8 L80.2,39.3 C79.6,39.2 79,39.1 78.5,39.1 C77.6,39.1 77.1,39.9 77.1,41.5 C77.1,42.4 77.2,43 77.4,43.4 C77.6,43.8 77.9,44 78.4,44 C78.9,44 79.5,44 80,43.9 Z" id="Shape"></path>
                    <path d="M86.5,43.8 C86.8,44 87.1,44.1 87.6,44.1 C88.7,44.1 89.6,44.1 90.4,44 L90.9,43.9 L90.9,45.6 C89.6,45.9 88.4,46.1 87.4,46.1 C86.1,46.1 85.2,45.8 84.6,45.1 C84,44.4 83.7,43.3 83.7,41.8 C83.7,38.8 85,37.2 87.5,37.2 C90,37.2 91.2,38.5 91.2,41 L91,42.6 L86,42.6 C86.1,43.2 86.2,43.5 86.5,43.8 Z M89,40.9 C89,40.2 88.9,39.7 88.7,39.5 C88.5,39.2 88.1,39.1 87.6,39.1 C87.1,39.1 86.7,39.2 86.5,39.5 C86.3,39.8 86.2,40.2 86.2,40.9 L89,40.9 Z" id="Shape"></path>
                </g>
            </g>
        </g>
    </g>
</svg>