<svg height="68" viewBox="0 0 246 68" width="246" xmlns="http://www.w3.org/2000/svg"><g fill="none"><g fill="#9c7a97" transform="translate(.765 36.265)"><path d="m25.875 13.005v16.83c-5.43.87-9.45 1.305-12.06 1.305s-4.8375-.2925-6.6825-.8775-3.2925-1.5525-4.3425-2.9025-1.7775-2.94-2.1825-4.77-.6075-4.155-.6075-6.975c0-5.79 1.08-9.84 3.24-12.15s5.805-3.465 10.935-3.465c1.53 0 3.255.1275 5.175.3825s3.45.5025 4.59.7425l1.71.405v7.875c-4.32-.39-7.3875-.585-9.2025-.585s-3 .0825-3.555.2475-.9975.36-1.3275.585-.57.6675-.72 1.3275c-.21.93-.315 2.565-.315 4.905s.27 4.0425.81 5.1075 1.635 1.5975 3.285 1.5975l1.53-.045v-2.25h-1.35l-.045-7.29z"/><path d="m39.2.585v19.755c0 .87.2175 1.485.6525 1.845s1.1625.54 2.1825.54 1.74-.18 2.16-.54.63-.975.63-1.845v-19.755h10.44v19.17c0 4.26-1.065 7.2525-3.195 8.9775s-5.4825 2.5875-10.0575 2.5875-7.9275-.84-10.0575-2.52-3.195-4.635-3.195-8.865v-19.35z"/><path d="m58.285 30.735v-30.15h10.44v30.15z"/><path d="m85.11 30.735h-13.185v-30.15h12.735c5.19 0 8.925 1.17 11.205 3.51s3.42 6.0825 3.42 11.2275-1.095 9-3.285 11.565-5.82 3.8475-10.89 3.8475zm3.645-14.895c0-2.7-.2775-4.5-.8325-5.4s-1.7925-1.35-3.7125-1.35h-1.845v13.14h1.845c1.56 0 2.715-.39 3.465-1.17.72-.78 1.08-2.52 1.08-5.22z"/><path d="m99.38 30.735 6.66-30.15h15.795l6.795 30.15h-10.53l-.855-3.465h-6.885l-.72 3.465zm14.04-21.96-1.71 10.53h4.455l-1.62-10.53z"/><path d="m130.21 30.735v-30.15h10.26l6.93 11.43h.63v-11.43h10.44v30.15h-10.305l-6.84-12.285h-.675v12.285z"/><path d="m183.675 30.15c-3.18.78-6.435 1.17-9.765 1.17s-5.895-.4725-7.695-1.4175-3.0975-2.5275-3.8925-4.7475-1.1925-5.415-1.1925-9.585c0-5.97.9225-10.0575 2.7675-12.2625s5.3625-3.3075 10.5525-3.3075c2.16 0 4.71.3 7.65.9l1.575.315-.27 8.055c-2.46-.3-4.7325-.45-6.8175-.45s-3.4275.3975-4.0275 1.1925-.9 2.4375-.9 4.9275.1425 4.215.4275 5.175.7425 1.5975 1.3725 1.9125 1.65.4725 3.06.4725l7.02-.27z"/><path d="m186.155 30.735v-30.15h22.59v8.325h-12.15v2.565h9.45v8.235h-9.45v2.7h12.15v8.325z"/></g><g fill="#71b8c5" transform="translate(96.85 .85)"><path d="m13.005 22.365h-2.565v7.785h-10.44v-30.15h12.69c4.65 0 7.98.7725 9.99 2.3175s3.015 4.41 3.015 8.595-1.11 7.1775-3.33 8.9775l2.97 10.26h-10.62zm-.045-8.235c1.47 0 2.205-.9825 2.205-2.9475s-.825-2.9475-2.475-2.9475h-2.295v5.895z"/><path d="m28.265 30.15v-30.15h22.59v8.325h-12.15v2.565h9.45v8.235h-9.45v2.7h12.15v8.325z"/><path d="m65.305 23.76h-1.395v6.39h-10.44v-30.15h11.835c4.77 0 8.2425.825 10.4175 2.475s3.2625 4.7475 3.2625 9.2925-1.095 7.68-3.285 9.405-5.655 2.5875-10.395 2.5875zm-1.395-8.235h.945c1.29 0 2.2125-.285 2.7675-.855s.8325-1.545.8325-2.925-.2625-2.31-.7875-2.79-1.4625-.72-2.8125-.72h-.945z"/><path d="m78.18 30.15 6.66-30.15h15.795l6.795 30.15h-10.53l-.855-3.465h-6.885l-.72 3.465zm14.04-21.96-1.71 10.53h4.455l-1.62-10.53z"/><path d="m109.01 30.15v-30.15h10.44v30.15z"/><path d="m135.655 22.365h-2.565v7.785h-10.44v-30.15h12.69c4.65 0 7.98.7725 9.99 2.3175s3.015 4.41 3.015 8.595-1.11 7.1775-3.33 8.9775l2.97 10.26h-10.62zm-.045-8.235c1.47 0 2.205-.9825 2.205-2.9475s-.825-2.9475-2.475-2.9475h-2.295v5.895z"/></g></g></svg>