<?xml version="1.0" encoding="UTF-8"?>
<svg width="200px" height="126px" viewBox="0 0 200 126" version="1.1" xmlns="http://www.w3.org/2000/svg" xmlns:xlink="http://www.w3.org/1999/xlink">
    <title>“</title>
    <g id="Design" stroke="none" stroke-width="1" fill="none" fill-rule="evenodd">
        <g id="Element-page" transform="translate(-612.000000, -8614.000000)" fill="#F9F9F9" fill-rule="nonzero">
            <g id="Group-17" transform="translate(314.740833, 8614.261911)">
                <path d="M324.210557,125 C332.8003,125 340.268249,122.307692 346.614403,116.923077 C352.960557,111.538462 357.03107,104.807692 358.825942,96.7307692 C360.877224,86.9871795 357.992608,78.8461538 350.172095,72.3076923 C342.351583,65.7692308 338.825942,60.4487179 339.595172,56.3461538 C341.518249,47.5 349.210557,38.2692308 362.672095,28.6538462 C371.133634,22.6282051 382.28748,16.2820513 396.133634,9.61538462 L396.133634,9.61538462 L393.249018,0 C380.556711,3.97435897 365.172095,12.3717949 347.095172,25.1923077 C319.78748,44.4230769 303.890044,64.5512821 299.402865,85.5769231 C296.710557,98.1410256 297.960557,107.852564 303.152865,114.711538 C308.345172,121.570513 315.364403,125 324.210557,125 Z M424.979788,125 C434.210557,125 441.870813,122.147436 447.960557,116.442308 C454.0503,110.737179 457.864403,104.230769 459.402865,96.9230769 C461.582352,87.1794872 458.761839,79.0064103 450.941326,72.4038462 C443.120813,65.8012821 439.659275,60.3846154 440.556711,56.1538462 C442.351583,47.6923077 448.505429,39.5833333 459.018249,31.8269231 C469.53107,24.0705128 482.159275,16.6666667 496.902865,9.61538462 L496.902865,9.61538462 L494.018249,0 C480.556711,4.23076923 462.640044,14.4871795 440.268249,30.7692308 C417.896454,47.0512821 404.595172,65.0641026 400.364403,84.8076923 C397.415685,98.6538462 398.729788,108.814103 404.306711,115.288462 C409.883634,121.762821 416.774659,125 424.979788,125 Z" id="“"></path>
            </g>
        </g>
    </g>
</svg>