<?xml version="1.0" encoding="UTF-8"?>
<svg xmlns="http://www.w3.org/2000/svg" xmlns:xlink="http://www.w3.org/1999/xlink" width="139pt" height="139pt" viewBox="0 0 139 139" version="1.1">
<g id="surface1">
<path style=" stroke:none;fill-rule:nonzero;fill:rgb(44.313725%,72.156863%,77.254902%);fill-opacity:1;" d="M 55.558594 31.59375 L 35.175781 31.59375 C 31.65625 31.59375 28.796875 34.4375 28.796875 37.929688 C 28.796875 41.421875 31.65625 44.265625 35.175781 44.265625 L 55.558594 44.265625 C 59.074219 44.265625 61.9375 41.421875 61.9375 37.929688 C 61.9375 34.4375 59.074219 31.59375 55.558594 31.59375 Z M 55.558594 40.222656 L 35.175781 40.222656 C 33.902344 40.222656 32.867188 39.191406 32.867188 37.929688 C 32.867188 36.664062 33.902344 35.636719 35.175781 35.636719 L 55.558594 35.636719 C 56.832031 35.636719 57.867188 36.664062 57.867188 37.929688 C 57.867188 39.191406 56.832031 40.222656 55.558594 40.222656 Z M 55.558594 40.222656 "/>
<path style=" stroke:none;fill-rule:nonzero;fill:rgb(44.313725%,72.156863%,77.254902%);fill-opacity:1;" d="M 69.5 20.699219 L 61.273438 20.699219 C 60.148438 20.699219 59.238281 21.605469 59.238281 22.71875 L 59.238281 23.421875 L 26.636719 23.421875 C 25.003906 23.421875 23.394531 23.964844 22.101562 24.953125 C 20.28125 26.34375 19.195312 28.53125 19.195312 30.808594 L 19.195312 45.050781 C 19.195312 47.328125 20.28125 49.515625 22.101562 50.90625 C 23.394531 51.894531 25.003906 52.4375 26.636719 52.4375 L 59.238281 52.4375 L 59.238281 53.140625 C 59.238281 54.253906 60.148438 55.160156 61.273438 55.160156 L 69.5 55.160156 C 70.625 55.160156 71.535156 54.253906 71.535156 53.140625 L 71.535156 45.398438 L 97.65625 45.398438 L 104.71875 47.996094 C 104.945312 48.078125 105.1875 48.121094 105.425781 48.121094 C 105.582031 48.121094 105.734375 48.105469 105.886719 48.070312 L 117.679688 45.347656 C 118.601562 45.132812 119.253906 44.316406 119.253906 43.375 L 119.253906 32.484375 C 119.253906 31.542969 118.601562 30.726562 117.679688 30.515625 L 105.886719 27.789062 C 105.5 27.703125 105.09375 27.726562 104.71875 27.863281 L 97.65625 30.460938 L 86.816406 30.460938 C 85.691406 30.460938 84.78125 31.367188 84.78125 32.484375 C 84.78125 33.601562 85.691406 34.503906 86.816406 34.503906 L 98.019531 34.503906 C 98.261719 34.503906 98.503906 34.460938 98.730469 34.378906 L 105.558594 31.867188 L 115.183594 34.089844 L 115.183594 41.769531 L 105.558594 43.992188 L 98.730469 41.480469 C 98.503906 41.398438 98.261719 41.355469 98.019531 41.355469 L 71.535156 41.355469 L 71.535156 34.503906 L 77.304688 34.503906 C 78.429688 34.503906 79.339844 33.601562 79.339844 32.484375 C 79.339844 31.367188 78.429688 30.460938 77.304688 30.460938 L 71.535156 30.460938 L 71.535156 22.71875 C 71.535156 21.601562 70.625 20.699219 69.5 20.699219 Z M 67.464844 51.117188 L 63.308594 51.117188 L 63.308594 50.414062 C 63.308594 49.296875 62.398438 48.394531 61.273438 48.394531 L 26.636719 48.394531 C 25.898438 48.394531 25.167969 48.148438 24.582031 47.699219 C 23.761719 47.070312 23.269531 46.082031 23.269531 45.050781 L 23.269531 30.808594 C 23.269531 29.777344 23.761719 28.785156 24.582031 28.160156 C 25.167969 27.710938 25.898438 27.464844 26.636719 27.464844 L 61.273438 27.464844 C 62.398438 27.464844 63.308594 26.558594 63.308594 25.441406 L 63.308594 24.742188 L 67.464844 24.742188 Z M 67.464844 51.117188 "/>
<path style=" stroke:none;fill-rule:nonzero;fill:rgb(20%,20%,20%);fill-opacity:1;" d="M 128.738281 0.484375 L 10.261719 0.484375 C 4.605469 0.484375 0 5.058594 0 10.675781 L 0 97.820312 C 0 103.441406 4.605469 108.011719 10.261719 108.011719 L 48.003906 108.011719 L 45.757812 126.300781 L 40.429688 126.300781 C 39.304688 126.300781 38.394531 127.207031 38.394531 128.324219 L 38.394531 136.492188 C 38.394531 137.609375 39.304688 138.515625 40.429688 138.515625 L 98.023438 138.515625 C 99.144531 138.515625 100.058594 137.609375 100.058594 136.492188 L 100.058594 128.324219 C 100.058594 127.207031 99.144531 126.300781 98.023438 126.300781 L 93.242188 126.300781 L 90.996094 108.011719 L 101.359375 108.011719 C 102.484375 108.011719 103.398438 107.109375 103.398438 105.992188 C 103.398438 104.875 102.484375 103.96875 101.359375 103.96875 L 10.261719 103.96875 C 6.847656 103.96875 4.070312 101.210938 4.070312 97.820312 L 4.070312 91.675781 L 27.417969 91.675781 C 28.539062 91.675781 29.453125 90.769531 29.453125 89.652344 C 29.453125 88.535156 28.539062 87.628906 27.417969 87.628906 L 4.070312 87.628906 L 4.070312 10.675781 C 4.070312 7.289062 6.847656 4.53125 10.261719 4.53125 L 128.738281 4.53125 C 132.152344 4.53125 134.929688 7.289062 134.929688 10.675781 L 134.929688 87.628906 L 36.960938 87.628906 C 35.835938 87.628906 34.925781 88.535156 34.925781 89.652344 C 34.925781 90.769531 35.835938 91.675781 36.960938 91.675781 L 134.929688 91.675781 L 134.929688 97.820312 C 134.929688 101.210938 132.152344 103.96875 128.738281 103.96875 L 110.867188 103.96875 C 109.742188 103.96875 108.832031 104.875 108.832031 105.992188 C 108.832031 107.109375 109.742188 108.011719 110.867188 108.011719 L 128.738281 108.011719 C 134.394531 108.011719 139 103.441406 139 97.820312 L 139 10.675781 C 139 5.058594 134.394531 0.484375 128.738281 0.484375 Z M 95.984375 134.46875 L 42.464844 134.46875 L 42.464844 130.34375 L 95.984375 130.34375 Z M 89.140625 126.300781 L 49.859375 126.300781 L 52.105469 108.011719 L 86.894531 108.011719 Z M 89.140625 126.300781 "/>
<path style=" stroke:none;fill-rule:nonzero;fill:rgb(20%,20%,20%);fill-opacity:1;" d="M 8.226562 64.597656 L 8.226562 72.769531 C 8.226562 73.882812 9.140625 74.789062 10.261719 74.789062 L 128.738281 74.789062 C 129.859375 74.789062 130.773438 73.882812 130.773438 72.769531 L 130.773438 64.597656 C 130.773438 63.480469 129.859375 62.578125 128.738281 62.578125 L 10.261719 62.578125 C 9.140625 62.578125 8.226562 63.480469 8.226562 64.597656 Z M 126.699219 70.746094 L 97.863281 70.746094 L 97.863281 66.621094 L 126.699219 66.621094 Z M 12.300781 66.621094 L 93.792969 66.621094 L 93.792969 70.746094 L 12.300781 70.746094 Z M 12.300781 66.621094 "/>
</g>
</svg>
