<?xml version="1.0" encoding="UTF-8"?>
<svg width="476px" height="399px" viewBox="0 0 476 399" version="1.1" xmlns="http://www.w3.org/2000/svg" xmlns:xlink="http://www.w3.org/1999/xlink">
    <title>Group 4</title>
    <g id="Desktop" stroke="none" stroke-width="1" fill="none" fill-rule="evenodd">
        <g id="01.01-Home-desktop-2-Copy-4" transform="translate(-902.000000, -206.000000)" fill-rule="nonzero">
            <g id="Group-4" transform="translate(902.892839, 206.500000)">
                <g id="001-laptop" transform="translate(0.107161, 87.500000)">
                    <path d="M115.994563,80.6932911 C115.99343,80.6763322 115.993656,80.6595994 115.99207,80.6426405 C115.985953,80.5754831 115.976211,80.5096825 115.962391,80.4452385 C115.961031,80.4389072 115.958992,80.4325759 115.957406,80.4262445 C115.944039,80.3670014 115.9275,80.3091149 115.908016,80.2525851 C115.902805,80.2374351 115.897141,80.2227374 115.891477,80.2078136 C115.872445,80.1564845 115.850922,80.1065122 115.827133,80.0578966 C115.823055,80.0493041 115.820336,80.0404855 115.816031,80.0318929 L106.728156,62.1418071 L106.728156,3.28302227 C106.728156,1.47271328 105.252555,0 103.438695,0 L12.5608516,0 C10.7469922,0 9.27139063,1.47271328 9.27139063,3.28302227 L9.27139063,62.1413549 L0.183742188,80.0316668 C0.1794375,80.0402594 0.17671875,80.049078 0.172640625,80.0576705 C0.148851563,80.1062861 0.127554687,80.1562584 0.108296875,80.2073613 C0.102632813,80.2222852 0.09696875,80.237209 0.0917578125,80.252359 C0.0725,80.3091149 0.055734375,80.3672275 0.0423671875,80.4264707 C0.0410078125,80.4325759 0.03896875,80.4386811 0.037609375,80.4447863 C0.0237890625,80.5094563 0.014046875,80.575257 0.0079296875,80.6424143 C0.00634375,80.6591472 0.00634375,80.6761061 0.0054375,80.6928389 C0.003171875,80.7281135 0,80.7629358 0,80.7986626 L0,85.1008034 C0,87.2509693 1.75246094,89 3.90684375,89 L112.093156,89 C114.247539,89 116,87.2509693 116,85.1008034 L116,80.7986626 C116,80.7629358 115.996828,80.7281135 115.994563,80.6932911 Z M12.6700547,3.39223777 L103.329945,3.39223777 L103.329945,60.8511197 L12.6700547,60.8511197 L12.6700547,3.39223777 Z M12.0143828,64.2426791 L103.985391,64.2426791 L111.534,79.1025437 L74.2010312,79.1025437 L72.3271328,72.32146 C71.9456016,70.9410033 70.6773047,69.9768317 69.2424844,69.9768317 L46.7570625,69.9768317 C45.3222422,69.9768317 44.0537188,70.9410033 43.6724141,72.3212338 L41.7985156,79.1025437 L4.46577344,79.1025437 L12.0143828,64.2426791 Z M70.6757188,79.1027698 L45.3242812,79.1027698 L46.9086328,73.3688433 L69.0913672,73.3688433 L70.6757188,79.1027698 Z M112.601562,85.1005772 C112.601562,85.3802865 112.373414,85.6079884 112.093156,85.6079884 L3.90684375,85.6079884 C3.62658594,85.6079884 3.3984375,85.3802865 3.3984375,85.1005772 L3.3984375,82.4943292 L112.601562,82.4943292 L112.601562,85.1005772 Z" id="Shape" fill="#000000"></path>
                    <path d="M98.3089106,35 C97.3748774,35 96.6180467,35.7493684 96.6180467,36.6741921 L96.6180467,53.6516158 L20.3817278,53.6516158 L20.3817278,36.6741921 C20.3817278,35.7493684 19.6248971,35 18.6908639,35 C17.7568307,35 17,35.7493684 17,36.6741921 L17,54.3746436 C17,55.8222617 18.1892409,57 19.6515,57 L97.3485,57 C98.8105336,57 100,55.8224849 100,54.3746436 L100,36.6741921 C100,35.7498148 99.2429439,35 98.3089106,35 Z" id="Path" fill="#71B8C5"></path>
                    <path d="M97.3484928,7 L19.6515072,7 C18.1894696,7 17,8.17751509 17,9.6253564 L17,27.3258079 C17,28.2506316 17.7568327,29 18.6908685,29 C19.6249043,29 20.381737,28.2506316 20.381737,27.3258079 L20.381737,10.3483842 L96.618263,10.3483842 L96.618263,27.3258079 C96.618263,28.2506316 97.3750957,29 98.3091315,29 C99.2431673,29 100,28.2506316 100,27.3258079 L100,9.6253564 C100,8.17729187 98.8107558,7 97.3484928,7 Z" id="Path" fill="#71B8C5"></path>
                </g>
                <g id="002-mixer-blender" transform="translate(241.709827, 0.000000)">
                    <path d="M96.0861681,11.5137685 C92.8229512,6.60753445 87.3191398,3.66199383 81.4267993,3.66833858 L80.7034488,3.66833858 L80.7034488,1.83416929 C80.7034488,0.821185563 79.8822632,0 78.8692795,0 C77.8562958,0 77.0351102,0.821185563 77.0351102,1.83416929 L77.0351102,3.66833858 L12.839185,3.66833858 C5.75159874,3.67629869 0.00796010943,9.41993733 0,16.5075236 L0,27.5125394 C0.00760591279,33.1876627 3.73427179,38.1868918 9.17084645,39.8150006 L9.17084645,43.5615207 C9.17390132,45.661842 10.7521225,47.4257015 12.839185,47.6613476 L12.839185,51.3567401 L10.0879311,51.3567401 C8.1151727,51.3543344 6.36256342,52.615499 5.73812879,54.4868255 C5.11369416,56.3581521 5.75777647,58.419058 7.33667716,59.6017897 L7.33667716,75.467354 C7.33969655,77.9881666 7.92661015,80.4740153 9.05139618,82.7299766 C10.951071,86.5600358 14.2920202,89.4804909 18.3416929,90.8509904 L18.3416929,95.3768031 L5.50250787,95.3768031 C2.46355669,95.3768031 0,97.8403598 0,100.879311 C0,103.918262 2.46355669,106.381819 5.50250787,106.381819 L5.50250787,108.215988 C5.50250787,109.228972 6.32369344,110.050157 7.33667716,110.050157 L14.6733543,110.050157 C15.1598131,110.050157 15.6263542,109.856945 15.9703413,109.512975 L19.1012683,106.381819 L78.3139848,106.381819 L83.354282,109.742017 C83.6556216,109.942867 84.0096461,110.050157 84.3717874,110.050157 L89.8742953,110.050157 C90.887279,110.050157 91.7084645,109.228972 91.7084645,108.215988 L91.7084645,97.2109724 C91.7084645,97.1880453 91.7057133,97.1637426 91.7047962,97.1398984 C91.7047962,97.1123858 91.702962,97.084644 91.7006693,97.0571315 C91.6972303,97.0149456 91.6914985,96.9736768 91.6850789,96.932408 C91.6825569,96.9159004 91.6818691,96.8993929 91.6788886,96.8828854 L87.8759678,75.9671651 C85.6359812,63.6683089 86.8953489,50.9875657 91.5106035,39.3695267 L96.0861681,32.5062945 C98.0186572,29.6136212 99.0485204,26.2121838 99.04515,22.733382 L99.04515,21.286681 C99.0485204,17.8078792 98.0186572,14.4064418 96.0861681,11.5137685 Z M3.66833858,27.5125394 L3.66833858,16.5075236 C3.67402437,11.444962 7.7766234,7.34236296 12.839185,7.3366692 L81.4267993,7.3366692 C86.0922544,7.33169449 90.4500727,9.66390974 93.0338811,13.54855 C93.2775964,13.9140082 93.5009065,14.2900129 93.7077091,14.6733543 L88.040126,14.6733543 C87.0271422,14.6733543 86.2059567,15.4945399 86.2059567,16.5075236 C86.2059567,17.5205073 87.0271422,18.3416929 88.040126,18.3416929 L95.0624724,18.3416929 C95.2713408,19.3094388 95.3768031,20.2966516 95.3768031,21.286681 L95.3768031,22.0100315 L88.040126,22.0100315 C87.0271422,22.0100315 86.2059567,22.8312171 86.2059567,23.8442008 C86.2059567,24.8571845 87.0271422,25.6783701 88.040126,25.6783701 L95.0624724,25.6783701 C94.7857056,26.9619712 94.3280995,28.1997771 93.7033529,29.3547331 C93.650162,29.3501477 93.5967418,29.3467087 93.5428631,29.3467087 L88.040126,29.3467087 C87.0271422,29.3467087 86.2059567,30.1678942 86.2059567,31.1808779 C86.2059567,32.1938617 87.0271422,33.0150472 88.040126,33.0150472 L91.3381916,33.0150472 L88.8927854,36.6833858 L12.839185,36.6833858 C7.7766234,36.6777 3.67402437,32.575101 3.66833858,27.5125394 Z M64.5501491,53.5118891 C65.5322585,57.1133984 66.030251,60.8297431 66.030251,64.562759 L66.030251,66.2135114 C66.0599002,77.0990377 61.8331365,87.5649494 54.2522056,95.3768031 L47.6884016,95.3768031 L47.6884016,90.8509904 C51.7378008,89.4807725 55.0786961,86.5608591 56.9786983,82.7313522 C58.1034558,80.4752988 58.6903668,77.9893826 58.6934173,75.4685004 L58.6934173,59.602936 C60.2733211,58.4204846 60.9181175,56.3589597 60.29356,54.4870047 C59.6690025,52.6150498 57.9155559,51.3536727 55.9421634,51.3567401 L23.8442008,51.3567401 L23.8442008,47.6884016 L32.5565049,47.6884016 C34.8346184,47.6857484 36.6807327,45.8396342 36.6833858,43.5615207 L36.6833858,40.3517244 L60.9609091,40.3517244 L64.5501491,53.5118891 Z M33.0150472,40.3517244 L33.0150472,43.5615207 C33.0150472,43.8147666 32.8097508,44.020063 32.5565049,44.020063 L13.2977274,44.020063 C13.0444814,44.020063 12.839185,43.8147666 12.839185,43.5615207 L12.839185,40.3517244 L33.0150472,40.3517244 Z M16.5075236,47.6884016 L20.1758622,47.6884016 L20.1758622,51.3567401 L16.5075236,51.3567401 L16.5075236,47.6884016 Z M10.0879311,55.0250787 L55.9421634,55.0250787 C56.4486552,55.0250787 56.859248,55.4356715 56.859248,55.9421634 C56.859248,56.4486552 56.4486552,56.859248 55.9421634,56.859248 L10.0879311,56.859248 C9.58143924,56.859248 9.17084645,56.4486552 9.17084645,55.9421634 C9.17084645,55.4356715 9.58143924,55.0250787 10.0879311,55.0250787 Z M12.3322665,81.0904585 C11.4616576,79.3441053 11.0073692,77.4198342 11.0050157,75.4685004 L11.0050157,60.5275866 L55.0250787,60.5275866 L55.0250787,75.4685004 C55.0226942,77.4199039 54.5684084,79.3442425 53.697828,81.0906878 C51.5808012,85.3611517 47.2198354,88.0563893 42.4534531,88.0401993 L23.5766413,88.0401993 C18.8101923,88.0564007 14.4491869,85.3610497 12.3322665,81.0904585 Z M22.0100315,91.7084645 L44.020063,91.7084645 L44.020063,95.3768031 L22.0100315,95.3768031 L22.0100315,91.7084645 Z M88.040126,106.381819 L84.9270821,106.381819 L79.8867849,103.021621 C79.5854453,102.820771 79.2314208,102.713558 78.8692795,102.71348 L18.3416929,102.71348 C17.8552342,102.713463 17.3886931,102.906693 17.0447059,103.250663 L13.913779,106.381819 L9.17084645,106.381819 L9.17084645,104.54765 C9.17084645,103.534666 8.34966089,102.71348 7.33667716,102.71348 L5.50250787,102.71348 C4.48952414,102.71348 3.66833858,101.892295 3.66833858,100.879311 C3.66833858,99.8663273 4.48952414,99.0451417 5.50250787,99.0451417 L88.040126,99.0451417 L88.040126,106.381819 Z M84.2667812,76.6224221 L87.6765019,95.3768031 L59.1780965,95.3768031 C65.9763326,87.1787679 69.697426,76.8635721 69.6984331,66.2135114 L69.6984331,64.562759 C69.6984251,60.5035819 69.1571609,56.4625287 68.0889495,52.5464282 L64.763142,40.3517244 L87.2202523,40.3517244 C83.0737446,51.9741171 82.0552211,64.482301 84.2667812,76.6224221 L84.2667812,76.6224221 Z" id="Shape" fill="#333333"></path>
                    <path d="M44.0214386,82.5376185 C44.3058159,82.5374953 44.5862397,82.4710006 44.8403952,82.3434254 C47.7173965,80.9169989 49.5332408,77.9790336 49.5226176,74.7678477 L49.5226176,73.3667716 C49.5226176,72.3537879 48.7013853,71.5326023 47.6884016,71.5326023 C46.6754178,71.5326023 45.8542323,72.3537879 45.8542323,73.3667716 L45.8542323,74.7678477 C45.860312,76.5884706 44.8308487,78.2542128 43.1997308,79.0630136 C42.43876,79.4436095 42.039438,80.2975662 42.2352518,81.1255678 C42.4310656,81.9535694 43.1705982,82.5381988 44.0214386,82.5376185 Z" id="Path" fill="#333333"></path>
                    <path d="M47.6884016,69.6984331 C48.7013853,69.6984331 49.5225709,68.8772475 49.5225709,67.8642638 L49.5225709,66.0300945 C49.5225709,65.0171107 48.7013853,64.1959252 47.6884016,64.1959252 C46.6754178,64.1959252 45.8542323,65.0171107 45.8542323,66.0300945 L45.8542323,67.8642638 C45.8542323,68.8772475 46.6754178,69.6984331 47.6884016,69.6984331 Z" id="Path" fill="#333333"></path>
                    <path d="M73.3667716,29.3467087 C77.4187065,29.3467087 80.7034488,26.0619664 80.7034488,22.0100315 C80.7034488,17.9580966 77.4187065,14.6733543 73.3667716,14.6733543 C69.3148367,14.6733543 66.0300945,17.9580966 66.0300945,22.0100315 C66.0346431,26.0600808 69.3167223,29.34216 73.3667716,29.3467087 L73.3667716,29.3467087 Z M73.3667716,18.3416929 C75.3927391,18.3416929 77.0351102,19.984064 77.0351102,22.0100315 C77.0351102,24.0359989 75.3927391,25.6783701 73.3667716,25.6783701 C71.3408042,25.6783701 69.6984331,24.0359989 69.6984331,22.0100315 C69.7008334,19.9850591 71.3417993,18.3440933 73.3667716,18.3416929 Z" id="Shape" fill="#71B8C5"></path>
                    <path d="M55.0250787,29.3467087 C59.0770136,29.3467087 62.3617559,26.0619664 62.3617559,22.0100315 C62.3617559,17.9580966 59.0770136,14.6733543 55.0250787,14.6733543 C50.9731438,14.6733543 47.6884016,17.9580966 47.6884016,22.0100315 C47.6929502,26.0600808 50.9750294,29.34216 55.0250787,29.3467087 Z M55.0250787,18.3416929 C57.0510462,18.3416929 58.6934173,19.984064 58.6934173,22.0100315 C58.6934173,24.0359989 57.0510462,25.6783701 55.0250787,25.6783701 C52.9991113,25.6783701 51.3567401,24.0359989 51.3567401,22.0100315 C51.3591405,19.9850591 53.0001064,18.3440933 55.0250787,18.3416929 L55.0250787,18.3416929 Z" id="Shape" fill="#71B8C5"></path>
                    <path d="M16.5075236,14.6733543 C16.5075236,13.6603706 15.6863381,12.839185 14.6733543,12.839185 L11.0050157,12.839185 C9.99203202,12.839185 9.17084645,13.6603706 9.17084645,14.6733543 C9.17084645,15.6863381 9.99203202,16.5075236 11.0050157,16.5075236 L14.6733543,16.5075236 C15.6863381,16.5075236 16.5075236,15.6863381 16.5075236,14.6733543 Z" id="Path" fill="#333333"></path>
                    <path d="M22.0100315,16.5075236 L31.1808779,16.5075236 C32.1938617,16.5075236 33.0150472,15.6863381 33.0150472,14.6733543 C33.0150472,13.6603706 32.1938617,12.839185 31.1808779,12.839185 L22.0100315,12.839185 C20.9970478,12.839185 20.1758622,13.6603706 20.1758622,14.6733543 C20.1758622,15.6863381 20.9970478,16.5075236 22.0100315,16.5075236 Z" id="Path" fill="#333333"></path>
                </g>
                <g id="003-fan" transform="translate(175.726875, 176.550157)">
                    <path d="M32.7563041,93.455517 L31.8759318,98.2952834 L28.6281338,98.2952834 C24.318299,98.3225102 20.3844362,100.754113 18.4331498,104.597015 L9.55872408,122.364113 C9.5473203,122.391482 9.54275878,122.421132 9.531355,122.448501 C9.51995121,122.47587 9.49714364,122.551135 9.47661683,122.601311 C9.39539797,122.820894 9.34847281,123.051674 9.33749065,123.285538 C9.33749065,123.315188 9.31924459,123.342557 9.31924459,123.374488 L9.31924459,130.216759 C9.31924459,133.995641 12.3826337,137.05903 16.1615157,137.05903 L80.0135902,137.05903 C83.7924721,137.05903 86.8558613,133.995641 86.8558613,130.216759 L86.8558613,123.383611 C86.8558613,123.35168 86.839896,123.324311 86.8376153,123.294661 C86.8266332,123.060797 86.779708,122.830017 86.6984891,122.610434 C86.6779623,122.560258 86.6665585,122.5078 86.6437509,122.457624 C86.6209434,122.407447 86.6277856,122.400605 86.6163819,122.373236 L77.7328331,104.590173 C75.7796644,100.749926 71.8461777,98.3211956 67.5378491,98.2952834 L64.2900511,98.2952834 L63.4096788,93.455517 C85.6311336,85.9499925 99.1481641,63.4563719 95.3450749,40.311989 C91.5419858,17.1676059 71.5377553,0.1822048 48.0829915,0.1822048 C24.6282276,0.1822048 4.62399722,17.1676059 0.820908051,40.311989 C-2.98218112,63.4563719 10.5348492,85.9499925 32.7563041,93.455517 Z M82.2943472,130.225882 C82.2943472,131.485509 81.2732174,132.506639 80.0135902,132.506639 L16.1523927,132.506639 C14.8927654,132.506639 13.8716357,131.485509 13.8716357,130.225882 L13.8716357,125.664368 L82.2943472,125.664368 L82.2943472,130.225882 Z M67.5378491,102.856798 C70.1254275,102.871579 72.4882483,104.329752 73.6616818,106.636012 L80.8871201,121.102854 L15.2788628,121.102854 L22.4997396,106.642854 C23.6728365,104.333219 26.0377028,102.87223 28.6281338,102.856798 L31.048017,102.856798 L30.8564334,103.908227 C30.4916074,105.905753 31.0328502,107.962133 32.3337851,109.521228 C33.6347201,111.080324 35.5609405,111.981056 37.591509,111.979826 L58.5744739,111.979826 C60.6037663,111.979579 62.5282568,111.078575 63.8280712,109.520207 C65.1278858,107.961839 65.6689078,105.906902 65.304988,103.910507 L65.1179659,102.856798 L67.5378491,102.856798 Z M60.8210196,104.729299 C60.9421679,105.395172 60.7613274,106.080457 60.3273985,106.59985 C59.8934699,107.119243 59.2512771,107.419091 58.5744739,107.418313 L37.591509,107.418313 C36.9150253,107.417861 36.2736474,107.117129 35.8406599,106.597368 C35.407672,106.077606 35.2277575,105.392453 35.3495248,104.727018 L37.1741305,94.7099333 C44.3488633,96.4493835 51.8353657,96.4493835 59.0100985,94.7099333 L60.8210196,104.729299 Z M48.0829915,4.78424429 C72.0159108,4.78424429 91.4173754,24.185709 91.4173754,48.1186283 C91.4173754,72.0515476 72.0159108,91.4530123 48.0829915,91.4530123 C24.1500721,91.4530123 4.74860746,72.0515476 4.74860746,48.1186283 C4.7750038,24.1966511 24.1610143,4.81064063 48.0829915,4.78424429 Z" id="Shape" fill="#333333"></path>
                    <path d="M16.4853832,71.2135742 C19.1210308,74.9895383 22.5877335,78.1105851 26.6187868,80.3366024 C28.6559586,81.4519298 30.9030701,82.1308012 33.217017,82.3299841 L33.6457993,82.3299841 C39.4389222,82.3299841 44.1714931,75.4078864 47.7317549,61.7758015 C47.8503542,61.7758015 47.9598306,61.7940476 48.0829915,61.7940476 C51.4081249,61.7938961 54.6182743,60.5770087 57.1079471,58.372912 C59.3873252,60.0388032 60.8403987,62.6043212 61.0969912,65.4158898 C58.8180223,67.1832087 56.1980015,68.4598283 53.4017169,69.1654544 C52.7631049,69.3296689 52.1267737,69.4528297 51.4699157,69.5554638 C50.2932977,69.7394035 49.4562636,70.7976512 49.5482415,71.9850026 C49.6402194,73.1723543 50.6302438,74.089069 51.8211523,74.0896088 C51.9402726,74.0894848 52.0592124,74.0803355 52.1769504,74.0622398 C52.9797768,73.9367981 53.757515,73.7839874 54.5170071,73.590123 C56.9461153,72.9695769 59.2707523,71.9951506 61.4162972,70.6981231 C61.4117181,71.9584307 61.5032134,73.2172537 61.689988,74.463653 C57.5148198,76.7264828 52.831662,77.88746 48.0829915,77.8368927 L47.8093006,77.8368927 C46.5496734,77.8368927 45.5285436,78.8580225 45.5285436,80.1176497 C45.5285436,81.377277 46.5496734,82.3984068 47.8093006,82.3984068 L48.0829915,82.3984068 C53.6882343,82.4504872 59.2116645,81.0519514 64.1167135,78.3386592 C64.8691419,78.7892089 65.7302969,79.0257897 66.6073002,79.0228863 C67.4077508,79.0109828 68.2030796,78.8928722 68.9724453,78.6716498 C74.9503095,77.0751198 80.5267605,71.6651641 83.8908772,64.2162116 C87.1865711,56.917789 87.6723724,49.229357 85.1635396,44.1729186 C82.5018961,38.7355938 74.3231013,37.9715402 60.2234612,41.8283003 C58.5999484,38.7117735 55.844701,36.3352092 52.5236254,35.1867358 C52.9036395,32.3782823 54.462328,29.8648036 56.8091679,28.2760419 C59.4221583,29.3987241 61.7877055,31.0263941 63.7700385,33.0656317 C64.2542402,33.5731093 64.7110398,34.1060424 65.1384927,34.6621617 C65.9119038,35.6572671 67.3455699,35.836986 68.3406756,35.0635749 C69.3357811,34.2901636 69.5154999,32.8564977 68.7420888,31.861392 C68.2134262,31.1791336 67.6500986,30.5244556 67.0543286,29.8999409 C65.3304029,28.1256639 63.3638669,26.6044972 61.2133098,25.3817612 C62.2965328,24.7642232 63.325084,24.0553774 64.2877703,23.2629379 C65.7292749,24.1879046 67.0876379,25.2364387 68.3475179,26.3966981 C70.6406202,28.5371569 72.5872717,31.0208687 74.1178332,33.7589819 C74.5214269,34.4808563 75.2841784,34.9276856 76.1112149,34.9267295 C76.4995477,34.9278042 76.8815013,34.8279932 77.2196628,34.6370733 C78.3189423,34.023338 78.7129985,32.6349539 78.100035,31.5352438 C76.3410262,28.3861031 74.1026719,25.5298736 71.4653128,23.0690736 C69.8716801,21.6015654 68.1410318,20.2902137 66.2971173,19.1530137 C66.1431231,17.5429888 65.3764201,16.0536745 64.1554864,14.9929129 C59.7787136,10.6161401 52.3137958,8.48135147 44.1988622,9.29102022 C36.2162125,10.0801622 29.3055186,13.5012977 26.1603547,18.2179033 C22.8122033,23.2355688 26.203689,30.6731176 36.4853418,40.8977515 C34.5809206,43.9163234 33.9464159,47.5651353 34.7200359,51.0494011 C32.0725055,52.1213685 29.0936256,52.0143579 26.5298373,50.7551834 C26.3988965,49.8787654 26.337884,48.9933194 26.3473767,48.1072245 C26.3428973,46.1028694 26.6145811,44.1074533 27.1547647,42.1772562 C27.3369571,41.4976423 27.5601191,40.8296795 27.8230266,40.1770322 C28.2972762,39.0099875 27.7356549,37.6794555 26.5686102,37.2052058 C25.4015655,36.7309561 24.0710334,37.2925775 23.5967837,38.4596222 C23.2686501,39.2740449 22.989146,40.107226 22.7597459,40.9547704 C22.1091143,43.2799618 21.7814152,45.6835999 21.7858626,48.0981015 L21.7858626,48.3124926 C20.7110163,47.6813415 19.5821538,47.1470591 18.412623,46.7159627 C18.4714459,45.0111784 18.687514,43.3154636 19.0580772,41.6504013 C19.7574668,38.5368424 20.947689,35.5543585 22.5841276,32.8147485 C23.016776,32.1131732 23.0372255,31.2327479 22.6376166,30.5118418 C22.2380077,29.790936 21.480524,29.3417307 20.6562856,29.3368665 C19.8320473,29.3320026 19.0693147,29.7722368 18.6612255,30.4883763 C16.7819699,33.6367258 15.416173,37.0643061 14.6151625,40.6423067 C14.1355286,42.7762719 13.8734225,44.9533567 13.8328628,47.1401835 C12.5696683,48.0875835 11.701302,49.4685215 11.3947335,51.0174705 C9.80048433,57.0135808 11.7049165,64.5674481 16.4853832,71.2135742 Z M81.0718615,46.1913886 C82.9648898,50.0048144 82.4403157,56.3430382 79.7307763,62.3391485 C76.9254451,68.5542115 72.4620036,73.0153723 67.7841709,74.2675079 C67.3777299,74.3907837 66.9566059,74.4590534 66.5320352,74.4704953 L66.4202782,74.4704953 C66.0300096,73.0766916 65.8758281,71.6273872 65.9641267,70.182672 C65.886581,65.6211579 65.7565779,59.0069624 60.0045086,54.8035272 C61.4993564,52.1899571 62.0622721,49.1461908 61.6010385,46.1708618 C74.2181865,42.770253 79.9428867,43.8878239 81.0718615,46.1913886 L81.0718615,46.1913886 Z M57.2060197,48.1186283 C57.2060197,53.1571376 53.1215008,57.2416565 48.0829915,57.2416565 C43.0444821,57.2416565 38.9599632,53.1571376 38.9599632,48.1186283 C38.9599632,43.0801189 43.0444821,38.9956001 48.0829915,38.9956001 C53.1215008,38.9956001 57.2060197,43.0801189 57.2060197,48.1186283 Z M29.9555344,20.7495437 C32.325241,17.1961242 38.0932756,14.4797425 44.6481713,13.8297268 C51.4174583,13.1637457 57.5093603,14.80361 60.9304959,18.2224648 C61.269179,18.536403 61.5569551,18.9011246 61.7834991,19.3035437 C60.7707442,20.338622 59.5911026,21.1959825 58.2939408,21.8397455 C54.4417421,24.1478717 48.8402028,27.5233921 47.9871997,34.4500513 C44.8996337,34.4690954 41.9102482,35.5371351 39.5096257,37.4788966 C31.7003135,29.6444962 28.1423325,23.459083 29.9555344,20.7381399 L29.9555344,20.7495437 Z M36.4374459,55.2802054 C38.0243433,57.8580689 40.4185569,59.8393487 43.2477865,60.9159561 C39.9087582,73.505735 35.9949791,77.8893501 33.4861463,77.76847 C29.2393767,77.4970599 24.016443,73.8774984 20.1802097,68.5450884 C16.1866041,62.9960065 14.5467398,56.8812969 15.7920331,52.1943411 C15.8940501,51.7440011 16.0656465,51.312317 16.3006419,50.9148364 C17.7164735,51.2565107 19.0576773,51.8548345 20.2577554,52.6801424 C24.2103074,54.8742307 29.9737805,58.0581675 36.4374459,55.2688016 L36.4374459,55.2802054 Z" id="Shape" fill="#71B8C5"></path>
                    <circle id="Oval" fill="#333333" cx="38.9599632" cy="116.54134" r="2.28075705"></circle>
                    <circle id="Oval" fill="#333333" cx="48.0829915" cy="116.54134" r="2.28075705"></circle>
                    <circle id="Oval" fill="#333333" cx="57.2060197" cy="116.54134" r="2.28075705"></circle>
                </g>
                <g id="005-microwave" transform="translate(0.000000, 312.742223)">
                    <path d="M108.70339,0 L6.73383831,0 C3.0166002,0.00424100597 0.00424100597,3.0166002 0,6.73383831 L0,70.2243138 C0.00424100597,73.9415519 3.0166002,76.9539111 6.73383831,76.9581521 L7.69581521,76.9581521 L7.69581521,82.7300135 C7.69581521,83.7925838 8.55719866,84.6539673 9.61976901,84.6539673 L21.1634918,84.6539673 C22.2260622,84.6539673 23.0874456,83.7925838 23.0874456,82.7300135 L23.0874456,76.9581521 L92.3497825,76.9581521 L92.3497825,82.7300135 C92.3497825,83.7925838 93.2111659,84.6539673 94.2737363,84.6539673 L105.817459,84.6539673 C106.880029,84.6539673 107.741413,83.7925838 107.741413,82.7300135 L107.741413,76.9581521 L108.70339,76.9581521 C112.420628,76.9539111 115.432987,73.9415519 115.437228,70.2243138 L115.437228,6.73383831 C115.432987,3.0166002 112.420628,0.00424100597 108.70339,0 Z M19.239538,80.8060597 L11.5437228,80.8060597 L11.5437228,76.9581521 L19.239538,76.9581521 L19.239538,80.8060597 Z M103.893505,80.8060597 L96.1976901,80.8060597 L96.1976901,76.9581521 L103.893505,76.9581521 L103.893505,80.8060597 Z M111.58932,70.2243138 C111.587597,71.817455 110.296531,73.1085214 108.70339,73.1102445 L6.73383831,73.1102445 C5.14069707,73.1085214 3.84963071,71.817455 3.8479076,70.2243138 L3.8479076,6.73383831 C3.84963071,5.14069707 5.14069707,3.84963071 6.73383831,3.8479076 L108.70339,3.8479076 C110.296531,3.84963071 111.587597,5.14069707 111.58932,6.73383831 L111.58932,70.2243138 Z" id="Shape" fill="#333333"></path>
                    <path d="M78.8821059,7.69581521 L9.61976901,7.69581521 C8.55719866,7.69581521 7.69581521,8.55719866 7.69581521,9.61976901 L7.69581521,67.3383831 C7.69581521,68.4009534 8.55719866,69.2623369 9.61976901,69.2623369 L78.8821059,69.2623369 C79.9446762,69.2623369 80.8060597,68.4009534 80.8060597,67.3383831 L80.8060597,9.61976901 C80.8060597,8.55719866 79.9446762,7.69581521 78.8821059,7.69581521 Z M76.9581521,65.4144293 L11.5437228,65.4144293 L11.5437228,11.5437228 L76.9581521,11.5437228 L76.9581521,65.4144293 Z" id="Shape" fill="#333333"></path>
                    <path d="M105.817459,11.0627344 L86.5779211,11.0627344 C85.5153507,11.0627344 84.6539673,11.9241178 84.6539673,12.9866882 L84.6539673,24.530411 C84.6539673,25.5929813 85.5153507,26.4543648 86.5779211,26.4543648 L105.817459,26.4543648 C106.880029,26.4543648 107.741413,25.5929813 107.741413,24.530411 L107.741413,12.9866882 C107.741413,11.9241178 106.880029,11.0627344 105.817459,11.0627344 Z M103.893505,22.6064572 L88.5018749,22.6064572 L88.5018749,14.910642 L103.893505,14.910642 L103.893505,22.6064572 Z" id="Shape" fill="#333333"></path>
                    <circle id="Oval" fill="#333333" cx="88.5018749" cy="47.6178566" r="1.9239538"></circle>
                    <circle id="Oval" fill="#333333" cx="88.5018749" cy="39.9220414" r="1.9239538"></circle>
                    <circle id="Oval" fill="#333333" cx="88.5018749" cy="32.2262262" r="1.9239538"></circle>
                    <circle id="Oval" fill="#333333" cx="96.1976901" cy="47.6178566" r="1.9239538"></circle>
                    <circle id="Oval" fill="#333333" cx="96.1976901" cy="39.9220414" r="1.9239538"></circle>
                    <circle id="Oval" fill="#333333" cx="96.1976901" cy="32.2262262" r="1.9239538"></circle>
                    <circle id="Oval" fill="#333333" cx="103.893505" cy="47.6178566" r="1.9239538"></circle>
                    <circle id="Oval" fill="#333333" cx="103.893505" cy="39.9220414" r="1.9239538"></circle>
                    <circle id="Oval" fill="#333333" cx="103.893505" cy="32.2262262" r="1.9239538"></circle>
                    <path d="M96.1976901,53.389718 C91.8145874,53.389718 88.2613807,56.9429248 88.2613807,61.3260274 C88.2613807,65.7091301 91.8145874,69.2623369 96.1976901,69.2623369 C100.580793,69.2623369 104.134,65.7091301 104.134,61.3260274 C104.128963,56.9450125 100.578705,53.3947541 96.1976901,53.389718 Z M96.1976901,65.4144293 C94.3230872,65.4127785 92.6897813,64.1364513 92.2350162,62.3178455 C91.780251,60.4992396 92.6205557,58.6043551 94.2737363,57.720538 L94.2737363,59.4020736 C94.2737363,60.464644 95.1351197,61.3260274 96.1976901,61.3260274 C97.2602604,61.3260274 98.1216439,60.464644 98.1216439,59.4020736 L98.1216439,57.720538 C99.7748244,58.6043551 100.615129,60.4992396 100.160364,62.3178455 C99.7055988,64.1364513 98.0722929,65.4127785 96.1976901,65.4144293 Z" id="Shape" fill="#333333"></path>
                    <path d="M44.0104432,50.0227988 C44.0104432,51.0853692 44.8718267,51.9467526 45.934397,51.9467526 C46.9969674,51.9467526 47.8583508,51.0853692 47.8583508,50.0227988 C47.8583508,47.0113302 46.7318759,45.4024238 45.8271366,44.1095268 C45.0515427,43.0018104 44.4914317,42.2014457 44.4914317,40.4030298 C44.4914317,38.604614 45.0515427,37.8042492 45.8271366,36.6965328 C46.7318759,35.4036359 47.8583508,33.7947295 47.8583508,30.7832608 C47.8583508,29.7206905 46.9969674,28.859307 45.934397,28.859307 C44.8718267,28.859307 44.0104432,29.7206905 44.0104432,30.7832608 C44.0104432,32.5816766 43.4503322,33.3820414 42.6747383,34.4897578 C41.769999,35.7826548 40.6435241,37.3915611 40.6435241,40.4030298 C40.6435241,43.4144985 41.769999,45.0234049 42.6747383,46.3163018 C43.4503322,47.4240182 44.0104432,48.224383 44.0104432,50.0227988 Z" id="Path" fill="#71B8C5"></path>
                    <path d="M55.554166,50.0227988 C55.554166,51.0853692 56.4155495,51.9467526 57.4781198,51.9467526 C58.5406902,51.9467526 59.4020736,51.0853692 59.4020736,50.0227988 C59.4020736,47.0113302 58.2755987,45.4024238 57.3708594,44.1095268 C56.5952655,43.0018104 56.0351545,42.2014457 56.0351545,40.4030298 C56.0351545,38.604614 56.5952655,37.8042492 57.3708594,36.6965328 C58.2755987,35.4036359 59.4020736,33.7947295 59.4020736,30.7832608 C59.4020736,29.7206905 58.5406902,28.859307 57.4781198,28.859307 C56.4155495,28.859307 55.554166,29.7206905 55.554166,30.7832608 C55.554166,32.5816766 54.994055,33.3820414 54.2184611,34.4897578 C53.3137218,35.7826548 52.1872469,37.3915611 52.1872469,40.4030298 C52.1872469,43.4144985 53.3137218,45.0234049 54.2184611,46.3163018 C54.994055,47.4240182 55.554166,48.224383 55.554166,50.0227988 Z" id="Path" fill="#71B8C5"></path>
                    <path d="M32.4667204,50.0227988 C32.4667204,51.0853692 33.3281039,51.9467526 34.3906742,51.9467526 C35.4532445,51.9467526 36.314628,51.0853692 36.314628,50.0227988 C36.314628,47.0113302 35.1881531,45.4024238 34.2834138,44.1095268 C33.5078199,43.0018104 32.9477089,42.2014457 32.9477089,40.4030298 C32.9477089,38.604614 33.5078199,37.8042492 34.2834138,36.6965328 C35.1881531,35.4036359 36.314628,33.7947295 36.314628,30.7832608 C36.314628,29.7206905 35.4532445,28.859307 34.3906742,28.859307 C33.3281039,28.859307 32.4667204,29.7206905 32.4667204,30.7832608 C32.4667204,32.5816766 31.9066094,33.3820414 31.1310155,34.4897578 C30.2262762,35.7826548 29.0998013,37.3915611 29.0998013,40.4030298 C29.0998013,43.4144985 30.2262762,45.0234049 31.1310155,46.3163018 C31.9066094,47.4240182 32.4667204,48.224383 32.4667204,50.0227988 Z" id="Path" fill="#71B8C5"></path>
                </g>
                <g id="006-dryer" transform="translate(338.960717, 237.500000)">
                    <path d="M30.7359676,61.4904156 C13.7604256,61.4904156 -0.000970200998,47.7286701 -0.000970200998,30.753128 C-0.000970200998,13.777586 13.7604256,0.0161902292 30.7359676,0.0161902292 L32.3659053,0.0588790731 L105.057245,2.26899695 C108.251264,2.35232712 110.793239,4.97274288 110.779546,8.16781901 L110.779546,30.7715619 C110.767329,33.9948438 108.181086,36.6172941 104.958284,36.6742647 L60.7908541,37.2816106 C57.7720339,51.4517944 45.2239848,61.5589324 30.7359676,61.4904156 Z M30.6835768,3.89699422 C16.419642,3.93586435 4.67434723,15.1183685 3.93569436,29.3632179 C3.19704148,43.6080674 13.7227373,55.9454122 27.9061505,57.459392 C42.0895637,58.9733718 54.9822785,49.135778 57.2670841,35.0559695 C57.4160718,34.1243064 58.2136205,33.4348445 59.1570356,33.422151 L104.911715,32.7915203 C106.015228,32.7714797 106.900469,31.8733098 106.904526,30.7696215 L106.904526,8.16781901 C106.909099,7.07364243 106.038517,6.17633984 104.944702,6.14786054 L30.6835768,3.89699422 Z" id="Shape" fill="#333333"></path>
                    <path d="M96.9444241,36.7829272 C95.8727697,36.7829272 95.0040221,35.9141797 95.0040221,34.8425252 L95.0040221,3.96296789 C95.0040221,2.89131346 95.8727697,2.02256589 96.9444241,2.02256589 C98.0160785,2.02256589 98.8848261,2.89131346 98.8848261,3.96296789 L98.8848261,34.8425252 C98.8848261,35.9141797 98.0160785,36.7829272 96.9444241,36.7829272 Z" id="Path" fill="#333333"></path>
                    <path d="M125.582817,9.76865066 L115.453919,9.76865066 C114.382264,9.76865066 113.513517,8.89990309 113.513517,7.82824866 C113.513517,6.75659423 114.382264,5.88784667 115.453919,5.88784667 L125.582817,5.88784667 C126.654472,5.88784667 127.523219,6.75659423 127.523219,7.82824866 C127.523219,8.89990309 126.654472,9.76865066 125.582817,9.76865066 Z" id="Path" fill="#333333"></path>
                    <path d="M125.582817,27.026586 L115.453919,27.026586 C114.382264,27.026586 113.513517,26.1578384 113.513517,25.086184 C113.513517,24.0145296 114.382264,23.145782 115.453919,23.145782 L125.582817,23.145782 C126.654472,23.145782 127.523219,24.0145296 127.523219,25.086184 C127.523219,26.1578384 126.654472,27.026586 125.582817,27.026586 Z" id="Path" fill="#333333"></path>
                    <path d="M133.887738,18.3898567 L115.453919,18.3898567 C114.382264,18.3898567 113.513517,17.5211092 113.513517,16.4494547 C113.513517,15.3778003 114.382264,14.5090527 115.453919,14.5090527 L133.887738,14.5090527 C134.959392,14.5090527 135.82814,15.3778003 135.82814,16.4494547 C135.82814,17.5211092 134.959392,18.3898567 133.887738,18.3898567 Z" id="Path" fill="#333333"></path>
                    <path d="M30.7107424,49.6303289 C20.2856881,49.6303289 11.8345118,41.1791525 11.8345118,30.7540982 C11.8345118,20.3290439 20.2856881,11.8778676 30.7107424,11.8778676 C41.1357967,11.8778676 49.586973,20.3290439 49.586973,30.7540982 C49.5688156,41.1716222 41.1282664,49.6121714 30.7107424,49.6303289 L30.7107424,49.6303289 Z M30.7107424,15.7586716 C22.4289969,15.7586716 15.7153158,22.4723528 15.7153158,30.7540982 C15.7153158,39.0358437 22.4289969,45.7495249 30.7107424,45.7495249 C38.9924878,45.7495249 45.706169,39.0358437 45.706169,30.7540982 C45.6912177,22.4785538 38.9862869,15.773623 30.7107424,15.7586716 L30.7107424,15.7586716 Z" id="Shape" fill="#71B8C5"></path>
                    <path d="M44.7747761,23.2563849 L16.6234239,23.2563849 C15.5517695,23.2563849 14.6830219,22.3876374 14.6830219,21.3159829 C14.6830219,20.2443285 15.5517695,19.3755809 16.6234239,19.3755809 L44.7747761,19.3755809 C45.8464305,19.3755809 46.715178,20.2443285 46.715178,21.3159829 C46.715178,22.3876374 45.8464305,23.2563849 44.7747761,23.2563849 Z" id="Path" fill="#71B8C5"></path>
                    <path d="M44.7747761,42.1326155 L16.6234239,42.1326155 C15.5517695,42.1326155 14.6830219,41.263868 14.6830219,40.1922135 C14.6830219,39.1205591 15.5517695,38.2518116 16.6234239,38.2518116 L44.7747761,38.2518116 C45.8464305,38.2518116 46.715178,39.1205591 46.715178,40.1922135 C46.715178,41.263868 45.8464305,42.1326155 44.7747761,42.1326155 Z" id="Path" fill="#71B8C5"></path>
                    <path d="M47.6407498,32.6945002 L13.7574501,32.6945002 C12.6857957,32.6945002 11.8170482,31.8257527 11.8170482,30.7540982 C11.8170482,29.6824438 12.6857957,28.8136962 13.7574501,28.8136962 L47.6407498,28.8136962 C48.7124042,28.8136962 49.5811518,29.6824438 49.5811518,30.7540982 C49.5811518,31.8257527 48.7124042,32.6945002 47.6407498,32.6945002 Z" id="Path" fill="#71B8C5"></path>
                    <path d="M38.1444224,116.18612 C37.5579186,116.18612 36.9728526,116.128105 36.3980606,116.011481 L28.8712413,114.478564 C25.1729178,113.729097 22.4606773,110.55668 22.2952189,106.78681 L20.1277899,58.3039258 C20.0795655,57.2322713 20.9092194,56.3244301 21.9808738,56.2762057 C23.0525282,56.2279812 23.9603694,57.0576352 24.0085939,58.1292896 L26.1837845,106.602472 C26.2709127,108.594531 27.7045819,110.270747 29.6590445,110.665674 L37.1839234,112.198591 C38.5913695,112.485157 40.0531013,112.124331 41.1655245,111.215739 C42.2779477,110.307147 42.9233872,108.946903 42.9236325,107.51058 L42.9236325,55.8531981 C42.9236325,54.7815436 43.7923801,53.9127961 44.8640345,53.9127961 C45.935689,53.9127961 46.8044365,54.7815436 46.8044365,55.8531981 L46.8044365,107.51058 C46.8033721,112.291603 42.9312613,116.168923 38.1502436,116.176415 L38.1444224,116.18612 Z" id="Path" fill="#333333"></path>
                    <path d="M25.8422738,136.888266 C25.0994277,136.888266 24.4218509,136.463911 24.0972604,135.795733 C23.7726698,135.127556 23.8580389,134.332705 24.3171178,133.748696 L26.2672218,131.268862 C29.6625947,126.937398 31.5115771,121.594679 31.51989,116.091038 L31.51989,113.422985 C31.51989,112.35133 32.3886376,111.482583 33.460292,111.482583 C34.5319464,111.482583 35.400694,112.35133 35.400694,113.422985 L35.400694,116.089097 C35.3914182,122.463134 33.2500638,128.650862 29.3175338,133.667199 L27.3596681,136.147033 C26.9935472,136.612798 26.4347057,136.885787 25.8422738,136.888266 L25.8422738,136.888266 Z" id="Path" fill="#333333"></path>
                    <path d="M48.6730437,82.1669895 L44.8543325,82.1669895 C43.7826781,82.1669895 42.9139305,81.298242 42.9139305,80.2265875 C42.9139305,79.1549331 43.7826781,78.2861855 44.8543325,78.2861855 L48.6749841,78.2861855 C48.910748,78.2861855 49.1018725,78.0950611 49.1018725,77.8592971 L49.1018725,73.6466844 C49.1018725,73.4109204 48.910748,73.2197959 48.6749841,73.2197959 L44.8543325,73.2197959 C43.7826781,73.2197959 42.9139305,72.3510484 42.9139305,71.2793939 C42.9139305,70.2077395 43.7826781,69.3389919 44.8543325,69.3389919 L48.6749841,69.3389919 C51.0531701,69.3411315 52.9805369,71.2684983 52.9826765,73.6466844 L52.9826765,77.8612375 C52.9794659,80.2394226 51.0512307,82.1659214 48.6730437,82.1669895 Z" id="Path" fill="#333333"></path>
                </g>
            </g>
        </g>
    </g>
</svg>