<?xml version="1.0" encoding="UTF-8"?>
<svg xmlns="http://www.w3.org/2000/svg" xmlns:xlink="http://www.w3.org/1999/xlink" width="140pt" height="140pt" viewBox="0 0 140 140" version="1.1">
<g id="surface1">
<path style=" stroke:none;fill-rule:nonzero;fill:rgb(20%,20%,20%);fill-opacity:1;" d="M 82.09375 89.109375 L 60.773438 83.398438 L 60.773438 71.796875 C 67.824219 67.851562 72.703125 60.449219 73.121094 51.886719 L 73.847656 51.886719 C 78.003906 51.886719 81.390625 48.488281 81.390625 44.3125 L 81.390625 42.101562 C 81.390625 40.167969 80.664062 38.402344 79.472656 37.0625 C 79.820312 36.523438 80.023438 35.882812 80.023438 35.195312 L 80.023438 29.671875 C 80.023438 27.777344 78.492188 26.238281 76.609375 26.238281 L 75.898438 26.238281 L 75.898438 16.167969 C 75.898438 9.980469 71.699219 4.722656 65.6875 3.378906 L 51.9375 0.308594 C 50.085938 -0.101562 48.128906 -0.101562 46.277344 0.308594 L 32.527344 3.378906 C 26.511719 4.722656 22.3125 9.980469 22.3125 16.167969 L 22.3125 26.238281 L 21.605469 26.238281 C 19.722656 26.238281 18.1875 27.777344 18.1875 29.671875 L 18.1875 35.195312 C 18.1875 35.882812 18.394531 36.523438 18.742188 37.0625 C 17.550781 38.402344 16.824219 40.167969 16.824219 42.101562 L 16.824219 44.308594 C 16.824219 48.488281 20.207031 51.886719 24.367188 51.886719 L 25.09375 51.886719 C 25.511719 60.449219 30.390625 67.851562 37.4375 71.796875 L 37.4375 83.398438 L 16.117188 89.109375 C 6.8125 91.601562 0.3125 100.101562 0.3125 109.773438 L 0.3125 119.265625 C 0.3125 120.398438 1.226562 121.316406 2.355469 121.316406 C 3.480469 121.316406 4.394531 120.398438 4.394531 119.265625 L 4.394531 109.773438 C 4.394531 101.957031 9.648438 95.089844 17.171875 93.074219 L 17.375 93.019531 L 17.375 135.898438 L 4.394531 135.898438 L 4.394531 128.847656 C 4.394531 127.714844 3.480469 126.796875 2.355469 126.796875 C 1.226562 126.796875 0.3125 127.714844 0.3125 128.847656 L 0.3125 137.949219 C 0.3125 139.082031 1.226562 140 2.355469 140 L 95.859375 140 C 96.988281 140 97.902344 139.082031 97.902344 137.949219 L 97.902344 128.847656 C 97.902344 127.714844 96.988281 126.796875 95.859375 126.796875 C 94.730469 126.796875 93.816406 127.714844 93.816406 128.847656 L 93.816406 135.898438 L 80.839844 135.898438 L 80.839844 93.019531 L 81.042969 93.074219 C 88.5625 95.089844 93.816406 101.957031 93.816406 109.773438 L 93.816406 119.265625 C 93.816406 120.398438 94.730469 121.316406 95.859375 121.316406 C 96.988281 121.316406 97.902344 120.398438 97.902344 119.265625 L 97.902344 109.773438 C 97.902344 100.101562 91.402344 91.601562 82.09375 89.109375 Z M 29.886719 89.667969 L 33.597656 88.675781 L 36.375 103.792969 C 36.503906 104.507812 37 105.097656 37.679688 105.347656 C 37.90625 105.433594 38.144531 105.472656 38.378906 105.472656 C 38.847656 105.472656 39.304688 105.3125 39.675781 105.007812 L 49.105469 97.234375 L 58.535156 105.007812 C 58.90625 105.3125 59.367188 105.472656 59.832031 105.472656 C 60.066406 105.472656 60.304688 105.433594 60.535156 105.347656 C 61.210938 105.097656 61.707031 104.507812 61.839844 103.792969 L 64.617188 88.675781 L 68.324219 89.667969 L 68.324219 114.90625 L 29.886719 114.90625 Z M 38.875 87.261719 L 46.0625 94.4375 L 39.761719 99.632812 L 37.554688 87.613281 Z M 59.339844 87.261719 L 60.660156 87.613281 L 58.453125 99.632812 L 52.148438 94.4375 Z M 77.304688 44.3125 C 77.304688 46.226562 75.753906 47.785156 73.847656 47.785156 L 73.148438 47.785156 L 73.148438 38.628906 L 73.847656 38.628906 C 75.753906 38.628906 77.304688 40.183594 77.304688 42.101562 Z M 26.398438 16.167969 C 26.398438 11.917969 29.28125 8.304688 33.414062 7.382812 L 47.164062 4.3125 C 48.433594 4.03125 49.777344 4.03125 51.050781 4.3125 L 64.800781 7.382812 C 68.929688 8.304688 71.816406 11.917969 71.816406 16.167969 L 71.816406 26.238281 L 67.289062 26.238281 L 67.289062 19.796875 C 67.289062 15.472656 64.367188 11.738281 60.179688 10.71875 L 51.511719 8.609375 C 49.9375 8.226562 48.273438 8.226562 46.703125 8.609375 L 38.03125 10.71875 C 33.847656 11.738281 30.921875 15.472656 30.921875 19.796875 L 30.921875 26.238281 L 26.398438 26.238281 Z M 35.007812 26.238281 L 35.007812 19.796875 C 35.007812 17.371094 36.648438 15.277344 38.996094 14.707031 L 47.664062 12.597656 C 48.609375 12.367188 49.605469 12.367188 50.550781 12.597656 L 59.21875 14.707031 C 61.566406 15.277344 63.207031 17.371094 63.207031 19.796875 L 63.207031 26.238281 Z M 22.273438 30.339844 L 75.941406 30.339844 L 75.941406 34.527344 L 22.273438 34.527344 Z M 20.90625 44.3125 L 20.90625 42.101562 C 20.90625 40.183594 22.460938 38.628906 24.367188 38.628906 L 25.0625 38.628906 L 25.0625 47.785156 L 24.367188 47.785156 C 22.460938 47.785156 20.90625 46.226562 20.90625 44.3125 Z M 29.148438 50.6875 L 29.148438 38.628906 L 69.066406 38.628906 L 69.066406 50.6875 C 69.066406 61.742188 60.113281 70.734375 49.105469 70.734375 C 38.101562 70.734375 29.148438 61.742188 29.148438 50.6875 Z M 49.105469 74.835938 C 51.753906 74.835938 54.304688 74.402344 56.691406 73.605469 L 56.691406 84.121094 L 49.105469 91.691406 L 41.523438 84.121094 L 41.523438 73.605469 C 43.910156 74.402344 46.457031 74.835938 49.105469 74.835938 Z M 66.039062 135.898438 L 32.171875 135.898438 L 32.171875 127.292969 L 66.039062 127.292969 Z M 76.753906 135.898438 L 70.125 135.898438 L 70.125 125.242188 C 70.125 124.109375 69.210938 123.191406 68.082031 123.191406 L 30.128906 123.191406 C 29.003906 123.191406 28.089844 124.109375 28.089844 125.242188 L 28.089844 135.898438 L 21.457031 135.898438 L 21.457031 91.925781 L 25.804688 90.761719 L 25.804688 116.957031 C 25.804688 118.089844 26.71875 119.007812 27.847656 119.007812 L 70.367188 119.007812 C 71.496094 119.007812 72.410156 118.089844 72.410156 116.957031 L 72.410156 90.761719 L 76.753906 91.925781 Z M 76.753906 135.898438 "/>
<path style=" stroke:none;fill-rule:nonzero;fill:rgb(20%,20%,20%);fill-opacity:1;" d="M 131.699219 14.363281 L 129.203125 14.363281 C 128.078125 14.363281 127.164062 15.28125 127.164062 16.414062 C 127.164062 17.546875 128.078125 18.464844 129.203125 18.464844 L 131.699219 18.464844 C 133.851562 18.464844 135.605469 20.222656 135.605469 22.386719 L 135.605469 61.8125 C 135.605469 63.972656 133.851562 65.734375 131.699219 65.734375 L 109.335938 65.734375 C 108.875 65.734375 108.429688 65.890625 108.066406 66.175781 L 100.109375 72.507812 L 100.109375 67.785156 C 100.109375 66.652344 99.195312 65.734375 98.066406 65.734375 L 93.539062 65.734375 C 91.386719 65.734375 89.636719 63.972656 89.636719 61.8125 L 89.636719 22.386719 C 89.636719 20.222656 91.386719 18.464844 93.539062 18.464844 L 119.664062 18.464844 C 120.792969 18.464844 121.707031 17.546875 121.707031 16.414062 C 121.707031 15.28125 120.792969 14.363281 119.664062 14.363281 L 93.539062 14.363281 C 89.136719 14.363281 85.550781 17.960938 85.550781 22.386719 L 85.550781 61.8125 C 85.550781 66.234375 89.136719 69.835938 93.539062 69.835938 L 96.023438 69.835938 L 96.023438 76.746094 C 96.023438 77.53125 96.472656 78.25 97.175781 78.589844 C 97.460938 78.730469 97.761719 78.796875 98.066406 78.796875 C 98.515625 78.796875 98.964844 78.644531 99.332031 78.351562 L 110.046875 69.835938 L 131.699219 69.835938 C 136.105469 69.835938 139.6875 66.234375 139.6875 61.8125 L 139.6875 22.386719 C 139.6875 17.960938 136.101562 14.363281 131.699219 14.363281 Z M 131.699219 14.363281 "/>
<path style=" stroke:none;fill-rule:nonzero;fill:rgb(61.176471%,47.843137%,59.215686%);fill-opacity:1;" d="M 104.804688 61.566406 L 120.433594 61.566406 C 121.5625 61.566406 122.476562 60.648438 122.476562 59.515625 L 122.476562 51 L 127.941406 46.496094 C 128.414062 46.109375 128.6875 45.527344 128.6875 44.910156 L 128.6875 29.832031 C 128.6875 29.113281 128.308594 28.445312 127.691406 28.074219 L 119.320312 23.042969 C 118.6875 22.664062 117.902344 22.65625 117.261719 23.019531 C 116.625 23.382812 116.230469 24.0625 116.230469 24.800781 L 116.230469 36.070312 L 112.621094 38.945312 L 109.007812 36.070312 L 109.007812 24.800781 C 109.007812 24.0625 108.613281 23.382812 107.976562 23.019531 C 107.335938 22.65625 106.550781 22.664062 105.917969 23.042969 L 97.546875 28.074219 C 96.929688 28.445312 96.550781 29.113281 96.550781 29.832031 L 96.550781 44.910156 C 96.550781 45.527344 96.824219 46.109375 97.296875 46.496094 L 102.761719 51 L 102.761719 59.511719 C 102.761719 60.648438 103.675781 61.566406 104.804688 61.566406 Z M 100.636719 43.941406 L 100.636719 30.996094 L 104.925781 28.417969 L 104.925781 37.0625 C 104.925781 37.6875 105.210938 38.28125 105.699219 38.671875 L 111.351562 43.167969 C 112.09375 43.761719 113.144531 43.761719 113.886719 43.167969 L 119.539062 38.671875 C 120.027344 38.28125 120.3125 37.6875 120.3125 37.0625 L 120.3125 28.417969 L 124.601562 30.996094 L 124.601562 43.941406 L 119.136719 48.445312 C 118.664062 48.835938 118.390625 49.417969 118.390625 50.03125 L 118.390625 57.464844 L 106.847656 57.464844 L 106.847656 50.03125 C 106.847656 49.417969 106.574219 48.835938 106.101562 48.445312 Z M 100.636719 43.941406 "/>
</g>
</svg>
